<svg xmlns="http://www.w3.org/2000/svg" width="514" height="88" viewBox="0 0 514 88">
  <g fill="none">
    <g fill="#fff" transform="translate(168 68)">
      <path d="M4.91675456 14.85C4.91675456 15.375 4.91675456 15.8625 4.91675456 16.29375 4.91675456 16.725 4.91675456 17.11875 4.91675456 17.475 4.91675456 17.69375 5.07918864 17.84375 5.37906694 17.925L6.87845842 18.3875 6.87845842 18.95625C5.74141988 18.95625 4.64186613 18.91875 3.59229209 18.91875 2.54271805 18.91875 1.42442191 18.91875.306125761 18.95625L.24989858 18.3875 1.88048682 17.9C2.08200769 17.8644807 2.23079937 17.6921257 2.23659229 17.4875 2.23659229 17.13125 2.23659229 16.7375 2.23659229 16.3 2.23659229 15.8625 2.23659229 15.375 2.23659229 14.85L2.23659229 4.0875C2.23659229 3.6375 2.23659229 3.23125 2.23659229 2.8375 2.23659229 2.44375 2.23659229 2.15 2.23659229 1.85625 2.24850559 1.65217626 2.11952231 1.46636497 1.92421907 1.40625L.274888438.8875.274888438.31875C1.41817444.35625 2.51148073.375 3.56105477.375 4.6106288.375 5.72267748.375 6.85346856.31875L6.90344828.8875 5.26036511 1.38125C5.06118336 1.41752523 4.91650262 1.59121258 4.91675456 1.79375 4.91675456 2.10208333 4.91675456 2.43958333 4.91675456 2.80625 4.91675456 3.175 4.91675456 3.575 4.91675456 4.00625L4.91675456 14.85zM23.8840568 5L23.3530223 5.075 22.3846653 1.5875C21.4116798 1.330591 20.4108469 1.19415381 19.4046247 1.18125 17.4422932 1.09068383 15.5516583 1.92873474 14.3004462 3.44375 12.9998564 5.12541115 12.3359364 7.21317983 12.4262069 9.3375 12.4262069 11.9166667 13.1321704 13.975 14.5440974 15.5125 15.9560243 17.05 17.9156457 17.8208333 20.4229615 17.825 21.9366854 17.8056924 23.4363023 17.5310033 24.8586613 17.0125L25.0086004 17.6375C23.2686136 18.8106829 21.2088475 19.4175128 19.1109939 19.375 16.5438019 19.4863465 14.0427853 18.5424393 12.1888032 16.7625 10.3889864 14.9388004 9.42924339 12.4478907 9.5398783 9.8875 9.5398783 6.85833333 10.5103178 4.45833333 12.4511968 2.6875 14.3920757.916666667 16.9181339.03125 20.0293712.03125 21.5736332.0371305405 23.1121636.219564425 24.6150101.575L24.7087221.68125 23.8840568 5zM34.2673428 18.91875C33.180284 18.91875 31.9807708 18.91875 30.6625558 18.95625L30.6063286 18.3875 32.5680325 17.80625C32.7683648 17.7703388 32.9150952 17.5973365 32.9178905 17.39375 32.9178905 16.71875 32.9178905 15.8625 32.9178905 14.81875L32.9178905 1.5875 28.2385396 1.5875 27.0577688 5.1125 26.5267343 5.20625 26.1831237.45625 26.2768357.35C28.4509533.3875 30.5334415.40625 32.5243002.40625L36.0666126.40625C38.0491413.40625 40.1316295.3875 42.3140771.35L42.3952941.45625 41.5643813 5.1125 41.0333469 5.20625 40.1836917 1.5875 35.5043408 1.5875 35.5043408 14.81875C35.5043408 15.8625 35.5043408 16.69375 35.5043408 17.39375 35.5040888 17.5962874 35.6487696 17.7699748 35.8479513 17.80625L37.8096552 18.3875 37.8096552 18.95625C36.4976876 18.93125 35.3169168 18.91875 34.2673428 18.91875zM59.3509128 1.55625C58.5269488 1.26740743 57.6623621 1.11129674 56.7894523 1.09375 55.7896849 1.04078957 54.8032042 1.3417219 54.0030832 1.94375 53.2999399 2.51803214 52.9124442 3.39315295 52.9597566 4.3 52.9467035 4.82714414 53.0716167 5.3485454 53.3221095 5.8125 53.5713575 6.2541042 53.9045677 6.64265338 54.3029615 6.95625 54.7377943 7.29575022 55.2068039 7.58900019 55.7023935 7.83125 56.2271805 8.0875 56.7644625 8.3375 57.3204868 8.5875 57.8765112 8.8375 58.5262475 9.13125 59.1010142 9.43125 59.6572728 9.71683106 60.1791809 10.064911 60.6566329 10.46875 61.1197728 10.8661473 61.4980025 11.3529436 61.7686815 11.9 62.0594913 12.508046 62.2028977 13.1761201 62.1872617 13.85 62.2618185 15.4658088 61.4779542 17.0009053 60.1255984 17.8875 58.5264312 18.8746774 56.6675396 19.3580983 54.7902637 19.275 53.2096547 19.2490155 51.6398151 19.0093443 50.1234077 18.5625L50.0421907 18.45625 50.6669371 13.94375 51.2916836 13.85 52.2163083 17.6C53.1317718 17.9685507 54.1095807 18.1574017 55.0963895 18.15625 56.192645 18.2234491 57.2790519 17.9148108 58.1763895 17.28125 58.9268566 16.6754126 59.3386985 15.7443187 59.2821907 14.78125 59.2927795 14.2610986 59.1701921 13.7468834 58.9260852 13.2875 58.6826428 12.8580345 58.355472 12.4818479 57.9639757 12.18125 57.5356066 11.8558784 57.0750569 11.5752479 56.5895335 11.34375 56.0772414 11.0875 55.5524544 10.8375 55.0026775 10.59375 54.4529006 10.35 53.7844219 10.0375 53.1971602 9.73125 52.630801 9.43230857 52.1004841 9.06953362 51.6165517 8.65 51.1363073 8.23062427 50.7490093 7.71543671 50.4795132 7.1375 50.1854068 6.48163518 50.040316 5.76869381 50.0546856 5.05 50.0031485 3.53756216 50.7725282 2.11530537 52.0663692 1.33125 53.5663111.40974383 55.3053642-.0469428575 57.0643408.01875 58.5354605.0277138558 60.0014524.193228655 61.4375659.5125L61.5312779.60625 60.7503448 4.74375 60.2193103 4.8375 59.3509128 1.55625z"/>
      <g transform="translate(62.475)">
        <path d="M8.29663286 18.91875C7.20957404 18.91875 6.01006085 18.91875 4.69184584 18.95625L4.63561866 18.3875 6.59732252 17.80625C6.7976549 17.7703388 6.94438522 17.5973365 6.94718053 17.39375 6.94718053 16.71875 6.94718053 15.8625 6.94718053 14.81875L6.94718053 1.5875 2.26782961 1.5875 1.08705882 5.1125.556024341 5.20625.212413793.45625.306125761.35C2.48024341.3875 4.56273158.40625 6.55359026.40625L10.0959026.40625C12.0763489.40625 14.163002.40625 16.3433671.35L16.4183367.45625 15.6186613 5.1125 15.0876268 5.20625 14.2379716 1.5875 9.55862069 1.5875 9.55862069 14.81875C9.55862069 15.8625 9.55862069 16.69375 9.55862069 17.39375 9.55836875 17.5962874 9.70304949 17.7699748 9.90223124 17.80625L11.8639351 18.3875 11.8639351 18.95625C10.5353076 18.93125 9.3462069 18.91875 8.29663286 18.91875zM17.430426.35C18.573712.3875 19.6670183.40625 20.7165923.40625 21.7661663.40625 22.878215.40625 24.0090061.35L24.0589858.91875 22.4159026 1.4125C22.2167209 1.44877523 22.0720401 1.62246258 22.0722921 1.825 22.0722921 2.13333333 22.0722921 2.47083333 22.0722921 2.8375 22.0722921 3.20625 22.0722921 3.60625 22.0722921 4.0375L22.0722921 11.29375C22.0722921 13.8229167 22.4742123 15.575 23.2780527 16.55 24.0777282 17.525 25.3772008 18.01875 27.1639757 18.01875 28.9507505 18.01875 30.2877079 17.5125 31.0998783 16.50625 31.9120487 15.5 32.3181339 13.8125 32.3181339 11.45L32.3181339 4.0375C32.3181339 3.60625 32.3181339 3.20625 32.3181339 2.8375 32.3181339 2.46875 32.3181339 2.13125 32.2868966 1.825 32.2794121 1.62320344 32.1348421 1.45274822 31.9370385 1.4125L30.3876673.9625 30.3876673.3375C31.512211.375 32.4743205.39375 33.2802434.39375 34.0861663.39375 34.9858012.39375 36.085355.3375L36.1415822.90625 34.4735091 1.425C34.2757194 1.48276196 34.1437312 1.66917386 34.1548884 1.875 34.1548884 2.16875 34.1548884 2.5 34.1548884 2.85625 34.1548884 3.2125 34.1548884 3.625 34.1548884 4.10625L34.1548884 10.9125C34.1548884 13.8291667 33.5655443 15.9729167 32.386856 17.34375 31.2060852 18.7375 29.3505882 19.425 26.8141176 19.425 24.2776471 19.425 22.4971197 18.8 21.3101014 17.55 20.1230832 16.3 19.5358215 14.35625 19.5358215 11.725L19.5358215 4.0875C19.5358215 3.6375 19.5358215 3.23125 19.5358215 2.8375 19.5358215 2.44375 19.5358215 2.15 19.5358215 1.85625 19.5477348 1.65217626 19.4187515 1.46636497 19.2234483 1.40625L17.5741176.8875 17.430426.35zM41.4269371 18.91875C40.3586207 18.91875 39.2590669 18.91875 38.1407708 18.95625L38.0845436 18.3875 39.7151318 17.9C39.9155005 17.8607094 40.0642825 17.6913369 40.0774848 17.4875 40.0774848 17.13125 40.0774848 16.7375 40.0774848 16.3 40.0774848 15.8625 40.0774848 15.375 40.0774848 14.85L40.0774848 4.0875C40.0774848 3.6375 40.0774848 3.23125 40.0774848 2.8375 40.0774848 2.44375 40.0774848 2.15 40.0774848 1.85625 40.0841578 1.65174517 39.95392 1.46780549 39.7588641 1.40625L38.1157809.8875 38.1157809.31875C39.2590669.35625 40.3648682.375 41.4456795.375 42.326572.375 43.1824746.375 44.0008925.30625 44.8193103.2375 45.6627181.2375 46.5311156.2375 49.6215281.2375 51.9435024.94375 53.4970385 2.35625 55.0505747 3.76875 55.8273428 5.8625 55.8273428 8.6375 55.8273428 11.9083333 54.9651927 14.4479167 53.2408925 16.25625 51.5165923 18.0645833 49.0946586 18.96875 45.9750913 18.96875 45.1191886 18.96875 44.356998 18.96875 43.6822718 18.925 43.0075456 18.88125 42.2391075 18.91875 41.4269371 18.91875zM42.67643 17.7375C43.1949696 17.80625 43.7072617 17.85625 44.2070588 17.875 44.706856 17.89375 45.2066531 17.9125 45.7126978 17.9125 48.043002 17.9125 49.8235294 17.225 51.041785 15.85 52.2600406 14.475 52.8722921 12.36875 52.8722921 9.53125 52.8722921 6.69375 52.2912779 4.725 51.135497 3.39375 49.979716 2.0625 48.1429615 1.4 45.6314807 1.4 45.231643 1.4 44.7943205 1.4 44.3132657 1.4 43.832211 1.4 43.2824341 1.45 42.67643 1.49375L42.67643 17.7375zM63.0993915 14.85C63.0993915 15.375 63.0993915 15.8625 63.0993915 16.29375 63.0993915 16.725 63.0993915 17.11875 63.0993915 17.475 63.0993915 17.69375 63.2618256 17.84375 63.5617039 17.925L65.0610953 18.3875 65.0610953 18.95625C63.9240568 18.95625 62.824503 18.91875 61.774929 18.91875 60.725355 18.91875 59.6070588 18.91875 58.4887627 18.95625L58.4325355 18.3875 60.0631237 17.9C60.2633987 17.8623003 60.4110987 17.6912099 60.4192292 17.4875 60.4192292 17.13125 60.4192292 16.7375 60.4192292 16.3 60.4192292 15.8625 60.4192292 15.375 60.4192292 14.85L60.4192292 4.0875C60.4192292 3.6375 60.4192292 3.23125 60.4192292 2.8375 60.4192292 2.44375 60.4192292 2.15 60.4192292 1.85625 60.4303865 1.65042386 60.2983983 1.46401196 60.1006085 1.40625L58.4575254.8875 58.4575254.31875C59.6008114.35625 60.6941176.375 61.7436917.375 62.7932657.375 63.9053144.375 65.0361055.31875L65.0860852.8875 63.443002 1.38125C63.2438203 1.41752523 63.0991395 1.59121258 63.0993915 1.79375 63.0993915 2.10208333 63.0993915 2.43958333 63.0993915 2.80625 63.0993915 3.175 63.0993915 3.575 63.0993915 4.00625L63.0993915 14.85z"/>
      </g>
      <path d="M133.458337,0.40625 L136.682028,0.40625 C138.660392,0.40625 140.74288,0.3875 142.929493,0.35 L143.01071,0.45625 L142.236024,4.55625 L141.711237,4.65 L140.886572,1.5875 L134.764057,1.5875 L134.764057,8.88125 L135.969817,8.88125 C136.888195,8.88125 137.912779,8.88125 139.04357,8.88125 C139.255815,8.88723533 139.443339,8.74392969 139.493387,8.5375 L139.9557,6.75 L140.674158,6.75 C140.674158,8 140.636673,8.9 140.636673,9.49375 C140.636673,10.0875 140.636673,10.96875 140.674158,12.2 L139.9557,12.25 L139.480892,10.43125 C139.443208,10.2308937 139.272187,10.0831338 139.06856,10.075 C137.919026,10.075 136.881947,10.075 135.944828,10.075 L134.751562,10.075 L134.751562,14.9 C134.751562,15.88125 134.751562,16.85 134.751562,17.80625 L141.192698,17.80625 L142.810791,14.4375 L143.435538,14.33125 L143.141907,18.95 L143.048195,19.0375 C140.761623,19.0125 138.64998,19 136.713266,19 L133.558296,19 C132.48998,19 131.390426,19 130.27213,19.0375 L130.215903,18.46875 L131.846491,17.98125 C132.048012,17.9457307 132.196803,17.7733757 132.202596,17.56875 C132.202596,17.2125 132.202596,16.81875 132.202596,16.38125 C132.202596,15.94375 132.202596,15.45625 132.202596,14.93125 L132.202596,4.0875 C132.202596,3.6375 132.202596,3.23125 132.202596,2.8375 C132.202596,2.44375 132.202596,2.15 132.202596,1.85625 C132.21451,1.65217626 132.085526,1.46636497 131.890223,1.40625 L130.240892,0.8875 L130.240892,0.31875 C131.315456,0.3875 132.408763,0.40625 133.458337,0.40625 Z"/>
      <g transform="translate(143.692)">
        <path d="M8.7464503 19.025L2.83010142 3.03125C2.69401109 2.58905553 2.49631359 2.16825184 2.24283976 1.78125 2.03008714 1.5305412 1.7436851 1.35338104 1.42442191 1.275L.218661258.9.218661258.33125C1.09330629.36875 2.11789047.3875 3.29241379.3875 4.48567951.3875 5.72267748.3875 6.99091278.33125L7.04713996.9 5.79764706 1.2625C5.6561431 1.28978973 5.52454189 1.3545379 5.41655172 1.45 5.33028228 1.55264572 5.28766709 1.68503078 5.2978499 1.81875 5.30876304 2.05963978 5.35507453 2.29760899 5.43529412 2.525 5.52900609 2.825 5.66020284 3.20625 5.82888438 3.675L10.1083976 15.6125 14.7627586 3.6875C14.9501826 3.2 15.0938742 2.8125 15.2000811 2.5125 15.2907368 2.28731649 15.3435122 2.04867504 15.3562677 1.80625 15.3697088 1.67481267 15.3239052 1.54421948 15.2313185 1.45 15.1221534 1.36252175 14.9936094 1.3025102 14.8564706 1.275L13.6069777.94375 13.6069777.31875C14.5690872.35625 15.5436917.375 16.5245436.375 17.5053955.375 18.4487627.375 19.3483976.31875L19.3983773.8875 18.0614199 1.3125C17.7860333 1.38008325 17.5403012 1.53592311 17.3617039 1.75625 17.1088574 2.14907454 16.8993817 2.56819605 16.7369574 3.00625L10.0584178 18.91875 8.7464503 19.025zM23.2218256.40625L26.4455172.40625C28.4259635.40625 30.5126166.40625 32.6929817.35L32.7679513.45625 31.9995132 4.55625 31.4684787 4.65 30.6500609 1.5875 24.5212982 1.5875 24.5212982 8.88125 25.7270588 8.88125C26.6516836 8.88125 27.6762677 8.88125 28.8070588 8.88125 29.0193034 8.88723533 29.2068274 8.74392969 29.2568763 8.5375L29.7191886 6.75 30.4376471 6.75C30.4064097 8 30.3939148 8.9 30.3939148 9.49375 30.3939148 10.0875 30.3939148 10.96875 30.4376471 12.2L29.7191886 12.25 29.2443813 10.43125C29.206697 10.2308937 29.035676 10.0831338 28.8320487 10.075 27.6825152 10.075 26.6454361 10.075 25.7083164 10.075L24.5150507 10.075 24.5150507 14.9C24.5150507 15.88125 24.5150507 16.85 24.5150507 17.80625L30.8749696 17.80625 32.4930629 14.4375 33.1178093 14.33125 32.8241785 18.95 32.7304665 19.0375C30.4438945 19.0125 28.3322515 19 26.3955375 19L23.240568 19C22.1660041 19 21.0726978 19 19.9481542 19.0375L19.8981744 18.46875 21.5287627 17.98125C21.7278331 17.9414698 21.8745047 17.7715705 21.8848682 17.56875 21.8848682 17.2125 21.8848682 16.81875 21.8848682 16.38125 21.8848682 15.94375 21.8848682 15.45625 21.8848682 14.93125L21.8848682 4.0875C21.8848682 3.6375 21.8848682 3.23125 21.8848682 2.8375 21.8848682 2.44375 21.8848682 2.15 21.8848682 1.85625 21.8960254 1.65042386 21.7640372 1.46401196 21.5662475 1.40625L19.9231643.8875 19.9231643.31875C21.0726978.3875 22.1722515.40625 23.2218256.40625zM40.308641 14.85C40.308641 15.375 40.308641 15.85625 40.308641 16.28125 40.308641 16.70625 40.308641 17.0875 40.308641 17.43125 40.2836112 17.6643234 40.4279413 17.882219 40.6522515 17.95L42.1204057 18.3875 42.1641379 18.95625C41.1083164 18.95625 40.0587424 18.91875 39.0091684 18.91875 37.9595943 18.91875 36.8412982 18.91875 35.7167546 18.95625L35.6667748 18.3875 37.2973631 17.9C37.4964335 17.8602198 37.6431051 17.6903205 37.6534686 17.4875 37.6534686 17.13125 37.6534686 16.7375 37.6534686 16.3 37.6534686 15.8625 37.6534686 15.375 37.6534686 14.85L37.6534686 4.0875C37.6534686 3.6375 37.6534686 3.23125 37.6534686 2.8375 37.6534686 2.44375 37.6534686 2.15 37.6534686 1.85625 37.6646258 1.65042386 37.5326376 1.46401196 37.3348479 1.40625L35.6917647.8875 35.6917647.31875C36.8288032.35625 37.9470994.375 39.0341582.375 39.246572.375 39.5214604.375 39.8525761.375L41.0583367.33125 42.2640974.29375C42.5827181.29375 42.8388641.29375 43.026288.29375 45.0629615.29375 46.5873428.66875 47.6056795 1.43125 48.6383379 2.21757546 49.212156 3.46642928 49.1363083 4.7625 49.1882907 5.92152895 48.8150132 7.0595982 48.0867343 7.9625 47.217681 8.87562738 46.1091273 9.52543416 44.8880325 9.8375 45.4503043 10.68125 45.9750913 11.50625 46.4498986 12.29375 46.9247059 13.08125 47.3620284 13.8125 47.7681136 14.46875 48.1741988 15.125 48.5490467 15.71875 48.8926572 16.2125 49.1697949 16.6385588 49.4855856 17.0381647 49.8360243 17.40625 49.9764798 17.547963 50.1267953 17.6795425 50.2858418 17.8 50.4326241 17.9085252 50.5920658 17.9987723 50.7606491 18.06875 50.9270956 18.1424772 51.0982329 18.2051139 51.2729412 18.25625 51.4603651 18.30625 51.660284 18.3625 51.8976876 18.4125L51.9351724 19C51.4047226 19.0697452 50.8707513 19.109392 50.3358215 19.11875 49.9734686 19.11875 49.6548479 19.11875 49.3799594 19.11875 49.1317749 19.1031718 48.8852458 19.0676405 48.6427586 19.0125 48.4414088 18.9608764 48.2449176 18.8918675 48.055497 18.80625 47.8743575 18.7152238 47.7027442 18.6063517 47.5432049 18.48125 47.1191012 18.1467701 46.7519888 17.7457376 46.456146 17.29375 46.106288 16.775 45.7376876 16.1875 45.3565923 15.5375 44.975497 14.8875 44.5819067 14.1875 44.169574 13.45 43.7572414 12.7125 43.3199189 11.9875 42.863854 11.28125 42.7326572 11.06875 42.6139554 10.9 42.5202434 10.775 42.4356826 10.6603445 42.3321491 10.5609965 42.2141176 10.48125 42.0934118 10.4083961 41.9597611 10.3595832 41.8205274 10.3375 41.6322176 10.3081596 41.4424147 10.2893803 41.2520081 10.28125L40.3211359 10.28125 40.308641 14.85zM40.308641 9.225C40.8542529 9.25 41.35405 9.2625 41.8080325 9.2625 43.3407437 9.2625 44.4611224 8.9375 45.1691684 8.2875 45.8772143 7.6375 46.2333198 6.61875 46.2374848 5.23125 46.2374848 3.88541667 45.8980392 2.90416667 45.2191481 2.2875 44.5402569 1.67083333 43.474023 1.3625 42.0204462 1.3625 41.7767951 1.3625 41.5081542 1.3625 41.2270183 1.3625 40.9458824 1.3625 40.6397566 1.40625 40.308641 1.44375L40.308641 9.225zM56.1272211.40625L59.3509128.40625C61.331359.40625 63.4180122.40625 65.5983773.35L65.6733469.45625 64.9049087 4.55625 64.3738742 4.65 63.5554564 1.5875 57.4766734 1.5875 57.4766734 8.88125 58.6824341 8.88125C59.6070588 8.88125 60.631643 8.88125 61.7624341 8.88125 61.9746786 8.88723533 62.1622026 8.74392969 62.2122515 8.5375L62.6745639 6.75 63.3930223 6.75C63.361785 8 63.3492901 8.9 63.3492901 9.49375 63.3492901 10.0875 63.3492901 10.96875 63.3930223 12.2L62.6745639 12.25 62.1997566 10.43125C62.1620722 10.2308937 61.9910512 10.0831338 61.7874239 10.075 60.6378905 10.075 59.6008114 10.075 58.6636917 10.075L57.4766734 10.075 57.4766734 14.9C57.4766734 15.88125 57.4766734 16.85 57.5079108 17.80625L63.8678296 17.80625 65.4859229 14.4375 66.1106694 14.33125 65.8170385 18.95 65.7233266 19.0375C63.4367546 19.0125 61.3251116 19 59.3883976 19L56.233428 19C55.1588641 19 54.0655578 19 52.9410142 19.0375L52.8910345 18.46875 54.5216227 17.98125C54.7206931 17.9414698 54.8673648 17.7715705 54.8777282 17.56875 54.8777282 17.2125 54.8777282 16.81875 54.8777282 16.38125 54.8777282 15.94375 54.8777282 15.45625 54.8777282 14.93125L54.8777282 4.0875C54.8777282 3.6375 54.8777282 3.23125 54.8777282 2.8375 54.8777282 2.44375 54.8777282 2.15 54.8777282 1.85625 54.8888854 1.65042386 54.7568972 1.46401196 54.5591075 1.40625L52.9160243.8875 52.9160243.31875C53.9780933.3875 55.0776471.40625 56.1272211.40625zM71.8458418 4.13125L71.8458418 14.85C71.8458418 15.8875 71.8458418 16.75625 71.8458418 17.44375 71.8277941 17.6569491 71.9687311 17.8511487 72.1769574 17.9L73.7513185 18.3625 73.7825558 18.95625C72.6746721 18.93125 71.7687897 18.91875 71.0649087 18.91875 70.3714402 18.91875 69.4593103 18.91875 68.3160243 18.95625L68.2660446 18.3875 69.8966329 17.9C70.0969078 17.8623003 70.2446078 17.6912099 70.2527383 17.4875 70.2527383 16.76875 70.2527383 15.8875 70.2527383 14.85L70.2527383 4.0875C70.2527383 3.20625 70.2527383 2.475 70.2527383 1.8875 70.2638956 1.68167386 70.1319074 1.49526196 69.9341176 1.4375L68.2910345.91875 68.2910345.35C69.428073.3875 70.3339554.40625 70.9961866.40625 71.3960243.40625 71.7958621.40625 72.2019473.35L83.3411765 14.2625 83.3411765 4.0375C83.3411765 3.18125 83.3411765 2.44375 83.3099391 1.825 83.3053761 1.6242358 83.1628986 1.4531934 82.9663286 1.4125L81.4044625.9625 81.4044625.3375C82.541501.375 83.4536308.39375 84.1533469.39375 84.8530629.39375 85.7651927.39375 86.8709939.3375L86.9209736.90625 85.2529006 1.425C85.0551109 1.48276196 84.9231227 1.66917386 84.9342799 1.875 84.9342799 2.4625 84.9342799 3.19375 84.9342799 4.075L84.9342799 18.90625 83.8159838 19.0125 71.8458418 4.13125zM93.5557809 14.85C93.5557809 15.375 93.5557809 15.8625 93.5557809 16.29375 93.5557809 16.725 93.5557809 17.11875 93.5557809 17.475 93.5557809 17.69375 93.718215 17.84375 94.0180933 17.925L95.5174848 18.3875 95.5174848 18.95625C94.3804462 18.95625 93.2808925 18.91875 92.2313185 18.91875 91.1817444 18.91875 90.0634483 18.91875 88.9451521 18.95625L88.8889249 18.3875 90.5195132 17.9C90.7210341 17.8644807 90.8698257 17.6921257 90.8756187 17.4875 90.8756187 17.13125 90.8756187 16.7375 90.8756187 16.3 90.8756187 15.8625 90.8756187 15.375 90.8756187 14.85L90.8756187 4.0875C90.8756187 3.6375 90.8756187 3.23125 90.8756187 2.8375 90.8756187 2.44375 90.8756187 2.15 90.8756187 1.85625 90.887532 1.65217626 90.7585487 1.46636497 90.5632454 1.40625L88.9139148.8875 88.9139148.31875C90.0572008.35625 91.1505071.375 92.2000811.375 93.2496552.375 94.3617039.375 95.4924949.31875L95.5424746.8875 93.8993915 1.38125C93.7002097 1.41752523 93.555529 1.59121258 93.5557809 1.79375 93.5557809 2.1 93.5557809 2.41875 93.5557809 2.80625 93.5557809 3.19375 93.5557809 3.575 93.5557809 4.00625L93.5557809 14.85zM112.591805 5L112.060771 5.075 111.148641 1.60625C110.159272 1.33338918 109.138608 1.19052235 108.112373 1.18125 106.131901 1.0770119 104.217109 1.90755466 102.939473 3.425 101.68998 4.925 101.065233 6.99166667 101.065233 9.625 101.065233 12.2583333 101.737877 14.36875 103.083164 15.95625 104.443269 17.5295859 106.447357 18.3950773 108.524706 18.30625 109.285729 18.3080719 110.043793 18.2114373 110.780041 18.01875L110.780041 14.475C110.780041 14.03125 110.780041 13.63125 110.780041 13.26875 110.780041 12.90625 110.780041 12.575 110.780041 12.275 110.792402 12.0716114 110.65873 11.8880654 110.46142 11.8375L108.818337 11.31875 108.818337 10.75C109.955375 10.75 111.054929 10.7875 112.098256 10.7875 113.141582 10.7875 114.191156 10.7875 115.184503 10.75L115.246978 11.31875 113.803813 11.74375C113.60968 11.7884595 113.469154 11.9571597 113.460203 12.15625 113.460203 12.50625 113.460203 12.86875 113.460203 13.2375 113.460203 13.60625 113.460203 14 113.460203 14.425L113.460203 18.66875 113.385233 18.7625C111.749364 19.165414 110.071936 19.3751776 108.387262 19.3875 105.280189 19.3875 102.810358 18.5666667 100.977769 16.925 99.1451792 15.2833333 98.2268019 12.9916667 98.2226369 10.05 98.2226369 6.925 99.178499 4.46875 101.090223 2.7 103.001947.93125 105.600892.0375 108.899554.0375 110.40847.0483558463 111.911262.230776993 113.378986.58125L113.460203.6875 112.591805 5zM121.825558 14.85C121.825558 15.375 121.825558 15.8625 121.825558 16.29375 121.825558 16.725 121.825558 17.11875 121.825558 17.475 121.825558 17.69375 121.987992 17.84375 122.28787 17.925L123.787262 18.3875 123.787262 18.95625C122.650223 18.95625 121.556917 18.91875 120.501095 18.91875 119.445274 18.91875 118.333225 18.91875 117.214929 18.95625L117.158702 18.3875 118.78929 17.9C118.990827 17.8627561 119.14062 17.6922333 119.151643 17.4875 119.151643 17.13125 119.151643 16.7375 119.151643 16.3 119.151643 15.8625 119.151643 15.375 119.151643 14.85L119.151643 4.0875C119.151643 3.6375 119.151643 3.23125 119.151643 2.8375 119.151643 2.44375 119.151643 2.15 119.151643 1.85625 119.158316 1.65174517 119.028078 1.46780549 118.833022 1.40625L117.189939.8875 117.158702.31875C118.301988.35625 119.395294.375 120.451116.375 121.506937.375 122.606491.375 123.737282.31875L123.787262.8875 122.144178 1.38125C121.944997 1.41752523 121.800316 1.59121258 121.800568 1.79375 121.800568 2.10208333 121.800568 2.43958333 121.800568 2.80625 121.800568 3.175 121.800568 3.575 121.800568 4.00625L121.825558 14.85zM129.641136 4.13125L129.641136 14.85C129.641136 15.8875 129.641136 16.75625 129.641136 17.44375 129.625775 17.6561912 129.765578 17.8488274 129.972252 17.9L131.55286 18.3625 131.55286 18.95625C130.449141 18.93125 129.543259 18.91875 128.835213 18.91875 128.147992 18.91875 127.229615 18.91875 126.092576 18.95625L126.036349 18.3875 127.666937 17.9C127.880231 17.8803956 128.050122 17.7130508 128.073022 17.5 128.073022 16.78125 128.073022 15.9 128.073022 14.8625L128.073022 4.0875C128.073022 3.20625 128.073022 2.475 128.073022 1.8875 128.079695 1.68299517 127.949458 1.49905549 127.754402 1.4375L126.111318.91875 126.080081.35C127.223367.3875 128.123002.40625 128.785233.40625 129.185071.40625 129.584909.40625 129.990994.35L141.130223 14.2625 141.130223 4.0375C141.130223 3.18125 141.130223 2.44375 141.130223 1.825 141.122739 1.62320344 140.978169 1.45274822 140.780365 1.4125L139.218499.9625 139.218499.3375C140.34929.375 141.26142.39375 141.961136.39375 142.660852.39375 143.572982.39375 144.678783.3375L144.73501.90625 143.06069 1.425C142.865634 1.48655549 142.735396 1.67049517 142.742069 1.875 142.742069 2.4625 142.742069 3.19375 142.742069 4.075L142.742069 18.90625 141.63002 19.0125 129.641136 4.13125zM161.184584 5L160.65355 5.075 159.74142 1.60625C158.752051 1.33338918 157.731387 1.19052235 156.705152 1.18125 154.725034 1.07897739 152.811079 1.90915698 151.532252 3.425 150.282759 4.925 149.658012 6.99166667 149.658012 9.625 149.658012 12.2583333 150.332738 14.375 151.682191 15.975 153.039792 17.5481036 155.041947 18.4137536 157.117485 18.325 157.880568 18.3268715 158.640703 18.2302405 159.379067 18.0375L159.379067 14.49375C159.379067 14.05 159.379067 13.65 159.379067 13.2875 159.379067 12.925 159.379067 12.59375 159.379067 12.29375 159.386611 12.0918012 159.25491 11.910962 159.060446 11.85625L157.417363 11.3375 157.386126 10.76875C158.529412 10.76875 159.622718 10.80625 160.672292 10.80625 161.721866 10.80625 162.758945 10.80625 163.752292 10.76875L163.821014 11.3375 162.371602 11.7625C162.178628 11.8090848 162.038996 11.976712 162.027992 12.175 162.027992 12.525 162.027992 12.8875 162.027992 13.25625 162.027992 13.625 162.027992 14.01875 162.027992 14.44375L162.027992 18.6875 161.946775 18.78125C160.310989 19.1846174 158.633507 19.3943877 156.948803 19.40625 153.841731 19.40625 151.369817 18.5854167 149.533063 16.94375 147.696308 15.3020833 146.780014 13.0104167 146.784178 10.06875 146.784178 6.94375 147.740041 4.4875 149.645517 2.71875 151.550994.95 154.156187.05625 157.454848.05625 158.963812.0663465101 160.46669.248778082 161.93428.6L162.015497.70625 161.184584 5z"/>
      </g>
    </g>
    <g fill="#fff" transform="translate(129)">
      <path d="M13.8213128 45.072234C13.8213128 46.6664894 13.8213128 48.1226596 13.8213128 49.4281915 13.8213128 50.7337234 13.858752 51.9388298 13.8837115 52.9807447 13.8837115 53.6460638 14.3704214 54.0979787 15.2752026 54.342766L19.7616694 55.7361702 19.8427877 57.4559574C16.4233387 57.3764539 13.139087 57.3367021 9.99003241 57.3367021 6.84097785 57.3367021 3.55672609 57.3764539.137277147 57.4559574L0 55.7361702 4.88581848 54.2611702C5.48911058 54.1427144 5.9329468 53.6235882 5.95907618 53.0058511 5.95907618 51.9451064 6.00275527 50.7525532 6.01523501 49.4344681 6.02771475 48.116383 6.01523501 46.6539362 6.01523501 45.0408511L6.01523501 12.6661702C6.01523501 11.3104255 6.01523501 10.0864894 6.01523501 8.98808511 6.01523501 7.88968085 5.98403566 6.91053191 5.95907618 6.03180851 5.98410238 5.41020797 5.58534007 4.85124279 4.99189627 4.67606383L.0811183144 3.13829787 0 1.39968085C3.41528903 1.50847518 6.69954079 1.56078014 9.85275527 1.55659574 13.0059697 1.55241135 16.2881415 1.50010638 19.6992707 1.39968085L19.8615073 3.11946809 14.9382496 4.59446809C14.3328875 4.69944714 13.8935007 5.23194458 13.9024311 5.84978723 13.9024311 6.7787234 13.858752 7.79553191 13.8400324 8.90648936 13.8213128 10.0174468 13.8400324 11.2162766 13.8400324 12.5218085L13.8213128 45.072234zM37.295705 12.7854255L37.295705 45.072234C37.295705 48.2105319 37.3227445 50.8195035 37.3768233 52.8991489 37.3092338 53.5424829 37.7387549 54.1321348 38.3689627 54.2611702L43.0987844 55.6608511 43.1799028 57.4559574C39.8519719 57.3764539 37.1376283 57.3367021 35.036872 57.3367021 32.9361156 57.3367021 30.2009724 57.3764539 26.8314425 57.4559574L26.6692058 55.7361702 31.5550243 54.2611702C32.1632692 54.1513582 32.6113905 53.6272201 32.628282 53.0058511 32.6844408 50.8529787 32.7094003 48.1979787 32.7094003 45.0596809L32.7094003 12.6661702C32.7094003 10.0048936 32.6823609 7.79343972 32.628282 6.03180851 32.6556351 5.41545668 32.2658243 4.85825465 31.6798217 4.67606383L26.7316045 3.13829787 26.6504862 1.41851064C30.0699352 1.52730496 32.773879 1.57960993 34.7623177 1.57542553 35.9520529 1.57542553 37.1563479 1.52312057 38.3752026 1.41851064L71.7585089 43.3085106 71.7585089 12.5092553C71.7585089 9.92329787 71.7585089 7.70138298 71.6773906 5.83723404 71.6642218 5.22745912 71.2349802 4.70725672 70.6415721 4.58191489L65.9554295 3.22617021 65.8743112 1.38712766C69.2688006 1.49592199 72.0101837 1.54822695 74.0984603 1.54404255 76.1867369 1.53985816 78.9010805 1.48755319 82.2414911 1.38712766L82.3662885 3.13829787 77.3743922 4.69489362C76.7883897 4.87708444 76.3985788 5.43428647 76.4259319 6.0506383 76.3676931 7.8122695 76.3406537 10.0237234 76.3448136 12.685L76.3448136 57.3555319 73.006483 57.6756383 37.295705 12.7854255zM98.5899514 57.3367021C95.3909778 57.3367021 92.1088061 57.3764539 88.743436 57.4559574L88.6061588 55.7361702 93.4919773 54.2611702C94.0977504 54.1487278 94.5426964 53.6252604 94.5589951 53.0058511 94.5901945 51.9451064 94.6089141 50.7525532 94.6213938 49.4344681 94.6338736 48.116383 94.6213938 46.6539362 94.6213938 45.0408511L94.6213938 12.6661702C94.6213938 11.3104255 94.6213938 10.0864894 94.6213938 8.98808511 94.6213938 7.88968085 94.6213938 6.91053191 94.5589951 6.03180851 94.5863483 5.41545668 94.1965374 4.85825465 93.6105348 4.67606383L88.6810373 3.11946809 88.6061588 1.39968085C92.0214479 1.50847518 95.3493787 1.56078014 98.5899514 1.55659574 101.235656 1.55659574 103.787763 1.49173759 106.246272 1.36202128 108.704781 1.23230496 111.231929 1.16535461 113.827715 1.16117021 123.087682 1.16117021 130.047218 3.28475177 134.706321 7.53191489 139.365424 11.779078 141.678336 18.0849645 141.645057 26.4495745 141.645057 36.3038298 139.05967 43.955 133.888898 49.4030851 128.718125 54.8511702 121.461156 57.5710284 112.11799 57.5626596 109.551324 57.5626596 107.263371 57.5229078 105.254133 57.4434043 103.244895 57.3639007 101.023501 57.3283333 98.5899514 57.3367021zM102.408752 53.7778723C103.96872 53.9912766 105.497488 54.1356383 106.995057 54.1984043 108.492626 54.2611702 109.996434 54.2988298 111.506483 54.2988298 118.495138 54.2988298 123.817747 52.2275532 127.474311 48.085 131.130875 43.9424468 132.957077 37.5968085 132.952917 29.0480851 132.952917 20.7378723 131.218233 14.5784397 127.748865 10.5697872 124.279498 6.56113475 118.784252 4.55680851 111.263128 4.55680851 110.069233 4.55680851 108.75262 4.58400709 107.31329 4.63840426 105.87396 4.69280142 104.239114 4.78485816 102.408752 4.91457447L102.408752 53.7778723zM163.484603 45.072234C163.484603 46.6664894 163.484603 48.1226596 163.484603 49.4281915 163.484603 50.7337234 163.522042 51.9388298 163.547002 52.9807447 163.547002 53.6460638 164.039951 54.0979787 164.938493 54.342766L169.424959 55.7361702 169.506078 57.4559574C166.086629 57.3764539 162.802377 57.3367021 159.653323 57.3367021 156.452269 57.3367021 153.163857 57.3743617 149.806807 57.4559574L149.644571 55.7361702 154.530389 54.2611702C155.133681 54.1427144 155.577517 53.6235882 155.603647 53.0058511 155.603647 51.9451064 155.647326 50.7525532 155.659806 49.4344681 155.672285 48.116383 155.659806 46.6539362 155.659806 45.0408511L155.659806 12.6661702C155.659806 11.3104255 155.659806 10.0864894 155.659806 8.98808511 155.659806 7.88968085 155.628606 6.91053191 155.603647 6.03180851 155.630214 5.41371619 155.237429 4.85593173 154.648947 4.67606383L149.756888 3.13829787 149.67577 1.41851064C153.086899 1.52730496 156.371151 1.57960993 159.528525 1.57542553 162.6859 1.57124113 165.968071 1.51893617 169.375041 1.41851064L169.537277 3.13829787 164.614019 4.61329787C164.008657 4.71827693 163.569271 5.25077436 163.578201 5.86861702 163.578201 6.79755319 163.534522 7.8143617 163.515802 8.92531915 163.497083 10.0362766 163.515802 11.2351064 163.515802 12.5406383L163.484603 45.072234zM220.336062 15.3462766L218.744895 15.5847872 215.843355 5.07776596C212.9269 4.29432954 209.926108 3.87275792 206.907861 3.82244681 200.418395 3.82244681 195.320421 6.10085106 191.613938 10.6576596 187.907455 15.2144681 186.054214 21.1270213 186.054214 28.3953191 186.054214 36.1741135 188.17369 42.3816667 192.412642 47.0179787 196.651594 51.6542908 202.517072 53.974539 210.009076 53.9787234 214.547663 53.9202717 219.044417 53.0970965 223.31248 51.5434043L223.749271 53.3385106C218.550038 56.9596156 212.357583 58.8596607 206.034279 58.7740426 197.481496 58.7740426 190.56356 56.1504255 185.28047 50.9031915 179.99738 45.6559574 177.355835 38.7517021 177.355835 30.1904255 177.355835 21.0558865 180.267774 13.8252482 186.091653 8.49851064 191.915532 3.17177305 199.482415.508404255 208.792301.508404255 213.415231.527896378 218.020878 1.07750953 222.520016 2.14659574L222.794571 2.46042553 220.336062 15.3462766zM244.128687 45.072234C244.128687 46.6664894 244.128687 48.1226596 244.128687 49.4281915 244.128687 50.7337234 244.159887 51.9388298 244.191086 52.9807447 244.191086 53.6460638 244.677796 54.0979787 245.576337 54.342766L250.069044 55.7361702 250.143922 57.4559574C246.728633 57.3764539 243.446461 57.3367021 240.297407 57.3367021 237.148352 57.3367021 233.8641 57.3764539 230.444652 57.4559574L230.282415 55.7361702 235.168233 54.2611702C235.772743 54.1448252 236.217619 53.6244831 236.241491 53.0058511 236.241491 51.9451064 236.29141 50.7525532 236.30389 49.4344681 236.31637 48.116383 236.30389 46.6539362 236.30389 45.0408511L236.30389 12.6661702C236.30389 11.3104255 236.30389 10.0864894 236.30389 8.98808511 236.30389 7.88968085 236.266451 6.91053191 236.241491 6.03180851 236.268844 5.41545668 235.879033 4.85825465 235.293031 4.67606383L230.363533 3.11946809 230.282415 1.39968085C233.701864 1.50847518 236.986116 1.56078014 240.13517 1.55659574 243.284225 1.55241135 246.568476 1.50010638 249.987925 1.39968085L250.143922 3.11946809 245.226904 4.59446809C244.624028 4.70218035 244.18789 5.2339438 244.197326 5.84978723 244.166126 6.7787234 244.147407 7.79553191 244.134927 8.90648936 244.122447 10.0174468 244.134927 11.2162766 244.134927 12.5218085L244.128687 45.072234zM256.558509 1.39968085C259.977958 1.50847518 263.26221 1.56078014 266.411264 1.55659574 269.560319 1.55241135 272.844571 1.50010638 276.264019 1.39968085L276.426256 3.13829787 271.502998 4.61329787C270.897636 4.71827693 270.458249 5.25077436 270.46718 5.86861702 270.46718 6.79755319 270.423501 7.8143617 270.411021 8.92531915 270.398541 10.0362766 270.411021 11.2351064 270.411021 12.5406383L270.411021 34.3957447C270.411021 42.0071631 271.617396 47.2878723 274.030146 50.2378723 276.442896 53.1878723 280.322015 54.6524113 285.667504 54.6314894 291.075392 54.6314894 295.00859 53.1125532 297.467099 50.0746809 299.925608 47.0368085 301.142382 41.963227 301.117423 34.8539362L301.117423 12.5092553C301.117423 11.2037234 301.117423 9.99861702 301.117423 8.89393617 301.117423 7.78297872 301.073744 6.76617021 301.017585 5.83723404 301.007363 5.22850243 300.580206 4.70768956 299.988006 4.58191489L295.339303 3.22617021 295.258185 1.38712766C298.619395 1.49592199 301.506375 1.54822695 303.919125 1.54404255 306.219557 1.54404255 309.025419 1.49173759 312.33671 1.38712766L312.498947 3.10691489 307.50705 4.66351064C306.918568 4.84337854 306.525782 5.401163 306.55235 6.01925532 306.55235 6.89797872 306.508671 7.90223404 306.489951 8.97553191 306.471232 10.0488298 306.489951 11.2978723 306.489951 12.653617L306.489951 33.1529787C306.489951 41.89 304.721988 48.348617 301.186062 52.5288298 297.650135 56.7090426 292.084171 58.8012411 284.488169 58.8054255 277.041923 58.8054255 271.546677 56.9224468 268.002431 53.1564894 264.458185 49.3905319 262.683982 43.5323759 262.679822 35.5820213L262.679822 12.6661702C262.679822 11.3104255 262.679822 10.0864894 262.679822 8.98808511 262.679822 7.88968085 262.642382 6.91053191 262.617423 6.03180851 262.643991 5.41371619 262.251205 4.85593173 261.662723 4.67606383L256.639627 3.13829787 256.558509 1.39968085zM369.518882 1.39968085C372.01483 1.50847518 374.267423 1.56078014 376.276661 1.55659574 378.2859 1.55241135 380.921205 1.50010638 384.182577 1.39968085L384.376013 3.13829787 379.384117 4.69489362C378.795634 4.87476151 378.402849 5.43254598 378.429417 6.0506383 378.371178 7.8122695 378.344138 10.0237234 378.348298 12.685L378.348298 45.0910638C378.348298 48.2293617 378.348298 50.8843617 378.429417 53.037234 378.456903 53.6676516 378.920805 54.1919573 379.540113 54.2925532L384.307374 55.7675532 384.388493 57.4873404C380.894165 57.4078369 377.549595 57.3680851 374.354781 57.3680851 371.159968 57.3680851 368.069152 57.4078369 365.082334 57.4873404L364.926337 55.7675532 369.493922 54.3741489C370.112539 54.2029529 370.526787 53.6185449 370.486062 52.9744681 370.535981 50.8718085 370.56094 48.2419149 370.56094 45.103617L370.56094 10.4693617 350.861669 57.3367021 347.96013 57.6568085 328.142301 10.4693617 328.142301 45.072234C328.142301 48.2105319 328.142301 50.8404255 328.22342 52.9430851 328.181464 53.5997395 328.616454 54.1910953 329.252998 54.342766L333.702026 55.7361702 333.783144 57.4559574C330.62993 57.3764539 327.994625 57.3367021 325.877229 57.3367021 323.759833 57.3367021 321.018449 57.3764539 317.653079 57.4559574L317.497083 55.7361702 322.382901 54.2611702C322.988642 54.1469688 323.434578 53.6253866 323.456159 53.0058511 323.506078 50.8529787 323.531037 48.1979787 323.531037 45.0596809L323.531037 12.6661702C323.531037 10.0048936 323.506078 7.79343972 323.456159 6.03180851 323.480504 5.414377 323.088584 4.85782117 322.501459 4.67606383L317.534522 3.13829787 317.453404 1.41851064C320.868693 1.52730496 323.572636 1.57960993 325.565235 1.57542553 327.840708 1.57542553 330.211858 1.52312057 332.678687 1.41851064L351.123744 45.2479787 369.518882 1.39968085z"/>
    </g>
    <g transform="translate(0 4)">
      <g fill="#9D9D9C" transform="translate(22 40)">
        <path d="M35.1875,3.71830986 C34.2991504,3.18852338 33.1979046,3.15103189 32.275,3.61915493 C29.54375,4.69126761 31.025,7.90140845 31.025,7.90140845 C36.45,11.0371831 39.6125,16.9678873 38.8,23.8095775 C37.8787385,31.3909945 31.7833601,37.3280327 24.1221166,38.1061723 C16.4608731,38.8843119 9.2781433,34.2959087 6.82585302,27.0571377 C4.37356274,19.8183667 7.30609797,11.8608712 13.8875,7.89521127 L13.85625,7.89521127 C13.85625,7.89521127 15.04375,5.14366197 13.0375,3.76788732 C11.8957912,3.05736776 10.4281569,3.1291394 9.3625,3.94760563 C1.50685394,9.59362178 -1.76564069,19.6280949 1.26865353,28.7658236 C4.30294775,37.9035524 12.9476436,44.0473776 22.6495415,43.9613194 C32.3514393,43.8752612 40.8839003,37.5790704 43.7528394,28.3889786 C46.6217785,19.1988868 43.1687583,9.22407058 35.2125,3.71830986 L35.1875,3.71830986 Z"/>
        <path d="M26.2125,15.5487324 C26.2125,13.7267606 24.54375,12.251831 22.4625,12.251831 C20.38125,12.251831 18.7125,13.7267606 18.7125,15.5487324 L18.7125,31.1284507 L18.7125,31.1284507 C18.7125,32.9504225 20.38125,34.4253521 22.4625,34.4253521 C24.54375,34.4253521 26.2125,32.9504225 26.2125,31.1284507 L26.2125,31.1284507 L26.2125,15.5487324 Z"/>
        <ellipse cx="22.425" cy="4.239" rx="3.731" ry="3.7"/>
      </g>
      <path fill="#A3CF9B" d="M62.6132673,35.632381 L62.6132673,35.632381 C62.5858533,21.2256531 53.7840989,8.2653491 40.3387831,2.8339099 C26.8934674,-2.5975293 11.4736835,0.578116966 1.31613861,10.8704762 L1.31613861,10.8704762 C0.0759586014,12.0910255 0.0675805635,14.0782416 1.29742574,15.3090476 C2.52727092,16.5398536 4.52962197,16.5481683 5.76980198,15.327619 L5.76980198,15.327619 L5.76980198,15.327619 C14.115352,6.81470806 26.8277332,4.17233801 37.9139622,8.64619837 C49.0001912,13.1200587 56.2471511,23.8170436 56.2384158,35.6942857 L56.2384158,35.6942857 C56.2384158,37.4310898 57.6570969,38.8390476 59.4071287,38.8390476 C61.1571605,38.8390476 62.5758416,37.4310898 62.5758416,35.6942857 L62.5758416,35.6942857 C62.5932555,35.6770184 62.6061102,35.6557558 62.6132673,35.632381 L62.6132673,35.632381 Z" transform="translate(17 25)"/>
      <path fill="#73C3B6" d="M83.5084444,48.1185714 C83.5471155,28.6703794 71.7061395,11.1491308 53.5887668,3.84602915 C35.4713942,-3.4570725 14.7113424,0.92272218 1.13244444,14.9128571 L1.13244444,14.9128571 C0.384409597,15.7311655 0.131997989,16.8843493 0.470290638,17.9380154 C0.808583287,18.9916816 1.68618549,19.785753 2.77251296,20.0211107 C3.85884042,20.2564685 4.98885416,19.897356 5.73688889,19.0790476 C17.5591271,7.00911174 35.5531808,3.26898681 51.2437098,9.62030097 C66.9342388,15.9716151 77.1924583,31.1478786 77.1866667,48.0009524 L77.1866667,48.62 L77.1866667,48.62 C77.1076287,50.3550945 78.4573409,51.8254126 80.2013333,51.9040474 C81.9453258,51.9826822 83.423184,50.6398564 83.5022222,48.9047619 C83.5084421,48.8120079 83.5084421,48.7189445 83.5022222,48.6261905 L83.5022222,48.5642857 C83.5022222,48.4157143 83.5084444,48.2857143 83.5084444,48.1185714 Z" transform="translate(9 12)"/>
      <path fill="#72C9E1" d="M44.2366864,3.38813179e-21 C28.0176581,-0.0127792701 12.4756303,6.5015471 1.11213018,18.0753398 L1.11213018,18.0753398 C-0.210657157,19.2575509 -0.324705332,21.2883525 0.85739645,22.6112621 C2.03949823,23.9341718 4.07011207,24.0482305 5.39289941,22.8660194 C5.48240378,22.7858216 5.56744273,22.7007748 5.64763314,22.6112621 L5.64763314,22.6112621 C21.0492222,6.94062708 44.3967711,2.13983746 64.7309922,10.4623733 C85.0652133,18.7849091 98.3485597,38.5782542 98.345858,60.5514563 L98.345858,60.5514563 C98.2938682,61.7339757 98.8950644,62.8496146 99.9112735,63.4563959 C100.927483,64.0631772 102.194707,64.0631772 103.210916,63.4563959 C104.227125,62.8496146 104.828321,61.7339757 104.776331,60.5514563 C104.776332,27.1122368 77.6728141,0.00343142324 44.2366864,3.38813179e-21 Z"/>
    </g>
  </g>
</svg>
