<?xml version="1.0" encoding="utf-8"?>
<!-- Generator: Adobe Illustrator 19.1.0, SVG Export Plug-In . SVG Version: 6.00 Build 0)  -->
<!DOCTYPE svg PUBLIC "-//W3C//DTD SVG 1.1//EN" "http://www.w3.org/Graphics/SVG/1.1/DTD/svg11.dtd">
<svg version="1.1" id="Laag_1" xmlns="http://www.w3.org/2000/svg" xmlns:xlink="http://www.w3.org/1999/xlink" x="0px" y="0px"
	 viewBox="0 0 595.3 419.5" style="enable-background:new 0 0 595.3 419.5;" xml:space="preserve">
<style type="text/css">
	.st0{fill:#F7A823;}
	.st1{fill:#F7A800;}
	.st2{font-family:'OpenSans-Light';}
	.st3{font-size:30.6142px;}
</style>
<g>
	<path class="st0" d="M111.4,175.4c-10,0-18.1,8.1-18.1,18.1s8.1,18.1,18.1,18.1s18.1-8.1,18.1-18.1S121.4,175.4,111.4,175.4z
		 M74.9,144.9h18.4l0,16.9c5.3-3.1,11.5-4.8,18.1-4.8c20.1,0,36.5,16.4,36.5,36.5c0,20.1-16.4,36.5-36.5,36.5s-36.5-16.4-36.5-36.5
		V144.9z"/>
	<path class="st0" d="M458.5,193.5c0,10,8.1,18.1,18.1,18.1s18.1-8.1,18.1-18.1s-8.1-18.1-18.1-18.1S458.5,183.5,458.5,193.5z
		 M513.1,193.5c0,20.1-16.4,36.5-36.5,36.5s-36.5-16.4-36.5-36.5c0-20.1,16.4-36.5,36.5-36.5c6.6,0,12.8,1.8,18.1,4.8l0-16.9h18.4
		V193.5z"/>
	<g>
		<path class="st0" d="M422.1,229.5h-18.4v-35.9c0-20.1,16.4-36.5,36.5-36.5v18.4c-10,0-18.1,8.1-18.1,18.1V229.5z"/>
	</g>
	<polygon class="st0" points="248.2,230 193.6,230 193.4,208.1 226,175.4 193.6,175.4 193.6,157 248.2,157 248,179.4 215.8,211.6 
		248.2,211.6 	"/>
	<polygon class="st0" points="316.9,230 262.3,230 262.1,208.1 294.7,175.4 262.3,175.4 262.3,157 316.9,157 316.7,179.4 
		284.5,211.6 316.9,211.6 	"/>
	<rect x="159.2" y="157" class="st0" width="18.4" height="73"/>
	<path class="st0" d="M373.8,184.3c-3.2-5.3-8.9-8.9-15.6-8.9c-10,0-18.1,8.1-18.1,18.1c0,10,8.1,18.1,18.1,18.1
		c4.8,0,9.4-1.9,12.8-5.3l13,13c-6.9,6.9-16.1,10.7-25.8,10.7c-20.1,0-36.5-16.4-36.5-36.5c0-20.1,16.4-36.5,36.5-36.5
		c20.1,0,36.5,16.4,36.5,36.5v9.2l-36.5,0c-5.1,0-9.2-4.1-9.2-9.2s4.1-9.2,9.2-9.2L373.8,184.3z"/>
</g>
<text transform="matrix(1 0 0 1 518.1385 178.3296)" class="st1 st2 st3">®</text>
</svg>
