
<svg xmlns="http://www.w3.org/2000/svg" xmlns:xlink="http://www.w3.org/1999/xlink" width="129" height="40" viewBox="0 0 129 40">
  <defs>
    <polygon id="ordina-logo-payoff-a" points="0 .362 128.749 .362 128.749 28.762 0 28.762"/>
    <polygon id="ordina-logo-payoff-c" points=".828 .284 6.23 .284 6.23 8 .828 8"/>
  </defs>
  <g fill="none" fill-rule="evenodd" transform="translate(0 -1)">
    <path fill="#FFF" d="M33.2593,18.2554 C32.4523,19.9834 31.0113,21.2994 29.2083,21.9564 C27.4053,22.6094 25.4673,22.5264 23.7323,21.7084 C22.0183,20.8984 20.7243,19.4834 20.0993,17.7084 L20.0873,17.6844 C19.4193,15.8914 19.4843,13.9464 20.2733,12.2204 C21.0743,10.4584 22.5253,9.1164 24.3643,8.4354 C28.0553,7.1264 32.1453,9.0324 33.4633,12.6984 C34.1443,14.5444 34.0713,16.5124 33.2593,18.2554 M36.2993,11.6624 C34.4193,6.4564 28.6003,3.7284 23.3343,5.6024 C20.7243,6.5714 18.6653,8.4714 17.5313,10.9624 C16.9183,12.3054 16.6093,13.7294 16.6093,15.1684 C16.6093,16.3614 16.8293,17.5664 17.2603,18.7254 C18.1603,21.2564 20.0003,23.2854 22.4453,24.4394 C24.9143,25.6014 27.6803,25.7274 30.2373,24.7924 C32.8043,23.8624 34.8493,21.9884 35.9953,19.5274 C37.1443,17.0474 37.2553,14.2584 36.2993,11.6624"/>
    <path fill="#FFF" d="M17.2632,18.7358 C17.2602,18.7348 17.2602,18.7298 17.2602,18.7248 C17.2562,18.7228 17.2562,18.7208 17.2542,18.7148 L17.2632,18.7358 Z"/>
    <polygon fill="#FFF" points="94.697 22.8 97.42 21.942 97.562 8.029 94.837 8.029 94.98 18.783 88.098 7.595 85.658 8.457 85.516 22.514 88.239 22.514 87.956 11.753 88.098 11.753"/>
    <path fill="#FFF" d="M47.3604 14.479L45.7844 14.479 45.7844 10.179 47.3604 10.179C48.6844 10.148 49.7714 10.867 49.7994 12.19 49.7714 14.134 48.1804 14.492 47.3604 14.479M52.6694 12.19C52.6024 9.884 51.1794 8 47.6484 8.029L43.0574 8.029 42.9164 22.514 45.6424 22.514 45.6424 16.634 46.4994 16.634C46.9464 16.69 47.2624 16.837 47.5074 17.208L51.5214 22.8 54.2484 21.798 49.7994 15.917C51.4934 15.351 52.6024 14.031 52.6694 12.19M110.9024 16.4897L107.3154 16.4897 109.1804 10.7537 110.9024 16.4897zM102.4404 21.9417L104.8764 22.8007 106.6014 18.6417 111.6204 18.6417 113.0554 22.8007 115.6354 21.9417 110.4724 8.0277 108.0334 8.0277 102.4404 21.9417zM68.4449 15.0562C68.3799 18.3462 66.2649 20.1632 63.1389 20.2192L61.4179 20.2192 61.4179 10.3232 63.7119 10.3232C66.5139 10.2812 68.3799 12.3692 68.4449 15.0562L68.4449 15.0562zM58.8379 8.0292L58.6929 22.5142 63.7119 22.5142C67.5229 22.4682 71.1889 19.5382 71.1689 15.2012 71.1889 10.8222 68.1499 7.9732 63.5709 8.0292L58.8379 8.0292z"/>
    <polygon fill="#FFF" points="79.348 22.514 79.49 8.029 76.765 8.029 76.624 22.514"/>
    <g transform="translate(0 .638)">
      <mask id="ordina-logo-payoff-b" fill="#fff">
        <use xlink:href="#ordina-logo-payoff-a"/>
      </mask>
      <path fill="#F58220" d="M54.2486,21.1603 L51.5216,22.1623 L47.5076,16.5693 C47.2626,16.1993 46.9466,16.0523 46.4986,15.9963 L45.6426,15.9963 L45.6426,21.8763 L42.9156,21.8763 L43.0576,7.3903 L47.6486,7.3903 C51.1796,7.3613 52.6026,9.2463 52.6686,11.5523 C52.6026,13.3923 51.4936,14.7133 49.7996,15.2793 L54.2486,21.1603 Z M71.1686,14.5623 C71.1886,18.9003 67.5226,21.8303 63.7116,21.8763 L58.6926,21.8763 L58.8376,7.3903 L63.5716,7.3903 C68.1496,7.3353 71.1886,10.1833 71.1686,14.5623 L71.1686,14.5623 Z M79.4896,7.3903 L79.3476,21.8763 L76.6236,21.8763 L76.7646,7.3903 L79.4896,7.3903 Z M88.2386,21.8763 L85.5166,21.8763 L85.6586,7.8193 L88.0986,6.9573 L94.9796,18.1453 L94.8376,7.3903 L97.5626,7.3903 L97.4206,21.3043 L94.6976,22.1623 L88.0986,11.1153 L87.9566,11.1153 L88.2386,21.8763 Z M115.6356,21.3043 L113.0556,22.1623 L111.6206,18.0043 L106.6016,18.0043 L104.8756,22.1623 L102.4406,21.3043 L108.0336,7.3893 L110.4726,7.3893 L115.6356,21.3043 Z M30.2366,24.1543 C27.6806,25.0893 24.9146,24.9633 22.4456,23.8013 C19.9996,22.6473 18.1606,20.6183 17.2606,18.0873 C17.2606,18.0923 17.2606,18.0973 17.2636,18.0973 L17.2536,18.0773 C17.2566,18.0833 17.2566,18.0853 17.2606,18.0873 C16.8296,16.9283 16.6096,15.7233 16.6096,14.5303 C16.6096,13.0913 16.9176,11.6673 17.5316,10.3243 C18.6656,7.8333 20.7246,5.9333 23.3336,4.9643 C28.6006,3.0903 34.4196,5.8183 36.2996,11.0243 C37.2546,13.6203 37.1446,16.4093 35.9956,18.8893 C34.8496,21.3503 32.8046,23.2243 30.2366,24.1543 L30.2366,24.1543 Z M35.5456,6.0993 L33.4516,0.3613 L17.6346,6.0993 L-0.0004,6.0993 L-0.0004,23.0253 L18.0156,23.0253 L20.1116,28.7623 L35.9186,23.0253 L128.7486,23.0253 L128.7486,6.0993 L35.5456,6.0993 Z" mask="url(#ordina-logo-payoff-b)"/>
    </g>
    <path fill="#F58220" d="M47.3604 10.1792L45.7844 10.1792 45.7844 14.4792 47.3604 14.4792C48.1804 14.4912 49.7714 14.1342 49.7994 12.1902 49.7714 10.8662 48.6844 10.1482 47.3604 10.1792M61.418 20.2192L63.139 20.2192C66.265 20.1632 68.38 18.3462 68.445 15.0562 68.38 12.3692 66.514 10.2812 63.711 10.3232L61.418 10.3232 61.418 20.2192z"/>
    <polygon fill="#F58220" points="110.902 16.49 109.18 10.754 107.315 16.49"/>
    <path fill="#F58220" d="M24.3643,8.4351 C22.5253,9.1171 21.0743,10.4581 20.2733,12.2201 C19.4843,13.9471 19.4193,15.8911 20.0873,17.6841 L20.0993,17.7081 C20.7243,19.4831 22.0183,20.8981 23.7323,21.7081 C25.4673,22.5271 27.4053,22.6101 29.2083,21.9561 C31.0113,21.2991 32.4523,19.9831 33.2593,18.2551 C34.0713,16.5121 34.1443,14.5441 33.4633,12.6991 C32.1453,9.0331 28.0553,7.1261 24.3643,8.4351"/>
    <path fill="#58595B" d="M47.6314 35.7524L47.0554 34.3664C46.8204 33.8034 46.5744 32.9354 46.5744 32.9354 46.5744 32.9354 46.3394 33.8034 46.1054 34.3664L45.5294 35.7524 47.6314 35.7524zM46.5274 29.9754L46.6684 29.9754 50.3204 38.0304 48.5944 38.0304 48.2184 37.1274 44.9774 37.1274 44.6014 38.0304 43.0164 38.0304 46.5274 29.9754zM51.19 29.5522L52.775 29.5522 52.775 33.8152C53.081 33.2402 53.633 32.9222 54.326 32.9222 55.418 32.9222 56.205 33.7212 56.205 35.1422L56.205 38.0312 54.619 38.0312 54.619 35.2472C54.619 34.6842 54.349 34.3662 53.786 34.3662 53.151 34.3662 52.775 34.7192 52.775 35.3532L52.775 38.0312 51.19 38.0312 51.19 29.5522zM61.0552 35.0952C60.9842 34.5432 60.6322 34.2142 60.0102 34.2142 59.3882 34.2142 58.9642 34.4952 58.8352 35.0952L61.0552 35.0952zM60.1512 36.8222C60.7262 36.8222 61.1602 36.5982 61.4072 36.4222L62.3112 37.3972C61.8302 37.8202 61.2192 38.1372 60.1742 38.1372 58.3892 38.1372 57.2382 37.0572 57.2382 35.5182 57.2382 34.0022 58.4482 32.9222 59.9982 32.9222 61.7952 32.9222 62.7692 34.2612 62.6522 36.0112L58.8592 36.0112C59.0122 36.5282 59.4342 36.8222 60.1512 36.8222L60.1512 36.8222zM67.3267 35.5181C67.3267 34.7791 66.9387 34.3201 66.2577 34.3201 65.5887 34.3201 65.2127 34.7791 65.2127 35.5181 65.2127 36.2821 65.5887 36.7501 66.2577 36.7501 66.9387 36.7501 67.3267 36.2821 67.3267 35.5181M63.5687 35.5181C63.5687 34.0021 64.5427 32.9221 65.7997 32.9221 66.5517 32.9221 67.0447 33.2401 67.3267 33.7801L67.3027 33.0281 68.8767 33.0281 68.8767 38.0311 67.3027 38.0311 67.3267 37.2671C67.0687 37.7731 66.5397 38.1371 65.7757 38.1371 64.5787 38.1371 63.5687 37.0571 63.5687 35.5181M73.8091 35.5181C73.8091 34.7791 73.3631 34.3201 72.6821 34.3201 72.0121 34.3201 71.5891 34.7791 71.5891 35.5181 71.5891 36.3051 72.0121 36.7501 72.6821 36.7501 73.3631 36.7501 73.8091 36.3051 73.8091 35.5181M69.9571 35.5181C69.9571 33.9791 70.9911 32.9221 72.2001 32.9221 72.9981 32.9221 73.4451 33.2401 73.7621 33.7331L73.7621 29.5521 75.3481 29.5521 75.3481 38.0311 73.7621 38.0311 73.7971 37.3031C73.5151 37.8311 72.9871 38.1371 72.2241 38.1371 71.0021 38.1371 69.9571 37.0571 69.9571 35.5181M82.899 35.5415C82.899 34.7895 82.476 34.2855 81.772 34.2855 81.067 34.2855 80.632 34.7895 80.632 35.5415 80.632 36.2815 81.067 36.7985 81.772 36.7985 82.476 36.7985 82.899 36.2815 82.899 35.5415M79.012 35.5415C79.012 34.0155 80.221 32.9225 81.772 32.9225 83.322 32.9225 84.52 34.0155 84.52 35.5415 84.52 37.0575 83.322 38.1375 81.772 38.1375 80.221 38.1375 79.012 37.0575 79.012 35.5415M86.0469 34.3433L85.2129 34.3433 85.2129 33.0283 86.0469 33.0283 86.0469 31.3493C86.0469 30.0573 86.6569 29.4003 87.8899 29.4003 88.5949 29.4003 89.0649 29.6113 89.4289 30.0333L88.5719 31.0903C88.4539 30.9493 88.3139 30.8203 88.0669 30.8203 87.8079 30.8203 87.6319 30.9613 87.6319 31.3253L87.6319 33.0283 88.9829 33.0283 88.9829 34.3433 87.6319 34.3433 87.6319 38.0313 86.0469 38.0313 86.0469 34.3433zM92.377 35.5181C92.377 34.0021 93.551 32.9221 95.113 32.9221 96.111 32.9221 96.71 33.2871 97.215 33.9211L96.088 34.8361C95.9 34.5321 95.512 34.3091 95.113 34.3091 94.397 34.3091 93.997 34.8131 93.997 35.5181 93.997 36.2471 94.397 36.7631 95.113 36.7631 95.618 36.7631 95.888 36.5281 96.123 36.2931L97.191 37.2331C96.698 37.7851 96.111 38.1371 95.113 38.1371 93.551 38.1371 92.377 37.0571 92.377 35.5181M98.1548 29.5522L99.7398 29.5522 99.7398 33.8152C100.0458 33.2402 100.5968 32.9222 101.2908 32.9222 102.3828 32.9222 103.1698 33.7212 103.1698 35.1422L103.1698 38.0312 101.5838 38.0312 101.5838 35.2472C101.5838 34.6842 101.3138 34.3662 100.7498 34.3662 100.1158 34.3662 99.7398 34.7192 99.7398 35.3532L99.7398 38.0312 98.1548 38.0312 98.1548 29.5522zM107.9727 35.5181C107.9727 34.7791 107.5857 34.3201 106.9037 34.3201 106.2347 34.3201 105.8587 34.7791 105.8587 35.5181 105.8587 36.2821 106.2347 36.7501 106.9037 36.7501 107.5857 36.7501 107.9727 36.2821 107.9727 35.5181M104.2147 35.5181C104.2147 34.0021 105.1897 32.9221 106.4457 32.9221 107.1977 32.9221 107.6907 33.2401 107.9727 33.7801L107.9497 33.0281 109.5227 33.0281 109.5227 38.0311 107.9497 38.0311 107.9727 37.2671C107.7147 37.7731 107.1857 38.1371 106.4227 38.1371 105.2247 38.1371 104.2147 37.0571 104.2147 35.5181M110.7676 33.0278L112.3536 33.0278 112.3176 33.8498C112.6236 33.2518 113.2106 32.9228 113.9036 32.9228 114.9956 32.9228 115.7826 33.7208 115.7826 35.1418L115.7826 38.0308 114.1966 38.0308 114.1966 35.2478C114.1966 34.6838 113.9266 34.3668 113.3636 34.3668 112.7286 34.3668 112.3536 34.7188 112.3536 35.3528L112.3536 38.0308 110.7676 38.0308 110.7676 33.0278z"/>
    <g transform="translate(116 32.638)">
      <mask id="ordina-logo-payoff-d" fill="#fff">
        <use xlink:href="#ordina-logo-payoff-c"/>
      </mask>
      <path fill="#58595B" d="M4.6797,2.8801 C4.6797,2.1411 4.2337,1.6821 3.5527,1.6821 C2.8827,1.6821 2.4597,2.1411 2.4597,2.8801 C2.4597,3.6671 2.8827,4.1121 3.5527,4.1121 C4.2337,4.1121 4.6797,3.6671 4.6797,2.8801 M0.8627,6.7671 L1.9787,5.8991 C2.3307,6.3331 2.7417,6.6731 3.4587,6.6731 C4.1857,6.6731 4.6447,6.2381 4.6447,5.3221 L4.6447,4.7241 C4.3747,5.1821 3.8577,5.4991 3.0947,5.4991 C1.8727,5.4991 0.8277,4.4191 0.8277,2.8801 C0.8277,1.3411 1.8617,0.2841 3.0707,0.2841 C3.8687,0.2841 4.3867,0.6371 4.6797,1.1651 L4.6447,0.3901 L6.2297,0.3901 L6.2297,5.3811 C6.2297,7.2841 4.9847,8.0001 3.5287,8.0001 C2.2017,8.0001 1.4267,7.5301 0.8627,6.7671" mask="url(#ordina-logo-payoff-d)"/>
    </g>
    <path fill="#58595B" d="M127.1153,35.0952 C127.0453,34.5432 126.6933,34.2142 126.0703,34.2142 C125.4483,34.2142 125.0253,34.4952 124.8953,35.0952 L127.1153,35.0952 Z M126.2113,36.8222 C126.7863,36.8222 127.2213,36.5982 127.4683,36.4222 L128.3723,37.3972 C127.8903,37.8202 127.2803,38.1372 126.2343,38.1372 C124.4493,38.1372 123.2993,37.0572 123.2993,35.5182 C123.2993,34.0022 124.5083,32.9222 126.0583,32.9222 C127.8553,32.9222 128.8303,34.2612 128.7123,36.0112 L124.9193,36.0112 C125.0723,36.5282 125.4943,36.8222 126.2113,36.8222 L126.2113,36.8222 Z"/>
  </g>
</svg>
