<?xml version="1.0" encoding="UTF-8"?>
<svg viewBox="0 0 108 44" width="108" height="44" version="1.1" xmlns="http://www.w3.org/2000/svg" xmlns:xlink="http://www.w3.org/1999/xlink">
    <g id="Page-1" stroke="none" stroke-width="1" fill="none" fill-rule="evenodd">
        <g id="Sogeti-global_UI-Components" transform="translate(-615.000000, -346.000000)" fill-rule="nonzero">
            <g id="Sogeti_Logo_Primary_3COL_RGB" transform="translate(615.000000, 346.000000)">
                <path d="M69.6002445,2.88484207 L71.99022,2.49051114 L71.99022,7.96963565 L78.4535452,7.96963565 L78.4535452,9.60922216 C78.4535452,10.6469351 77.6222494,11.4771055 76.5831296,11.4771055 L71.99022,11.4771055 L71.99022,18.8656219 C71.99022,20.3184201 72.2188264,21.3768873 72.6760391,21.9995151 C73.1332518,22.6221429 73.9229829,22.9334568 75.0452323,22.9334568 C75.8141809,22.9334568 76.4792176,22.8504397 77.0819071,22.6844057 C77.6638142,22.5183716 78.1418093,22.3730918 78.49511,22.2278119 L78.9315403,24.3032379 C79.0977995,25.0711455 78.7652812,25.7352818 77.809291,26.06735 C77.3105134,26.233384 76.1466993,26.5446979 74.50489,26.5446979 C73.2163814,26.5446979 72.1149144,26.3786638 71.2628362,26.0258414 C70.3899756,25.673019 69.7041565,25.1749168 69.1845966,24.5107805 C68.6650367,23.8466442 68.3117359,23.0579823 68.103912,22.1032864 C67.896088,21.1693447 67.792176,20.0901232 67.792176,18.8863762 L67.792176,5.00177654 C67.792176,3.96406357 68.5611247,3.05087615 69.6002445,2.88484207 Z" id="Shape" fill="#0070AD"></path>
                <path d="M84.9168704,2.65654522 C84.9168704,3.44520708 84.6674817,4.06783487 84.1479218,4.52442857 C83.6283619,4.98102228 83.0256724,5.20931914 82.3398533,5.20931914 C81.6124694,5.20931914 81.00978,4.98102228 80.49022,4.52442857 C79.9706601,4.06783487 79.7212714,3.44520708 79.7212714,2.65654522 C79.7212714,1.8471291 79.9706601,1.20374705 80.49022,0.747153343 C81.00978,0.290559633 81.6124694,0.0622627785 82.3398533,0.0622627785 C83.0256724,0.0622627785 83.6283619,0.290559633 84.1479218,0.767907602 C84.6674817,1.24525557 84.9168704,1.8471291 84.9168704,2.65654522 Z" id="Shape" fill="#FF4019"></path>
                <path d="M84.4388753,26.1296127 L83.2542787,26.1296127 C81.5709046,26.1296127 80.2200489,24.7805859 80.2200489,23.0994908 L80.2200489,7.96963565 L81.6540342,7.96963565 C83.1919315,7.96963565 84.4388753,9.21489123 84.4388753,10.7507064 L84.4388753,26.1296127 Z" id="Shape" fill="#0070AD"></path>
                <path d="M49.6699267,17.1637726 C49.6699267,15.5656946 49.898533,14.1751592 50.3765281,12.9714122 C50.8545232,11.7676651 51.4779951,10.7714607 52.2677262,9.98279883 C53.0574572,9.19413697 53.9511002,8.59226344 54.9694377,8.17717825 C55.9877751,7.78284732 57.0268949,7.57530472 58.0867971,7.57530472 C60.5806846,7.57530472 62.5342298,8.34321233 63.9266504,9.89978179 C65.3190709,11.4563513 66.0256724,13.7600741 66.0256724,16.8317045 C66.0256724,17.0600013 66.0256724,17.3298067 66.00489,17.6203663 C65.9841076,17.910926 65.9841076,18.1599771 65.9633252,18.4090282 L54.0134474,18.4090282 C54.1381418,19.8618264 54.6369193,20.9825564 55.5513447,21.7919725 C56.4657702,22.5806344 57.7958435,22.9957195 59.5207824,22.9957195 C60.5391198,22.9957195 61.4743276,22.9127025 62.3056235,22.7259142 C62.5134474,22.6844057 62.7212714,22.6428971 62.908313,22.5806344 C63.6772616,22.393846 64.4254279,22.9127025 64.5501222,23.6806101 L64.8618582,25.5692477 C64.6332518,25.6937733 64.3215159,25.7975446 63.905868,25.9220701 C63.5110024,26.0465957 63.0330073,26.1711213 62.5134474,26.2748925 C61.9938875,26.3786638 61.4327628,26.4616809 60.8300733,26.5239437 C60.2273839,26.5862064 59.6246944,26.627715 59.0012225,26.627715 C57.400978,26.627715 56.0293399,26.3994181 54.8447433,25.9220701 C53.6601467,25.4447222 52.7041565,24.8013401 51.9352078,23.9504155 C51.1662592,23.0994908 50.6051345,22.1240406 50.2310513,20.9825564 C49.8569682,19.7788093 49.6699267,18.5335537 49.6699267,17.1637726 Z M61.8484108,15.2958893 C61.8484108,14.71477 61.7652812,14.1751592 61.599022,13.6563028 C61.4327628,13.1374463 61.2041565,12.6808526 60.8924205,12.3072759 C60.5806846,11.9336992 60.2066015,11.6223853 59.7493888,11.4148427 C59.292176,11.1865459 58.7518337,11.0827746 58.1283619,11.0827746 C57.4841076,11.0827746 56.9229829,11.2073001 56.4242054,11.4563513 C55.9462103,11.7054024 55.5305623,12.0167163 55.198044,12.4110472 C54.8655257,12.8053781 54.5953545,13.2619718 54.408313,13.7600741 C54.2212714,14.2581763 54.096577,14.7770328 54.0342298,15.3166435 L61.8484108,15.2958893 Z" id="Shape" fill="#0070AD"></path>
                <path d="M31.6723716,17.0184928 C31.6723716,18.4505367 31.4645477,19.7580551 31.0696822,20.9410479 C30.6748166,22.1240406 30.0929095,23.1202451 29.3447433,23.9711697 C28.596577,24.8013401 27.7237164,25.4447222 26.6638142,25.9220701 C25.6246944,26.3786638 24.4816626,26.6069607 23.2139364,26.6069607 C21.9462103,26.6069607 20.8239609,26.3786638 19.7848411,25.9220701 C18.7457213,25.4654764 17.8728606,24.8013401 17.1246944,23.9711697 C16.3765281,23.1409994 15.8154034,22.1240406 15.3997555,20.9410479 C14.9841076,19.7580551 14.7762836,18.4505367 14.7762836,17.0184928 C14.7762836,15.5864489 14.9841076,14.2789305 15.3997555,13.116692 C15.8154034,11.9544535 16.3973105,10.9374948 17.1454768,10.1073244 C17.893643,9.277154 18.7872861,8.63377196 19.8264059,8.17717825 C20.8655257,7.72058454 21.9877751,7.49228769 23.2139364,7.49228769 C24.4400978,7.49228769 25.5831296,7.72058454 26.6222494,8.17717825 C27.6613692,8.63377196 28.5550122,9.277154 29.3031785,10.1073244 C30.0513447,10.9374948 30.6124694,11.9336992 31.0281174,13.116692 C31.4645477,14.2789305 31.6723716,15.5864489 31.6723716,17.0184928 Z M27.5158924,17.0184928 C27.5158924,15.2128722 27.1418093,13.7808283 26.393643,12.7223611 C25.6454768,11.6638938 24.5855746,11.1450374 23.2555012,11.1450374 C21.9046455,11.1450374 20.8655257,11.6638938 20.1173594,12.7223611 C19.3691932,13.7808283 18.99511,15.2128722 18.99511,17.0184928 C18.99511,18.8448676 19.3691932,20.2976658 20.1173594,21.356133 C20.8655257,22.4146003 21.9254279,22.954211 23.2555012,22.954211 C24.606357,22.954211 25.6454768,22.4146003 26.393643,21.356133 C27.1418093,20.2976658 27.5158924,18.8448676 27.5158924,17.0184928 Z" id="Shape" fill="#0070AD"></path>
                <path d="M13.5709046,19.1976901 C13.3630807,18.6165708 13.0305623,18.0977143 12.5733496,17.6618748 C12.1161369,17.2052811 11.5550122,16.8109502 10.8484108,16.4373735 C10.1625917,16.0845511 9.31051345,15.7109745 8.31295844,15.3373978 C7.71026895,15.1298552 7.19070905,14.9223126 6.77506112,14.7355243 C6.3594132,14.5487359 6.02689487,14.3411933 5.75672372,14.154405 C5.50733496,13.9676167 5.3202934,13.7393198 5.21638142,13.5110229 C5.11246944,13.2827261 5.05012225,13.0129207 5.05012225,12.7223611 C5.05012225,12.1204876 5.3202934,11.6846481 5.8606357,11.3940885 C6.400978,11.1035288 7.08679707,10.958249 7.93887531,10.958249 C8.62469438,10.958249 9.26894866,10.9997575 9.83007335,11.1035288 C9.83007335,11.1035288 10.1833741,11.1657916 10.1833741,11.1657916 C11.4095355,11.3110714 12.5525672,10.5431638 12.801956,9.31866252 L12.9889976,8.4054751 C12.1577017,8.11491547 11.3471883,7.94888139 10.806846,7.8451101 C10.0794621,7.69983028 8.97799511,7.55455046 7.75183374,7.55455046 C5.63202934,7.55455046 3.96943765,8.03189843 2.74327628,8.98659437 C1.51711491,9.94129031 0.893643032,11.2695629 0.893643032,12.9299037 C0.893643032,13.7808283 1.01833741,14.5072274 1.28850856,15.1091009 C1.55867971,15.6902202 1.91198044,16.2090767 2.38997555,16.6241619 C2.84718826,17.0392471 3.40831296,17.4128237 4.03178484,17.7241376 C4.67603912,18.0354515 5.36185819,18.3260112 6.13080685,18.6165708 C7.37775061,19.0731645 8.27139364,19.5090039 8.83251834,19.9033349 C9.37286064,20.2976658 9.64303178,20.795768 9.64303178,21.3976416 C9.64303178,22.0410236 9.39364303,22.4976173 8.87408313,22.7674227 C8.35452323,23.0372281 7.54400978,23.1617536 6.44254279,23.1617536 C5.27872861,23.1617536 4.38508557,23.0372281 3.82396088,22.8919482 C3.36674817,22.7881769 3.07579462,22.6844057 2.6809291,22.6844057 C1.6002445,22.6844057 0.602689487,23.3692962 0.290953545,24.4485177 L0.0623471883,25.3201966 C0.561124694,25.5484935 1.74572127,25.9428244 2.55623472,26.150367 C3.42909535,26.3786638 4.50977995,26.5654522 6.44254279,26.5654522 C8.83251834,26.5654522 10.6613692,26.1296127 11.9498778,25.2371796 C13.2383863,24.3447464 13.8826406,23.0372281 13.8826406,21.2938703 C13.8826406,20.4844541 13.7787286,19.7788093 13.5709046,19.1976901 Z" id="Shape" fill="#0070AD"></path>
                <g id="Group" transform="translate(26.393643, 30.923847)">
                    <path d="M56.1540342,7.78284732 C57.4217604,7.78284732 58.4193154,6.74513434 58.4400978,5.49987877 C58.3569682,4.96026802 58.1699267,3.96406357 56.7567237,3.96406357 C55.2188264,3.96406357 54.7200489,6.1017523 53.4731051,7.47153343 C53.3691932,8.26019529 52.6210269,8.94508585 51.7066015,9.06961141 C51.9352078,9.29790826 52.4339853,9.44318808 53.0366748,9.44318808 C54.1381418,9.44318808 55.4682152,9.11111993 56.1748166,8.42622936 C55.2396088,8.44698362 54.6369193,7.8451101 54.5745721,7.01493972 C55.0525672,7.57530472 55.5513447,7.78284732 56.1540342,7.78284732 Z" id="Shape" fill="#12ABDB"></path>
                    <g fill="#0070AD" id="Shape">
                        <path d="M46.3447433,4.37914876 C46.3447433,3.69425819 46.3031785,3.23766448 45.8667482,3.23766448 C45.6589242,3.23766448 45.5757946,3.279173 45.3887531,3.34143578 C45.5550122,5.62440433 45.0354523,7.65832176 44.391198,7.65832176 C43.5599022,7.65832176 43.9755501,2.73956226 42.2090465,2.73956226 C40.5880196,2.73956226 40.3594132,6.6621173 40.1723716,6.6621173 C40.0476773,6.6621173 40.0268949,5.62440433 40.0268949,4.85649673 C40.0892421,4.48292006 40.1308068,4.1508519 40.1308068,3.88104653 C40.1308068,3.50746986 39.9853301,2.88484207 39.1540342,3.19615597 C39.1748166,5.997981 38.6136919,7.69983028 37.99022,7.69983028 C37.0550122,7.69983028 37.0550122,5.14705636 37.0550122,4.4621658 C37.0550122,3.77727523 37.096577,2.86408781 36.0782396,3.19615597 C35.9327628,5.64515859 35.2885086,7.49228769 34.8728606,7.49228769 C34.2701711,7.49228769 34.3948655,3.25841874 33.0855746,3.25841874 C31.9217604,3.25841874 31.5476773,7.26399083 31.2982885,7.26399083 C30.8618582,7.26399083 31.4437653,2.76031652 29.7396088,2.76031652 C28.8459658,2.76031652 28.492665,4.27537746 28.1393643,5.95647248 C28.0770171,6.28854063 27.9938875,6.28854063 27.9938875,5.91496396 C27.9938875,5.60365007 27.9731051,5.27158192 27.9938875,4.98102228 C28.4303178,3.279173 27.8899756,2.65654522 27.1210269,3.11313893 C27.3704156,6.24703211 25.9364303,7.76209306 24.8349633,7.76209306 C24.4400978,7.76209306 24.1283619,7.59605898 23.8997555,7.32625361 C25.2298289,6.51683749 25.8117359,5.58289581 25.8117359,4.69046265 C25.8117359,3.71501245 25.2506112,3.13389319 24.3154034,3.13389319 C23.0061125,3.13389319 22.2787286,4.48292006 22.2787286,5.62440433 C22.2787286,6.24703211 22.403423,6.7658886 22.5904645,7.20172805 C22.1332518,7.40927065 21.7176039,7.59605898 21.3227384,7.78284732 C21.2811736,6.59985453 21.1564792,5.37535321 21.0525672,4.23386894 C20.3459658,4.04708061 20.1589242,4.37914876 20.096577,5.00177654 C19.9718826,6.41306619 19.4523227,7.30549935 18.9743276,7.30549935 C18.6210269,7.30549935 18.4132029,6.89041416 18.3924205,6.43382045 C18.2677262,4.17160616 20.096577,3.52822412 21.0733496,3.86029227 C21.2811736,3.36219004 21.0525672,3.00936763 20.1797066,3.00936763 C19.1198044,3.00936763 18.3300733,3.65274967 17.7481663,4.4621658 C17.3533007,5.00177654 16.9168704,5.39610747 16.3141809,5.87345544 C16.3349633,5.72817563 16.3349633,5.60365007 16.3349633,5.47912451 C16.3349633,3.88104653 15.4621027,3.17540171 14.6308068,3.17540171 C13.9449878,3.17540171 13.5085575,3.5904869 13.2591687,4.21311468 C13.1968215,3.5904869 13.0721271,3.29992726 12.698044,3.29992726 C12.5317848,3.29992726 12.3239609,3.34143578 12.0953545,3.46596134 C12.1992665,3.81878375 12.2408313,4.60744561 12.2408313,5.10554784 C12.2408313,7.03569398 11.6797066,7.88661862 11.1601467,7.88661862 C10.5574572,7.88661862 10.4535452,5.60365007 10.4119804,4.71121691 C10.3288509,4.69046265 10.2457213,4.64895413 10.1210269,4.64895413 C9.5806846,4.64895413 9.49755501,5.37535321 9.37286064,6.06024378 C9.22738386,6.80739712 8.79095355,7.76209306 8.14669927,7.76209306 C7.75183374,7.76209306 7.52322738,7.38851639 7.48166259,6.72438008 C7.4193154,5.35459896 8.54156479,3.75652097 10.3288509,4.2546232 C10.5574572,3.71501245 10.2041565,3.29992726 9.45599022,3.29992726 C8.16748166,3.29992726 7.08679707,4.27537746 6.62958435,5.41686173 C6.15158924,6.47532897 5.3202934,8.01114417 3.63691932,8.01114417 C2.45232274,8.01114417 1.53789731,6.9734312 1.53789731,4.79423395 C1.53789731,2.90559633 2.72249389,1.12073001 3.99022005,1.12073001 C4.88386308,1.12073001 5.07090465,1.99240891 5.00855746,2.80182503 C5.46577017,3.17540171 6.21393643,2.82257929 6.21393643,1.90939188 C6.21393643,1.26600983 5.69437653,0.207542595 4.03178484,0.207542595 C1.97432763,0.207542595 0.166259169,2.26221429 0.166259169,4.93951376 C0.166259169,7.55455046 1.49633252,9.09036567 3.36674817,9.09036567 C4.55134474,9.09036567 5.67359413,8.42622936 6.44254279,7.18097379 C6.62958435,8.26019529 7.37775061,8.73754326 7.93887531,8.73754326 C8.83251834,8.73754326 9.43520782,8.15642399 9.74694377,7.36776213 C9.95476773,8.15642399 10.3704156,8.73754326 11.0770171,8.73754326 C11.5757946,8.73754326 11.9498778,8.48849214 12.2408313,8.09416121 C12.1161369,10.8337235 11.9706601,12.5978355 13.6124694,12.2450131 C13.3630807,11.4563513 13.2799511,10.0450616 13.2799511,8.75829752 C13.2799511,5.27158192 13.8618582,4.10934338 14.5892421,4.10934338 C15.108802,4.10934338 15.2750611,4.77347969 15.2750611,5.47912451 C15.2750611,5.85270118 15.2334963,6.28854063 15.1503667,6.70362582 C14.2567237,7.26399083 13.5501222,7.69983028 13.5501222,8.26019529 C13.5501222,8.69603474 13.8826406,8.73754326 14.1735941,8.73754326 C14.8594132,8.73754326 15.6699267,8.07340695 16.1271394,6.80739712 C16.5220049,6.55834601 16.9168704,6.28854063 17.3117359,5.91496396 C17.2909535,6.03948952 17.2909535,6.16401508 17.2909535,6.30929489 C17.2909535,7.55455046 17.8312958,8.32245807 18.7249389,8.32245807 C19.4107579,8.32245807 19.9303178,7.8451101 20.2836186,7.11871101 C20.304401,7.5337962 20.3251834,7.92812714 20.3251834,8.28094955 C18.9327628,8.92433159 17.3948655,9.56771364 17.3948655,11.3940885 C17.3948655,12.3280302 18.0806846,13.033675 18.9535452,13.033675 C20.8863081,13.033675 21.3435208,10.9790033 21.3435208,8.6130177 C21.9669927,8.34321233 22.4449878,8.13566973 22.9853301,7.86586436 C23.4425428,8.44698362 24.0867971,8.73754326 24.6687042,8.73754326 C25.7701711,8.73754326 26.5806846,8.15642399 27.2457213,6.9734312 C27.3704156,7.86586436 27.599022,8.73754326 28.0770171,8.73754326 C28.9498778,8.73754326 29.1161369,4.21311468 29.7603912,4.21311468 C30.2591687,4.21311468 29.8435208,9.11111993 31.1528117,9.11111993 C32.2750611,9.11111993 32.4828851,4.79423395 33.0232274,4.79423395 C33.4180929,4.79423395 33.4388753,8.73754326 34.6650367,8.73754326 C35.2677262,8.73754326 35.9119804,8.01114417 36.2444988,6.51683749 C36.3899756,7.51304194 36.9095355,8.73754326 37.8863081,8.73754326 C38.4682152,8.73754326 38.9669927,8.15642399 39.3410758,7.38851639 C39.4449878,8.17717825 39.6735941,8.73754326 40.1100244,8.73754326 C41.2530562,8.73754326 41.2114914,4.21311468 42.1051345,4.21311468 C42.8117359,4.21311468 42.5831296,8.73754326 44.2665037,8.73754326 C45.0562347,8.73754326 45.4303178,8.05265269 45.6589242,7.20172805 C45.9706601,8.44698362 46.4694377,8.73754326 46.8643032,8.73754326 C47.1136919,8.73754326 47.3215159,8.65452622 47.5709046,8.34321233 C46.2408313,7.7413388 46.3447433,5.70742137 46.3447433,4.37914876 Z M18.99511,12.1412418 C18.6002445,12.1412418 18.3716381,11.7676651 18.3716381,11.3318257 C18.3716381,10.1695872 19.2237164,9.54695938 20.2836186,9.02810289 C20.2212714,11.5808768 19.6393643,12.1412418 18.99511,12.1412418 Z M24.2114914,3.92255505 C24.606357,3.92255505 24.8349633,4.27537746 24.7933985,4.79423395 C24.7518337,5.39610747 24.3154034,6.1017523 23.5464548,6.64136305 C23.1308068,5.52063303 23.4217604,3.92255505 24.2114914,3.92255505 Z"></path>
                        <path d="M36.5770171,2.22070577 C36.9511002,2.19995151 37.200489,1.88863762 37.2212714,1.51506094 C37.2212714,1.14148427 36.9718826,0.830170381 36.5977995,0.85092464 C36.2237164,0.8716789 35.9119804,1.18299279 35.9119804,1.55656946 C35.9119804,1.93014614 36.2237164,2.24146003 36.5770171,2.22070577 Z"></path>
                        <path d="M45.8459658,2.4074941 C46.1784841,2.38673984 46.4694377,2.09618021 46.4694377,1.72260354 C46.4694377,1.36978113 46.1992665,1.07922149 45.8667482,1.07922149 C45.5342298,1.09997575 45.2432763,1.39053539 45.2432763,1.76411206 C45.2432763,2.13768873 45.5134474,2.42824836 45.8459658,2.4074941 Z"></path>
                        <path d="M58.4400978,5.41686173 C58.4193154,3.98481783 57.7334963,2.78107078 56.6735941,1.80562058 C55.8838631,1.07922149 54.9278729,0.518856488 53.9303178,0.103771298 C53.8471883,0.0622627785 53.7640587,0.041508519 53.6809291,0 C53.6809291,0 53.6809291,0 53.6809291,0 C52.4547677,1.47355243 48.2151589,2.55277392 48.2151589,5.64515859 C48.2151589,6.84890564 48.9841076,7.96963565 50.0855746,8.42622936 C50.7298289,8.67528048 51.3740831,8.67528048 52.0183374,8.46773788 C52.6002445,8.28094955 53.0574572,7.92812714 53.4523227,7.49228769 C54.6992665,6.12250656 55.198044,3.98481783 56.7359413,3.98481783 C58.1283619,3.98481783 58.3154034,4.98102228 58.4193154,5.52063303 C58.4400978,5.49987877 58.4400978,5.47912451 58.4400978,5.41686173 Z"></path>
                    </g>
                </g>
                <path d="M10.1210269,35.0331901 C10.6613692,35.0331901 11.0770171,35.1369614 11.3471883,35.3237497 C11.6381418,35.510538 11.7836186,35.8218519 11.7836186,36.2369371 C11.7836186,36.4444797 11.7420538,36.631268 11.6797066,36.7973021 C11.596577,36.9425819 11.492665,37.0878618 11.3471883,37.1708788 C11.2017115,37.2746501 11.0146699,37.3369129 10.806846,37.3784214 C10.599022,37.4199299 10.3496333,37.4406842 10.0794621,37.4406842 L9.74694377,37.4406842 L9.74694377,38.7482025 L9.08190709,38.7482025 L9.08190709,35.1162071 C9.22738386,35.0746986 9.41442543,35.0539443 9.60146699,35.0539443 C9.78850856,35.0539443 9.95476773,35.0331901 10.1210269,35.0331901 Z M10.1625917,35.6143093 C9.99633252,35.6143093 9.85085575,35.6143093 9.74694377,35.6350636 L9.74694377,36.8803192 L10.0794621,36.8803192 C10.4119804,36.8803192 10.6405868,36.8388106 10.8276284,36.7350393 C10.9938875,36.6520223 11.0977995,36.465234 11.0977995,36.2161829 C11.0977995,36.0916573 11.0770171,35.987886 11.0354523,35.904869 C10.9938875,35.8218519 10.9315403,35.7595891 10.8484108,35.7180806 C10.7652812,35.6765721 10.6613692,35.6350636 10.5574572,35.6143093 C10.4119804,35.6350636 10.3080685,35.6143093 10.1625917,35.6143093 Z" id="Shape" fill="#0070AD"></path>
                <path d="M13.00978,35.904869 C13.2176039,35.904869 13.4046455,35.9256232 13.5501222,35.987886 C13.695599,36.0501488 13.8202934,36.1124116 13.903423,36.2161829 C13.9865526,36.3199542 14.0488998,36.4237255 14.0904645,36.5690053 C14.1320293,36.7142851 14.1528117,36.8595649 14.1528117,37.025599 L14.1528117,38.706694 C14.0488998,38.7274483 13.903423,38.7482025 13.695599,38.789711 C13.4877751,38.8104653 13.2591687,38.8312196 13.00978,38.8312196 C12.8435208,38.8312196 12.698044,38.8104653 12.5525672,38.789711 C12.4070905,38.7482025 12.3031785,38.706694 12.1992665,38.6444312 C12.0953545,38.5821684 12.0330073,38.4783971 11.9706601,38.3746258 C11.908313,38.2708545 11.8875306,38.1255747 11.8875306,37.9595407 C11.8875306,37.7935066 11.908313,37.668981 11.9706601,37.5652097 C12.0330073,37.4614384 12.1161369,37.3576671 12.2200489,37.2954044 C12.3239609,37.2331416 12.4486553,37.1708788 12.594132,37.1501245 C12.7396088,37.1293703 12.8850856,37.108616 13.0305623,37.108616 C13.0929095,37.108616 13.1760391,37.108616 13.2591687,37.1293703 C13.3422983,37.1293703 13.4254279,37.1501245 13.5085575,37.1708788 L13.5085575,37.0671075 C13.5085575,36.9840905 13.5085575,36.9218277 13.4877751,36.8595649 C13.4669927,36.7973021 13.4462103,36.7350393 13.3838631,36.6727766 C13.3215159,36.6105138 13.2799511,36.5897595 13.2176039,36.548251 C13.1344743,36.5274967 13.0513447,36.5067425 12.9474328,36.5067425 C12.801956,36.5067425 12.6564792,36.5274967 12.5317848,36.548251 C12.4070905,36.5690053 12.3031785,36.5897595 12.2200489,36.631268 L12.1369193,36.1124116 C12.2200489,36.0916573 12.3447433,36.0501488 12.49022,36.0293945 C12.6564792,35.9256232 12.8227384,35.904869 13.00978,35.904869 Z M13.0721271,38.3123631 C13.2799511,38.3123631 13.4254279,38.2916088 13.5293399,38.2708545 L13.5293399,37.5652097 C13.4877751,37.5444555 13.4462103,37.5444555 13.3838631,37.5237012 C13.3215159,37.5029469 13.2383863,37.5029469 13.1552567,37.5029469 C13.0929095,37.5029469 13.00978,37.5029469 12.9474328,37.5237012 C12.8643032,37.5444555 12.801956,37.5444555 12.7396088,37.585964 C12.6772616,37.6067182 12.6356968,37.6482268 12.594132,37.7104895 C12.5525672,37.7519981 12.5317848,37.8350151 12.5317848,37.8972779 C12.5317848,38.0425577 12.5733496,38.146329 12.6772616,38.2085918 C12.7603912,38.2916088 12.905868,38.3123631 13.0721271,38.3123631 Z" id="Shape" fill="#0070AD"></path>
                <path d="M16.1271394,36.5690053 C16.0647922,36.548251 16.002445,36.5274967 15.898533,36.5067425 C15.794621,36.4859882 15.690709,36.4859882 15.5660147,36.4859882 C15.5036675,36.4859882 15.4205379,36.4859882 15.3374083,36.5067425 C15.2542787,36.5274967 15.1919315,36.5274967 15.1711491,36.548251 L15.1711491,38.7689568 L14.5476773,38.7689568 L14.5476773,36.1124116 C14.6723716,36.070903 14.8178484,36.0293945 15.00489,35.987886 C15.1919315,35.9463775 15.3997555,35.9256232 15.6283619,35.9256232 C15.6699267,35.9256232 15.7114914,35.9256232 15.7738386,35.9256232 C15.8361858,35.9256232 15.8777506,35.9463775 15.9400978,35.9463775 C16.002445,35.9463775 16.0440098,35.9671317 16.106357,35.987886 C16.1687042,36.0086403 16.2102689,36.0086403 16.2310513,36.0293945 L16.1271394,36.5690053 Z" id="Shape" fill="#0070AD"></path>
                <path d="M16.5220049,35.2407327 L17.1662592,35.1369614 L17.1662592,35.9671317 L18.1638142,35.9671317 L18.1638142,36.5067425 L17.1662592,36.5067425 L17.1662592,37.6482268 C17.1662592,37.8765236 17.207824,38.0218034 17.2701711,38.1255747 C17.3325183,38.229346 17.4572127,38.2708545 17.6234719,38.2708545 C17.7481663,38.2708545 17.8520782,38.2501003 17.9352078,38.229346 C18.0183374,38.2085918 18.101467,38.1878375 18.1430318,38.1670833 L18.2469438,38.6859397 C18.1638142,38.7274483 18.0806846,38.7482025 17.9559902,38.789711 C17.8312958,38.8312196 17.6858191,38.8312196 17.5403423,38.8312196 C17.3325183,38.8312196 17.1662592,38.8104653 17.0415648,38.7482025 C16.9168704,38.6859397 16.792176,38.623677 16.7298289,38.5199057 C16.6466993,38.4161344 16.6051345,38.2916088 16.5635697,38.146329 C16.5220049,38.0010492 16.5220049,37.8350151 16.5220049,37.6482268 L16.5220049,35.2407327 Z" id="Shape" fill="#0070AD"></path>
                <path d="M22.3202934,37.3784214 C22.3202934,37.6067182 22.2787286,37.7935066 22.2163814,37.9802949 C22.1540342,38.1670833 22.0709046,38.3123631 21.9462103,38.4368886 C21.8215159,38.5614142 21.6968215,38.6651855 21.5305623,38.7274483 C21.3643032,38.789711 21.1772616,38.8312196 20.99022,38.8312196 C20.8031785,38.8312196 20.6161369,38.789711 20.4498778,38.7274483 C20.2836186,38.6651855 20.1381418,38.5614142 20.0342298,38.4368886 C19.9095355,38.3123631 19.8264059,38.146329 19.7640587,37.9802949 C19.7017115,37.7935066 19.6601467,37.6067182 19.6601467,37.3784214 C19.6601467,37.1501245 19.7017115,36.9633362 19.7640587,36.7765479 C19.8264059,36.5897595 19.9303178,36.4444797 20.0342298,36.3199542 C20.1589242,36.1954286 20.304401,36.0916573 20.4498778,36.0293945 C20.6161369,35.9671317 20.7823961,35.9256232 20.99022,35.9256232 C21.1772616,35.9256232 21.3643032,35.9671317 21.5305623,36.0293945 C21.6968215,36.0916573 21.8422983,36.1954286 21.9462103,36.3199542 C22.0709046,36.4444797 22.1540342,36.6105138 22.2163814,36.7765479 C22.299511,36.9425819 22.3202934,37.1501245 22.3202934,37.3784214 Z M21.6552567,37.3784214 C21.6552567,37.108616 21.5929095,36.8803192 21.4682152,36.7142851 C21.3435208,36.548251 21.1772616,36.465234 20.9694377,36.465234 C20.7616137,36.465234 20.5953545,36.548251 20.4706601,36.7142851 C20.3459658,36.8803192 20.2836186,37.0878618 20.2836186,37.3784214 C20.2836186,37.668981 20.3459658,37.8765236 20.4706601,38.0425577 C20.5953545,38.2085918 20.7616137,38.2916088 20.9694377,38.2916088 C21.1772616,38.2916088 21.3435208,38.2085918 21.4682152,38.0425577 C21.5929095,37.8765236 21.6552567,37.6482268 21.6552567,37.3784214 Z" id="Shape" fill="#0070AD"></path>
                <path d="M23.7958435,34.6388591 C23.9413203,34.6388591 24.0660147,34.6596134 24.190709,34.6803677 C24.294621,34.7011219 24.398533,34.7218762 24.4400978,34.7426304 L24.3154034,35.2822412 C24.2530562,35.2614869 24.190709,35.2407327 24.1075795,35.2199784 C24.0244499,35.1992241 23.9413203,35.1992241 23.8581907,35.1992241 C23.7542787,35.1992241 23.6711491,35.2199784 23.5880196,35.2407327 C23.50489,35.2614869 23.4633252,35.3029954 23.4217604,35.3652582 C23.3801956,35.427521 23.3594132,35.4897838 23.3386308,35.5520466 C23.3178484,35.6350636 23.3178484,35.7180806 23.3178484,35.8010977 L23.3178484,35.987886 L24.3361858,35.987886 L24.3361858,36.5274967 L23.3178484,36.5274967 L23.3178484,38.7689568 L22.6528117,38.7689568 L22.6528117,35.7803434 C22.6528117,35.427521 22.7567237,35.1369614 22.9437653,34.9294188 C23.1308068,34.7426304 23.4217604,34.6388591 23.7958435,34.6388591 Z" id="Shape" fill="#0070AD"></path>
                <path d="M45.2848411,7.88661862 C44.1002445,7.67907602 42.8533007,7.57530472 41.5440098,7.57530472 C40.193154,7.57530472 38.9669927,7.80360158 37.9070905,8.23944103 C36.8471883,8.67528048 35.9327628,9.29790826 35.1845966,10.0865701 C34.4364303,10.875232 33.8753056,11.8299279 33.4804401,12.9299037 C33.0855746,14.0506337 32.898533,15.2543807 32.898533,16.5826534 C32.898533,17.993943 33.0855746,19.2391986 33.4596577,20.3184201 C33.8337408,21.3976416 34.3325183,22.2900747 34.997555,23.0164738 C35.6625917,23.7428729 36.4523227,24.2824836 37.3667482,24.6560603 C38.2811736,25.029637 39.299511,25.2164253 40.4217604,25.2164253 C41.2738386,25.2164253 42.0220049,25.112654 42.6662592,24.9051114 C43.2273839,24.7183231 43.705379,24.552289 44.0794621,24.3655007 C44.0794621,26.1296127 43.3312958,27.5409024 40.9828851,28.1220216 C40.0268949,28.3503185 38.7383863,28.2880557 37.0134474,27.8107078 C36.5354523,28.6823867 36.2652812,30.1974476 36.992665,31.0898808 C37.6369193,31.8577884 39.2163814,32.0030682 40.2139364,32.0030682 C42.4584352,32.0030682 44.8899756,31.0483722 46.0330073,29.989905 C47.5293399,28.6201239 48.2775061,26.4824351 48.2775061,23.5560846 L48.2775061,8.57150918 C47.4669927,8.32245807 46.4486553,8.09416121 45.2848411,7.88661862 Z M44.0794621,20.7750138 C43.7261614,21.0240649 43.2897311,21.2523617 42.7286064,21.4391501 C42.1674817,21.6259384 41.5855746,21.7089555 40.9413203,21.7089555 C39.7982885,21.7089555 38.8422983,21.2938703 38.1149144,20.4844541 C37.3875306,19.6542838 37.0134474,18.3675197 37.0134474,16.5826534 C37.0134474,14.9430669 37.3875306,13.6147942 38.1564792,12.5978355 C38.9254279,11.5808768 40.0061125,11.0827746 41.4400978,11.0827746 C42.0635697,11.0827746 42.5831296,11.1035288 42.9987775,11.1657916 C43.4144254,11.2280544 43.7677262,11.2903172 44.0378973,11.35258 L44.0378973,20.7750138 L44.0794621,20.7750138 Z" id="Shape" fill="#0070AD"></path>
            </g>
        </g>
    </g>
</svg>
