<svg xmlns="http://www.w3.org/2000/svg" viewBox="0 0 100 125" x="0px" y="0px">
  <g>
    <path fill="#72c9e1"
      d="M80.66,67.72l-51.08,.07c-.87,0-1.62-.62-1.77-1.47l-6.9-37.36c-.1-.53,.04-1.07,.39-1.48,.34-.41,.85-.65,1.38-.65l37.23-.05c.99,0,1.8,.8,1.8,1.8s-.8,1.8-1.8,1.8l-35.07,.05,6.24,33.75,49.58-.07c3.17,0,5.84-1.99,6.34-4.73l4.41-24.25c.18-.98,1.11-1.63,2.1-1.45,.98,.18,1.63,1.12,1.45,2.09l-4.41,24.25c-.81,4.45-4.96,7.68-9.88,7.68Z" />

    <path fill="#72c9e1"
      d="M22.38,28.46c-.89,0-1.66-.66-1.79-1.56l-.52-3.86c-.4-2.97-2.85-5.3-5.83-5.55l-7.64-.64c-.99-.08-1.73-.95-1.65-1.94,.08-.99,.95-1.73,1.95-1.65l7.64,.64c4.65,.39,8.48,4.03,9.1,8.66l.52,3.86c.13,.99-.56,1.89-1.55,2.03-.08,.01-.16,.02-.24,.02Z" />

    <path fill="#72c9e1"
      d="M35.95,77.02h-2.22c-3.54,0-6.42-2.87-6.43-6.41s2.87-6.42,6.41-6.43l48.86-.07c.99,0,1.8,.8,1.8,1.8s-.8,1.8-1.8,1.8l-48.86,.07c-1.55,0-2.82,1.27-2.81,2.82s1.27,2.82,2.82,2.81h2.22c.99,0,1.8,.8,1.8,1.8s-.8,1.8-1.8,1.8Z" />
    <path fill="#72c9e1"
      d="M69.72,76.97l-23.71,.03c-.99,0-1.8-.8-1.8-1.8s.8-1.8,1.8-1.8l23.71-.03c.99,0,1.8,.8,1.8,1.8s-.8,1.8-1.8,1.8Z" />
    <path fill="#9d9d9c"
      d="M40.92,86.81c-4.39,0-7.96-3.56-7.97-7.95s3.56-7.96,7.95-7.97,7.96,3.56,7.97,7.95-3.56,7.96-7.95,7.97Zm-.02-12.31c-2.4,0-4.35,1.96-4.35,4.36s1.96,4.35,4.36,4.35,4.35-1.96,4.35-4.36-1.96-4.35-4.36-4.35Z" />
    <path fill="#9d9d9c"
      d="M74.91,86.76c-4.39,0-7.96-3.56-7.97-7.95s3.56-7.96,7.95-7.97,7.96,3.56,7.97,7.95-3.56,7.96-7.95,7.97Zm-.02-12.31c-2.4,0-4.35,1.96-4.35,4.36s1.96,4.35,4.36,4.35,4.35-1.96,4.35-4.36-1.96-4.35-4.36-4.35Z" />
  </g>
  <path fill="#73C3B6"
    d="M76,53.38c-10.43,.01-18.92-8.46-18.94-18.88s8.46-18.92,18.88-18.94,18.92,8.46,18.94,18.88-8.46,18.92-18.88,18.94Zm-.05-34.22c-8.44,.01-15.3,6.89-15.29,15.33s6.89,15.3,15.33,15.29c8.44-.01,15.3-6.89,15.29-15.33s-6.89-15.3-15.33-15.29Z" />
  <path fill="#A3CF9B"
    d="M75.98,42.01c-.99,0-1.8-.8-1.8-1.8l-.02-11.46c0-.99,.8-1.8,1.8-1.8s1.8,.8,1.8,1.8l.02,11.46c0,.99-.8,1.8-1.8,1.8Z" />
  <path fill="#A3CF9B"
    d="M81.71,36.27l-11.46,.02c-.99,0-1.8-.8-1.8-1.8s.8-1.8,1.8-1.8l11.46-.02c.99,0,1.8,.8,1.8,1.8s-.8,1.8-1.8,1.8Z" />
</svg>