<svg xmlns="http://www.w3.org/2000/svg" viewBox="0 0 400 375.51250000000005" x="0px" y="0px">
  <g>
    <g>
      <path fill='#e17772'
        d="M243.88,120.16H11.83c-4.42,0-8-3.58-8-8s3.58-8,8-8H243.88c4.42,0,8,3.58,8,8s-3.58,8-8,8Z" />

      <path fill='#72C9E1'
        d="M334.03,300.41H65.97C29.6,300.41,0,270.81,0,234.44V101.19C0,64.81,29.6,35.21,65.97,35.21H251.9c4.42,0,8,3.58,8,8s-3.58,8-8,8H65.97c-27.56,0-49.97,22.42-49.97,49.97V234.44c0,27.56,22.42,49.97,49.97,49.97H334.03c27.56,0,49.97-22.42,49.97-49.97V83.98c0-4.42,3.58-8,8-8s8,3.58,8,8V234.44c0,36.38-29.6,65.97-65.97,65.97Z" />
      <path fill='#e17772'
        d="M316.02,167.95c-46.3,0-83.98-37.67-83.98-83.98S269.72,0,316.02,0s83.98,37.67,83.98,83.98-37.67,83.98-83.98,83.98Zm0-151.95c-37.48,0-67.98,30.49-67.98,67.98s30.49,67.98,67.98,67.98,67.98-30.49,67.98-67.98-30.49-67.98-67.98-67.98Z" />
      <path fill='#e17772'
        d="M298.03,110.31c-2.05,0-4.09-.78-5.66-2.34-3.12-3.12-3.12-8.19,0-11.31l35.99-35.99c3.12-3.12,8.19-3.12,11.31,0,3.12,3.12,3.12,8.19,0,11.31l-35.99,35.99c-1.56,1.56-3.61,2.34-5.66,2.34Z" />
      <path fill='#9d9d9c'
        d="M99.37,261.84h-33.31c-13.23,0-24-10.77-24-24v-4.06c0-13.23,10.77-24,24-24h33.31c13.23,0,24,10.77,24,24v4.06c0,13.23-10.77,24-24,24Zm-33.31-36.06c-4.41,0-8,3.59-8,8v4.06c0,4.41,3.59,8,8,8h33.31c4.41,0,8-3.59,8-8v-4.06c0-4.41-3.59-8-8-8h-33.31Z" />
      <path fill='#e17772'
        d="M334.02,110.31c-2.05,0-4.09-.78-5.66-2.34l-35.99-35.99c-3.12-3.12-3.12-8.19,0-11.31,3.12-3.12,8.19-3.12,11.31,0l35.99,35.99c3.12,3.12,3.12,8.19,0,11.31-1.56,1.56-3.61,2.34-5.66,2.34Z" />
    </g>
  </g>
</svg>