<?xml version="1.0" encoding="UTF-8" standalone="no"?>
<!DOCTYPE svg PUBLIC "-//W3C//DTD SVG 1.1//EN" "http://www.w3.org/Graphics/SVG/1.1/DTD/svg11.dtd">
<svg width="100%" height="100%" viewBox="0 0 100 83" version="1.1" xmlns="http://www.w3.org/2000/svg" xmlns:xlink="http://www.w3.org/1999/xlink" xml:space="preserve" style="fill-rule:evenodd;clip-rule:evenodd;">
    <g id="Layer1">
        <rect x="-3.072" y="-2.224" width="106.524" height="88.943" style="fill:#fff;"/>
    </g>
    <g id="logovierkantsvg1.2e.0" transform="matrix(0.160029,0,0,0.160029,50.632,34.6487)">
        <g transform="matrix(1,0,0,1,-200,-200)">
            <clipPath id="_clip1">
                <rect x="0" y="0" width="400" height="400"/>
            </clipPath>
            <g clip-path="url(#_clip1)">
                <rect x="0" y="0" width="400" height="400" style="fill:#fff;"/>
                <g id="rings">
                    <path d="M201.227,10.004L202.452,10.015L203.675,10.035L204.896,10.062L206.116,10.097L207.334,10.139L208.55,10.189L209.764,10.247L210.976,10.313L212.186,10.386L213.394,10.466L214.6,10.554L215.805,10.65L217.007,10.753L218.207,10.863L219.405,10.981L220.6,11.107L221.794,11.24L222.985,11.38L224.175,11.527L225.362,11.682L226.546,11.844L227.729,12.014L228.909,12.191L230.087,12.375L231.262,12.566L232.435,12.764L233.606,12.97L234.774,13.182L235.94,13.402L237.103,13.629L238.264,13.863L239.422,14.104L240.578,14.352L241.731,14.607L242.881,14.869L244.029,15.138L245.174,15.414L246.317,15.697L247.457,15.987L248.594,16.284L249.728,16.587L250.859,16.897L251.988,17.214L253.114,17.538L254.237,17.869L255.357,18.206L256.474,18.55L257.588,18.901L258.7,19.258L259.808,19.622L260.913,19.993L262.016,20.37L263.115,20.753L264.211,21.144L265.304,21.54L266.394,21.944L267.481,22.353L268.564,22.769L269.645,23.192L270.722,23.621L271.796,24.056L272.867,24.498L273.934,24.946L274.998,25.4L276.059,25.86L277.116,26.327L278.17,26.8L279.221,27.279L280.268,27.764L281.311,28.256L282.352,28.754L283.388,29.257L284.421,29.767L285.451,30.283L286.477,30.805L287.499,31.333L288.518,31.867L289.533,32.407L290.545,32.952L291.552,33.504L292.556,34.062L293.557,34.625L294.553,35.194L295.546,35.769L296.535,36.35L297.52,36.937L298.501,37.53L299.479,38.128L300.452,38.732L301.422,39.341L302.387,39.956L303.349,40.577L304.307,41.204L305.26,41.836L306.21,42.473L307.155,43.117L308.097,43.765L309.034,44.419L309.967,45.079L310.896,45.744L311.821,46.414L312.742,47.09L313.658,47.772L314.57,48.458L315.478,49.15L316.382,49.847L317.281,50.55L318.176,51.258L319.067,51.971L319.953,52.689L320.835,53.413L321.712,54.141L322.585,54.875L323.454,55.614L324.318,56.358L325.177,57.107L326.032,57.861L326.882,58.62L327.728,59.384L328.569,60.153L329.405,60.927L330.237,61.706L331.064,62.49L331.887,63.279L332.704,64.073L333.517,64.871L334.325,65.675L335.129,66.483L335.927,67.296L336.721,68.113L337.51,68.936L338.294,69.763L339.073,70.595L339.847,71.431L340.616,72.272L341.38,73.118L342.139,73.968L342.893,74.823L343.642,75.682L344.386,76.546L345.125,77.415L345.859,78.288L346.587,79.165L347.311,80.047L348.029,80.933L348.742,81.824L349.45,82.719L350.153,83.618L350.85,84.522L351.542,85.429L352.228,86.342L352.91,87.258L353.586,88.179L354.256,89.104L354.921,90.033L355.581,90.966L356.235,91.903L356.884,92.845L357.527,93.79L358.164,94.74L358.796,95.693L359.423,96.651L360.044,97.613L360.659,98.578L361.268,99.548L361.872,100.521L362.47,101.499L363.063,102.48L363.65,103.465L364.231,104.454L364.806,105.447L365.375,106.443L365.938,107.444L366.496,108.448L367.048,109.455L367.593,110.467L368.133,111.482L368.667,112.501L369.195,113.523L369.717,114.549L370.233,115.579L370.743,116.612L371.246,117.648L371.744,118.689L372.235,119.732L372.721,120.779L373.2,121.83L373.673,122.884L374.14,123.941L374.6,125.002L375.054,126.066L375.502,127.133L375.944,128.204L376.379,129.278L376.808,130.355L377.231,131.436L377.647,132.519L378.056,133.606L378.46,134.696L378.856,135.789L379.247,136.885L379.63,137.984L380.007,139.087L380.378,140.192L380.742,141.3L381.099,142.411L381.45,143.526L381.794,144.643L382.131,145.763L382.462,146.886L382.786,148.012L383.103,149.141L383.413,150.272L383.716,151.406L384.013,152.543L384.303,153.683L384.586,154.826L384.862,155.971L385.131,157.119L385.393,158.269L385.648,159.422L385.896,160.578L386.137,161.736L386.371,162.897L386.598,164.06L386.818,165.226L387.03,166.394L387.236,167.565L387.434,168.738L387.625,169.913L387.809,171.091L387.986,172.271L388.156,173.454L388.318,174.638L388.473,175.825L388.62,177.014L388.76,178.206L388.893,179.4L389.019,180.595L389.137,181.793L389.247,182.993L389.35,184.195L389.446,185.4L389.534,186.606L389.614,187.814L389.687,189.024L389.753,190.236L389.811,191.45L389.861,192.666L389.903,193.884L389.938,195.104L389.965,196.325L389.985,197.548L389.996,198.773L390,200L389.996,201.227L389.985,202.452L389.965,203.675L389.938,204.896L389.903,206.116L389.861,207.334L389.811,208.55L389.753,209.764L389.687,210.976L389.614,212.186L389.534,213.394L389.446,214.6L389.35,215.805L389.247,217.007L389.137,218.207L389.019,219.405L388.893,220.6L388.76,221.794L388.62,222.986L388.473,224.175L388.318,225.362L388.156,226.546L387.986,227.729L387.809,228.909L387.625,230.087L387.434,231.262L387.236,232.435L387.03,233.606L386.818,234.774L386.598,235.94L386.371,237.103L386.137,238.264L385.896,239.422L385.648,240.578L385.393,241.731L385.131,242.881L384.862,244.029L384.586,245.174L384.303,246.317L384.013,247.457L383.716,248.594L383.413,249.728L383.103,250.859L382.786,251.988L382.462,253.114L382.131,254.237L381.794,255.357L381.45,256.474L381.099,257.589L380.742,258.7L380.378,259.808L380.007,260.913L379.63,262.016L379.247,263.115L378.856,264.211L378.46,265.304L378.056,266.394L377.647,267.481L377.231,268.564L376.808,269.645L376.379,270.722L375.944,271.796L375.502,272.867L375.054,273.934L374.6,274.998L374.14,276.059L373.673,277.116L373.2,278.17L372.721,279.221L372.235,280.268L371.744,281.311L371.246,282.352L370.743,283.388L370.233,284.421L369.717,285.451L369.195,286.477L368.667,287.499L368.133,288.518L367.593,289.533L367.048,290.545L366.496,291.552L365.938,292.557L365.375,293.557L364.806,294.553L364.231,295.546L363.65,296.535L363.063,297.52L362.47,298.501L361.872,299.479L361.268,300.452L360.659,301.422L360.044,302.387L359.423,303.349L358.796,304.307L358.164,305.26L357.527,306.21L356.884,307.155L356.235,308.097L355.581,309.034L354.921,309.967L354.256,310.896L353.585,311.821L352.91,312.742L352.228,313.658L351.542,314.571L350.85,315.478L350.153,316.382L349.45,317.281L348.742,318.176L348.029,319.067L347.311,319.953L346.587,320.835L345.859,321.712L345.125,322.585L344.386,323.454L343.642,324.318L342.893,325.177L342.139,326.032L341.38,326.882L340.616,327.728L339.847,328.569L339.073,329.405L338.294,330.237L337.51,331.064L336.721,331.887L335.927,332.704L335.129,333.517L334.325,334.325L333.517,335.129L332.704,335.927L331.887,336.721L331.064,337.51L330.237,338.294L329.405,339.073L328.569,339.847L327.728,340.616L326.882,341.38L326.032,342.139L325.177,342.893L324.317,343.642L323.454,344.386L322.585,345.125L321.712,345.859L320.835,346.587L319.953,347.311L319.067,348.029L318.176,348.742L317.281,349.45L316.382,350.153L315.478,350.85L314.571,351.542L313.658,352.228L312.742,352.91L311.821,353.585L310.896,354.256L309.967,354.921L309.034,355.581L308.097,356.235L307.155,356.884L306.21,357.527L305.26,358.164L304.307,358.796L303.349,359.423L302.387,360.044L301.422,360.659L300.452,361.268L299.479,361.872L298.501,362.47L297.52,363.063L296.535,363.65L295.546,364.231L294.553,364.806L293.557,365.375L292.556,365.938L291.553,366.496L290.545,367.048L289.533,367.594L288.518,368.133L287.499,368.667L286.477,369.195L285.451,369.717L284.421,370.233L283.388,370.743L282.351,371.246L281.311,371.744L280.268,372.236L279.221,372.721L278.17,373.2L277.116,373.673L276.059,374.14L274.998,374.6L273.934,375.054L272.867,375.502L271.796,375.944L270.722,376.379L269.645,376.808L268.564,377.231L267.481,377.647L266.394,378.056L265.304,378.46L264.211,378.856L263.115,379.247L262.016,379.63L260.913,380.007L259.808,380.378L258.7,380.742L257.588,381.099L256.474,381.45L255.357,381.794L254.237,382.131L253.114,382.462L251.988,382.786L250.859,383.103L249.728,383.413L248.594,383.716L247.457,384.013L246.317,384.303L245.174,384.586L244.029,384.862L242.881,385.131L241.731,385.393L240.578,385.648L239.422,385.896L238.264,386.137L237.103,386.371L235.94,386.598L234.774,386.818L233.606,387.03L232.435,387.236L231.262,387.434L230.087,387.625L228.909,387.809L227.729,387.986L226.546,388.156L225.362,388.318L224.175,388.473L222.985,388.62L221.794,388.76L220.6,388.893L219.405,389.019L218.207,389.137L217.007,389.247L215.805,389.35L214.6,389.446L213.394,389.534L212.186,389.614L210.976,389.687L209.764,389.753L208.55,389.811L207.334,389.861L206.116,389.903L204.896,389.938L203.675,389.965L202.452,389.985L201.227,389.996L200,390L198.773,389.996L197.548,389.985L196.325,389.965L195.104,389.938L193.884,389.903L192.666,389.861L191.45,389.811L190.236,389.753L189.024,389.687L187.814,389.614L186.606,389.534L185.4,389.446L184.195,389.35L182.993,389.247L181.793,389.137L180.595,389.019L179.4,388.893L178.206,388.76L177.015,388.62L175.825,388.473L174.638,388.318L173.454,388.156L172.271,387.986L171.091,387.809L169.913,387.625L168.738,387.434L167.565,387.236L166.394,387.03L165.226,386.818L164.06,386.598L162.897,386.371L161.736,386.137L160.578,385.896L159.422,385.648L158.269,385.393L157.119,385.131L155.971,384.862L154.826,384.586L153.683,384.303L152.543,384.013L151.406,383.716L150.272,383.413L149.141,383.103L148.012,382.786L146.886,382.462L145.763,382.131L144.643,381.794L143.526,381.45L142.412,381.099L141.3,380.742L140.192,380.378L139.087,380.007L137.984,379.63L136.885,379.247L135.789,378.856L134.696,378.46L133.606,378.056L132.519,377.647L131.436,377.231L130.355,376.808L129.278,376.379L128.204,375.944L127.133,375.502L126.066,375.054L125.002,374.6L123.941,374.14L122.884,373.673L121.83,373.2L120.779,372.721L119.732,372.236L118.689,371.744L117.649,371.246L116.612,370.743L115.579,370.233L114.549,369.717L113.523,369.195L112.501,368.667L111.482,368.133L110.467,367.594L109.455,367.048L108.447,366.496L107.444,365.938L106.443,365.375L105.447,364.806L104.454,364.231L103.465,363.65L102.48,363.063L101.498,362.47L100.521,361.872L99.548,361.268L98.578,360.659L97.613,360.044L96.651,359.423L95.693,358.796L94.74,358.164L93.79,357.527L92.845,356.884L91.903,356.235L90.966,355.581L90.033,354.921L89.104,354.256L88.179,353.585L87.258,352.91L86.342,352.228L85.429,351.542L84.522,350.85L83.618,350.153L82.719,349.45L81.824,348.742L80.933,348.029L80.047,347.311L79.165,346.587L78.288,345.859L77.415,345.125L76.546,344.386L75.683,343.642L74.823,342.893L73.968,342.139L73.118,341.38L72.272,340.616L71.431,339.847L70.595,339.073L69.763,338.294L68.936,337.51L68.113,336.721L67.296,335.927L66.483,335.129L65.675,334.325L64.871,333.517L64.073,332.704L63.279,331.887L62.49,331.064L61.706,330.237L60.927,329.405L60.153,328.569L59.384,327.728L58.62,326.882L57.861,326.032L57.107,325.177L56.358,324.318L55.614,323.454L54.875,322.585L54.141,321.712L53.413,320.835L52.689,319.953L51.971,319.067L51.258,318.176L50.55,317.281L49.848,316.382L49.15,315.478L48.458,314.571L47.772,313.658L47.09,312.742L46.415,311.821L45.744,310.896L45.079,309.967L44.419,309.034L43.765,308.097L43.116,307.155L42.473,306.21L41.836,305.26L41.204,304.307L40.577,303.349L39.956,302.387L39.341,301.422L38.732,300.452L38.128,299.479L37.53,298.501L36.937,297.52L36.35,296.535L35.77,295.546L35.194,294.553L34.625,293.557L34.062,292.556L33.504,291.552L32.952,290.545L32.407,289.533L31.867,288.518L31.333,287.499L30.805,286.477L30.283,285.451L29.767,284.421L29.257,283.388L28.754,282.351L28.256,281.311L27.765,280.268L27.279,279.221L26.8,278.17L26.327,277.116L25.86,276.059L25.4,274.998L24.946,273.934L24.498,272.867L24.056,271.796L23.621,270.722L23.192,269.645L22.769,268.564L22.353,267.481L21.944,266.394L21.54,265.304L21.144,264.211L20.753,263.115L20.37,262.016L19.993,260.913L19.622,259.808L19.258,258.7L18.901,257.588L18.55,256.474L18.206,255.357L17.869,254.237L17.538,253.114L17.214,251.988L16.897,250.859L16.587,249.728L16.284,248.594L15.987,247.457L15.697,246.317L15.414,245.174L15.138,244.029L14.869,242.881L14.607,241.731L14.352,240.578L14.104,239.422L13.863,238.264L13.629,237.103L13.402,235.94L13.182,234.774L12.97,233.606L12.764,232.435L12.566,231.262L12.375,230.087L12.191,228.909L12.014,227.729L11.844,226.546L11.682,225.362L11.527,224.175L11.38,222.985L11.24,221.794L11.107,220.6L10.981,219.405L10.863,218.207L10.753,217.007L10.65,215.805L10.554,214.6L10.466,213.394L10.386,212.186L10.313,210.976L10.247,209.764L10.189,208.55L10.139,207.334L10.097,206.116L10.062,204.896L10.035,203.675L10.015,202.452L10.004,201.227L10,200L10.004,198.773L10.015,197.548L10.035,196.325L10.062,195.104L10.097,193.884L10.139,192.666L10.189,191.45L10.247,190.236L10.313,189.024L10.386,187.814L10.466,186.606L10.554,185.4L10.65,184.195L10.753,182.993L10.863,181.793L10.981,180.595L11.107,179.4L11.24,178.206L11.38,177.015L11.527,175.825L11.682,174.638L11.844,173.454L12.014,172.271L12.191,171.091L12.375,169.913L12.566,168.738L12.764,167.565L12.97,166.394L13.182,165.226L13.402,164.06L13.629,162.897L13.863,161.736L14.104,160.578L14.352,159.422L14.607,158.269L14.869,157.119L15.138,155.971L15.414,154.826L15.697,153.683L15.987,152.543L16.284,151.406L16.587,150.272L16.897,149.141L17.214,148.012L17.538,146.886L17.869,145.763L18.206,144.643L18.55,143.526L18.901,142.412L19.258,141.3L19.622,140.192L19.993,139.087L20.37,137.984L20.753,136.885L21.144,135.789L21.54,134.696L21.944,133.606L22.353,132.519L22.769,131.436L23.192,130.355L23.621,129.278L24.056,128.204L24.498,127.133L24.946,126.066L25.4,125.002L25.86,123.941L26.327,122.884L26.8,121.83L27.279,120.779L27.765,119.732L28.256,118.689L28.754,117.649L29.257,116.612L29.767,115.579L30.283,114.549L30.805,113.523L31.333,112.501L31.867,111.482L32.407,110.467L32.952,109.455L33.504,108.448L34.062,107.444L34.625,106.443L35.194,105.447L35.77,104.454L36.35,103.465L36.937,102.48L37.53,101.499L38.128,100.521L38.732,99.548L39.341,98.578L39.956,97.613L40.577,96.651L41.204,95.693L41.836,94.74L42.473,93.79L43.117,92.845L43.765,91.903L44.419,90.966L45.079,90.033L45.744,89.104L46.415,88.179L47.09,87.258L47.772,86.342L48.458,85.429L49.15,84.522L49.848,83.618L50.55,82.719L51.258,81.824L51.971,80.933L52.689,80.047L53.413,79.165L54.141,78.288L54.875,77.415L55.614,76.546L56.358,75.682L57.107,74.823L57.861,73.968L58.62,73.118L59.384,72.272L60.153,71.431L60.927,70.595L61.706,69.763L62.49,68.936L63.279,68.113L64.073,67.296L64.871,66.483L65.675,65.675L66.483,64.871L67.296,64.073L68.113,63.279L68.936,62.49L69.763,61.706L70.595,60.927L71.431,60.153L72.272,59.384L73.118,58.62L73.968,57.861L74.823,57.107L75.683,56.358L76.546,55.614L77.415,54.875L78.288,54.141L79.165,53.413L80.047,52.689L80.933,51.971L81.824,51.258L82.719,50.55L83.618,49.847L84.522,49.15L85.429,48.458L86.342,47.772L87.258,47.09L88.179,46.415L89.104,45.744L90.033,45.079L90.966,44.419L91.903,43.765L92.845,43.117L93.79,42.473L94.74,41.836L95.693,41.204L96.651,40.577L97.613,39.956L98.578,39.341L99.548,38.732L100.521,38.128L101.499,37.53L102.48,36.937L103.465,36.35L104.454,35.769L105.447,35.194L106.443,34.625L107.444,34.062L108.448,33.504L109.455,32.952L110.467,32.407L111.482,31.867L112.501,31.333L113.523,30.805L114.549,30.283L115.579,29.767L116.612,29.257L117.649,28.754L118.689,28.256L119.732,27.764L120.779,27.279L121.83,26.8L122.884,26.327L123.941,25.86L125.002,25.4L126.066,24.946L127.133,24.498L128.204,24.056L129.278,23.621L130.355,23.192L131.436,22.769L132.519,22.353L133.606,21.944L134.696,21.54L135.789,21.144L136.885,20.753L137.984,20.37L139.087,19.993L140.192,19.622L141.3,19.258L142.412,18.901L143.526,18.55L144.643,18.206L145.763,17.869L146.886,17.538L148.012,17.214L149.141,16.897L150.272,16.587L151.406,16.284L152.543,15.987L153.683,15.697L154.826,15.414L155.971,15.138L157.119,14.869L158.269,14.607L159.422,14.352L160.578,14.104L161.736,13.863L162.897,13.629L164.06,13.402L165.226,13.182L166.394,12.97L167.565,12.764L168.738,12.566L169.913,12.375L171.091,12.191L172.271,12.014L173.454,11.844L174.638,11.682L175.825,11.527L177.015,11.38L178.206,11.24L179.4,11.107L180.595,10.981L181.793,10.863L182.993,10.753L184.195,10.65L185.4,10.554L186.606,10.466L187.814,10.386L189.024,10.313L190.236,10.247L191.45,10.189L192.666,10.139L193.884,10.097L195.104,10.062L196.325,10.035L197.548,10.015L198.773,10.004L200,10L201.227,10.004ZM198.9,30.004L197.802,30.014L196.705,30.031L195.611,30.056L194.518,30.087L193.427,30.125L192.337,30.17L191.25,30.222L190.164,30.28L189.081,30.345L187.999,30.418L186.919,30.496L185.841,30.582L184.765,30.674L183.691,30.773L182.619,30.879L181.549,30.991L180.48,31.11L179.414,31.235L178.35,31.367L177.288,31.506L176.229,31.651L175.171,31.803L174.115,31.961L173.062,32.125L172.011,32.296L170.962,32.474L169.915,32.657L168.87,32.848L167.828,33.044L166.788,33.247L165.75,33.456L164.714,33.672L163.681,33.894L162.65,34.122L161.622,34.356L160.595,34.596L159.572,34.843L158.55,35.096L157.531,35.355L156.515,35.62L155.501,35.891L154.49,36.169L153.481,36.452L152.474,36.742L151.471,37.037L150.469,37.339L149.471,37.646L148.475,37.96L147.481,38.279L146.49,38.604L145.502,38.936L144.517,39.273L143.534,39.616L142.555,39.965L141.577,40.319L140.603,40.68L139.631,41.046L138.663,41.418L137.697,41.796L136.734,42.179L135.773,42.568L134.816,42.963L133.862,43.364L132.91,43.77L131.962,44.182L131.017,44.599L130.074,45.022L129.135,45.45L128.198,45.884L127.265,46.324L126.335,46.769L125.407,47.22L124.483,47.675L123.563,48.137L122.645,48.604L121.73,49.076L120.819,49.553L119.911,50.036L119.006,50.525L118.105,51.018L117.206,51.517L116.312,52.021L115.42,52.53L114.532,53.045L113.647,53.565L112.765,54.09L111.887,54.62L111.013,55.155L110.142,55.695L109.274,56.241L108.41,56.791L107.549,57.347L106.692,57.908L105.839,58.473L104.989,59.044L104.143,59.62L103.3,60.2L102.461,60.786L101.626,61.376L100.794,61.972L99.966,62.572L99.142,63.177L98.322,63.787L97.505,64.401L96.692,65.021L95.883,65.645L95.078,66.274L94.277,66.908L93.48,67.546L92.686,68.189L91.897,68.837L91.111,69.489L90.33,70.146L89.552,70.808L88.778,71.474L88.009,72.145L87.243,72.82L86.482,73.5L85.725,74.184L84.972,74.873L84.223,75.566L83.478,76.263L82.737,76.965L82.001,77.672L81.268,78.382L80.541,79.097L79.817,79.817L79.097,80.541L78.382,81.268L77.672,82.001L76.965,82.737L76.263,83.478L75.566,84.223L74.873,84.972L74.184,85.725L73.5,86.482L72.82,87.243L72.145,88.009L71.474,88.778L70.808,89.552L70.146,90.33L69.489,91.111L68.837,91.897L68.189,92.686L67.546,93.48L66.908,94.277L66.274,95.078L65.645,95.883L65.021,96.692L64.401,97.505L63.787,98.322L63.177,99.142L62.572,99.966L61.972,100.794L61.376,101.626L60.786,102.461L60.2,103.3L59.62,104.143L59.044,104.989L58.473,105.839L57.908,106.692L57.347,107.549L56.791,108.41L56.241,109.274L55.695,110.142L55.155,111.013L54.62,111.887L54.09,112.765L53.565,113.647L53.045,114.532L52.53,115.42L52.021,116.312L51.517,117.206L51.018,118.105L50.525,119.006L50.036,119.911L49.553,120.819L49.076,121.73L48.604,122.645L48.137,123.563L47.675,124.483L47.22,125.407L46.769,126.335L46.324,127.265L45.884,128.198L45.45,129.135L45.022,130.074L44.599,131.017L44.182,131.962L43.77,132.91L43.364,133.862L42.963,134.816L42.568,135.773L42.179,136.734L41.796,137.697L41.418,138.663L41.046,139.631L40.68,140.603L40.319,141.577L39.965,142.554L39.616,143.534L39.273,144.517L38.936,145.502L38.604,146.49L38.279,147.481L37.96,148.475L37.646,149.471L37.339,150.469L37.037,151.471L36.742,152.474L36.452,153.481L36.169,154.49L35.891,155.501L35.62,156.515L35.355,157.531L35.096,158.55L34.843,159.572L34.596,160.595L34.356,161.622L34.122,162.65L33.894,163.681L33.672,164.714L33.456,165.75L33.247,166.788L33.044,167.828L32.848,168.87L32.657,169.915L32.474,170.962L32.296,172.011L32.125,173.062L31.961,174.115L31.803,175.171L31.651,176.229L31.506,177.288L31.367,178.35L31.235,179.414L31.11,180.48L30.991,181.549L30.879,182.619L30.773,183.691L30.674,184.765L30.582,185.841L30.496,186.919L30.418,187.999L30.345,189.081L30.28,190.164L30.222,191.25L30.17,192.337L30.125,193.427L30.087,194.518L30.056,195.611L30.031,196.705L30.014,197.802L30.004,198.9L30,200L30.004,201.1L30.014,202.198L30.031,203.295L30.056,204.389L30.087,205.482L30.125,206.573L30.17,207.663L30.222,208.75L30.28,209.836L30.345,210.919L30.418,212.001L30.496,213.081L30.582,214.159L30.674,215.235L30.773,216.309L30.879,217.381L30.991,218.451L31.11,219.52L31.235,220.586L31.367,221.65L31.506,222.712L31.651,223.771L31.803,224.829L31.961,225.885L32.125,226.938L32.296,227.989L32.474,229.038L32.657,230.085L32.848,231.13L33.044,232.172L33.247,233.212L33.456,234.25L33.672,235.286L33.894,236.319L34.122,237.35L34.356,238.378L34.596,239.405L34.843,240.428L35.096,241.45L35.355,242.469L35.62,243.485L35.891,244.499L36.169,245.51L36.452,246.519L36.742,247.526L37.037,248.529L37.339,249.531L37.646,250.529L37.96,251.525L38.279,252.519L38.604,253.51L38.936,254.498L39.273,255.483L39.616,256.466L39.965,257.445L40.319,258.423L40.68,259.397L41.046,260.369L41.418,261.337L41.796,262.303L42.179,263.266L42.568,264.227L42.963,265.184L43.364,266.138L43.77,267.09L44.182,268.038L44.599,268.983L45.022,269.926L45.45,270.865L45.884,271.802L46.324,272.735L46.769,273.665L47.219,274.592L47.675,275.517L48.137,276.437L48.604,277.355L49.076,278.27L49.553,279.181L50.036,280.089L50.525,280.994L51.018,281.895L51.517,282.794L52.021,283.688L52.53,284.58L53.045,285.468L53.565,286.353L54.09,287.235L54.62,288.113L55.155,288.987L55.695,289.858L56.241,290.726L56.791,291.59L57.347,292.451L57.908,293.308L58.473,294.161L59.044,295.011L59.62,295.857L60.2,296.7L60.786,297.539L61.376,298.374L61.972,299.206L62.572,300.034L63.177,300.858L63.787,301.678L64.401,302.495L65.021,303.308L65.645,304.117L66.274,304.922L66.908,305.723L67.546,306.52L68.189,307.314L68.837,308.103L69.489,308.889L70.146,309.67L70.808,310.448L71.474,311.222L72.145,311.991L72.82,312.757L73.5,313.518L74.184,314.275L74.873,315.028L75.566,315.777L76.263,316.522L76.965,317.263L77.672,317.999L78.382,318.732L79.097,319.459L79.817,320.183L80.541,320.903L81.268,321.618L82.001,322.328L82.737,323.035L83.478,323.737L84.223,324.434L84.972,325.127L85.725,325.816L86.482,326.5L87.243,327.18L88.009,327.855L88.778,328.526L89.552,329.192L90.33,329.854L91.111,330.511L91.897,331.163L92.686,331.811L93.48,332.454L94.277,333.092L95.078,333.726L95.883,334.355L96.692,334.979L97.505,335.599L98.322,336.213L99.142,336.823L99.966,337.428L100.794,338.028L101.626,338.624L102.461,339.214L103.3,339.8L104.143,340.38L104.989,340.956L105.839,341.527L106.692,342.092L107.549,342.653L108.41,343.209L109.274,343.759L110.142,344.305L111.013,344.845L111.888,345.38L112.766,345.91L113.647,346.435L114.532,346.955L115.42,347.47L116.312,347.979L117.207,348.483L118.105,348.982L119.006,349.475L119.911,349.964L120.819,350.447L121.73,350.924L122.645,351.396L123.563,351.863L124.483,352.325L125.408,352.781L126.335,353.231L127.265,353.676L128.198,354.116L129.135,354.55L130.074,354.978L131.016,355.401L131.962,355.818L132.91,356.23L133.862,356.636L134.816,357.037L135.773,357.432L136.734,357.821L137.697,358.204L138.663,358.582L139.631,358.954L140.603,359.32L141.577,359.681L142.554,360.035L143.534,360.384L144.517,360.727L145.502,361.064L146.491,361.396L147.481,361.721L148.475,362.04L149.471,362.354L150.469,362.661L151.47,362.963L152.474,363.258L153.481,363.548L154.49,363.831L155.501,364.109L156.515,364.38L157.532,364.645L158.55,364.904L159.572,365.157L160.595,365.404L161.622,365.644L162.65,365.878L163.681,366.106L164.714,366.328L165.75,366.544L166.788,366.753L167.828,366.956L168.87,367.152L169.915,367.343L170.962,367.526L172.011,367.704L173.062,367.875L174.115,368.039L175.171,368.197L176.229,368.349L177.289,368.494L178.351,368.633L179.414,368.765L180.48,368.89L181.549,369.009L182.619,369.121L183.691,369.227L184.765,369.326L185.841,369.418L186.919,369.504L187.999,369.582L189.081,369.654L190.165,369.72L191.25,369.778L192.337,369.83L193.427,369.875L194.518,369.913L195.611,369.944L196.705,369.969L197.802,369.986L198.9,369.996L200,370L201.1,369.996L202.198,369.986L203.295,369.969L204.389,369.944L205.482,369.913L206.573,369.875L207.663,369.83L208.75,369.778L209.835,369.72L210.919,369.654L212.001,369.582L213.081,369.504L214.159,369.418L215.235,369.326L216.309,369.227L217.381,369.121L218.451,369.009L219.52,368.89L220.586,368.765L221.649,368.633L222.711,368.494L223.771,368.349L224.829,368.197L225.885,368.039L226.938,367.875L227.989,367.704L229.038,367.526L230.085,367.343L231.13,367.152L232.172,366.956L233.212,366.753L234.25,366.544L235.286,366.328L236.319,366.106L237.35,365.878L238.378,365.644L239.405,365.404L240.428,365.157L241.45,364.904L242.468,364.645L243.485,364.38L244.499,364.109L245.51,363.831L246.519,363.548L247.526,363.258L248.53,362.963L249.531,362.661L250.529,362.354L251.525,362.04L252.519,361.721L253.509,361.396L254.498,361.064L255.483,360.727L256.466,360.384L257.446,360.035L258.423,359.681L259.397,359.32L260.369,358.954L261.337,358.582L262.303,358.204L263.266,357.821L264.227,357.432L265.184,357.037L266.138,356.636L267.09,356.23L268.038,355.818L268.984,355.401L269.926,354.978L270.865,354.55L271.802,354.116L272.735,353.676L273.665,353.231L274.592,352.781L275.517,352.325L276.437,351.863L277.355,351.396L278.27,350.924L279.181,350.447L280.089,349.964L280.994,349.475L281.895,348.982L282.793,348.483L283.688,347.979L284.58,347.47L285.468,346.955L286.353,346.435L287.234,345.91L288.112,345.38L288.987,344.845L289.858,344.305L290.726,343.759L291.59,343.209L292.451,342.653L293.308,342.092L294.161,341.527L295.011,340.956L295.857,340.38L296.7,339.8L297.539,339.214L298.374,338.624L299.206,338.028L300.034,337.428L300.858,336.823L301.678,336.213L302.495,335.599L303.308,334.979L304.117,334.355L304.922,333.726L305.723,333.092L306.52,332.454L307.314,331.811L308.103,331.163L308.889,330.511L309.67,329.854L310.448,329.192L311.222,328.526L311.991,327.855L312.757,327.18L313.518,326.5L314.275,325.816L315.028,325.127L315.777,324.434L316.522,323.737L317.263,323.035L317.999,322.328L318.732,321.618L319.46,320.903L320.183,320.183L320.903,319.459L321.618,318.731L322.328,317.999L323.035,317.263L323.737,316.522L324.434,315.777L325.127,315.028L325.816,314.275L326.5,313.518L327.18,312.757L327.855,311.991L328.526,311.222L329.192,310.448L329.854,309.67L330.511,308.889L331.163,308.103L331.811,307.314L332.454,306.52L333.092,305.723L333.726,304.922L334.355,304.117L334.979,303.308L335.599,302.495L336.213,301.678L336.823,300.858L337.428,300.034L338.028,299.206L338.624,298.374L339.214,297.539L339.8,296.7L340.38,295.857L340.956,295.011L341.527,294.161L342.092,293.308L342.653,292.451L343.209,291.59L343.759,290.726L344.305,289.858L344.845,288.987L345.38,288.113L345.91,287.235L346.435,286.353L346.955,285.468L347.47,284.58L347.979,283.688L348.483,282.794L348.982,281.895L349.475,280.994L349.964,280.089L350.447,279.181L350.924,278.27L351.396,277.355L351.863,276.437L352.325,275.517L352.78,274.593L353.231,273.665L353.676,272.735L354.116,271.802L354.55,270.865L354.978,269.926L355.401,268.984L355.818,268.038L356.23,267.09L356.636,266.138L357.037,265.184L357.432,264.226L357.821,263.266L358.204,262.303L358.582,261.337L358.954,260.369L359.32,259.397L359.681,258.423L360.035,257.445L360.384,256.466L360.727,255.483L361.064,254.498L361.396,253.51L361.721,252.519L362.04,251.525L362.354,250.529L362.661,249.531L362.963,248.529L363.258,247.526L363.548,246.519L363.831,245.51L364.109,244.499L364.38,243.485L364.645,242.468L364.904,241.45L365.157,240.428L365.404,239.405L365.644,238.378L365.878,237.35L366.106,236.319L366.328,235.286L366.544,234.25L366.753,233.212L366.956,232.172L367.152,231.13L367.343,230.085L367.526,229.039L367.704,227.989L367.875,226.938L368.039,225.885L368.197,224.829L368.349,223.771L368.494,222.712L368.633,221.65L368.765,220.586L368.89,219.52L369.009,218.451L369.121,217.381L369.227,216.309L369.326,215.235L369.418,214.159L369.504,213.081L369.582,212.001L369.655,210.919L369.72,209.836L369.778,208.75L369.83,207.662L369.875,206.573L369.913,205.482L369.944,204.389L369.969,203.294L369.986,202.198L369.996,201.1L370,200L369.996,198.9L369.986,197.802L369.969,196.706L369.944,195.611L369.913,194.518L369.875,193.427L369.83,192.338L369.778,191.25L369.72,190.164L369.655,189.081L369.582,187.999L369.504,186.919L369.418,185.841L369.326,184.765L369.227,183.691L369.121,182.619L369.009,181.549L368.89,180.48L368.765,179.414L368.633,178.35L368.494,177.288L368.349,176.229L368.197,175.171L368.039,174.115L367.875,173.062L367.704,172.011L367.526,170.961L367.343,169.915L367.152,168.87L366.956,167.828L366.753,166.788L366.544,165.75L366.328,164.714L366.106,163.681L365.878,162.65L365.644,161.622L365.404,160.595L365.157,159.572L364.904,158.55L364.645,157.532L364.38,156.515L364.109,155.501L363.831,154.49L363.548,153.481L363.258,152.474L362.963,151.471L362.661,150.469L362.354,149.471L362.04,148.475L361.721,147.481L361.396,146.49L361.064,145.502L360.727,144.517L360.384,143.534L360.035,142.555L359.681,141.577L359.32,140.603L358.954,139.631L358.582,138.663L358.204,137.697L357.821,136.734L357.432,135.774L357.037,134.816L356.636,133.862L356.23,132.91L355.818,131.962L355.401,131.016L354.978,130.074L354.55,129.135L354.116,128.198L353.676,127.265L353.231,126.335L352.78,125.407L352.325,124.483L351.863,123.563L351.396,122.645L350.924,121.73L350.447,120.819L349.964,119.911L349.475,119.006L348.982,118.105L348.483,117.206L347.979,116.312L347.47,115.42L346.955,114.532L346.435,113.647L345.91,112.766L345.38,111.887L344.845,111.013L344.305,110.142L343.759,109.274L343.209,108.41L342.653,107.549L342.092,106.692L341.527,105.839L340.956,104.989L340.38,104.143L339.8,103.3L339.214,102.461L338.624,101.626L338.028,100.794L337.428,99.966L336.823,99.142L336.213,98.322L335.599,97.505L334.979,96.692L334.355,95.883L333.726,95.078L333.092,94.277L332.454,93.48L331.811,92.686L331.163,91.897L330.511,91.111L329.854,90.33L329.192,89.552L328.526,88.778L327.855,88.009L327.18,87.243L326.5,86.482L325.816,85.725L325.127,84.972L324.434,84.223L323.737,83.478L323.035,82.737L322.328,82.001L321.618,81.269L320.903,80.541L320.183,79.817L319.46,79.098L318.732,78.382L317.999,77.672L317.263,76.965L316.522,76.263L315.777,75.566L315.028,74.873L314.275,74.184L313.518,73.5L312.757,72.82L311.991,72.145L311.222,71.474L310.448,70.808L309.67,70.146L308.889,69.489L308.103,68.837L307.314,68.189L306.52,67.546L305.723,66.908L304.922,66.274L304.117,65.645L303.308,65.021L302.495,64.401L301.678,63.787L300.858,63.177L300.034,62.572L299.206,61.972L298.374,61.376L297.539,60.786L296.7,60.2L295.857,59.62L295.011,59.044L294.161,58.473L293.308,57.908L292.451,57.347L291.59,56.791L290.726,56.241L289.858,55.695L288.987,55.155L288.113,54.62L287.234,54.09L286.353,53.565L285.468,53.045L284.58,52.53L283.688,52.021L282.793,51.517L281.895,51.018L280.994,50.525L280.089,50.036L279.181,49.553L278.27,49.076L277.355,48.604L276.437,48.137L275.517,47.675L274.592,47.219L273.665,46.769L272.735,46.324L271.802,45.884L270.865,45.45L269.926,45.022L268.983,44.599L268.038,44.182L267.09,43.77L266.138,43.364L265.184,42.963L264.226,42.568L263.266,42.179L262.303,41.796L261.337,41.418L260.369,41.046L259.397,40.68L258.423,40.319L257.446,39.965L256.466,39.616L255.483,39.273L254.498,38.936L253.51,38.604L252.519,38.279L251.525,37.96L250.529,37.646L249.531,37.339L248.529,37.037L247.526,36.742L246.519,36.452L245.51,36.169L244.499,35.891L243.485,35.62L242.469,35.355L241.45,35.096L240.428,34.843L239.405,34.596L238.378,34.356L237.35,34.122L236.319,33.894L235.286,33.672L234.25,33.456L233.212,33.247L232.172,33.044L231.13,32.848L230.085,32.657L229.038,32.474L227.989,32.296L226.938,32.125L225.885,31.961L224.829,31.803L223.771,31.651L222.712,31.506L221.65,31.367L220.586,31.235L219.52,31.11L218.451,30.991L217.381,30.879L216.309,30.773L215.235,30.674L214.159,30.582L213.081,30.496L212.001,30.418L210.919,30.345L209.836,30.28L208.75,30.222L207.663,30.17L206.573,30.125L205.482,30.087L204.389,30.056L203.295,30.031L202.198,30.014L201.1,30.004L200,30L198.9,30.004Z" style="fill:#72c9e1;"/>
                    <path d="M200.968,50.003L201.935,50.012L202.901,50.028L203.865,50.049L204.827,50.076L205.789,50.11L206.748,50.15L207.707,50.195L208.664,50.247L209.619,50.304L210.573,50.368L211.525,50.437L212.475,50.513L213.424,50.594L214.372,50.681L215.317,50.775L216.261,50.874L217.204,50.978L218.144,51.089L219.083,51.206L220.02,51.328L220.956,51.456L221.889,51.59L222.821,51.729L223.751,51.875L224.679,52.025L225.605,52.182L226.529,52.344L227.452,52.512L228.372,52.686L229.29,52.865L230.207,53.05L231.121,53.24L232.034,53.436L232.944,53.637L233.853,53.844L234.759,54.057L235.663,54.275L236.565,54.498L237.465,54.727L238.363,54.961L239.258,55.201L240.152,55.446L241.043,55.696L241.932,55.952L242.818,56.213L243.703,56.479L244.585,56.75L245.465,57.027L246.342,57.309L247.217,57.597L248.09,57.889L248.96,58.187L249.828,58.49L250.694,58.798L251.557,59.111L252.417,59.43L253.275,59.753L254.131,60.082L254.984,60.415L255.834,60.754L256.682,61.098L257.528,61.446L258.37,61.8L259.211,62.159L260.048,62.522L260.883,62.891L261.715,63.264L262.544,63.643L263.371,64.026L264.195,64.414L265.016,64.807L265.835,65.204L266.65,65.607L267.463,66.014L268.273,66.426L269.08,66.843L269.885,67.264L270.686,67.691L271.485,68.122L272.28,68.557L273.073,68.997L273.863,69.442L274.65,69.892L275.433,70.346L276.214,70.804L276.992,71.267L277.767,71.735L278.538,72.207L279.307,72.684L280.072,73.165L280.834,73.651L281.594,74.141L282.35,74.636L283.102,75.135L283.852,75.638L284.599,76.146L285.342,76.658L286.082,77.174L286.818,77.695L287.552,78.22L288.282,78.749L289.009,79.283L289.732,79.821L290.452,80.363L291.169,80.909L291.882,81.459L292.592,82.014L293.299,82.573L294.002,83.136L294.701,83.703L295.397,84.274L296.09,84.849L296.779,85.428L297.465,86.011L298.147,86.599L298.825,87.19L299.5,87.785L300.171,88.384L300.839,88.988L301.503,89.595L302.163,90.206L302.819,90.821L303.472,91.44L304.122,92.062L304.767,92.689L305.409,93.319L306.047,93.953L306.681,94.591L307.311,95.233L307.938,95.879L308.56,96.528L309.179,97.181L309.794,97.837L310.405,98.497L311.012,99.161L311.615,99.829L312.215,100.5L312.81,101.175L313.401,101.854L313.989,102.536L314.572,103.221L315.151,103.91L315.726,104.603L316.297,105.299L316.864,105.998L317.427,106.701L317.986,107.408L318.541,108.118L319.091,108.831L319.637,109.548L320.179,110.268L320.717,110.992L321.251,111.718L321.78,112.448L322.305,113.182L322.826,113.918L323.342,114.658L323.854,115.401L324.362,116.148L324.865,116.898L325.364,117.65L325.859,118.406L326.349,119.166L326.835,119.928L327.316,120.693L327.793,121.462L328.265,122.234L328.733,123.008L329.196,123.786L329.654,124.567L330.108,125.35L330.558,126.137L331.003,126.927L331.443,127.72L331.878,128.515L332.309,129.314L332.736,130.115L333.157,130.919L333.574,131.727L333.986,132.537L334.393,133.35L334.796,134.165L335.193,134.984L335.586,135.805L335.974,136.629L336.357,137.456L336.736,138.285L337.109,139.117L337.478,139.952L337.841,140.789L338.2,141.63L338.554,142.472L338.902,143.318L339.246,144.166L339.585,145.016L339.918,145.869L340.247,146.725L340.57,147.583L340.888,148.443L341.202,149.306L341.51,150.172L341.813,151.04L342.111,151.91L342.403,152.783L342.69,153.658L342.973,154.535L343.25,155.415L343.521,156.297L343.787,157.181L344.049,158.068L344.304,158.957L344.554,159.848L344.799,160.742L345.039,161.637L345.273,162.535L345.502,163.435L345.725,164.337L345.943,165.241L346.156,166.147L346.363,167.056L346.564,167.966L346.76,168.879L346.95,169.793L347.135,170.71L347.314,171.628L347.488,172.548L347.656,173.471L347.818,174.395L347.975,175.321L348.125,176.249L348.271,177.179L348.41,178.111L348.544,179.044L348.672,179.98L348.794,180.917L348.911,181.856L349.022,182.796L349.126,183.739L349.225,184.683L349.319,185.628L349.406,186.576L349.487,187.525L349.563,188.475L349.632,189.427L349.696,190.381L349.753,191.336L349.805,192.293L349.85,193.251L349.89,194.211L349.924,195.173L349.951,196.135L349.972,197.099L349.988,198.065L349.997,199.032L350,200L349.997,200.968L349.988,201.935L349.972,202.901L349.951,203.865L349.924,204.827L349.89,205.789L349.85,206.749L349.805,207.707L349.753,208.664L349.696,209.619L349.632,210.573L349.563,211.525L349.487,212.475L349.406,213.424L349.319,214.372L349.225,215.317L349.126,216.261L349.022,217.204L348.911,218.144L348.794,219.083L348.672,220.02L348.544,220.956L348.41,221.889L348.271,222.821L348.125,223.751L347.975,224.679L347.818,225.605L347.656,226.529L347.488,227.452L347.314,228.372L347.135,229.29L346.95,230.207L346.76,231.121L346.564,232.034L346.363,232.944L346.156,233.853L345.943,234.759L345.725,235.663L345.502,236.565L345.273,237.465L345.039,238.363L344.799,239.258L344.554,240.152L344.304,241.043L344.049,241.932L343.787,242.818L343.521,243.703L343.25,244.585L342.973,245.465L342.69,246.342L342.403,247.217L342.111,248.09L341.813,248.96L341.51,249.828L341.202,250.694L340.888,251.557L340.57,252.417L340.247,253.275L339.918,254.131L339.585,254.984L339.246,255.834L338.902,256.682L338.554,257.528L338.2,258.37L337.841,259.21L337.478,260.048L337.109,260.883L336.736,261.715L336.357,262.544L335.974,263.371L335.586,264.195L335.193,265.016L334.796,265.835L334.393,266.65L333.986,267.463L333.574,268.273L333.157,269.081L332.736,269.885L332.309,270.686L331.878,271.485L331.443,272.28L331.003,273.073L330.558,273.863L330.108,274.65L329.654,275.433L329.196,276.214L328.733,276.992L328.265,277.766L327.793,278.538L327.316,279.307L326.835,280.072L326.349,280.834L325.859,281.594L325.364,282.35L324.865,283.102L324.362,283.852L323.854,284.599L323.342,285.342L322.826,286.082L322.305,286.818L321.78,287.552L321.251,288.282L320.717,289.009L320.179,289.732L319.637,290.452L319.091,291.169L318.541,291.882L317.986,292.592L317.427,293.299L316.864,294.002L316.297,294.701L315.726,295.397L315.151,296.09L314.572,296.779L313.989,297.464L313.401,298.146L312.81,298.825L312.215,299.5L311.616,300.171L311.012,300.839L310.405,301.503L309.794,302.163L309.179,302.819L308.56,303.472L307.938,304.122L307.311,304.767L306.681,305.409L306.047,306.047L305.409,306.681L304.767,307.311L304.121,307.938L303.472,308.56L302.819,309.179L302.163,309.794L301.503,310.405L300.839,311.012L300.171,311.616L299.5,312.215L298.825,312.81L298.146,313.401L297.465,313.989L296.779,314.572L296.09,315.151L295.397,315.726L294.701,316.297L294.002,316.864L293.299,317.427L292.592,317.986L291.882,318.541L291.169,319.091L290.452,319.637L289.732,320.179L289.009,320.717L288.282,321.251L287.552,321.78L286.818,322.305L286.082,322.826L285.342,323.342L284.598,323.854L283.852,324.362L283.102,324.865L282.349,325.364L281.594,325.859L280.834,326.349L280.072,326.835L279.307,327.316L278.538,327.793L277.766,328.265L276.992,328.732L276.214,329.196L275.433,329.654L274.65,330.108L273.863,330.558L273.073,331.003L272.28,331.443L271.485,331.879L270.686,332.309L269.885,332.736L269.081,333.157L268.273,333.574L267.463,333.986L266.65,334.393L265.835,334.796L265.016,335.193L264.195,335.586L263.371,335.974L262.544,336.357L261.715,336.736L260.883,337.109L260.048,337.478L259.211,337.841L258.37,338.2L257.528,338.554L256.682,338.902L255.834,339.246L254.984,339.585L254.131,339.918L253.275,340.247L252.417,340.57L251.557,340.888L250.694,341.202L249.828,341.51L248.96,341.813L248.09,342.111L247.217,342.403L246.342,342.69L245.465,342.973L244.585,343.25L243.703,343.521L242.818,343.787L241.932,344.048L241.043,344.304L240.152,344.555L239.258,344.799L238.363,345.039L237.465,345.273L236.565,345.502L235.663,345.725L234.759,345.943L233.853,346.156L232.944,346.363L232.034,346.564L231.121,346.76L230.207,346.95L229.29,347.135L228.372,347.314L227.452,347.488L226.529,347.656L225.605,347.818L224.679,347.974L223.751,348.125L222.821,348.271L221.889,348.41L220.956,348.544L220.02,348.672L219.083,348.794L218.144,348.911L217.204,349.022L216.261,349.126L215.317,349.225L214.372,349.319L213.424,349.406L212.475,349.487L211.525,349.563L210.573,349.632L209.619,349.696L208.664,349.753L207.707,349.805L206.749,349.85L205.789,349.89L204.827,349.924L203.865,349.951L202.901,349.972L201.935,349.988L200.968,349.997L200,350L199.032,349.997L198.065,349.988L197.099,349.972L196.135,349.951L195.173,349.924L194.211,349.89L193.251,349.85L192.293,349.805L191.336,349.753L190.381,349.696L189.427,349.632L188.475,349.563L187.525,349.487L186.576,349.406L185.628,349.319L184.683,349.225L183.739,349.126L182.796,349.022L181.856,348.911L180.917,348.794L179.98,348.672L179.044,348.544L178.111,348.41L177.179,348.271L176.249,348.125L175.321,347.974L174.395,347.818L173.471,347.656L172.548,347.488L171.628,347.314L170.71,347.135L169.793,346.95L168.879,346.76L167.966,346.564L167.056,346.363L166.147,346.156L165.241,345.943L164.337,345.725L163.435,345.502L162.535,345.273L161.637,345.039L160.742,344.799L159.848,344.555L158.957,344.304L158.068,344.048L157.181,343.787L156.297,343.521L155.415,343.25L154.535,342.973L153.658,342.69L152.783,342.403L151.91,342.111L151.04,341.813L150.172,341.51L149.306,341.202L148.443,340.888L147.583,340.57L146.725,340.247L145.869,339.918L145.016,339.585L144.166,339.246L143.318,338.902L142.472,338.554L141.63,338.2L140.789,337.841L139.952,337.478L139.117,337.109L138.285,336.736L137.456,336.357L136.629,335.974L135.805,335.586L134.984,335.193L134.165,334.796L133.35,334.393L132.537,333.986L131.727,333.574L130.919,333.157L130.115,332.736L129.314,332.309L128.515,331.879L127.72,331.443L126.927,331.003L126.137,330.558L125.35,330.108L124.567,329.654L123.786,329.196L123.008,328.732L122.233,328.265L121.462,327.793L120.693,327.316L119.928,326.835L119.166,326.349L118.406,325.859L117.651,325.364L116.898,324.865L116.148,324.362L115.402,323.854L114.658,323.342L113.918,322.826L113.182,322.305L112.448,321.78L111.718,321.251L110.992,320.717L110.268,320.179L109.548,319.637L108.831,319.091L108.118,318.541L107.408,317.986L106.701,317.427L105.998,316.864L105.299,316.297L104.603,315.726L103.91,315.151L103.221,314.572L102.535,313.989L101.853,313.401L101.175,312.81L100.5,312.215L99.829,311.616L99.161,311.012L98.497,310.405L97.837,309.794L97.181,309.179L96.528,308.56L95.879,307.938L95.233,307.311L94.591,306.681L93.953,306.047L93.319,305.409L92.689,304.767L92.062,304.122L91.44,303.472L90.821,302.819L90.206,302.163L89.595,301.503L88.988,300.839L88.384,300.171L87.785,299.5L87.19,298.825L86.599,298.146L86.011,297.465L85.428,296.779L84.849,296.09L84.274,295.397L83.703,294.701L83.136,294.002L82.573,293.299L82.014,292.592L81.459,291.882L80.909,291.169L80.363,290.452L79.821,289.732L79.283,289.009L78.749,288.282L78.22,287.552L77.695,286.818L77.174,286.082L76.658,285.342L76.146,284.599L75.638,283.852L75.135,283.102L74.636,282.35L74.141,281.594L73.651,280.834L73.165,280.072L72.684,279.307L72.207,278.538L71.735,277.766L71.268,276.992L70.804,276.214L70.346,275.433L69.892,274.65L69.442,273.863L68.997,273.073L68.557,272.28L68.122,271.485L67.691,270.686L67.264,269.885L66.843,269.081L66.426,268.273L66.014,267.463L65.607,266.65L65.204,265.835L64.807,265.016L64.414,264.195L64.026,263.371L63.643,262.544L63.264,261.715L62.891,260.883L62.522,260.048L62.159,259.21L61.8,258.37L61.446,257.528L61.098,256.682L60.754,255.834L60.415,254.984L60.082,254.131L59.753,253.275L59.43,252.417L59.112,251.557L58.798,250.694L58.49,249.828L58.187,248.96L57.889,248.09L57.597,247.217L57.31,246.342L57.027,245.465L56.75,244.585L56.479,243.703L56.213,242.818L55.952,241.932L55.696,241.043L55.445,240.152L55.201,239.258L54.961,238.363L54.727,237.465L54.498,236.565L54.275,235.663L54.057,234.759L53.844,233.853L53.637,232.944L53.436,232.034L53.24,231.121L53.05,230.207L52.865,229.29L52.686,228.372L52.512,227.452L52.344,226.529L52.182,225.605L52.025,224.679L51.875,223.751L51.729,222.821L51.59,221.889L51.456,220.956L51.328,220.02L51.206,219.083L51.089,218.144L50.978,217.204L50.874,216.261L50.775,215.317L50.681,214.372L50.594,213.424L50.513,212.475L50.437,211.525L50.368,210.573L50.304,209.619L50.247,208.664L50.195,207.707L50.15,206.748L50.11,205.789L50.076,204.827L50.049,203.865L50.028,202.901L50.012,201.935L50.003,200.968L50,200L50.003,199.032L50.012,198.065L50.028,197.099L50.049,196.135L50.076,195.173L50.11,194.211L50.15,193.252L50.195,192.293L50.247,191.336L50.304,190.381L50.368,189.427L50.437,188.475L50.513,187.525L50.594,186.576L50.681,185.628L50.775,184.683L50.874,183.739L50.978,182.796L51.089,181.856L51.206,180.917L51.328,179.98L51.456,179.044L51.59,178.111L51.729,177.179L51.875,176.249L52.025,175.321L52.182,174.395L52.344,173.471L52.512,172.548L52.686,171.628L52.865,170.71L53.05,169.793L53.24,168.879L53.436,167.966L53.637,167.056L53.844,166.147L54.057,165.241L54.275,164.337L54.498,163.435L54.727,162.535L54.961,161.637L55.201,160.742L55.445,159.848L55.696,158.957L55.952,158.068L56.213,157.181L56.479,156.297L56.75,155.415L57.027,154.535L57.31,153.658L57.597,152.783L57.889,151.91L58.187,151.04L58.49,150.172L58.798,149.306L59.111,148.443L59.43,147.583L59.753,146.725L60.082,145.869L60.415,145.016L60.754,144.166L61.098,143.318L61.446,142.472L61.8,141.63L62.159,140.79L62.522,139.952L62.891,139.117L63.264,138.285L63.643,137.456L64.026,136.629L64.414,135.805L64.807,134.984L65.204,134.165L65.607,133.35L66.014,132.537L66.426,131.727L66.843,130.919L67.264,130.115L67.691,129.314L68.122,128.515L68.557,127.72L68.997,126.927L69.442,126.137L69.892,125.35L70.346,124.567L70.804,123.786L71.267,123.008L71.735,122.234L72.207,121.462L72.684,120.693L73.165,119.928L73.651,119.166L74.141,118.406L74.636,117.65L75.135,116.898L75.638,116.148L76.146,115.402L76.658,114.658L77.174,113.918L77.695,113.182L78.22,112.448L78.749,111.718L79.283,110.991L79.821,110.268L80.363,109.548L80.909,108.831L81.459,108.118L82.014,107.408L82.573,106.701L83.136,105.998L83.703,105.299L84.274,104.603L84.849,103.91L85.428,103.221L86.011,102.536L86.599,101.854L87.19,101.175L87.785,100.5L88.385,99.829L88.988,99.162L89.595,98.497L90.206,97.837L90.821,97.181L91.44,96.528L92.062,95.878L92.689,95.233L93.319,94.591L93.953,93.953L94.591,93.319L95.233,92.689L95.878,92.062L96.528,91.44L97.181,90.821L97.837,90.206L98.497,89.595L99.161,88.988L99.829,88.384L100.5,87.785L101.175,87.19L101.853,86.599L102.536,86.011L103.221,85.428L103.91,84.849L104.603,84.274L105.299,83.703L105.998,83.136L106.701,82.573L107.408,82.014L108.118,81.459L108.831,80.909L109.548,80.363L110.268,79.821L110.991,79.283L111.718,78.749L112.448,78.22L113.182,77.695L113.918,77.174L114.658,76.658L115.402,76.146L116.148,75.638L116.898,75.135L117.65,74.636L118.406,74.141L119.166,73.651L119.928,73.165L120.693,72.684L121.462,72.207L122.233,71.735L123.008,71.267L123.786,70.804L124.567,70.346L125.35,69.892L126.137,69.442L126.927,68.997L127.72,68.557L128.515,68.122L129.314,67.691L130.115,67.264L130.919,66.843L131.727,66.426L132.537,66.014L133.35,65.607L134.165,65.204L134.984,64.807L135.805,64.414L136.629,64.026L137.456,63.643L138.285,63.264L139.117,62.891L139.952,62.522L140.79,62.159L141.63,61.8L142.472,61.446L143.318,61.098L144.166,60.754L145.016,60.415L145.869,60.082L146.725,59.753L147.583,59.43L148.443,59.111L149.306,58.798L150.172,58.49L151.04,58.187L151.91,57.889L152.783,57.597L153.658,57.31L154.535,57.027L155.415,56.75L156.297,56.479L157.182,56.213L158.068,55.952L158.957,55.696L159.848,55.446L160.742,55.201L161.637,54.961L162.535,54.727L163.435,54.498L164.337,54.275L165.241,54.057L166.147,53.844L167.056,53.637L167.966,53.436L168.879,53.24L169.793,53.05L170.71,52.865L171.628,52.686L172.548,52.512L173.471,52.344L174.395,52.182L175.321,52.026L176.249,51.875L177.179,51.729L178.111,51.59L179.044,51.456L179.98,51.328L180.917,51.206L181.856,51.089L182.796,50.978L183.739,50.874L184.683,50.775L185.628,50.681L186.576,50.594L187.525,50.513L188.475,50.437L189.427,50.368L190.381,50.304L191.336,50.247L192.293,50.195L193.252,50.15L194.211,50.11L195.173,50.076L196.135,50.049L197.099,50.028L198.065,50.012L199.032,50.003L200,50L200.968,50.003ZM199.159,70.003L198.319,70.011L197.48,70.024L196.643,70.043L195.807,70.066L194.972,70.096L194.139,70.13L193.307,70.17L192.477,70.214L191.648,70.264L190.821,70.319L189.995,70.38L189.17,70.445L188.347,70.516L187.526,70.591L186.706,70.672L185.888,70.758L185.071,70.849L184.256,70.945L183.442,71.046L182.63,71.152L181.82,71.263L181.011,71.379L180.204,71.499L179.398,71.625L178.594,71.756L177.792,71.892L176.992,72.032L176.193,72.178L175.396,72.328L174.6,72.483L173.807,72.643L173.015,72.808L172.225,72.977L171.437,73.152L170.65,73.331L169.866,73.515L169.083,73.703L168.302,73.897L167.523,74.095L166.746,74.298L165.971,74.505L165.197,74.717L164.426,74.934L163.657,75.155L162.889,75.381L162.123,75.612L161.36,75.847L160.598,76.086L159.839,76.331L159.081,76.579L158.326,76.833L157.572,77.09L156.821,77.353L156.072,77.619L155.325,77.89L154.58,78.166L153.837,78.446L153.096,78.731L152.358,79.019L151.621,79.313L150.887,79.61L150.155,79.912L149.425,80.218L148.698,80.529L147.973,80.844L147.25,81.163L146.529,81.486L145.811,81.814L145.095,82.146L144.381,82.482L143.67,82.822L142.961,83.167L142.254,83.515L141.55,83.868L140.848,84.225L140.149,84.586L139.452,84.951L138.758,85.32L138.066,85.694L137.377,86.071L136.69,86.453L136.005,86.838L135.324,87.228L134.644,87.621L133.968,88.019L133.294,88.42L132.622,88.825L131.954,89.235L131.287,89.648L130.624,90.065L129.963,90.486L129.305,90.911L128.649,91.34L127.997,91.772L127.347,92.209L126.7,92.649L126.055,93.093L125.414,93.541L124.775,93.992L124.139,94.448L123.506,94.907L122.875,95.369L122.248,95.836L121.624,96.306L121.002,96.78L120.383,97.257L119.767,97.738L119.155,98.223L118.545,98.711L117.938,99.203L117.334,99.698L116.733,100.197L116.136,100.7L115.541,101.205L114.949,101.715L114.361,102.228L113.775,102.744L113.193,103.264L112.614,103.787L112.038,104.314L111.465,104.844L110.895,105.378L110.329,105.915L109.766,106.455L109.206,106.998L108.649,107.545L108.096,108.096L107.545,108.649L106.998,109.206L106.455,109.766L105.915,110.329L105.378,110.895L104.844,111.465L104.314,112.038L103.788,112.614L103.264,113.193L102.744,113.775L102.228,114.361L101.715,114.949L101.205,115.541L100.699,116.136L100.197,116.733L99.698,117.334L99.203,117.938L98.711,118.545L98.223,119.155L97.738,119.768L97.257,120.383L96.78,121.002L96.306,121.624L95.836,122.248L95.369,122.875L94.907,123.506L94.448,124.139L93.992,124.775L93.541,125.414L93.093,126.055L92.649,126.7L92.209,127.347L91.772,127.997L91.34,128.649L90.911,129.305L90.486,129.963L90.065,130.624L89.648,131.287L89.235,131.954L88.825,132.622L88.42,133.294L88.019,133.968L87.621,134.644L87.228,135.324L86.838,136.005L86.453,136.69L86.071,137.377L85.694,138.066L85.32,138.758L84.951,139.452L84.586,140.149L84.225,140.848L83.868,141.55L83.515,142.254L83.167,142.961L82.822,143.67L82.482,144.381L82.146,145.095L81.814,145.811L81.486,146.529L81.163,147.25L80.844,147.973L80.529,148.698L80.218,149.425L79.912,150.155L79.61,150.887L79.313,151.621L79.019,152.358L78.731,153.096L78.446,153.837L78.166,154.58L77.89,155.325L77.619,156.072L77.353,156.821L77.09,157.572L76.833,158.326L76.579,159.081L76.331,159.839L76.086,160.598L75.847,161.36L75.612,162.123L75.381,162.889L75.155,163.657L74.934,164.426L74.717,165.197L74.505,165.971L74.298,166.746L74.095,167.523L73.897,168.302L73.703,169.083L73.515,169.866L73.331,170.65L73.152,171.437L72.977,172.225L72.808,173.015L72.643,173.807L72.483,174.6L72.328,175.396L72.178,176.193L72.032,176.991L71.892,177.792L71.756,178.594L71.625,179.398L71.499,180.204L71.379,181.011L71.263,181.82L71.152,182.63L71.046,183.442L70.945,184.256L70.849,185.071L70.758,185.888L70.672,186.706L70.591,187.526L70.516,188.347L70.445,189.17L70.38,189.995L70.319,190.821L70.264,191.648L70.214,192.477L70.169,193.307L70.13,194.139L70.096,194.972L70.066,195.807L70.043,196.643L70.024,197.48L70.011,198.319L70.003,199.159L70,200L70.003,200.841L70.011,201.681L70.024,202.52L70.043,203.357L70.066,204.193L70.096,205.028L70.13,205.861L70.169,206.693L70.214,207.523L70.264,208.352L70.319,209.179L70.38,210.005L70.445,210.83L70.516,211.653L70.591,212.474L70.672,213.294L70.758,214.112L70.849,214.929L70.945,215.744L71.046,216.558L71.152,217.37L71.263,218.18L71.379,218.989L71.499,219.796L71.625,220.602L71.756,221.406L71.892,222.208L72.032,223.009L72.178,223.807L72.328,224.604L72.483,225.4L72.643,226.193L72.808,226.985L72.977,227.775L73.152,228.563L73.331,229.35L73.515,230.134L73.703,230.917L73.897,231.698L74.095,232.477L74.298,233.254L74.505,234.029L74.717,234.803L74.934,235.574L75.155,236.343L75.381,237.111L75.612,237.877L75.847,238.64L76.086,239.402L76.331,240.161L76.579,240.919L76.833,241.674L77.09,242.427L77.353,243.179L77.619,243.928L77.89,244.675L78.166,245.42L78.446,246.163L78.731,246.904L79.019,247.642L79.313,248.379L79.61,249.113L79.912,249.845L80.218,250.575L80.529,251.302L80.844,252.027L81.163,252.75L81.486,253.471L81.814,254.189L82.146,254.905L82.482,255.619L82.822,256.33L83.167,257.039L83.515,257.746L83.868,258.45L84.225,259.152L84.586,259.851L84.951,260.548L85.32,261.242L85.694,261.934L86.071,262.623L86.453,263.31L86.838,263.995L87.228,264.676L87.621,265.356L88.019,266.032L88.42,266.706L88.825,267.378L89.235,268.047L89.648,268.713L90.065,269.376L90.486,270.037L90.911,270.695L91.34,271.35L91.772,272.003L92.209,272.653L92.649,273.3L93.093,273.945L93.541,274.586L93.992,275.225L94.448,275.861L94.907,276.494L95.369,277.125L95.836,277.752L96.306,278.376L96.78,278.998L97.257,279.617L97.738,280.233L98.223,280.845L98.711,281.455L99.203,282.062L99.698,282.666L100.197,283.267L100.7,283.864L101.205,284.459L101.715,285.051L102.228,285.639L102.744,286.224L103.264,286.807L103.788,287.386L104.314,287.962L104.844,288.535L105.378,289.105L105.915,289.671L106.455,290.234L106.998,290.794L107.545,291.351L108.096,291.904L108.649,292.455L109.206,293.002L109.766,293.545L110.329,294.085L110.895,294.622L111.465,295.156L112.038,295.686L112.614,296.213L113.193,296.736L113.775,297.256L114.361,297.772L114.949,298.285L115.541,298.795L116.136,299.301L116.733,299.803L117.334,300.302L117.938,300.797L118.545,301.289L119.155,301.777L119.767,302.262L120.383,302.743L121.002,303.22L121.624,303.694L122.248,304.164L122.875,304.631L123.506,305.093L124.139,305.552L124.775,306.008L125.414,306.459L126.055,306.907L126.7,307.351L127.347,307.791L127.997,308.228L128.649,308.66L129.305,309.089L129.963,309.514L130.624,309.935L131.287,310.352L131.954,310.765L132.622,311.175L133.294,311.58L133.968,311.981L134.644,312.379L135.324,312.772L136.005,313.162L136.69,313.547L137.377,313.929L138.066,314.306L138.758,314.68L139.452,315.049L140.149,315.414L140.848,315.775L141.55,316.132L142.254,316.485L142.961,316.833L143.67,317.178L144.381,317.518L145.095,317.854L145.811,318.186L146.529,318.514L147.25,318.837L147.973,319.156L148.698,319.471L149.425,319.782L150.155,320.088L150.887,320.39L151.621,320.687L152.358,320.981L153.096,321.269L153.837,321.554L154.58,321.834L155.325,322.11L156.072,322.381L156.821,322.647L157.572,322.91L158.326,323.167L159.081,323.421L159.839,323.669L160.598,323.914L161.36,324.153L162.123,324.388L162.889,324.619L163.657,324.845L164.426,325.066L165.197,325.283L165.971,325.495L166.746,325.702L167.523,325.905L168.302,326.103L169.083,326.297L169.866,326.485L170.65,326.669L171.437,326.848L172.225,327.023L173.015,327.192L173.807,327.357L174.6,327.517L175.396,327.672L176.193,327.822L176.992,327.968L177.792,328.108L178.594,328.244L179.398,328.375L180.204,328.501L181.011,328.621L181.819,328.737L182.63,328.848L183.442,328.954L184.256,329.055L185.071,329.151L185.888,329.242L186.706,329.328L187.526,329.409L188.347,329.484L189.17,329.555L189.995,329.62L190.821,329.681L191.648,329.736L192.477,329.786L193.307,329.83L194.139,329.87L194.972,329.904L195.807,329.934L196.643,329.957L197.48,329.976L198.318,329.989L199.159,329.997L200,330L200.841,329.997L201.682,329.989L202.52,329.976L203.357,329.957L204.194,329.934L205.028,329.904L205.861,329.87L206.693,329.83L207.523,329.786L208.352,329.736L209.179,329.681L210.005,329.62L210.83,329.555L211.653,329.484L212.474,329.409L213.294,329.328L214.112,329.242L214.929,329.151L215.744,329.055L216.558,328.954L217.37,328.848L218.181,328.737L218.989,328.621L219.796,328.501L220.602,328.375L221.406,328.244L222.208,328.108L223.008,327.968L223.807,327.822L224.604,327.672L225.4,327.517L226.193,327.357L226.985,327.192L227.775,327.023L228.563,326.848L229.35,326.669L230.134,326.485L230.917,326.297L231.698,326.103L232.477,325.905L233.254,325.702L234.029,325.495L234.803,325.283L235.574,325.066L236.343,324.845L237.111,324.619L237.877,324.388L238.64,324.153L239.402,323.914L240.161,323.669L240.919,323.421L241.674,323.167L242.428,322.91L243.179,322.647L243.928,322.381L244.675,322.11L245.42,321.834L246.163,321.554L246.904,321.269L247.642,320.981L248.379,320.687L249.113,320.39L249.845,320.088L250.575,319.782L251.302,319.471L252.027,319.156L252.75,318.837L253.471,318.514L254.189,318.186L254.905,317.854L255.619,317.518L256.33,317.178L257.039,316.833L257.746,316.485L258.45,316.132L259.151,315.775L259.851,315.414L260.548,315.049L261.242,314.68L261.934,314.306L262.623,313.929L263.31,313.547L263.995,313.162L264.676,312.772L265.356,312.379L266.032,311.981L266.706,311.58L267.378,311.175L268.047,310.765L268.713,310.352L269.376,309.935L270.037,309.514L270.695,309.089L271.351,308.66L272.003,308.228L272.653,307.791L273.3,307.351L273.945,306.907L274.586,306.459L275.225,306.008L275.861,305.552L276.494,305.093L277.125,304.631L277.752,304.164L278.376,303.694L278.998,303.22L279.617,302.743L280.232,302.262L280.845,301.777L281.455,301.289L282.062,300.797L282.666,300.302L283.267,299.803L283.864,299.301L284.459,298.795L285.051,298.285L285.639,297.772L286.225,297.256L286.807,296.736L287.386,296.213L287.962,295.686L288.535,295.156L289.105,294.622L289.671,294.085L290.234,293.545L290.794,293.002L291.351,292.455L291.904,291.904L292.455,291.351L293.002,290.794L293.545,290.234L294.085,289.671L294.622,289.105L295.156,288.535L295.686,287.962L296.213,287.386L296.736,286.807L297.256,286.225L297.772,285.639L298.285,285.051L298.795,284.459L299.301,283.864L299.803,283.266L300.302,282.666L300.797,282.062L301.289,281.455L301.777,280.845L302.262,280.233L302.743,279.617L303.22,278.998L303.694,278.376L304.164,277.752L304.631,277.125L305.093,276.494L305.552,275.861L306.008,275.225L306.459,274.586L306.907,273.945L307.351,273.3L307.791,272.653L308.228,272.003L308.66,271.35L309.089,270.695L309.514,270.037L309.935,269.376L310.352,268.713L310.765,268.047L311.175,267.378L311.58,266.706L311.981,266.032L312.379,265.356L312.772,264.676L313.162,263.995L313.547,263.31L313.929,262.623L314.306,261.934L314.68,261.242L315.049,260.548L315.414,259.851L315.775,259.152L316.132,258.45L316.485,257.746L316.833,257.039L317.178,256.33L317.518,255.619L317.854,254.905L318.186,254.189L318.514,253.471L318.837,252.75L319.156,252.027L319.471,251.302L319.782,250.575L320.088,249.845L320.39,249.113L320.687,248.379L320.981,247.642L321.269,246.904L321.554,246.163L321.834,245.42L322.11,244.675L322.381,243.928L322.647,243.179L322.91,242.428L323.167,241.674L323.421,240.919L323.669,240.161L323.914,239.402L324.153,238.64L324.389,237.876L324.619,237.111L324.845,236.344L325.066,235.574L325.283,234.803L325.495,234.029L325.702,233.254L325.905,232.477L326.103,231.698L326.297,230.917L326.485,230.134L326.669,229.35L326.848,228.563L327.023,227.775L327.192,226.985L327.357,226.193L327.517,225.4L327.672,224.604L327.822,223.807L327.968,223.008L328.108,222.208L328.244,221.406L328.375,220.602L328.501,219.797L328.621,218.989L328.737,218.18L328.848,217.37L328.954,216.558L329.055,215.744L329.151,214.929L329.242,214.112L329.328,213.294L329.409,212.474L329.484,211.653L329.555,210.83L329.62,210.005L329.681,209.179L329.736,208.352L329.786,207.523L329.83,206.693L329.87,205.861L329.904,205.028L329.934,204.194L329.957,203.357L329.976,202.52L329.989,201.681L329.997,200.841L330,200L329.997,199.159L329.989,198.319L329.976,197.48L329.957,196.643L329.934,195.807L329.904,194.972L329.87,194.139L329.83,193.307L329.786,192.477L329.736,191.648L329.681,190.821L329.62,189.995L329.555,189.17L329.484,188.347L329.409,187.526L329.328,186.706L329.242,185.888L329.151,185.071L329.055,184.256L328.954,183.442L328.848,182.63L328.737,181.82L328.621,181.011L328.501,180.203L328.375,179.398L328.244,178.594L328.108,177.792L327.968,176.992L327.822,176.193L327.672,175.396L327.517,174.6L327.357,173.807L327.192,173.015L327.023,172.225L326.848,171.437L326.669,170.65L326.485,169.866L326.297,169.083L326.103,168.302L325.905,167.523L325.702,166.746L325.495,165.971L325.283,165.197L325.066,164.426L324.845,163.656L324.619,162.889L324.389,162.124L324.153,161.36L323.914,160.598L323.669,159.839L323.421,159.081L323.167,158.326L322.91,157.572L322.647,156.821L322.381,156.072L322.11,155.325L321.834,154.58L321.554,153.837L321.269,153.096L320.981,152.358L320.687,151.621L320.39,150.887L320.088,150.155L319.782,149.425L319.471,148.698L319.156,147.973L318.837,147.25L318.514,146.529L318.186,145.811L317.854,145.095L317.518,144.381L317.178,143.67L316.833,142.961L316.485,142.254L316.132,141.55L315.775,140.848L315.414,140.149L315.049,139.452L314.68,138.758L314.306,138.066L313.929,137.377L313.547,136.69L313.162,136.005L312.772,135.324L312.379,134.645L311.981,133.968L311.58,133.294L311.175,132.622L310.765,131.954L310.352,131.287L309.935,130.624L309.514,129.963L309.089,129.305L308.66,128.65L308.228,127.997L307.791,127.347L307.351,126.7L306.907,126.055L306.459,125.414L306.008,124.775L305.552,124.139L305.093,123.506L304.631,122.875L304.164,122.248L303.694,121.624L303.22,121.002L302.743,120.383L302.262,119.768L301.777,119.155L301.289,118.545L300.797,117.938L300.302,117.334L299.803,116.734L299.301,116.136L298.795,115.541L298.285,114.949L297.772,114.361L297.256,113.775L296.736,113.193L296.213,112.614L295.686,112.038L295.156,111.465L294.622,110.895L294.085,110.329L293.545,109.766L293.002,109.206L292.455,108.649L291.904,108.096L291.351,107.545L290.794,106.998L290.234,106.455L289.671,105.915L289.105,105.378L288.535,104.844L287.962,104.314L287.386,103.787L286.807,103.264L286.225,102.744L285.639,102.228L285.051,101.715L284.459,101.205L283.864,100.699L283.267,100.197L282.666,99.698L282.062,99.203L281.455,98.711L280.845,98.223L280.232,97.738L279.617,97.257L278.998,96.78L278.376,96.306L277.752,95.836L277.125,95.369L276.494,94.907L275.861,94.448L275.225,93.992L274.586,93.541L273.945,93.093L273.3,92.649L272.653,92.209L272.003,91.772L271.351,91.34L270.695,90.911L270.037,90.486L269.376,90.065L268.713,89.648L268.047,89.235L267.378,88.825L266.706,88.42L266.032,88.019L265.356,87.621L264.676,87.228L263.995,86.838L263.31,86.453L262.623,86.071L261.934,85.694L261.242,85.32L260.548,84.951L259.851,84.586L259.151,84.225L258.45,83.868L257.746,83.515L257.039,83.167L256.33,82.822L255.619,82.482L254.905,82.146L254.189,81.814L253.471,81.486L252.75,81.163L252.027,80.844L251.302,80.529L250.575,80.218L249.845,79.912L249.113,79.61L248.379,79.313L247.642,79.019L246.904,78.731L246.163,78.446L245.42,78.166L244.675,77.89L243.928,77.619L243.179,77.353L242.428,77.09L241.674,76.833L240.919,76.579L240.161,76.331L239.402,76.086L238.64,75.847L237.877,75.612L237.111,75.381L236.343,75.155L235.574,74.934L234.803,74.717L234.029,74.505L233.254,74.298L232.477,74.095L231.698,73.897L230.917,73.703L230.134,73.515L229.35,73.331L228.563,73.152L227.775,72.977L226.985,72.808L226.193,72.643L225.4,72.483L224.604,72.328L223.807,72.178L223.008,72.032L222.208,71.892L221.406,71.756L220.602,71.625L219.796,71.499L218.989,71.379L218.18,71.263L217.37,71.152L216.558,71.046L215.744,70.945L214.929,70.849L214.112,70.758L213.294,70.672L212.474,70.591L211.653,70.516L210.83,70.445L210.005,70.38L209.179,70.319L208.352,70.264L207.523,70.214L206.693,70.17L205.861,70.13L205.028,70.096L204.193,70.066L203.357,70.043L202.52,70.024L201.681,70.011L200.841,70.003L200,70L199.159,70.003Z" style="fill:#73c3b6;"/>
                    <path d="M201.418,90.009L202.833,90.036L204.243,90.08L205.65,90.143L207.052,90.223L208.449,90.321L209.842,90.436L211.23,90.568L212.613,90.717L213.991,90.884L215.365,91.067L216.733,91.268L218.095,91.485L219.452,91.719L220.804,91.969L222.15,92.236L223.49,92.52L224.824,92.819L226.152,93.135L227.473,93.466L228.789,93.814L230.098,94.177L231.4,94.556L232.696,94.951L233.985,95.361L235.267,95.786L236.541,96.227L237.809,96.682L239.07,97.153L240.323,97.639L241.569,98.139L242.807,98.654L244.037,99.184L245.26,99.728L246.474,100.287L247.681,100.86L248.88,101.446L250.07,102.047L251.252,102.662L252.425,103.291L253.59,103.933L254.746,104.589L255.893,105.258L257.032,105.941L258.161,106.637L259.281,107.346L260.392,108.068L261.494,108.803L262.587,109.551L263.669,110.311L264.742,111.084L265.806,111.87L266.859,112.668L267.903,113.478L268.936,114.3L269.96,115.135L270.973,115.981L271.976,116.839L272.968,117.709L273.949,118.591L274.92,119.484L275.881,120.389L276.83,121.305L277.768,122.232L278.695,123.17L279.611,124.119L280.516,125.08L281.409,126.051L282.29,127.032L283.161,128.024L284.019,129.027L284.865,130.04L285.7,131.064L286.522,132.097L287.332,133.141L288.13,134.194L288.916,135.258L289.689,136.331L290.45,137.413L291.197,138.506L291.932,139.608L292.654,140.719L293.363,141.839L294.059,142.968L294.742,144.107L295.411,145.254L296.067,146.41L296.709,147.575L297.338,148.748L297.953,149.93L298.554,151.12L299.14,152.319L299.713,153.526L300.272,154.74L300.816,155.963L301.346,157.193L301.861,158.431L302.361,159.677L302.847,160.93L303.317,162.191L303.773,163.459L304.214,164.734L304.639,166.015L305.049,167.304L305.444,168.6L305.823,169.902L306.186,171.211L306.534,172.527L306.865,173.848L307.181,175.176L307.48,176.51L307.764,177.85L308.031,179.196L308.281,180.548L308.515,181.905L308.732,183.267L308.933,184.635L309.116,186.009L309.283,187.387L309.432,188.77L309.564,190.158L309.679,191.551L309.777,192.949L309.857,194.35L309.92,195.757L309.964,197.167L309.991,198.582L310,200L309.991,201.418L309.964,202.833L309.92,204.243L309.857,205.65L309.777,207.051L309.679,208.449L309.564,209.842L309.432,211.23L309.283,212.613L309.116,213.991L308.933,215.365L308.732,216.733L308.515,218.095L308.281,219.452L308.031,220.804L307.764,222.15L307.48,223.49L307.181,224.824L306.865,226.152L306.534,227.473L306.186,228.789L305.823,230.098L305.444,231.4L305.049,232.696L304.639,233.985L304.214,235.266L303.773,236.541L303.317,237.809L302.847,239.07L302.361,240.323L301.861,241.569L301.346,242.807L300.816,244.037L300.272,245.26L299.713,246.474L299.14,247.681L298.554,248.88L297.953,250.07L297.338,251.252L296.709,252.425L296.067,253.59L295.411,254.746L294.742,255.893L294.059,257.032L293.363,258.161L292.654,259.281L291.932,260.392L291.197,261.494L290.45,262.586L289.689,263.669L288.916,264.742L288.13,265.806L287.332,266.859L286.522,267.903L285.7,268.936L284.865,269.96L284.019,270.973L283.161,271.976L282.29,272.968L281.409,273.949L280.516,274.92L279.611,275.881L278.695,276.83L277.768,277.768L276.83,278.695L275.881,279.611L274.92,280.516L273.949,281.409L272.968,282.29L271.976,283.161L270.973,284.019L269.96,284.865L268.936,285.7L267.903,286.522L266.859,287.332L265.806,288.13L264.742,288.916L263.669,289.689L262.587,290.449L261.494,291.197L260.392,291.932L259.281,292.654L258.161,293.363L257.032,294.059L255.893,294.742L254.746,295.411L253.59,296.067L252.425,296.709L251.252,297.338L250.07,297.953L248.88,298.554L247.681,299.14L246.474,299.713L245.26,300.272L244.037,300.816L242.807,301.346L241.569,301.861L240.323,302.361L239.07,302.847L237.809,303.318L236.541,303.773L235.267,304.214L233.984,304.639L232.696,305.049L231.4,305.444L230.098,305.823L228.789,306.186L227.473,306.534L226.152,306.865L224.824,307.181L223.49,307.48L222.15,307.764L220.804,308.031L219.452,308.281L218.095,308.515L216.733,308.732L215.365,308.933L213.991,309.116L212.613,309.283L211.23,309.432L209.842,309.565L208.449,309.679L207.052,309.777L205.65,309.857L204.243,309.92L202.833,309.964L201.418,309.991L200,310L198.582,309.991L197.167,309.964L195.757,309.92L194.35,309.857L192.948,309.777L191.551,309.679L190.158,309.564L188.77,309.432L187.387,309.283L186.009,309.116L184.635,308.933L183.267,308.732L181.905,308.515L180.548,308.281L179.196,308.031L177.85,307.764L176.51,307.48L175.176,307.181L173.848,306.865L172.527,306.534L171.211,306.186L169.902,305.823L168.6,305.444L167.304,305.049L166.016,304.639L164.733,304.214L163.459,303.773L162.191,303.318L160.93,302.847L159.677,302.361L158.431,301.861L157.193,301.346L155.963,300.816L154.74,300.272L153.526,299.713L152.319,299.14L151.12,298.554L149.93,297.953L148.748,297.338L147.575,296.709L146.41,296.067L145.254,295.411L144.107,294.742L142.968,294.059L141.839,293.363L140.719,292.654L139.608,291.932L138.506,291.197L137.414,290.45L136.331,289.689L135.258,288.916L134.194,288.13L133.141,287.332L132.097,286.522L131.064,285.7L130.04,284.865L129.027,284.019L128.024,283.161L127.032,282.29L126.051,281.409L125.08,280.516L124.119,279.611L123.17,278.695L122.232,277.768L121.305,276.83L120.389,275.881L119.484,274.92L118.591,273.949L117.71,272.968L116.839,271.976L115.981,270.973L115.135,269.96L114.3,268.936L113.478,267.903L112.668,266.859L111.87,265.806L111.084,264.742L110.311,263.669L109.55,262.586L108.803,261.494L108.068,260.392L107.346,259.281L106.637,258.161L105.941,257.032L105.258,255.893L104.589,254.746L103.933,253.59L103.291,252.425L102.662,251.252L102.047,250.07L101.446,248.88L100.86,247.681L100.287,246.474L99.728,245.26L99.184,244.037L98.654,242.807L98.139,241.569L97.639,240.323L97.153,239.07L96.682,237.809L96.227,236.541L95.786,235.267L95.361,233.984L94.951,232.696L94.556,231.4L94.177,230.098L93.814,228.789L93.466,227.473L93.135,226.152L92.819,224.824L92.52,223.49L92.236,222.15L91.969,220.804L91.719,219.452L91.485,218.095L91.268,216.733L91.067,215.365L90.884,213.991L90.717,212.613L90.568,211.23L90.436,209.842L90.321,208.449L90.223,207.052L90.143,205.65L90.08,204.243L90.036,202.833L90.009,201.418L90,200L90.009,198.582L90.036,197.167L90.08,195.757L90.143,194.35L90.223,192.948L90.321,191.551L90.435,190.158L90.568,188.77L90.717,187.387L90.884,186.009L91.067,184.635L91.268,183.267L91.485,181.905L91.719,180.548L91.969,179.196L92.236,177.85L92.52,176.51L92.819,175.176L93.135,173.848L93.466,172.527L93.814,171.211L94.177,169.902L94.556,168.6L94.951,167.304L95.361,166.016L95.786,164.733L96.227,163.459L96.682,162.191L97.153,160.93L97.639,159.677L98.139,158.431L98.654,157.193L99.184,155.963L99.728,154.74L100.287,153.526L100.86,152.319L101.446,151.12L102.047,149.93L102.662,148.748L103.291,147.575L103.933,146.41L104.589,145.254L105.258,144.107L105.941,142.968L106.637,141.839L107.346,140.719L108.068,139.608L108.803,138.506L109.551,137.413L110.311,136.331L111.084,135.258L111.87,134.194L112.668,133.141L113.478,132.097L114.3,131.064L115.135,130.04L115.981,129.027L116.839,128.024L117.71,127.032L118.591,126.051L119.484,125.08L120.389,124.119L121.305,123.17L122.232,122.232L123.17,121.305L124.119,120.389L125.08,119.484L126.051,118.591L127.032,117.709L128.024,116.839L129.027,115.981L130.04,115.135L131.064,114.3L132.097,113.478L133.141,112.668L134.194,111.87L135.258,111.084L136.331,110.311L137.414,109.55L138.506,108.803L139.608,108.068L140.719,107.346L141.839,106.637L142.968,105.941L144.107,105.258L145.254,104.589L146.41,103.933L147.575,103.291L148.748,102.662L149.93,102.047L151.12,101.446L152.319,100.86L153.526,100.287L154.74,99.728L155.963,99.184L157.193,98.654L158.431,98.139L159.677,97.639L160.93,97.153L162.191,96.682L163.459,96.227L164.734,95.786L166.015,95.361L167.304,94.951L168.6,94.556L169.902,94.177L171.211,93.814L172.527,93.466L173.848,93.135L175.176,92.819L176.51,92.52L177.85,92.236L179.196,91.969L180.548,91.719L181.905,91.485L183.267,91.268L184.635,91.067L186.009,90.884L187.387,90.717L188.77,90.568L190.158,90.436L191.551,90.321L192.948,90.223L194.35,90.143L195.757,90.08L197.167,90.036L198.582,90.009L200,90L201.418,90.009ZM198.835,110.008L197.674,110.03L196.517,110.066L195.364,110.118L194.215,110.183L193.07,110.263L191.93,110.357L190.793,110.466L189.661,110.588L188.534,110.724L187.41,110.874L186.292,111.038L185.178,111.216L184.068,111.407L182.964,111.612L181.864,111.83L180.769,112.061L179.679,112.306L178.594,112.564L177.515,112.835L176.44,113.119L175.371,113.415L174.308,113.725L173.249,114.047L172.196,114.382L171.149,114.73L170.108,115.089L169.072,115.462L168.042,115.846L167.019,116.243L166.001,116.652L164.989,117.073L163.984,117.506L162.984,117.951L161.991,118.407L161.005,118.875L160.025,119.355L159.052,119.846L158.086,120.349L157.126,120.863L156.173,121.388L155.227,121.925L154.289,122.473L153.357,123.031L152.433,123.601L151.516,124.181L150.607,124.772L149.705,125.374L148.811,125.986L147.924,126.609L147.045,127.242L146.174,127.885L145.312,128.538L144.457,129.202L143.61,129.876L142.772,130.559L141.942,131.253L141.121,131.956L140.308,132.669L139.503,133.391L138.708,134.123L137.921,134.864L137.143,135.615L136.374,136.374L135.615,137.143L134.864,137.921L134.123,138.708L133.391,139.503L132.669,140.308L131.956,141.121L131.253,141.942L130.559,142.772L129.876,143.61L129.202,144.457L128.538,145.312L127.885,146.174L127.242,147.045L126.609,147.924L125.986,148.811L125.374,149.705L124.772,150.607L124.181,151.516L123.601,152.433L123.031,153.357L122.473,154.289L121.925,155.227L121.388,156.173L120.863,157.126L120.349,158.086L119.846,159.052L119.355,160.025L118.875,161.005L118.407,161.991L117.951,162.984L117.506,163.984L117.073,164.989L116.652,166.001L116.243,167.019L115.846,168.042L115.462,169.072L115.089,170.108L114.73,171.149L114.382,172.196L114.047,173.249L113.725,174.308L113.415,175.371L113.119,176.44L112.835,177.515L112.564,178.594L112.306,179.679L112.061,180.769L111.83,181.864L111.612,182.964L111.407,184.068L111.216,185.178L111.038,186.292L110.874,187.41L110.724,188.534L110.588,189.661L110.466,190.793L110.357,191.93L110.263,193.07L110.183,194.215L110.118,195.364L110.066,196.517L110.03,197.674L110.008,198.835L110,200L110.008,201.165L110.03,202.326L110.066,203.483L110.118,204.636L110.183,205.785L110.263,206.93L110.357,208.07L110.466,209.207L110.588,210.339L110.724,211.466L110.874,212.59L111.038,213.708L111.216,214.822L111.407,215.932L111.612,217.036L111.83,218.136L112.061,219.231L112.306,220.321L112.564,221.406L112.835,222.485L113.119,223.56L113.415,224.629L113.725,225.692L114.047,226.751L114.382,227.804L114.73,228.851L115.089,229.892L115.462,230.928L115.846,231.958L116.243,232.981L116.652,233.999L117.073,235.011L117.506,236.016L117.951,237.016L118.407,238.009L118.875,238.995L119.355,239.975L119.846,240.948L120.349,241.914L120.863,242.874L121.388,243.827L121.925,244.773L122.473,245.711L123.031,246.643L123.601,247.567L124.181,248.484L124.772,249.393L125.374,250.295L125.986,251.189L126.609,252.076L127.242,252.955L127.885,253.826L128.538,254.688L129.202,255.543L129.876,256.39L130.559,257.228L131.253,258.058L131.956,258.879L132.669,259.692L133.391,260.497L134.123,261.292L134.864,262.079L135.615,262.857L136.374,263.626L137.143,264.385L137.921,265.136L138.708,265.877L139.503,266.609L140.308,267.331L141.121,268.044L141.942,268.747L142.772,269.441L143.61,270.124L144.457,270.798L145.312,271.462L146.174,272.115L147.045,272.758L147.924,273.391L148.811,274.014L149.705,274.626L150.607,275.228L151.516,275.819L152.433,276.399L153.357,276.969L154.289,277.527L155.227,278.075L156.173,278.612L157.126,279.137L158.086,279.651L159.052,280.154L160.025,280.645L161.005,281.125L161.991,281.593L162.984,282.049L163.984,282.494L164.989,282.927L166.001,283.348L167.019,283.757L168.042,284.154L169.072,284.538L170.108,284.911L171.149,285.27L172.196,285.618L173.249,285.953L174.308,286.275L175.371,286.585L176.44,286.881L177.515,287.165L178.594,287.436L179.679,287.694L180.769,287.939L181.864,288.17L182.964,288.388L184.068,288.593L185.178,288.784L186.292,288.962L187.41,289.126L188.534,289.276L189.661,289.412L190.793,289.534L191.93,289.643L193.07,289.737L194.215,289.817L195.364,289.882L196.517,289.934L197.674,289.97L198.835,289.992L200,290L201.165,289.992L202.326,289.97L203.483,289.934L204.636,289.882L205.785,289.817L206.93,289.737L208.07,289.643L209.207,289.534L210.339,289.412L211.466,289.276L212.59,289.126L213.708,288.962L214.822,288.784L215.932,288.593L217.036,288.388L218.136,288.17L219.231,287.939L220.321,287.694L221.406,287.436L222.485,287.165L223.56,286.881L224.629,286.585L225.692,286.275L226.751,285.953L227.804,285.618L228.851,285.27L229.892,284.911L230.928,284.538L231.958,284.154L232.981,283.757L233.999,283.348L235.011,282.927L236.017,282.494L237.016,282.049L238.009,281.593L238.995,281.125L239.975,280.645L240.948,280.154L241.914,279.651L242.874,279.137L243.827,278.612L244.773,278.075L245.711,277.527L246.643,276.969L247.567,276.399L248.484,275.819L249.393,275.228L250.295,274.626L251.189,274.014L252.076,273.391L252.955,272.758L253.826,272.115L254.689,271.461L255.543,270.798L256.39,270.124L257.228,269.441L258.058,268.747L258.88,268.044L259.692,267.331L260.497,266.609L261.292,265.877L262.079,265.136L262.857,264.385L263.626,263.626L264.385,262.857L265.136,262.079L265.877,261.292L266.609,260.497L267.331,259.692L268.044,258.88L268.747,258.058L269.441,257.228L270.124,256.39L270.798,255.543L271.462,254.688L272.115,253.826L272.758,252.955L273.391,252.076L274.014,251.189L274.626,250.295L275.228,249.393L275.819,248.484L276.399,247.567L276.969,246.643L277.527,245.711L278.075,244.773L278.611,243.827L279.137,242.874L279.651,241.914L280.154,240.948L280.645,239.975L281.125,238.995L281.593,238.009L282.049,237.016L282.494,236.016L282.927,235.011L283.348,233.999L283.757,232.981L284.154,231.958L284.538,230.928L284.911,229.892L285.27,228.851L285.618,227.803L285.953,226.751L286.275,225.692L286.585,224.629L286.881,223.56L287.165,222.485L287.436,221.406L287.694,220.321L287.939,219.231L288.17,218.136L288.388,217.036L288.593,215.932L288.784,214.822L288.962,213.708L289.126,212.59L289.276,211.467L289.412,210.339L289.534,209.207L289.643,208.07L289.737,206.93L289.817,205.785L289.882,204.636L289.934,203.483L289.97,202.326L289.992,201.165L290,200L289.992,198.835L289.97,197.674L289.934,196.517L289.882,195.364L289.817,194.215L289.737,193.07L289.643,191.93L289.534,190.793L289.412,189.661L289.276,188.533L289.126,187.41L288.962,186.292L288.784,185.178L288.593,184.068L288.388,182.964L288.17,181.864L287.939,180.769L287.694,179.679L287.436,178.594L287.165,177.515L286.881,176.44L286.585,175.371L286.275,174.308L285.953,173.249L285.618,172.197L285.27,171.149L284.911,170.108L284.538,169.072L284.154,168.042L283.757,167.019L283.348,166.001L282.927,164.989L282.494,163.984L282.049,162.984L281.593,161.991L281.125,161.005L280.645,160.025L280.154,159.052L279.651,158.086L279.137,157.126L278.611,156.173L278.075,155.227L277.527,154.289L276.969,153.357L276.399,152.433L275.819,151.516L275.228,150.607L274.626,149.705L274.014,148.811L273.391,147.924L272.758,147.045L272.115,146.174L271.461,145.312L270.798,144.457L270.124,143.61L269.441,142.772L268.747,141.942L268.044,141.12L267.331,140.308L266.609,139.503L265.877,138.708L265.136,137.921L264.385,137.143L263.626,136.374L262.857,135.615L262.079,134.864L261.292,134.123L260.497,133.391L259.692,132.669L258.88,131.956L258.058,131.253L257.228,130.559L256.39,129.876L255.543,129.202L254.689,128.539L253.826,127.885L252.955,127.242L252.076,126.609L251.189,125.986L250.295,125.374L249.393,124.772L248.484,124.181L247.567,123.601L246.643,123.031L245.711,122.473L244.773,121.925L243.827,121.388L242.874,120.863L241.914,120.349L240.948,119.846L239.975,119.355L238.995,118.875L238.009,118.407L237.016,117.951L236.016,117.506L235.011,117.073L233.999,116.652L232.981,116.243L231.958,115.846L230.928,115.462L229.892,115.089L228.851,114.73L227.804,114.382L226.751,114.047L225.692,113.725L224.629,113.415L223.56,113.119L222.485,112.835L221.406,112.564L220.321,112.306L219.231,112.061L218.136,111.83L217.036,111.612L215.932,111.407L214.822,111.216L213.708,111.038L212.59,110.874L211.466,110.724L210.339,110.588L209.207,110.466L208.07,110.357L206.93,110.263L205.785,110.183L204.636,110.118L203.483,110.066L202.326,110.03L201.165,110.008L200,110L198.835,110.008Z" style="fill:#a3cf9b;"/>
                </g>
                <g id="boxes">
                    <g transform="matrix(0.707107,0.707107,-0.707107,0.707107,0,0)">
                        <rect x="0" y="0" width="300" height="200" style="fill:#fff;"/>
                    </g>
                    <g transform="matrix(-0.707107,0.707107,0.707107,0.707107,400,0)">
                        <rect x="0" y="0" width="300" height="200" style="fill:#fff;"/>
                    </g>
                    <rect x="0" y="200" width="400" height="200" style="fill:#fff;"/>
                </g>
                <g id="io">
                    <g transform="matrix(-0.707107,-0.707107,0.707107,-0.707107,200,482.843)">
                        <circle cx="300" cy="200" r="10" style="fill:#a3cf9b;"/>
                    </g>
                    <g transform="matrix(0.707107,-0.707107,0.707107,0.707107,-82.8377,200)">
                        <circle cx="300" cy="200" r="10" style="fill:#a3cf9b;"/>
                    </g>
                    <g transform="matrix(-0.707107,-0.707107,0.707107,-0.707107,200,482.843)">
                        <circle cx="340" cy="200" r="10" style="fill:#73c3b6;"/>
                    </g>
                    <g transform="matrix(0.707107,-0.707107,0.707107,0.707107,-82.8377,200)">
                        <circle cx="340" cy="200" r="10" style="fill:#73c3b6;"/>
                    </g>
                    <g transform="matrix(-0.707107,-0.707107,0.707107,-0.707107,200,482.843)">
                        <circle cx="380" cy="200" r="10" style="fill:#72c9e1;"/>
                    </g>
                    <g transform="matrix(0.707107,-0.707107,0.707107,0.707107,-82.8377,200)">
                        <circle cx="380" cy="200" r="10" style="fill:#72c9e1;"/>
                    </g>
                </g>
            </g>
        </g>
    </g>
    <g id="logovierkantA4" transform="matrix(0.0648823,0,0,0.0648823,50,44.1787)">
        <g transform="matrix(1,0,0,1,-282,-200)">
            <g id="io1">
                <circle cx="282" cy="200" r="60" style="fill:none;stroke:#878787;stroke-width:20px;"/>
                <path d="M282,200L237,122.1L327,122.1L282,200Z" style="fill:#fff;fill-rule:nonzero;"/>
                <rect x="272" y="175" width="20" height="50" style="fill:#878787;"/>
                <circle cx="282" cy="175" r="10" style="fill:#878787;"/>
                <circle cx="282" cy="225" r="10" style="fill:#878787;"/>
                <circle cx="282" cy="140" r="10" style="fill:#878787;"/>
                <g transform="matrix(-0.5,-0.866025,0.866025,-0.5,249.795,544.219)">
                    <circle cx="342" cy="200" r="10" style="fill:#878787;"/>
                </g>
                <g transform="matrix(0.5,-0.866025,0.866025,0.5,-32.2051,344.219)">
                    <circle cx="342" cy="200" r="10" style="fill:#878787;"/>
                </g>
            </g>
        </g>
    </g>
    <g transform="matrix(1,0,0,1,0,-8.808)">
        <path d="M92.165,46.646C89.771,44.251 86.981,42.372 83.874,41.056C80.651,39.694 77.234,39.003 73.713,39.003L26.555,40.037C26.047,38.321 24.452,37.936 23.9,37.901C17.452,37.497 4.177,45.745 5.001,49.059C5.818,52.346 3.37,51.83 2.054,54.938C0.692,58.159 0,61.578 0,65.096C0,68.618 0.69,72.034 2.054,75.255C3.369,78.363 5.249,81.151 7.644,83.548C10.038,85.942 12.828,87.821 15.936,89.136C19.158,90.497 22.575,91.191 26.095,91.191C30.209,91.191 34.309,90.208 37.953,88.344C40.4,87.094 42.653,85.444 44.598,83.49L55.208,83.49C57.154,85.444 59.408,87.094 61.854,88.344C65.499,90.207 69.599,91.191 73.711,91.191C77.232,91.191 80.649,90.499 83.871,89.136C86.978,87.822 89.767,85.942 92.161,83.548C94.556,81.152 96.437,78.363 97.751,75.255C99.113,72.034 99.804,68.617 99.804,65.096C99.804,61.576 99.115,58.159 97.751,54.938C96.44,51.831 94.56,49.041 92.165,46.646ZM73.713,84.348C67.417,84.348 61.825,81.323 58.313,76.647L41.495,76.647C37.983,81.323 32.392,84.348 26.095,84.348C15.464,84.348 6.846,75.731 6.846,65.098C6.846,54.467 15.465,45.848 26.095,45.848L73.713,45.848C84.346,45.848 92.965,54.467 92.965,65.098C92.963,75.73 84.346,84.348 73.713,84.348Z" style="fill:#73c3b6;fill-rule:nonzero;stroke:#73c3b6;stroke-width:1px;stroke-linejoin:round;stroke-miterlimit:1.41421;"/>
    </g>
    <g transform="matrix(-1,0,-0,1,99.804,-8.808)">
        <path d="M92.165,46.646C89.771,44.251 86.981,42.372 83.874,41.056C80.651,39.694 77.234,39.003 73.713,39.003L26.555,40.037C26.047,38.321 24.452,37.936 23.9,37.901C17.452,37.497 4.177,45.745 5.001,49.059C5.818,52.346 3.37,51.83 2.054,54.938C0.692,58.159 0,61.578 0,65.096C0,68.618 0.69,72.034 2.054,75.255C3.369,78.363 5.249,81.151 7.644,83.548C10.038,85.942 12.828,87.821 15.936,89.136C19.158,90.497 22.575,91.191 26.095,91.191C30.209,91.191 34.309,90.208 37.953,88.344C40.4,87.094 42.653,85.444 44.598,83.49L55.208,83.49C57.154,85.444 59.408,87.094 61.854,88.344C65.499,90.207 69.599,91.191 73.711,91.191C77.232,91.191 80.649,90.499 83.871,89.136C86.978,87.822 89.767,85.942 92.161,83.548C94.556,81.152 96.437,78.363 97.751,75.255C99.113,72.034 99.804,68.617 99.804,65.096C99.804,61.576 99.115,58.159 97.751,54.938C96.44,51.831 94.56,49.041 92.165,46.646ZM73.713,84.348C67.417,84.348 61.825,81.323 58.313,76.647L41.495,76.647C37.983,81.323 32.392,84.348 26.095,84.348C15.464,84.348 6.846,75.731 6.846,65.098C6.846,54.467 15.465,45.848 26.095,45.848L73.713,45.848C84.346,45.848 92.965,54.467 92.965,65.098C92.963,75.73 84.346,84.348 73.713,84.348Z" style="fill:#73c3b6;fill-rule:nonzero;stroke:#73c3b6;stroke-width:1px;stroke-linejoin:round;stroke-miterlimit:1.41421;"/>
    </g>
    <g transform="matrix(1,0,0,1,0,-8.808)">
        <path d="M92.165,46.646C89.771,44.251 86.981,42.372 83.874,41.056C80.651,39.694 77.234,39.003 73.713,39.003L26.095,39.003C22.575,39.003 19.157,39.693 15.936,41.056C12.828,42.371 10.038,44.251 7.644,46.646C5.249,49.04 3.37,51.83 2.054,54.938C0.692,58.159 0,61.578 0,65.096C0,68.618 0.69,72.034 2.054,75.255C3.369,78.363 5.249,81.151 7.644,83.548C10.038,85.942 12.828,87.821 15.936,89.136C19.158,90.497 22.575,91.191 26.095,91.191C30.209,91.191 34.309,90.208 37.953,88.344C40.4,87.094 42.653,85.444 44.598,83.49L55.208,83.49C57.154,85.444 59.408,87.094 61.854,88.344C65.499,90.207 69.599,91.191 73.711,91.191C77.232,91.191 80.649,90.499 83.871,89.136C86.978,87.822 89.767,85.942 92.161,83.548C94.556,81.152 96.437,78.363 97.751,75.255C99.113,72.034 99.804,68.617 99.804,65.096C99.804,61.576 99.115,58.159 97.751,54.938C96.44,51.831 94.56,49.041 92.165,46.646ZM73.713,84.348C67.417,84.348 61.825,81.323 58.313,76.647L41.495,76.647C37.983,81.323 32.392,84.348 26.095,84.348C15.464,84.348 6.846,75.731 6.846,65.098C6.846,54.467 15.465,45.848 26.095,45.848L73.713,45.848C84.346,45.848 92.965,54.467 92.965,65.098C92.963,75.73 84.346,84.348 73.713,84.348Z" style="fill:#72c9e1;fill-rule:nonzero;stroke:#72c9e1;stroke-width:1px;stroke-linejoin:round;stroke-miterlimit:1.41421;"/>
    </g>
    <g transform="matrix(1,0,0,1,0,-8.808)">
        <circle cx="73.713" cy="72.797" r="3.849" style="fill:#a3cf9b;stroke:#a3cf9b;stroke-width:1px;stroke-linejoin:round;stroke-miterlimit:1.41421;"/>
    </g>
    <g transform="matrix(1,0,0,1,0,-8.808)">
        <circle cx="81.414" cy="65.097" r="3.85" style="fill:#a3cf9b;stroke:#a3cf9b;stroke-width:1px;stroke-linejoin:round;stroke-miterlimit:1.41421;"/>
    </g>
    <g transform="matrix(1,0,0,1,0,-8.808)">
        <circle cx="66.015" cy="65.097" r="3.85" style="fill:#a3cf9b;stroke:#a3cf9b;stroke-width:1px;stroke-linejoin:round;stroke-miterlimit:1.41421;"/>
    </g>
    <g transform="matrix(1,0,0,1,0,-8.808)">
        <circle cx="73.713" cy="57.398" r="3.849" style="fill:#a3cf9b;stroke:#a3cf9b;stroke-width:1px;stroke-linejoin:round;stroke-miterlimit:1.41421;"/>
    </g>
    <g transform="matrix(1,0,0,1,0,-8.808)">
        <path d="M35.72,61.247L29.945,61.247L29.945,55.474C29.945,54.412 29.083,53.549 28.021,53.549L24.171,53.549C23.108,53.549 22.246,54.411 22.246,55.474L22.246,61.247L16.472,61.247C15.409,61.247 14.548,62.109 14.548,63.173L14.548,67.023C14.548,68.086 15.41,68.949 16.472,68.949L22.246,68.949L22.246,74.722C22.246,75.786 23.108,76.647 24.171,76.647L28.021,76.647C29.084,76.647 29.945,75.787 29.945,74.722L29.945,68.949L35.72,68.949C36.783,68.949 37.645,68.087 37.645,67.023L37.645,63.173C37.645,62.109 36.782,61.247 35.72,61.247Z" style="fill:#a3cf9b;fill-rule:nonzero;stroke:#a3cf9b;stroke-width:1px;stroke-linejoin:round;stroke-miterlimit:1.41421;"/>
    </g>
    <g transform="matrix(0.988897,0,0,0.988897,7.81065,0.586487)">
        <path d="M50.247,53.28C50.247,53.027 50.041,52.821 49.788,52.821L45.651,52.821C45.397,52.821 45.191,53.027 45.191,53.28L45.191,54.2C45.191,54.453 45.397,54.659 45.651,54.659L49.788,54.659C50.041,54.659 50.247,54.453 50.247,54.2L50.247,53.28Z" style="fill:#73c3b6;stroke:#73c3b6;stroke-width:1.01px;stroke-linecap:round;stroke-linejoin:round;stroke-miterlimit:1.5;"/>
    </g>
    <g transform="matrix(0.988897,0,0,0.988897,-2.18935,0.586487)">
        <path d="M50.247,53.28C50.247,53.027 50.041,52.821 49.788,52.821L45.651,52.821C45.397,52.821 45.191,53.027 45.191,53.28L45.191,54.2C45.191,54.453 45.397,54.659 45.651,54.659L49.788,54.659C50.041,54.659 50.247,54.453 50.247,54.2L50.247,53.28Z" style="fill:#73c3b6;stroke:#73c3b6;stroke-width:1.01px;stroke-linecap:round;stroke-linejoin:round;stroke-miterlimit:1.5;"/>
    </g>
</svg>
