<svg xmlns="http://www.w3.org/2000/svg" width="287" height="137" viewBox="0 0 287 137">
  <g fill="none">
    <g fill="#fff" transform="translate(29 122)">
      <path d="M3.67160243 11.1375C3.67160243 11.53125 3.67160243 11.896875 3.67160243 12.2203125 3.67160243 12.54375 3.67160243 12.8390625 3.67160243 13.10625 3.67160243 13.2703125 3.79290061 13.3828125 4.0168357 13.44375L5.13651116 13.790625 5.13651116 14.2171875C4.28742394 14.2171875 3.4663286 14.1890625 2.68255578 14.1890625 1.89878296 14.1890625 1.06369168 14.1890625.228600406 14.2171875L.186612576 13.790625 1.40425963 13.425C1.554746 13.3983605 1.66585667 13.2690943 1.67018256 13.115625 1.67018256 12.8484375 1.67018256 12.553125 1.67018256 12.225 1.67018256 11.896875 1.67018256 11.53125 1.67018256 11.1375L1.67018256 3.065625C1.67018256 2.728125 1.67018256 2.4234375 1.67018256 2.128125 1.67018256 1.8328125 1.67018256 1.6125 1.67018256 1.3921875 1.67907885 1.2391322 1.58276017 1.09977372 1.43691684 1.0546875L.205273834.665625.205273834.2390625C1.05902637.2671875 1.87545639.28125 2.65922921.28125 3.44300203.28125 4.27342799.28125 5.1178499.2390625L5.15517241.665625 3.92819473 1.0359375C3.77945511 1.06314392 3.6714143 1.19340944 3.67160243 1.3453125 3.67160243 1.5765625 3.67160243 1.8296875 3.67160243 2.1046875 3.67160243 2.38125 3.67160243 2.68125 3.67160243 3.0046875L3.67160243 11.1375zM17.835497 3.75L17.4389452 3.80625 16.7158215 1.190625C15.9892414.997943253 15.2418662.895615355 14.4904665.8859375 13.025089.818012871 11.6132513 1.44655105 10.6789047 2.5828125 9.70768494 3.84405836 9.21190056 5.40988487 9.27931034 7.003125 9.27931034 8.9375 9.80649087 10.48125 10.8608519 11.634375 11.915213 12.7875 13.3785666 13.365625 15.2509128 13.36875 16.381291 13.3542693 17.5011348 13.1482524 18.563286 12.759375L18.6752535 13.228125C17.3759128 14.1080122 15.8377758 14.5631346 14.2711968 14.53125 12.3541378 14.6147599 10.4864955 13.9068294 9.1020284 12.571875 7.75800929 11.2041003 7.04131812 9.33591805 7.12393509 7.415625 7.12393509 5.14375 7.84861393 3.34375 9.2979716 2.015625 10.7473293.6875 12.6336714.0234375 14.956998.0234375 16.1101806.0278479054 17.2590832.164673319 18.3813387.43125L18.4513185.5109375 17.835497 3.75zM25.5892495 14.1890625C24.7774848 14.1890625 23.8817444 14.1890625 22.8973631 14.2171875L22.8553753 13.790625 24.320284 13.3546875C24.4698828 13.3277541 24.5794542 13.1980023 24.5815416 13.0453125 24.5815416 12.5390625 24.5815416 11.896875 24.5815416 11.1140625L24.5815416 1.190625 21.0872211 1.190625 20.2054767 3.834375 19.8089249 3.9046875 19.5523327.3421875 19.6223124.2625C21.2458418.290625 22.8009466.3046875 24.2876268.3046875L26.93286.3046875C28.4133198.3046875 29.9684246.290625 31.5981744.2625L31.6588235.3421875 31.0383367 3.834375 30.641785 3.9046875 30.0073022 1.190625 26.5129817 1.190625 26.5129817 11.1140625C26.5129817 11.896875 26.5129817 12.5203125 26.5129817 13.0453125 26.5127936 13.1972156 26.6208344 13.3274811 26.769574 13.3546875L28.2344828 13.790625 28.2344828 14.2171875C27.2547667 14.1984375 26.3730223 14.1890625 25.5892495 14.1890625zM44.3204868 1.1671875C43.705189.95055557 43.0595561.833472552 42.4077079.8203125 41.6611283.780592177 40.9244707 1.00629142 40.3269777 1.4578125 39.8019032 1.88852411 39.5125395 2.54486471 39.5478702 3.225 39.5381227 3.62035811 39.6314021 4.01140905 39.8184584 4.359375 40.0045851 4.69057815 40.253411 4.98199004 40.5509128 5.2171875 40.8756256 5.47181266 41.22586 5.69175015 41.5959432 5.8734375 41.9878296 6.065625 42.3890467 6.253125 42.8042596 6.440625 43.2194726 6.628125 43.7046653 6.8484375 44.1338742 7.0734375 44.5492622 7.28762329 44.9389987 7.54868323 45.2955375 7.8515625 45.6413888 8.14961045 45.923833 8.51470769 46.1259635 8.925 46.3431266 9.38103447 46.4502159 9.88209004 46.4385396 10.3875 46.4942151 11.5993566 45.9088619 12.7506789 44.8989858 13.415625 43.7048025 14.156008 42.3166691 14.5185737 40.9148073 14.45625 39.7344824 14.4367616 38.5621996 14.2570083 37.4298174 13.921875L37.3691684 13.8421875 37.8356998 10.4578125 38.3022312 10.3875 38.9926978 13.2C39.6763231 13.4764131 40.4065051 13.6180513 41.1434077 13.6171875 41.9620401 13.6675868 42.773318 13.4361081 43.4434077 12.9609375 44.0038215 12.5065595 44.3113658 11.808239 44.2691684 11.0859375 44.2770756 10.695824 44.1855331 10.3101625 44.0032454 9.965625 43.821454 9.64352586 43.5771382 9.36138596 43.284787 9.1359375 42.9649011 8.89190883 42.620984 8.68143594 42.2584178 8.5078125 41.8758621 8.315625 41.4839757 8.128125 41.073428 7.9453125 40.6628803 7.7625 40.1636917 7.528125 39.7251521 7.2984375 39.3022215 7.07423143 38.9062057 6.80215022 38.5448276 6.4875 38.1862035 6.1729682 37.8969875 5.78657754 37.6957404 5.353125 37.4761155 4.86122638 37.3677684 4.32652036 37.378499 3.7875 37.3400135 2.65317162 37.9145502 1.58647903 38.8807302.9984375 40.0008168.307307873 41.2994603-.0352071431 42.6129817.0140625 43.7115452.0207853918 44.8062794.144921491 45.8787018.384375L45.9486815.4546875 45.3655172 3.5578125 44.9689655 3.628125 44.3204868 1.1671875z"/>
      <g transform="translate(46.653)">
        <path d="M6.19553753 14.1890625C5.38377282 14.1890625 4.48803245 14.1890625 3.50365112 14.2171875L3.46166329 13.790625 4.92657201 13.3546875C5.07617087 13.3277541 5.18574221 13.1980023 5.18782961 13.0453125 5.18782961 12.5390625 5.18782961 11.896875 5.18782961 11.1140625L5.18782961 1.190625 1.69350913 1.190625.811764706 3.834375.415212982 3.9046875.15862069.3421875.228600406.2625C1.85212982.290625 3.40723462.3046875 4.89391481.3046875L7.53914807.3046875C9.01805274.3046875 10.5762677.3046875 12.2044625.2625L12.2604462.3421875 11.663286 3.834375 11.2667343 3.9046875 10.6322515 1.190625 7.13793103 1.190625 7.13793103 11.1140625C7.13793103 11.896875 7.13793103 12.5203125 7.13793103 13.0453125 7.1377429 13.1972156 7.24578371 13.3274811 7.39452333 13.3546875L8.85943205 13.790625 8.85943205 14.2171875C7.86727519 14.1984375 6.97931034 14.1890625 6.19553753 14.1890625zM13.0162272.2625C13.8699797.290625 14.6864097.3046875 15.4701826.3046875 16.2539554.3046875 17.0843813.3046875 17.9288032.2625L17.9661258.6890625 16.7391481 1.059375C16.5904085 1.08658142 16.4823676 1.21684694 16.4825558 1.36875 16.4825558 1.6 16.4825558 1.853125 16.4825558 2.128125 16.4825558 2.4046875 16.4825558 2.7046875 16.4825558 3.028125L16.4825558 8.4703125C16.4825558 10.3671875 16.782691 11.68125 17.3829615 12.4125 17.9801217 13.14375 18.9505071 13.5140625 20.284787 13.5140625 21.6190669 13.5140625 22.6174442 13.134375 23.2239351 12.3796875 23.830426 11.625 24.1336714 10.359375 24.1336714 8.5875L24.1336714 3.028125C24.1336714 2.7046875 24.1336714 2.4046875 24.1336714 2.128125 24.1336714 1.8515625 24.1336714 1.5984375 24.1103448 1.36875 24.1047558 1.21740258 23.9967976 1.08956117 23.8490872 1.059375L22.6920892.721875 22.6920892.253125C23.5318458.28125 24.2503043.2953125 24.8521298.2953125 25.4539554.2953125 26.1257606.2953125 26.946856.253125L26.9888438.6796875 25.7432049 1.06875C25.5955047 1.11207147 25.4969421 1.2518804 25.5052738 1.40625 25.5052738 1.6265625 25.5052738 1.875 25.5052738 2.1421875 25.5052738 2.409375 25.5052738 2.71875 25.5052738 3.0796875L25.5052738 8.184375C25.5052738 10.371875 25.0651792 11.9796875 24.1849899 13.0078125 23.3032454 14.053125 21.9176471 14.56875 20.0235294 14.56875 18.1294118 14.56875 16.7997972 14.1 15.9133874 13.1625 15.0269777 12.225 14.5884381 10.7671875 14.5884381 8.79375L14.5884381 3.065625C14.5884381 2.728125 14.5884381 2.4234375 14.5884381 2.128125 14.5884381 1.8328125 14.5884381 1.6125 14.5884381 1.3921875 14.5973344 1.2391322 14.5010157 1.09977372 14.3551724 1.0546875L13.1235294.665625 13.0162272.2625zM30.9356998 14.1890625C30.137931 14.1890625 29.3168357 14.1890625 28.4817444 14.2171875L28.4397566 13.790625 29.6574037 13.425C29.8070296 13.395532 29.9181331 13.2685027 29.9279919 13.115625 29.9279919 12.8484375 29.9279919 12.553125 29.9279919 12.225 29.9279919 11.896875 29.9279919 11.53125 29.9279919 11.1375L29.9279919 3.065625C29.9279919 2.728125 29.9279919 2.4234375 29.9279919 2.128125 29.9279919 1.8328125 29.9279919 1.6125 29.9279919 1.3921875 29.932975 1.23880888 29.8357195 1.10085412 29.6900609 1.0546875L28.4630832.665625 28.4630832.2390625C29.3168357.2671875 30.1425963.28125 30.9496957.28125 31.6075051.28125 32.2466531.28125 32.8578093.2296875 33.4689655.178125 34.098783.178125 34.7472617.178125 37.0550372.178125 38.788979.7078125 39.9490872 1.7671875 41.1091954 2.8265625 41.6892495 4.396875 41.6892495 6.478125 41.6892495 8.93125 41.0454361 10.8359375 39.7578093 12.1921875 38.4701826 13.5484375 36.6615957 14.2265625 34.3320487 14.2265625 33.6929006 14.2265625 33.1237323 14.2265625 32.6198783 14.19375 32.1160243 14.1609375 31.5421907 14.1890625 30.9356998 14.1890625zM31.8687627 13.303125C32.2559838 13.3546875 32.6385396 13.3921875 33.0117647 13.40625 33.3849899 13.4203125 33.758215 13.434375 34.1361055 13.434375 35.8762677 13.434375 37.2058824 12.91875 38.1156187 11.8875 39.025355 10.85625 39.4825558 9.2765625 39.4825558 7.1484375 39.4825558 5.0203125 39.0486815 3.54375 38.1855984 2.5453125 37.3225152 1.546875 35.9509128 1.05 34.0754564 1.05 33.7768763 1.05 33.4503043 1.05 33.0910751 1.05 32.7318458 1.05 32.3212982 1.0875 31.8687627 1.1203125L31.8687627 13.303125zM47.1196755 11.1375C47.1196755 11.53125 47.1196755 11.896875 47.1196755 12.2203125 47.1196755 12.54375 47.1196755 12.8390625 47.1196755 13.10625 47.1196755 13.2703125 47.2409736 13.3828125 47.4649087 13.44375L48.5845842 13.790625 48.5845842 14.2171875C47.735497 14.2171875 46.9144016 14.1890625 46.1306288 14.1890625 45.346856 14.1890625 44.5117647 14.1890625 43.6766734 14.2171875L43.6346856 13.790625 44.8523327 13.425C45.0018886 13.3967253 45.1121841 13.2684074 45.1182556 13.115625 45.1182556 12.8484375 45.1182556 12.553125 45.1182556 12.225 45.1182556 11.896875 45.1182556 11.53125 45.1182556 11.1375L45.1182556 3.065625C45.1182556 2.728125 45.1182556 2.4234375 45.1182556 2.128125 45.1182556 1.8328125 45.1182556 1.6125 45.1182556 1.3921875 45.1265873 1.2378179 45.0280247 1.09800897 44.8803245 1.0546875L43.6533469.665625 43.6533469.2390625C44.5070994.2671875 45.3235294.28125 46.1073022.28125 46.8910751.28125 47.721501.28125 48.5659229.2390625L48.6032454.665625 47.3762677 1.0359375C47.2275281 1.06314392 47.1194873 1.19340944 47.1196755 1.3453125 47.1196755 1.5765625 47.1196755 1.8296875 47.1196755 2.1046875 47.1196755 2.38125 47.1196755 2.68125 47.1196755 3.0046875L47.1196755 11.1375z"/>
      </g>
      <path d="M99.6604462,0.3046875 L102.067748,0.3046875 C103.545098,0.3046875 105.100203,0.290625 106.733063,0.2625 L106.793712,0.3421875 L106.215213,3.4171875 L105.823327,3.4875 L105.207505,1.190625 L100.635497,1.190625 L100.635497,6.6609375 L101.535903,6.6609375 C102.221704,6.6609375 102.986815,6.6609375 103.831237,6.6609375 C103.989732,6.6654265 104.129766,6.55794727 104.16714,6.403125 L104.512373,5.0625 L105.048884,5.0625 C105.048884,6 105.020892,6.675 105.020892,7.1203125 C105.020892,7.565625 105.020892,8.2265625 105.048884,9.15 L104.512373,9.1875 L104.157809,7.8234375 C104.129668,7.67317031 104.001958,7.56235039 103.849899,7.55625 C102.991481,7.55625 102.217039,7.55625 101.517241,7.55625 L100.626166,7.55625 L100.626166,11.175 C100.626166,11.9109375 100.626166,12.6375 100.626166,13.3546875 L105.436105,13.3546875 L106.644422,10.828125 L107.110953,10.7484375 L106.891684,14.2125 L106.821704,14.278125 C105.114199,14.259375 103.537323,14.25 102.091075,14.25 L99.7350913,14.25 C98.9373225,14.25 98.1162272,14.25 97.2811359,14.278125 L97.2391481,13.8515625 L98.4567951,13.4859375 C98.6072815,13.459298 98.7183922,13.3300318 98.7227181,13.1765625 C98.7227181,12.909375 98.7227181,12.6140625 98.7227181,12.2859375 C98.7227181,11.9578125 98.7227181,11.5921875 98.7227181,11.1984375 L98.7227181,3.065625 C98.7227181,2.728125 98.7227181,2.4234375 98.7227181,2.128125 C98.7227181,1.8328125 98.7227181,1.6125 98.7227181,1.3921875 C98.7316143,1.2391322 98.6352957,1.09977372 98.4894523,1.0546875 L97.2578093,0.665625 L97.2578093,0.2390625 C98.0602434,0.290625 98.8766734,0.3046875 99.6604462,0.3046875 Z"/>
      <g transform="translate(107.302)">
        <path d="M6.53144016 14.26875L2.11338742 2.2734375C2.01176153 1.94179164 1.86413028 1.62618888 1.67484787 1.3359375 1.51597417 1.1479059 1.30210251 1.01503578 1.06369168.95625L.163286004.675.163286004.2484375C.81643002.2765625 1.58154158.290625 2.45862069.290625 3.34969574.290625 4.27342799.290625 5.22048682.2484375L5.26247465.675 4.32941176.946875C4.22374322.967342295 4.12546959 1.01590342 4.04482759 1.0875 3.9804056 1.16448429 3.94858257 1.26377309 3.95618661 1.3640625 3.96433604 1.54472984 3.99891929 1.72320674 4.05882353 1.89375 4.12880325 2.11875 4.22677485 2.4046875 4.35273834 2.75625L7.5484787 11.709375 11.0241379 2.765625C11.1640974 2.4 11.2713996 2.109375 11.3507099 1.884375 11.4184073 1.71548737 11.4578175 1.53650628 11.4673428 1.3546875 11.47738 1.2561095 11.443176 1.15816461 11.3740365 1.0875 11.2925171 1.02189131 11.1965265.976882652 11.0941176.95625L10.1610548.7078125 10.1610548.2390625C10.8795132.2671875 11.6073022.28125 12.3397566.28125 13.072211.28125 13.7766734.28125 14.4484787.2390625L14.4858012.665625 13.4874239.984375C13.2817781 1.03506244 13.0982768 1.15194233 12.9649087 1.3171875 12.7760948 1.61180591 12.6196682 1.92614704 12.4983773 2.2546875L7.51115619 14.1890625 6.53144016 14.26875zM17.3409736.3046875L19.7482759.3046875C21.2271805.3046875 22.7853955.3046875 24.4135903.2625L24.469574.3421875 23.8957404 3.4171875 23.4991886 3.4875 22.8880325 1.190625 18.311359 1.190625 18.311359 6.6609375 19.2117647 6.6609375C19.9022312 6.6609375 20.6673428 6.6609375 21.5117647 6.6609375 21.670259 6.6654265 21.8102932 6.55794727 21.8476673 6.403125L22.1929006 5.0625 22.7294118 5.0625C22.7060852 6 22.6967546 6.675 22.6967546 7.1203125 22.6967546 7.565625 22.6967546 8.2265625 22.7294118 9.15L22.1929006 9.1875 21.8383367 7.8234375C21.8101958 7.67317031 21.6824853 7.56235039 21.530426 7.55625 20.6720081 7.55625 19.8975659 7.55625 19.1977688 7.55625L18.3066937 7.55625 18.3066937 11.175C18.3066937 11.9109375 18.3066937 12.6375 18.3066937 13.3546875L23.0559838 13.3546875 24.2643002 10.828125 24.7308316 10.7484375 24.5115619 14.2125 24.4415822 14.278125C22.7340771 14.259375 21.1572008 14.25 19.7109533 14.25L17.3549696 14.25C16.5525355 14.25 15.7361055 14.25 14.8963489 14.278125L14.8590264 13.8515625 16.0766734 13.4859375C16.2253299 13.4561024 16.3348574 13.3286779 16.3425963 13.1765625 16.3425963 12.909375 16.3425963 12.6140625 16.3425963 12.2859375 16.3425963 11.9578125 16.3425963 11.5921875 16.3425963 11.1984375L16.3425963 3.065625C16.3425963 2.728125 16.3425963 2.4234375 16.3425963 2.128125 16.3425963 1.8328125 16.3425963 1.6125 16.3425963 1.3921875 16.3509281 1.2378179 16.2523654 1.09800897 16.1046653 1.0546875L14.8776876.665625 14.8776876.2390625C15.7361055.290625 16.5572008.3046875 17.3409736.3046875zM30.1006085 11.1375C30.1006085 11.53125 30.1006085 11.8921875 30.1006085 12.2109375 30.1006085 12.5296875 30.1006085 12.815625 30.1006085 13.0734375 30.0819175 13.2482425 30.1896964 13.4116642 30.3572008 13.4625L31.4535497 13.790625 31.4862069 14.2171875C30.6977688 14.2171875 29.9139959 14.1890625 29.1302231 14.1890625 28.3464503 14.1890625 27.511359 14.1890625 26.6716024 14.2171875L26.6342799 13.790625 27.851927 13.425C28.0005834 13.3951649 28.110111 13.2677404 28.1178499 13.115625 28.1178499 12.8484375 28.1178499 12.553125 28.1178499 12.225 28.1178499 11.896875 28.1178499 11.53125 28.1178499 11.1375L28.1178499 3.065625C28.1178499 2.728125 28.1178499 2.4234375 28.1178499 2.128125 28.1178499 1.8328125 28.1178499 1.6125 28.1178499 1.3921875 28.1261816 1.2378179 28.027619 1.09800897 27.8799189 1.0546875L26.6529412.665625 26.6529412.2390625C27.5020284.2671875 28.3371197.28125 29.1488844.28125 29.3075051.28125 29.5127789.28125 29.7600406.28125L30.6604462.2484375 31.5608519.2203125C31.798783.2203125 31.9900609.2203125 32.1300203.2203125 33.6509128.2203125 34.7892495.5015625 35.5496957 1.0734375 36.3208368 1.66318159 36.7493373 2.59982196 36.6926978 3.571875 36.7315158 4.44114672 36.4527696 5.29469865 35.9089249 5.971875 35.2599566 6.65672053 34.4321405 7.14407562 33.520284 7.378125 33.9401623 8.0109375 34.3320487 8.6296875 34.6866126 9.2203125 35.0411765 9.8109375 35.3677485 10.359375 35.6709939 10.8515625 35.9742394 11.34375 36.2541582 11.7890625 36.5107505 12.159375 36.717704 12.4789191 36.9535217 12.7786236 37.215213 13.0546875 37.3200986 13.1609723 37.4323471 13.2596568 37.5511156 13.35 37.6607258 13.4313939 37.7797894 13.4990792 37.9056795 13.5515625 38.029974 13.6068579 38.1577714 13.6538354 38.2882353 13.6921875 38.4281947 13.7296875 38.5774848 13.771875 38.7547667 13.809375L38.7827586 14.25C38.3866435 14.3023089 37.9878987 14.332044 37.5884381 14.3390625 37.3178499 14.3390625 37.0799189 14.3390625 36.874645 14.3390625 36.6893124 14.3273789 36.505216 14.3007304 36.3241379 14.259375 36.1737793 14.2206573 36.0270489 14.1689006 35.8855984 14.1046875 35.7503319 14.0364178 35.6221791 13.9547637 35.5030426 13.8609375 35.1863418 13.6100776 34.9121994 13.3093032 34.6912779 12.9703125 34.4300203 12.58125 34.1547667 12.140625 33.8701826 11.653125 33.5855984 11.165625 33.2916836 10.640625 32.9837728 10.0875 32.6758621 9.534375 32.3492901 8.990625 32.0087221 8.4609375 31.9107505 8.3015625 31.8221095 8.175 31.7521298 8.08125 31.6889838 7.99525835 31.6116698 7.92074737 31.5235294 7.8609375 31.4333919 7.80629706 31.3335878 7.76968737 31.2296146 7.753125 31.0889937 7.73111973 30.9472577 7.71703523 30.805071 7.7109375L30.1099391 7.7109375 30.1006085 11.1375zM30.1006085 6.91875C30.508046 6.9375 30.8812711 6.946875 31.220284 6.946875 32.3648411 6.946875 33.2014875 6.703125 33.7302231 6.215625 34.2589588 5.728125 34.5248817 4.9640625 34.5279919 3.9234375 34.5279919 2.9140625 34.2745098 2.178125 33.7675456 1.715625 33.2605815 1.253125 32.4643678 1.021875 31.3789047 1.021875 31.1969574 1.021875 30.9963489 1.021875 30.7864097 1.021875 30.5764706 1.021875 30.3478702 1.0546875 30.1006085 1.0828125L30.1006085 6.91875zM41.9131846.3046875L44.3204868.3046875C45.7993915.3046875 47.3576065.3046875 48.9858012.2625L49.041785.3421875 48.4679513 3.4171875 48.0713996 3.4875 47.4602434 1.190625 42.9208925 1.190625 42.9208925 6.6609375 43.8212982 6.6609375C44.5117647 6.6609375 45.2768763 6.6609375 46.1212982 6.6609375 46.2797925 6.6654265 46.4198266 6.55794727 46.4572008 6.403125L46.8024341 5.0625 47.3389452 5.0625C47.3156187 6 47.306288 6.675 47.306288 7.1203125 47.306288 7.565625 47.306288 8.2265625 47.3389452 9.15L46.8024341 9.1875 46.4478702 7.8234375C46.4197293 7.67317031 46.2920188 7.56235039 46.1399594 7.55625 45.2815416 7.55625 44.5070994 7.55625 43.8073022 7.55625L42.9208925 7.55625 42.9208925 11.175C42.9208925 11.9109375 42.9208925 12.6375 42.9442191 13.3546875L47.6935091 13.3546875 48.9018256 10.828125 49.368357 10.7484375 49.1490872 14.2125 49.0791075 14.278125C47.3716024 14.259375 45.7947262 14.25 44.3484787 14.25L41.9924949 14.25C41.1900609 14.25 40.3736308 14.25 39.5338742 14.278125L39.4965517 13.8515625 40.7141988 13.4859375C40.8628552 13.4561024 40.9723828 13.3286779 40.9801217 13.1765625 40.9801217 12.909375 40.9801217 12.6140625 40.9801217 12.2859375 40.9801217 11.9578125 40.9801217 11.5921875 40.9801217 11.1984375L40.9801217 3.065625C40.9801217 2.728125 40.9801217 2.4234375 40.9801217 2.128125 40.9801217 1.8328125 40.9801217 1.6125 40.9801217 1.3921875 40.9884534 1.2378179 40.8898908 1.09800897 40.7421907 1.0546875L39.515213.665625 39.515213.2390625C40.3083164.290625 41.1294118.3046875 41.9131846.3046875zM53.6511156 3.0984375L53.6511156 11.1375C53.6511156 11.915625 53.6511156 12.5671875 53.6511156 13.0828125 53.6376384 13.2427118 53.7428836 13.3883615 53.8983773 13.425L55.0740365 13.771875 55.0973631 14.2171875C54.2700473 14.1984375 53.5935767 14.1890625 53.0679513 14.1890625 52.5501014 14.1890625 51.8689655 14.1890625 51.015213 14.2171875L50.9778905 13.790625 52.1955375 13.425C52.3450935 13.3967253 52.4553889 13.2684074 52.4614604 13.115625 52.4614604 12.5765625 52.4614604 11.915625 52.4614604 11.1375L52.4614604 3.065625C52.4614604 2.4046875 52.4614604 1.85625 52.4614604 1.415625 52.4697922 1.2612554 52.3712295 1.12144647 52.2235294 1.078125L50.9965517.6890625 50.9965517.2625C51.8456389.290625 52.5221095.3046875 53.0166329.3046875 53.315213.3046875 53.6137931.3046875 53.9170385.2625L62.2352941 10.696875 62.2352941 3.028125C62.2352941 2.3859375 62.2352941 1.8328125 62.2119675 1.36875 62.2085601 1.21817685 62.1021646 1.08989505 61.9553753 1.059375L60.7890467.721875 60.7890467.253125C61.6381339.28125 62.3192698.2953125 62.841785.2953125 63.3643002.2953125 64.0454361.2953125 64.8711968.253125L64.9085193.6796875 63.6628803 1.06875C63.5151802 1.11207147 63.4166176 1.2518804 63.4249493 1.40625 63.4249493 1.846875 63.4249493 2.3953125 63.4249493 3.05625L63.4249493 14.1796875 62.589858 14.259375 53.6511156 3.0984375zM69.8630832 11.1375C69.8630832 11.53125 69.8630832 11.896875 69.8630832 12.2203125 69.8630832 12.54375 69.8630832 12.8390625 69.8630832 13.10625 69.8630832 13.2703125 69.9843813 13.3828125 70.2083164 13.44375L71.3279919 13.790625 71.3279919 14.2171875C70.4789047 14.2171875 69.6578093 14.1890625 68.8740365 14.1890625 68.0902637 14.1890625 67.2551724 14.1890625 66.4200811 14.2171875L66.3780933 13.790625 67.5957404 13.425C67.7462267 13.3983605 67.8573374 13.2690943 67.8616633 13.115625 67.8616633 12.8484375 67.8616633 12.553125 67.8616633 12.225 67.8616633 11.896875 67.8616633 11.53125 67.8616633 11.1375L67.8616633 3.065625C67.8616633 2.728125 67.8616633 2.4234375 67.8616633 2.128125 67.8616633 1.8328125 67.8616633 1.6125 67.8616633 1.3921875 67.8705596 1.2391322 67.7742409 1.09977372 67.6283976 1.0546875L66.3967546.665625 66.3967546.2390625C67.2505071.2671875 68.0669371.28125 68.8507099.28125 69.6344828.28125 70.4649087.28125 71.3093306.2390625L71.3466531.665625 70.1196755 1.0359375C69.9709358 1.06314392 69.862895 1.19340944 69.8630832 1.3453125 69.8630832 1.575 69.8630832 1.8140625 69.8630832 2.1046875 69.8630832 2.3953125 69.8630832 2.68125 69.8630832 3.0046875L69.8630832 11.1375zM84.0782961 3.75L83.6817444 3.80625 83.0006085 1.2046875C82.2617938 1.00004188 81.4996101.892891759 80.7332657.8859375 79.2543417.807758927 77.8244644 1.43066599 76.8703854 2.56875 75.9373225 3.69375 75.4707911 5.24375 75.4707911 7.21875 75.4707911 9.19375 75.9730899 10.7765625 76.9776876 11.9671875 77.9933501 13.1471894 79.4899095 13.796308 81.0411765 13.7296875 81.6094728 13.7310539 82.1755595 13.658578 82.725355 13.5140625L82.725355 10.85625C82.725355 10.5234375 82.725355 10.2234375 82.725355 9.9515625 82.725355 9.6796875 82.725355 9.43125 82.725355 9.20625 82.7345862 9.05370857 82.6347661 8.91604907 82.4874239 8.878125L81.2604462 8.4890625 81.2604462 8.0625C82.1095335 8.0625 82.9306288 8.090625 83.7097363 8.090625 84.4888438 8.090625 85.2726166 8.090625 86.0144016 8.0625L86.0610548 8.4890625 84.9833671 8.8078125C84.8383977 8.84134463 84.7334591 8.96786974 84.7267748 9.1171875 84.7267748 9.3796875 84.7267748 9.6515625 84.7267748 9.928125 84.7267748 10.2046875 84.7267748 10.5 84.7267748 10.81875L84.7267748 14.0015625 84.6707911 14.071875C83.4492001 14.3740605 82.1965752 14.5313832 80.9385396 14.540625 78.6183232 14.540625 76.7739689 13.925 75.4054767 12.69375 74.0369844 11.4625 73.3511832 9.74375 73.348073 7.5375 73.348073 5.19375 74.0618661 3.3515625 75.4894523 2.025 76.9170385.6984375 78.8578093.028125 81.3210953.028125 82.4478833.0362668847 83.5700981.173082745 84.6661258.4359375L84.7267748.515625 84.0782961 3.75zM90.9736308 11.1375C90.9736308 11.53125 90.9736308 11.896875 90.9736308 12.2203125 90.9736308 12.54375 90.9736308 12.8390625 90.9736308 13.10625 90.9736308 13.2703125 91.094929 13.3828125 91.3188641 13.44375L92.4385396 13.790625 92.4385396 14.2171875C91.5894523 14.2171875 90.7730223 14.1890625 89.9845842 14.1890625 89.196146 14.1890625 88.3657201 14.1890625 87.5306288 14.2171875L87.488641 13.790625 88.706288 13.425C88.8567866 13.397067 88.9686447 13.269175 88.9768763 13.115625 88.9768763 12.8484375 88.9768763 12.553125 88.9768763 12.225 88.9768763 11.896875 88.9768763 11.53125 88.9768763 11.1375L88.9768763 3.065625C88.9768763 2.728125 88.9768763 2.4234375 88.9768763 2.128125 88.9768763 1.8328125 88.9768763 1.6125 88.9768763 1.3921875 88.9818594 1.23880888 88.8846039 1.10085412 88.7389452 1.0546875L87.5119675.665625 87.488641.2390625C88.3423935.2671875 89.1588235.28125 89.9472617.28125 90.7356998.28125 91.5567951.28125 92.401217.2390625L92.4385396.665625 91.2115619 1.0359375C91.0628222 1.06314392 90.9547814 1.19340944 90.9549696 1.3453125 90.9549696 1.5765625 90.9549696 1.8296875 90.9549696 2.1046875 90.9549696 2.38125 90.9549696 2.68125 90.9549696 3.0046875L90.9736308 11.1375zM96.8099391 3.0984375L96.8099391 11.1375C96.8099391 11.915625 96.8099391 12.5671875 96.8099391 13.0828125 96.7984685 13.2421434 96.9028664 13.3866206 97.0572008 13.425L98.2375254 13.771875 98.2375254 14.2171875C97.4133198 14.1984375 96.7368492 14.1890625 96.2081136 14.1890625 95.694929 14.1890625 95.0091278 14.1890625 94.1600406 14.2171875L94.1180527 13.790625 95.3356998 13.425C95.4949776 13.4102967 95.621844 13.2847881 95.6389452 13.125 95.6389452 12.5859375 95.6389452 11.925 95.6389452 11.146875L95.6389452 3.065625C95.6389452 2.4046875 95.6389452 1.85625 95.6389452 1.415625 95.6439283 1.26224638 95.5466729 1.12429162 95.4010142 1.078125L94.1740365.6890625 94.1507099.2625C95.0044625.290625 95.6762677.3046875 96.1707911.3046875 96.4693712.3046875 96.7679513.3046875 97.0711968.2625L105.389452 10.696875 105.389452 3.028125C105.389452 2.3859375 105.389452 1.8328125 105.389452 1.36875 105.383863 1.21740258 105.275905 1.08956117 105.128195 1.059375L103.961866.721875 103.961866.253125C104.806288.28125 105.487424.2953125 106.009939.2953125 106.532454.2953125 107.21359.2953125 108.039351.253125L108.081339.6796875 106.831034 1.06875C106.685376 1.11491662 106.58812 1.25287138 106.593103 1.40625 106.593103 1.846875 106.593103 2.3953125 106.593103 3.05625L106.593103 14.1796875 105.762677 14.259375 96.8099391 3.0984375zM120.365112 3.75L119.96856 3.80625 119.287424 1.2046875C118.548609 1.00004188 117.786425.892891759 117.020081.8859375 115.541422.809233044 114.11217 1.43186773 113.157201 2.56875 112.224138 3.69375 111.757606 5.24375 111.757606 7.21875 111.757606 9.19375 112.26146 10.78125 113.269168 11.98125 114.282962 13.1610777 115.778077 13.8103152 117.327992 13.74375 117.897827 13.7451536 118.46546 13.6726804 119.016836 13.528125L119.016836 10.8703125C119.016836 10.5375 119.016836 10.2375 119.016836 9.965625 119.016836 9.69375 119.016836 9.4453125 119.016836 9.2203125 119.022469 9.06885092 118.924121 8.93322147 118.778905 8.8921875L117.551927 8.503125 117.5286 8.0765625C118.382353 8.0765625 119.198783 8.1046875 119.982556 8.1046875 120.766329 8.1046875 121.540771 8.1046875 122.282556 8.0765625L122.333874 8.503125 121.251521 8.821875C121.107417 8.85681356 121.003146 8.982534 120.994929 9.13125 120.994929 9.39375 120.994929 9.665625 120.994929 9.9421875 120.994929 10.21875 120.994929 10.5140625 120.994929 10.8328125L120.994929 14.015625 120.93428 14.0859375C119.712752 14.3884631 118.460087 14.5457908 117.202028 14.5546875 114.881812 14.5546875 113.035903 13.9390625 111.6643 12.7078125 110.292698 11.4765625 109.608452 9.7578125 109.611562 7.5515625 109.611562 5.2078125 110.325355 3.365625 111.748276 2.0390625 113.171197.7125 115.116633.0421875 117.579919.0421875 118.706743.0497598826 119.829022.186583562 120.924949.45L120.985598.5296875 120.365112 3.75z"/>
      </g>
    </g>
    <g fill="#fff" transform="translate(0 71)">
      <path d="M10.3031605 33.6131915C10.3031605 34.8021277 10.3031605 35.8880851 10.3031605 36.8617021 10.3031605 37.8353191 10.3310697 38.7340426 10.3496759 39.5110638 10.3496759 40.007234 10.7124959 40.3442553 11.3869692 40.5268085L14.7314263 41.5659574 14.7918963 42.8485106C12.2428525 42.7892199 9.79459211 42.7595745 7.44711507 42.7595745 5.09963803 42.7595745 2.65137763 42.7892199.102333874 42.8485106L0 41.5659574 3.64215559 40.4659574C4.09188243 40.3776175 4.42274216 39.9904726 4.44222042 39.5297872 4.44222042 38.7387234 4.4747812 37.8493617 4.48408428 36.866383 4.49338736 35.8834043 4.48408428 34.792766 4.48408428 33.5897872L4.48408428 9.44595745C4.48408428 8.43489362 4.48408428 7.52212766 4.48408428 6.70297872 4.48408428 5.88382979 4.46082658 5.15361702 4.44222042 4.49829787 4.46087632 4.03473137 4.16361714 3.61787598 3.72123177 3.48723404L.0604700162 2.34042553 0 1.04382979C2.54594273 1.12496454 4.99420313 1.16397163 7.3447812 1.16085106 9.69535927 1.1577305 12.1420692 1.1187234 14.6849109 1.04382979L14.8058509 2.32638298 11.1357861 3.42638298C10.6845162 3.50467244 10.3569733 3.90178918 10.3636305 4.36255319 10.3636305 5.05531915 10.3310697 5.81361702 10.3171151 6.64212766 10.3031605 7.4706383 10.3171151 8.36468085 10.3171151 9.33829787L10.3031605 33.6131915zM27.8022528 9.53489362L27.8022528 33.6131915C27.8022528 35.953617 27.8224095 37.8992908 27.8627229 39.4502128 27.8123379 39.9299872 28.1325264 40.3697277 28.6023177 40.4659574L32.1281848 41.5097872 32.1886548 42.8485106C29.7078336 42.7892199 27.6844138 42.7595745 26.1183955 42.7595745 24.5523771 42.7595745 22.5134522 42.7892199 20.0016207 42.8485106L19.8806807 41.5659574 23.5228363 40.4659574C23.9762552 40.3840638 24.3103093 39.9931811 24.3229011 39.5297872 24.364765 37.9242553 24.3833712 35.9442553 24.3833712 33.6038298L24.3833712 9.44595745C24.3833712 7.4612766 24.3632145 5.81205674 24.3229011 4.49829787 24.3432916 4.03864566 24.0527054 3.62310516 23.6158671 3.48723404L19.9271961 2.34042553 19.8667261 1.05787234C22.4157699 1.13900709 24.4314371 1.17801418 25.9137277 1.17489362 26.8006213 1.17489362 27.6983684 1.13588652 28.6069692 1.05787234L53.4927066 32.2978723 53.4927066 9.32893617C53.4927066 7.40042553 53.4927066 5.74340426 53.4322366 4.35319149 53.4224199 3.89844409 53.1024398 3.51049654 52.660081 3.41702128L49.1667747 2.40595745 49.1063047 1.03446809C51.6367423 1.11560284 53.6803187 1.15460993 55.237034 1.15148936 56.7937493 1.14836879 58.8171691 1.1093617 61.3072934 1.03446809L61.4003241 2.34042553 57.6790924 3.5012766C57.2422541 3.63714772 56.9516678 4.05268821 56.9720583 4.51234043 56.928644 5.82609929 56.9084873 7.47531915 56.9115883 9.46L56.9115883 42.773617 54.4230146 43.0123404 27.8022528 9.53489362zM73.4943274 42.7595745C71.109638 42.7595745 68.6629281 42.7892199 66.1541977 42.8485106L66.0518639 41.5659574 69.6940194 40.4659574C70.1455958 40.3821021 70.4772827 39.9917196 70.4894327 39.5297872 70.5126904 38.7387234 70.5266451 37.8493617 70.5359481 36.866383 70.5452512 35.8834043 70.5359481 34.792766 70.5359481 33.5897872L70.5359481 9.44595745C70.5359481 8.43489362 70.5359481 7.52212766 70.5359481 6.70297872 70.5359481 5.88382979 70.5359481 5.15361702 70.4894327 4.49829787 70.5098232 4.03864566 70.219237 3.62310516 69.7823987 3.48723404L66.1076823 2.32638298 66.0518639 1.04382979C68.5978066 1.12496454 71.0786278 1.16397163 73.4943274 1.16085106 75.4665802 1.16085106 77.36906 1.11248227 79.2017666 1.01574468 81.0344733.919007092 82.9183468.869078014 84.8533874.865957447 91.7562723.865957447 96.9442896 2.44964539 100.417439 5.61702128 103.890589 8.78439716 105.61476 13.4870922 105.589951 19.7251064 105.589951 27.0740426 103.662663 32.78 99.8080875 36.8429787 95.9535116 40.9059574 90.5437709 42.9343262 83.5788655 42.9280851 81.6655321 42.9280851 79.9599676 42.8984397 78.4621718 42.8391489 76.964376 42.7798582 75.3084279 42.7533333 73.4943274 42.7595745zM76.3410697 40.1055319C77.5039546 40.2646809 78.6435818 40.3723404 79.7599514 40.4191489 80.8763209 40.4659574 81.997342 40.4940426 83.1230146 40.4940426 88.3327391 40.4940426 92.3005024 38.9493617 95.0263047 35.86 97.752107 32.7706383 99.1134576 28.0382979 99.1103566 21.6629787 99.1103566 15.4655319 97.8172285 10.8720567 95.2309724 7.88255319 92.6447164 4.89304965 88.5482604 3.39829787 82.9416045 3.39829787 82.0516099 3.39829787 81.0701351 3.41858156 79.9971799 3.45914894 78.9242247 3.49971631 77.7055213 3.56836879 76.3410697 3.66510638L76.3410697 40.1055319zM121.87034 33.6131915C121.87034 34.8021277 121.87034 35.8880851 121.87034 36.8617021 121.87034 37.8353191 121.89825 38.7340426 121.916856 39.5110638 121.916856 40.007234 122.284327 40.3442553 122.954149 40.5268085L126.298606 41.5659574 126.359076 42.8485106C123.810032 42.7892199 121.361772 42.7595745 119.014295 42.7595745 116.628055 42.7595745 114.176694 42.7876596 111.674165 42.8485106L111.553225 41.5659574 115.195381 40.4659574C115.645108 40.3776175 115.975967 39.9904726 115.995446 39.5297872 115.995446 38.7387234 116.028006 37.8493617 116.03731 36.866383 116.046613 35.8834043 116.03731 34.792766 116.03731 33.5897872L116.03731 9.44595745C116.03731 8.43489362 116.03731 7.52212766 116.03731 6.70297872 116.03731 5.88382979 116.014052 5.15361702 115.995446 4.49829787 116.015251 4.03734767 115.722447 3.62137281 115.28376 3.48723404L111.636953 2.34042553 111.576483 1.05787234C114.119325 1.13900709 116.567585 1.17801418 118.921264 1.17489362 121.274943 1.17177305 123.721653 1.13276596 126.261394 1.05787234L126.382334 2.34042553 122.712269 3.44042553C122.260999 3.518715 121.933456 3.91583173 121.940113 4.37659574 121.940113 5.0693617 121.907553 5.82765957 121.893598 6.65617021 121.879643 7.48468085 121.893598 8.3787234 121.893598 9.35234043L121.87034 33.6131915zM164.250519 11.4446809L163.064376 11.6225532 160.90141 3.78680851C158.727325 3.20255084 156.490372 2.88815845 154.240405 2.8506383 149.402804 2.8506383 145.602496 4.54978723 142.839481 7.94808511 140.076467 11.346383 138.694959 15.7557447 138.694959 21.1761702 138.694959 26.977305 140.274932 31.6066667 143.434878 35.0642553 146.594824 38.521844 150.967272 40.2521986 156.55222 40.2553191 159.935531 40.211728 163.287657 39.5978347 166.469303 38.4391489L166.794911 39.7778723C162.919119 42.4783574 158.302926 43.8953402 153.58919 43.8314894 147.213479 43.8314894 142.056472 41.8748936 138.118169 37.9617021 134.179865 34.0485106 132.210713 28.8995745 132.210713 22.5148936 132.210713 15.702695 134.381432 10.3103546 138.722869 6.33787234 143.064306 2.36539007 148.705073.379148936 155.64517.379148936 159.091354.393685434 162.524655.803566427 165.878558 1.60085106L166.083225 1.83489362 164.250519 11.4446809zM181.98684 33.6131915C181.98684 34.8021277 181.98684 35.8880851 181.98684 36.8617021 181.98684 37.8353191 182.010097 38.7340426 182.033355 39.5110638 182.033355 40.007234 182.396175 40.3442553 183.065997 40.5268085L186.415105 41.5659574 186.470924 42.8485106C183.924981 42.7892199 181.478271 42.7595745 179.130794 42.7595745 176.783317 42.7595745 174.335057 42.7892199 171.786013 42.8485106L171.665073 41.5659574 175.307229 40.4659574C175.757863 40.3791916 176.089498 39.99114 176.107293 39.5297872 176.107293 38.7387234 176.144506 37.8493617 176.153809 36.866383 176.163112 35.8834043 176.153809 34.792766 176.153809 33.5897872L176.153809 9.44595745C176.153809 8.43489362 176.153809 7.52212766 176.153809 6.70297872 176.153809 5.88382979 176.1259 5.15361702 176.107293 4.49829787 176.127684 4.03864566 175.837098 3.62310516 175.400259 3.48723404L171.725543 2.32638298 171.665073 1.04382979C174.214117 1.12496454 176.662377 1.16397163 179.009854 1.16085106 181.357331 1.1577305 183.805592 1.1187234 186.354635 1.04382979L186.470924 2.32638298 182.805511 3.42638298C182.356093 3.50671077 182.030972 3.90328012 182.038006 4.36255319 182.014749 5.05531915 182.000794 5.81361702 181.991491 6.64212766 181.982188 7.4706383 181.991491 8.36468085 181.991491 9.33829787L181.98684 33.6131915zM191.252707 1.04382979C193.80175 1.12496454 196.250011 1.16397163 198.597488 1.16085106 200.944965 1.1577305 203.393225 1.1187234 205.942269 1.04382979L206.063209 2.34042553 202.393144 3.44042553C201.941874 3.518715 201.614331 3.91583173 201.620989 4.37659574 201.620989 5.0693617 201.588428 5.82765957 201.579125 6.65617021 201.569822 7.48468085 201.579125 8.3787234 201.579125 9.35234043L201.579125 25.6510638C201.579125 31.3273759 202.478422 35.2655319 204.277018 37.4655319 206.075613 39.6655319 208.96732 40.7577305 212.952139 40.7421277 216.983474 40.7421277 219.915494 39.6093617 221.748201 37.3438298 223.580908 35.0782979 224.487958 31.2946099 224.469352 25.992766L224.469352 9.32893617C224.469352 8.35531915 224.469352 7.45659574 224.469352 6.63276596 224.469352 5.80425532 224.436791 5.04595745 224.394927 4.35319149 224.387307 3.89922215 224.068881 3.51081933 223.627423 3.41702128L220.162026 2.40595745 220.101556 1.03446809C222.607185 1.11560284 224.759298 1.15460993 226.557893 1.15148936 228.272761 1.15148936 230.364403 1.11248227 232.83282 1.03446809L232.95376 2.31702128 229.232528 3.47787234C228.793842 3.61201111 228.501038 4.02798597 228.520843 4.48893617 228.520843 5.14425532 228.488282 5.89319149 228.474327 6.69361702 228.460373 7.49404255 228.474327 8.42553191 228.474327 9.43659574L228.474327 24.7242553C228.474327 31.24 227.156391 36.0565957 224.520519 39.1740426 221.884646 42.2914894 217.735473 43.851773 212.072998 43.8548936 206.522161 43.8548936 202.425705 42.4506383 199.78363 39.6421277 197.141556 36.833617 195.818968 32.4648227 195.815867 26.5357447L195.815867 9.44595745C195.815867 8.43489362 195.815867 7.52212766 195.815867 6.70297872 195.815867 5.88382979 195.787958 5.15361702 195.769352 4.49829787 195.789157 4.03734767 195.496353 3.62137281 195.057666 3.48723404L191.313177 2.34042553 191.252707 1.04382979zM275.45953 1.04382979C277.320146 1.12496454 278.999352 1.16397163 280.497147 1.16085106 281.994943 1.1577305 283.959444 1.1187234 286.390648 1.04382979L286.534846 2.34042553 282.813614 3.5012766C282.374928 3.63541537 282.082124 4.05139022 282.101929 4.51234043 282.058514 5.82609929 282.038358 7.47531915 282.041459 9.46L282.041459 33.627234C282.041459 35.9676596 282.041459 37.9476596 282.101929 39.5531915 282.122419 40.0233334 282.468236 40.414341 282.929903 40.4893617L286.483679 41.5893617 286.544149 42.8719149C283.939287 42.8126241 281.446062 42.7829787 279.064473 42.7829787 276.682885 42.7829787 274.378822 42.8126241 272.152285 42.8719149L272.035997 41.5893617 275.440924 40.5502128C275.902075 40.4225412 276.210877 39.9867115 276.180519 39.506383 276.217731 37.9382979 276.236337 35.9770213 276.236337 33.6365957L276.236337 7.80765957 261.551426 42.7595745 259.38846 42.9982979 244.61517 7.80765957 244.61517 33.6131915C244.61517 35.953617 244.61517 37.9148936 244.67564 39.4829787 244.644364 39.9726871 244.968629 40.4136982 245.443144 40.5268085L248.759692 41.5659574 248.820162 42.8485106C246.469584 42.7892199 244.505084 42.7595745 242.926661 42.7595745 241.348239 42.7595745 239.304662 42.7892199 236.795932 42.8485106L236.679643 41.5659574 240.321799 40.4659574C240.773351 40.3807903 241.105776 39.9918138 241.121864 39.5297872 241.159076 37.9242553 241.177682 35.9442553 241.177682 33.6038298L241.177682 9.44595745C241.177682 7.4612766 241.159076 5.81205674 241.121864 4.49829787 241.140012 4.03784048 240.847853 3.62278189 240.410178 3.48723404L236.707553 2.34042553 236.647083 1.05787234C239.193025 1.13900709 241.208693 1.17801418 242.694084 1.17489362 244.390346 1.17489362 246.157931 1.13588652 247.99684 1.05787234L261.746791 33.7442553 275.45953 1.04382979z"/>
    </g>
    <g fill="#9D9D9C" transform="translate(127 30)">
      <path d="M26.5861111,2.78873239 C25.9149136,2.39139253 25.0828613,2.36327392 24.3855556,2.7143662 C22.3219444,3.5184507 23.4411111,5.92605634 23.4411111,5.92605634 C27.54,8.27788732 29.9294444,12.7259155 29.3155556,17.8571831 C28.6194913,23.5432458 24.0140943,27.9960245 18.2255992,28.5796292 C12.4371041,29.1632339 7.01015271,25.7219316 5.15731117,20.2928533 C3.30446962,14.8637751 5.52016291,8.89565337 10.4927778,5.92140845 L10.4691667,5.92140845 C10.4691667,5.92140845 11.3663889,3.85774648 9.85055556,2.82591549 C8.98793115,2.29302582 7.87905189,2.34685455 7.07388889,2.96070423 C1.13851187,7.19521634 -1.33403963,14.7210712 0.958538223,21.5743677 C3.25111608,28.4276643 9.78266404,33.0355332 17.1129869,32.9709896 C24.4433097,32.9064459 30.890058,28.1843028 33.0577009,21.291734 C35.2253437,14.3991651 32.6163952,6.91805293 26.605,2.78873239 L26.5861111,2.78873239 Z"/>
      <path d="M19.805,11.6615493 C19.805,10.2950704 18.5441667,9.18887324 16.9716667,9.18887324 C15.3991667,9.18887324 14.1383333,10.2950704 14.1383333,11.6615493 L14.1383333,23.346338 L14.1383333,23.346338 C14.1383333,24.7128169 15.3991667,25.8190141 16.9716667,25.8190141 C18.5441667,25.8190141 19.805,24.7128169 19.805,23.346338 L19.805,23.346338 L19.805,11.6615493 Z"/>
      <ellipse cx="16.943" cy="3.179" rx="2.819" ry="2.775"/>
    </g>
    <path fill="#A3CF9B" d="M46.7114851,26.495873 L46.7114851,26.495873 C46.6910334,15.7831779 40.1246452,6.14602882 30.0940128,2.10726634 C20.0633804,-1.93149614 8.55973216,0.429881847 0.981881188,8.0831746 L0.981881188,8.0831746 C0.056667528,8.99076254 0.0504172458,10.4684361 0.967920792,11.3836508 C1.88542434,12.2988655 3.37924179,12.3050483 4.30445545,11.3974603 L4.30445545,11.3974603 L4.30445545,11.3974603 C10.5305007,5.06734702 20.0143406,3.10250775 28.2850194,6.42922443 C36.5556982,9.7559411 41.9621603,17.7101093 41.9556436,26.5419048 L41.9556436,26.5419048 C41.9556436,27.8333744 43.0140247,28.8803175 44.319604,28.8803175 C45.6251832,28.8803175 46.6835644,27.8333744 46.6835644,26.5419048 L46.6835644,26.5419048 C46.6965557,26.529065 46.7061457,26.5132543 46.7114851,26.495873 L46.7114851,26.495873 Z" transform="translate(123 19)"/>
    <path fill="#73C3B6" d="M62.6313333,36.0889286 C62.6603367,21.5027846 53.7796047,8.36184809 40.1915751,2.88452186 C26.6035456,-2.59280438 11.0335068,0.692041635 0.849333333,11.1846429 L0.849333333,11.1846429 C0.288307198,11.7983741 0.0989984918,12.663262 0.352717978,13.4535116 C0.606437465,14.2437612 1.26463912,14.8393148 2.07938472,15.0158331 C2.89413032,15.1923514 3.74164062,14.923017 4.30266667,14.3092857 C13.1693453,5.2568338 26.6648856,2.45174011 38.4327823,7.21522573 C50.2006791,11.9787113 57.8943437,23.3609089 57.89,36.0007143 L57.89,36.465 L57.89,36.465 C57.8307215,37.7663209 58.8430057,38.8690594 60.151,38.9280355 C61.4589943,38.9870117 62.567388,37.9798923 62.6266667,36.6785714 C62.6313316,36.6090059 62.6313316,36.5392084 62.6266667,36.4696429 L62.6266667,36.4232143 C62.6266667,36.3117857 62.6313333,36.2142857 62.6313333,36.0889286 Z" transform="translate(117 9)"/>
    <path fill="#72C9E1" d="M32.8615385,3.72694497e-20 C20.8131174,-0.00958445254 9.26761105,4.87616032 0.826153846,13.5565049 L0.826153846,13.5565049 C-0.156488174,14.4431632 -0.241209675,15.9662644 0.636923077,16.9584466 C1.51505583,17.9506288 3.02351183,18.0361729 4.00615385,17.1495146 C4.07264281,17.0893662 4.1358146,17.0255811 4.19538462,16.9584466 L4.19538462,16.9584466 C15.6365651,5.20547031 32.9804586,1.60487809 48.08588,7.84677996 C63.1913013,14.0886818 73.0589301,28.9336907 73.0569231,45.4135922 L73.0569231,45.4135922 C73.0183021,46.3004818 73.464905,47.137211 74.2198032,47.592297 C74.9747014,48.0473829 75.9160679,48.0473829 76.6709661,47.592297 C77.4258643,47.137211 77.8724671,46.3004818 77.8338462,45.4135922 C77.8338463,20.3341776 57.6998047,0.00257356743 32.8615385,3.72694497e-20 Z" transform="translate(110)"/>
  </g>
</svg>
