<svg xmlns="http://www.w3.org/2000/svg" width="21.153" height="12.883" viewBox="0 0 21.153 12.883">
  <path id="Path_52" data-name="Path 52" d="M9.986-.182a1.057,1.057,0,0,0,.825.388,1.057,1.057,0,0,0,.825-.388l9.412-9.412a1.123,1.123,0,0,0,.34-.825,1.123,1.123,0,0,0-.34-.825l-1.067-1.067a1.213,1.213,0,0,0-.825-.364,1.044,1.044,0,0,0-.825.315l-7.52,7.52-7.52-7.52a1.044,1.044,0,0,0-.825-.315,1.213,1.213,0,0,0-.825.364L.574-11.244a1.123,1.123,0,0,0-.34.825,1.123,1.123,0,0,0,.34.825Z" transform="translate(-0.234 12.677)" fill="black"/>
</svg>
