<?xml version="1.0" encoding="UTF-8" standalone="yes"?>
<!-- Created with sK1/UniConvertor (http://sk1project.org/) -->
<svg xmlns="http://www.w3.org/2000/svg" xmlns:xlink="http://www.w3.org/1999/xlink" fill-rule="evenodd" width="2750 px" height="841.89px" viewBox="0 250 2070 600">
<style>
  .fill {
  fill: #0053A4;
}
  </style>
<g>
<g>
<path d="M 269.5 258.89C 196.7 259.59 196.1 259.59 168.4 266.79C 84.2 288.79 27.9 354.59 8.2 453.89C -1.9 504.69 -2.5 555.89 6.5 596.39C 24.1 674.89 76.7 722.19 156.2 730.79C 162.3 731.49 198.5 731.89 252.8 731.89L 339.7 731.89L 343.8 711.69C 346.1 700.49 348 691.09 348 690.59C 348 690.19 311.5 689.89 267 689.89C 183.9 689.89 175.5 689.59 156.5 685.79C 103.4 675.19 70.5 643.09 58.1 590.19C 47.7 545.59 51.5 479.59 67.1 432.49C 78.4 398.79 93.3 374.29 116.9 350.89C 144.7 323.19 178 306.99 215.2 302.99C 222 302.19 503.9 301.89 1139.4 301.89C 2009.5 301.89 2053.9 301.79 2054.4 300.09C 2054.9 298.29 2063 259.09 2063 258.39C 2063 257.69 347.9 258.19 269.5 258.89z" class="fill"/>
<path d="M 1252 331.49C 1236.3 334.39 1231.2 335.59 1223.5 338.09C 1204.5 344.39 1189.1 353.59 1176.4 366.29C 1162.2 380.59 1154.5 394.69 1150.4 414.29C 1145.2 438.99 1154.4 471.89 1172.8 494.99C 1187 512.79 1202.8 523.99 1246.5 547.39C 1284 567.49 1301.1 578.49 1318.6 593.99C 1326.5 600.89 1328.7 603.49 1331.6 609.39C 1335.7 617.79 1337.4 626.39 1336.5 634.19C 1333.5 661.39 1310.9 684.59 1279.5 692.99C 1268.4 695.99 1247.7 696.69 1235.4 694.49C 1185.9 685.89 1150.8 650.79 1149.7 608.69L 1149.5 599.89L 1146.5 599.99C 1140.6 600.09 1100.1 604.49 1099.5 605.09C 1098.4 606.19 1101 626.09 1103.6 636.69C 1112.8 674.19 1135.3 702.59 1169.7 720.19C 1195.6 733.39 1222.3 739.09 1258 739.09C 1286.3 738.99 1303.4 735.29 1325.5 724.39C 1359.7 707.59 1382 680.49 1389.8 646.39C 1392 636.79 1391.8 610.39 1389.5 599.39C 1383.9 572.79 1364.3 551.29 1326 529.59C 1319.7 526.09 1303.5 517.59 1290 510.89C 1276.6 504.19 1261.5 496.39 1256.5 493.59C 1242 485.49 1224.5 473.19 1219.3 467.49C 1209.4 456.69 1204.5 442.09 1205.2 425.79C 1205.9 410.69 1210.7 401.89 1223.3 392.49C 1231.7 386.19 1241.7 380.99 1251.5 377.89C 1262 374.49 1284.1 373.99 1296.7 376.79C 1336.7 385.59 1373 419.29 1373 447.49C 1373 451.99 1373.3 452.89 1374.8 452.89C 1379.3 452.79 1422.3 448.99 1422.6 448.59C 1423.5 447.79 1420.8 429.19 1418.5 420.19C 1407.5 376.89 1378.6 349.19 1332 337.39C 1314.3 332.89 1303.8 331.69 1278.5 331.39C 1265.3 331.19 1253.4 331.29 1252 331.49z" class="fill"/>
<path d="M 1861.5 338.59C 1849.8 340.19 1837.5 345.49 1830.6 351.89C 1822.6 359.29 1821.4 362.79 1811 407.89L 1801.5 449.39L 1781.4 449.69L 1761.3 449.89L 1757.6 468.19C 1755.6 478.19 1754 486.69 1754 487.09C 1754 487.59 1763.6 487.89 1775.3 487.89L 1796.6 487.89L 1771.9 605.59C 1758.3 670.39 1746.4 726.19 1745.5 729.69C 1741.9 742.79 1733.5 757.19 1723.4 767.29C 1710.6 780.09 1695.3 787.89 1672.5 793.19L 1663.5 795.39L 1250 795.89L 836.5 796.39L 833 814.99L 829.4 833.59L 992.9 834.19C 1254.1 835.29 1666.6 835.09 1677.8 833.79C 1729.7 828.19 1769.6 796.19 1786 747.09C 1787.6 742.29 1801.1 682.79 1816 614.89C 1830.9 546.99 1843.4 490.59 1843.6 489.59C 1844.1 487.99 1847.3 487.89 1893.1 487.89C 1920 487.89 1942 488.19 1942 488.69C 1942 489.09 1935.2 521.49 1927 560.69C 1911 636.59 1902 682.79 1902 688.79C 1902 693.59 1904.5 702.89 1907.1 708.19C 1910.4 714.49 1920.5 723.89 1928.7 728.19C 1942.8 735.49 1958 737.49 1983.7 735.39L 1991.9 734.69L 1992.9 729.49C 1993.5 726.69 1995.3 717.69 1996.8 709.59L 1999.7 694.79L 1981.6 695.09C 1964.9 695.39 1963.2 695.19 1960 693.29C 1955.4 690.59 1952.3 685.79 1951.4 680.09C 1949.9 670.29 1952.9 653.69 1971.3 570.89L 1989.6 488.39L 2013.1 488.09L 2036.6 487.89L 2040.6 469.09L 2044.6 450.39L 2021.3 450.09C 2008.5 449.99 1998 449.59 1998 449.19C 1998 448.79 2001.8 429.29 2006.5 405.79C 2011.2 382.29 2015 362.79 2015 362.39C 2015 362.09 2004.6 361.99 1991.8 362.09L 1968.6 362.39L 1960.3 400.89C 1955.8 422.09 1951.6 441.79 1951 444.59L 1949.9 449.89L 1902.4 449.89C 1865.1 449.89 1855 449.59 1855 448.59C 1855 445.79 1869.9 390.09 1871.4 387.19C 1872.3 385.39 1874.6 382.69 1876.7 381.19L 1880.3 378.39L 1908.2 378.09C 1929 377.89 1936 377.49 1936 376.59C 1936.1 375.89 1938 366.99 1940.4 356.59L 1944.7 337.89L 1904.6 337.99C 1882.5 338.09 1863.2 338.39 1861.5 338.59z" class="fill"/>
<path d="M 438.5 345.09C 438.1 346.69 366.2 695.59 359.3 729.09L 358.8 731.89L 381.9 731.89C 394.6 731.89 405 731.49 405 731.09C 405 727.99 435.5 581.79 437.5 575.19C 446.8 544.99 466.3 516.19 488.9 499.49C 512.8 481.89 543.4 475.49 562.2 484.19C 576.5 490.69 582.8 506.29 580.3 528.69C 579.5 535.89 538.5 719.99 535.4 730.09C 534.9 731.79 536.5 731.89 558.9 731.89C 572.2 731.89 583 731.69 583 731.49C 583 731.29 592.7 688.99 604.5 637.49C 616.3 585.99 626.5 540.59 627.1 536.59C 628.9 524.99 627.8 505.99 624.6 496.39C 618.8 478.49 607.5 465.09 591.5 457.29C 577.2 450.29 567 448.59 544.5 449.19C 529.5 449.59 524.9 450.09 516.9 452.19C 495.7 457.79 480.4 466.59 465.1 482.29C 456.5 491.09 455.8 491.59 456.4 488.59C 458.8 476.69 486.2 346.09 486.6 344.59C 487.1 342.99 485.5 342.89 463.1 342.89L 439 342.89L 438.5 345.09z" class="fill"/>
<path d="M 732.4 370.09L 726.4 397.39L 749.9 397.69C 762.8 397.79 773.4 397.79 773.6 397.59C 774 397.19 785 345.69 785 344.09C 785 343.19 779.7 342.89 761.7 342.89L 738.4 342.89L 732.4 370.09z" class="fill"/>
<path d="M 1580.5 446.99C 1549.7 450.09 1520.7 461.99 1498.3 480.79C 1468.1 505.99 1446.8 541.69 1437.9 581.99C 1434.9 595.79 1434.2 621.29 1436.4 634.99C 1443.4 677.19 1468.9 710.99 1505.8 726.89C 1540.7 741.99 1585.7 740.59 1623.7 723.39C 1670.6 701.99 1709 653.69 1720.1 602.09C 1723.3 586.89 1723.8 563.59 1721.2 548.39C 1716.4 520.49 1706.8 500.89 1688.5 482.09C 1666.6 459.29 1638.7 447.89 1601.5 446.49C 1594.9 446.19 1585.5 446.49 1580.5 446.99zM 1609 487.99C 1647.2 494.09 1670.2 527.59 1667.7 573.09C 1664.4 629.89 1627.4 680.19 1579 693.49C 1569.9 695.99 1549.8 695.99 1541.5 693.49C 1521.8 687.59 1505 671.99 1496.5 651.89C 1487.8 631.19 1486.8 605.39 1493.6 579.59C 1506.8 529.79 1540.1 494.79 1580.8 487.89C 1587.8 486.79 1601.6 486.79 1609 487.99z" class="fill"/>
<path d="M 944 449.99C 923.7 453.09 899.5 465.69 878.8 483.89C 874.4 487.79 873 488.59 873 487.19C 873 485.69 878 458.89 879.5 452.09L 880 449.89L 858.1 449.89C 836.2 449.89 836.2 449.89 835.7 452.09C 835 454.99 756 833.89 756 834.49C 756 834.69 766.8 834.89 780 834.89C 793.2 834.89 804 834.69 804 834.39C 804 832.99 834.1 688.39 834.5 687.99C 834.8 687.79 835.1 687.79 835.3 687.99C 835.4 688.19 837.7 691.69 840.4 695.79C 850.7 711.69 867.7 726.29 883.4 732.79C 904.1 741.39 928.8 740.69 952.1 730.79C 1020.9 701.59 1066.4 604.89 1047.1 528.59C 1042.3 509.59 1034 492.99 1022.7 479.69C 1012.2 467.29 993.9 455.99 977.8 451.99C 968.4 449.59 952.8 448.69 944 449.99zM 955 488.99C 977.1 494.09 995.3 516.29 1001.6 545.89C 1004.1 557.39 1004.1 581.89 1001.7 594.39C 992.2 643.39 960.5 683.69 924.2 692.99C 905.3 697.79 888 693.39 873.8 680.09C 862.1 668.99 855 655.29 851 635.89C 849.1 626.69 848.9 623.29 849.3 608.39C 849.9 590.39 851.5 581.39 856.5 566.29C 869.1 528.59 896.8 498.29 926.1 489.89C 933.3 487.79 947.9 487.39 955 488.99z" class="fill"/>
<path d="M 715.5 451.09C 715.2 451.79 702.2 514.69 686.5 590.89C 670.8 667.09 657.8 729.99 657.5 730.59C 657.2 731.59 662.2 731.89 680.8 731.89L 704.5 731.89L 731.4 603.59C 746.2 533.09 759.6 469.69 761.1 462.59L 763.8 449.89L 739.9 449.89C 721.6 449.89 715.8 450.19 715.5 451.09z" class="fill"/>
<path d="M 3.9 814.59C 1.9 824.99 0.5 833.69 0.7 834.19C 0.9 834.59 166.4 834.89 368.5 834.89C 717.5 834.89 735.9 834.79 736.4 833.19C 736.6 832.19 738.3 824.19 740 815.39C 741.7 806.59 743.4 798.59 743.6 797.69C 744.1 795.99 726.1 795.89 375.8 795.89L 7.39996 795.89L 3.9 814.59z" class="fill"/>
</g>
</g>
<script xmlns="" id="bw-fido2-page-script"/></svg>