<?xml version="1.0" encoding="UTF-8" standalone="no"?>
<svg
   xmlns:dc="http://purl.org/dc/elements/1.1/"
   xmlns:cc="http://creativecommons.org/ns#"
   xmlns:rdf="http://www.w3.org/1999/02/22-rdf-syntax-ns#"
   xmlns:svg="http://www.w3.org/2000/svg"
   xmlns="http://www.w3.org/2000/svg"
   viewBox="0 0 584.17334 199.16"
   height="199.16"
   width="584.17334"
   xml:space="preserve"
   id="svg2"
   version="1.1"><metadata
     id="metadata8"><rdf:RDF><cc:Work
         rdf:about=""><dc:format>image/svg+xml</dc:format><dc:type
           rdf:resource="http://purl.org/dc/dcmitype/StillImage" /></cc:Work></rdf:RDF></metadata><defs
     id="defs6" /><g
     transform="matrix(1.3333333,0,0,-1.3333333,0,199.16)"
     id="g10"><g
       transform="scale(0.1)"
       id="g12"><path
         id="path14"
         style="fill:#51ade5;fill-opacity:1;fill-rule:nonzero;stroke:none"
         d="m 312.777,640.965 43.274,69.637 c 21.926,-23.582 55.07,-39.872 91.605,-39.872 26.414,0 42.699,13.477 42.699,32.02 0,53.906 -166.332,31.445 -166.332,161.738 0,60.094 46.637,115.133 131.5,115.133 47.207,0 89.344,-15.156 120.258,-42.687 l -42.152,-67.391 c -23.031,21.344 -52.828,30.887 -81.484,30.887 -23.036,0 -35.399,-11.789 -35.399,-28.641 0,-49.414 165.777,-34.254 165.777,-160.062 0,-71.321 -49.457,-119.629 -134.304,-119.629 -60.692,0 -103.973,18.535 -135.442,48.867" /><path
         id="path16"
         style="fill:#51ade5;fill-opacity:1;fill-rule:nonzero;stroke:none"
         d="m 617.402,669.051 v 130.293 h -34.277 v 70.754 h 34.277 v 74.136 h 81.485 v -74.136 h 43.828 V 799.344 H 698.887 V 689.266 c 0,-15.735 6.172,-25.286 18.547,-25.286 7.863,0 15.168,2.825 18.535,6.184 l 14.605,-62.902 c -10.109,-8.426 -29.773,-15.164 -56.183,-15.164 -52.266,0 -76.989,25.84 -76.989,76.953" /><path
         id="path18"
         style="fill:#51ade5;fill-opacity:1;fill-rule:nonzero;stroke:none"
         d="m 924.805,598.836 v 32.578 c -14.051,-19.648 -43.832,-39.316 -80.367,-39.316 -52.254,0 -74.743,29.773 -74.743,73.574 v 204.426 h 81.489 V 698.25 c 0,-24.719 11.242,-34.27 31.468,-34.27 19.676,0 34.286,14.043 42.153,28.086 v 178.032 h 80.925 V 598.836 h -80.925" /><path
         id="path20"
         style="fill:#51ade5;fill-opacity:1;fill-rule:nonzero;stroke:none"
         d="m 1204.13,689.266 v 90.98 c -8.44,14.598 -25.29,24.707 -39.9,24.707 -29.78,0 -46.08,-28.644 -46.08,-70.199 0,-42.129 16.3,-70.774 46.08,-70.774 14.61,0 31.46,10.684 39.9,25.286 z m 0,-90.43 v 32.019 c -17.42,-26.394 -42.15,-38.757 -67.43,-38.757 -60.69,0 -101.72,51.668 -101.72,142.656 0,87.621 40.46,142.09 101.72,142.09 24.72,0 50.57,-11.797 67.43,-38.75 v 135.359 h 80.93 V 598.836 h -80.93" /><path
         id="path22"
         style="fill:#51ade5;fill-opacity:1;fill-rule:nonzero;stroke:none"
         d="m 1439.61,812.828 c -32.59,0 -43.26,-28.086 -44.95,-49.988 h 89.92 c -1.13,21.902 -11.25,49.988 -44.97,49.988 z m -125.88,-78.074 c 0,78.633 48.34,142.09 127,142.09 76.43,0 121.39,-58.965 121.39,-146.028 v -22.461 h -166.91 c 2.83,-28.085 21.93,-52.234 59.01,-52.234 17.42,0 42.16,8.992 56.2,23.594 l 35.96,-48.86 c -25.28,-25.839 -64.63,-38.757 -101.15,-38.757 -78.68,0 -131.5,56.172 -131.5,142.656" /><path
         id="path24"
         style="fill:#51ade5;fill-opacity:1;fill-rule:nonzero;stroke:none"
         d="m 1743.67,598.836 v 171.309 c 0,24.699 -11.8,34.808 -31.47,34.808 -20.24,0 -34.28,-14.601 -42.16,-28.644 V 598.836 h -81.48 v 271.262 h 81.48 v -33.696 c 13.5,20.227 43.85,40.442 79.81,40.442 52.25,0 75.31,-30.891 75.31,-74.696 V 598.836 h -81.49" /><path
         id="path26"
         style="fill:#51ade5;fill-opacity:1;fill-rule:nonzero;stroke:none"
         d="m 1881.39,669.051 v 130.293 h -34.28 v 70.754 h 34.28 v 74.136 h 81.49 v -74.136 h 43.82 v -70.754 h -43.82 V 689.266 c 0,-15.735 6.17,-25.286 18.54,-25.286 7.86,0 15.17,2.825 18.54,6.184 l 14.61,-62.902 c -10.12,-8.426 -29.78,-15.164 -56.2,-15.164 -52.26,0 -76.98,25.84 -76.98,76.953" /><path
         id="path28"
         style="fill:#51ade5;fill-opacity:1;fill-rule:nonzero;stroke:none"
         d="m 2175.3,666.805 v 27.508 c -7.86,14.042 -23.61,21.347 -39.34,21.347 -20.79,0 -35.96,-12.91 -35.96,-34.832 0,-22.461 15.17,-35.371 35.96,-35.371 15.73,0 31.48,7.305 39.34,21.348 z m 0,-67.969 v 26.394 c -14.61,-20.214 -43.83,-33.132 -71.36,-33.132 -42.71,0 -84.86,30.886 -84.86,89.863 0,60.652 42.15,87.051 84.86,87.051 28.09,0 57.31,-10.664 71.36,-30.891 v 30.891 c 0,25.277 -17.41,42.129 -47.77,42.129 -22.48,0 -46.64,-10.11 -66.86,-28.086 l -28.66,54.48 c 30.34,28.086 75.3,39.309 111.27,39.309 61.81,0 112.95,-26.399 112.95,-99.403 V 598.836 h -80.93" /><path
         id="path30"
         style="fill:#51ade5;fill-opacity:1;fill-rule:nonzero;stroke:none"
         d="m 2440.56,666.805 v 27.508 c -7.86,14.042 -23.6,21.347 -39.33,21.347 -20.8,0 -35.96,-12.91 -35.96,-34.832 0,-22.461 15.16,-35.371 35.96,-35.371 15.73,0 31.47,7.305 39.33,21.348 z m 0,-67.969 v 26.394 c -14.61,-20.214 -43.83,-33.132 -71.36,-33.132 -42.71,0 -84.86,30.886 -84.86,89.863 0,60.652 42.15,87.051 84.86,87.051 28.09,0 57.31,-10.664 71.36,-30.891 v 30.891 c 0,25.277 -17.41,42.129 -47.76,42.129 -22.48,0 -46.64,-10.11 -66.87,-28.086 l -28.66,54.48 c 30.34,28.086 75.3,39.309 111.26,39.309 61.83,0 112.96,-26.399 112.96,-99.403 V 598.836 h -80.93" /><path
         id="path32"
         style="fill:#51ade5;fill-opacity:1;fill-rule:nonzero;stroke:none"
         d="m 2719.33,598.836 v 171.309 c 0,24.699 -11.81,34.808 -31.46,34.808 -20.25,0 -34.28,-14.601 -42.16,-28.644 V 598.836 h -81.49 v 271.262 h 81.49 v -33.696 c 13.49,20.227 43.85,40.442 79.81,40.442 52.25,0 75.3,-30.891 75.3,-74.696 V 598.836 h -81.49" /><path
         id="path34"
         style="fill:#51ade5;fill-opacity:1;fill-rule:nonzero;stroke:none"
         d="m 2999.21,598.836 v 172.422 c 0,24.719 -11.79,33.695 -32.02,33.695 -19.67,0 -34.27,-14.601 -42.16,-28.644 V 598.836 h -80.91 v 374.617 h 80.91 V 836.402 c 13.5,20.227 44.41,40.442 80.38,40.442 52.26,0 74.73,-29.762 74.73,-73.567 V 598.836 h -80.93" /><path
         id="path36"
         style="fill:#51ade5;fill-opacity:1;fill-rule:nonzero;stroke:none"
         d="m 3278.55,598.836 v 32.578 c -14.05,-19.648 -43.84,-39.316 -80.37,-39.316 -52.26,0 -74.74,29.773 -74.74,73.574 v 204.426 h 81.49 V 698.25 c 0,-24.719 11.24,-34.27 31.46,-34.27 19.68,0 34.29,14.043 42.16,28.086 v 178.032 h 80.92 V 598.836 h -80.92" /><path
         id="path38"
         style="fill:#51ade5;fill-opacity:1;fill-rule:nonzero;stroke:none"
         d="m 3402.76,598.836 v 271.262 h 81.48 V 598.836 Z m -6.18,344.285 c 0,26.399 20.79,47.18 47.19,47.18 25.86,0 46.65,-20.781 46.65,-47.18 0,-25.84 -20.79,-47.183 -46.65,-47.183 -26.4,0 -47.19,21.343 -47.19,47.183" /><path
         id="path40"
         style="fill:#51ade5;fill-opacity:1;fill-rule:nonzero;stroke:none"
         d="m 3506.74,630.855 32.58,55.598 c 18,-16.289 50.6,-32.023 77,-32.023 22.48,0 33.72,8.996 33.72,21.925 0,35.938 -133.75,11.219 -133.75,115.125 0,45.493 36.53,85.364 105.65,85.364 39.33,0 74.18,-14.043 100.04,-34.254 l -31.49,-54.485 c -13.47,13.485 -39.89,26.954 -67.99,26.954 -17.42,0 -29.78,-8.418 -29.78,-19.082 0,-32.582 134.87,-12.368 134.87,-116.262 0,-51.106 -42.71,-87.617 -109.59,-87.617 -46.64,0 -88.23,15.73 -111.26,38.757" /><path
         id="path42"
         style="fill:#f36717;fill-opacity:1;fill-rule:nonzero;stroke:none"
         d="m 3750.66,642.652 c 0,26.953 23.04,49.973 50.58,49.973 26.97,0 50.01,-23.02 50.01,-49.973 0,-27.527 -23.04,-49.988 -50.01,-49.988 -27.54,0 -50.58,22.461 -50.58,49.988" /><path
         id="path44"
         style="fill:#f36717;fill-opacity:1;fill-rule:nonzero;stroke:none"
         d="m 4046.26,598.836 v 171.309 c 0,24.699 -11.8,34.808 -31.47,34.808 -20.23,0 -34.27,-14.601 -42.15,-28.644 V 598.836 h -81.48 v 271.262 h 81.48 v -33.696 c 13.49,20.227 43.84,40.442 79.81,40.442 52.25,0 75.3,-30.891 75.3,-74.696 V 598.836 h -81.49" /><path
         id="path46"
         style="fill:#f36717;fill-opacity:1;fill-rule:nonzero;stroke:none"
         d="m 4170.48,598.836 v 374.617 h 81.49 V 598.836 h -81.49" /><path
         id="path48"
         style="fill:#f36717;fill-opacity:1;fill-rule:nonzero;stroke:none"
         d="M 4251.78,475.859 H 286.625 v 69.735 H 4251.78 v -69.735" /><path
         id="path50"
         style="fill:#f36717;fill-opacity:1;fill-rule:nonzero;stroke:none"
         d="m 827.922,939.891 h -34.891 v 163.089 l 40.77,54.32 -302.75,288.17 -232.145,-223.25 -24.195,25.12 256.219,246.4 349.383,-332.56 -52.391,-69.82 V 939.891" /><path
         id="path52"
         style="fill:#51ade5;fill-opacity:1;fill-rule:nonzero;stroke:none"
         d="m 226.527,926.84 -12.843,-22.938 -1.715,-3.375 c -0.258,3.973 -0.489,7.438 -0.68,10.399 1.856,1.578 3.215,3.164 3.563,4.668 1.718,7.347 -2.176,40.996 -3.508,49.414 -1.328,8.414 -7.989,17.918 -9.227,24.828 -1.238,6.91 -2.172,29.774 -2.461,36.754 -0.285,6.97 -3.953,15.4 -5.054,22.74 -1.071,7.14 -2.137,45.14 0.183,47.12 2.621,-7.16 6.192,-16.5 7.07,-16.76 0.34,-0.1 3.079,0.43 6.977,1.28 3.441,-10.62 8.938,-27.62 9.258,-29.09 0.473,-2.14 3.262,-18.19 1.836,-34.47 -1.426,-16.28 7.535,-41.09 8.488,-55.66 0.949,-14.57 -1.887,-34.91 -1.887,-34.91 z m -5.554,-57.531 c -2.453,-1.407 -5.438,-1.801 -6.793,-2.2 -0.121,1.829 -0.239,3.602 -0.356,5.379 0.219,0.321 0.336,0.563 0.336,0.563 l 1.426,11.57 c 0,0 2.848,4.281 7.602,9 1.421,-8.144 -0.79,-19.601 -2.215,-24.312 z M 172.402,717.41 c -4.906,-20.644 -17.636,-120.012 -21.097,-147.344 -1.602,5.243 -3.207,10.438 -4.688,15.243 0,0 1.899,68.566 1.899,73.703 0,5.144 1.754,13.25 0.843,19.004 -0.914,5.761 3.184,26.777 3.036,38.789 -7.434,42.929 -1.973,122.82 -1.973,122.82 0,0 27.683,-98.223 21.98,-122.215 z M 75.6289,932.637 c -3.7969,7.289 -6.1875,19.363 -7.1328,30.5 -0.2773,3.25 -0.5078,8.824 -0.8203,15.386 8.0351,-1.656 15.1758,-3.062 20.1797,-4.035 0.3906,-17.695 0.7539,-35.57 1.0078,-48.527 -2.2617,2.699 -9.5586,6.422 -13.2344,6.676 z m 11.7774,-45.946 c -4.3243,2.235 -4.7891,1.832 -6.543,4.118 -1.7578,2.281 -1,6.894 -0.0156,11.484 0.9843,4.59 3.8007,12.855 3.8007,12.855 0,0 1.668,-5.16 3.8282,-9.394 -0.5586,-5.313 -0.9024,-11.746 -1.0703,-19.063 z M 249.316,1013.17 c -0.949,8.99 -3.796,33.42 -5.222,41.56 -1.258,7.18 -3.989,27.3 -4.617,33.45 3.378,0.82 5.617,1.37 5.617,1.37 0,0 -9.031,46.7 -9.031,48.41 0,1.72 -5.223,21 -9.028,31.29 -2.125,5.75 -6.004,9.03 -9.039,10.86 h -0.004 -0.004 c -1.867,1.13 -3.359,1.71 -3.941,1.89 l -18.609,8.91 v 2.78 c 0,0 -11.536,13.27 -13.481,16.87 -1.941,3.6 -3.324,8.55 -3.324,8.55 0.117,0.1 0.312,0.19 0.414,0.28 2.141,1.93 15.68,15.43 18.531,21.22 1.488,3.02 2.586,14.44 3.297,24.68 2.059,4.17 11.438,23.85 9.531,31.88 -6.414,-1.93 -7.84,1.28 -7.84,1.28 7.098,16.51 9.145,20.43 10.247,30.05 -5.922,-1.79 -12.786,-6.06 -17.375,-4.34 3.921,4.23 7.007,9.8 9.269,16.72 -14.602,-6.08 -29.309,-10.26 -44.187,-11.58 l 4.132,6.08 c 0,0 -22.765,-2.28 -32.75,-13.21 -2.132,-7.71 -6.304,-14.08 -6.304,-14.08 0,0 -6.852,-2.69 -8.278,-6.54 -1.425,-3.86 -3.843,-23.02 -0.281,-25.59 1.227,-0.89 2.399,-1.98 3.484,-3.06 -0.449,-2.47 -3.214,-20.26 10.063,-22.65 0,-4.28 0.676,-8.18 4.133,-13.05 -0.703,-1.94 -1.512,-4.22 -2.399,-6.89 0,0 -8.531,1.25 -14.465,-0.06 -0.921,-0.32 -5.914,-13.46 -6.093,-15.26 -0.18,-1.81 2.492,-6.85 2.492,-6.85 l -19.8009,-7.27 c 5.086,-6.54 12.6209,-18.04 15.9849,-27.76 4.992,-14.4 10.835,-38.2 7.39,-53.88 -3.453,-15.69 -22.3046,-74.77 -25.4686,-81.82 -3.1719,-7.05 -11.5235,-22.42 -14.9414,-18.87 -3.4141,3.56 -3.2539,8.57 0,14.85 3.2539,6.29 5.2265,11.04 8.3867,19.87 3.1562,8.84 19.2773,57.61 20.2343,74.19 0.953,16.59 -3.773,32.6 -6.6054,41.26 -2.832,8.65 -8.5469,17.43 -17.3281,27.62 0,0 -12.9414,-4.71 -14.1016,-5.18 -1.168,-0.47 -2.2851,-1.15 -2.2851,-1.15 -4.6758,-3.11 -16.4805,-11.96 -20.6602,-23.95 -0.0781,-0.22 -0.1563,-0.53 -0.2344,-0.76 -9.5117,-6.36 -18.3359,-14.76 -18.3359,-14.76 L 2.52344,1057.21 c 0,0 -6.75782,-54.56 1.83984,-61.702 3.3086,-2.738 17.48832,-6.68 33.69142,-10.496 9.3828,-25.434 26.3359,-62.25 26.3359,-62.25 0,0 -2.9218,-18.457 -2.4531,-22.18 0.4688,-3.719 4.1523,-16.469 6.0547,-17.324 1.8984,-0.86 17.0625,-6.602 17.0625,-6.602 0,0 0.9023,-0.281 2.2344,-0.691 -0.125,-59.016 7.9453,-157.18 7.4922,-183.399 -0.1758,-10.285 15.7267,-114.113 15.7267,-114.113 l 0.347,-17.098 1.817,-12.121 c 0,0 6.223,-8.496 2.426,-13.64 -3.797,-5.137 4.547,-28.789 4.547,-28.789 0,0 3.847,-1.133 9.269,-1.075 l 1.375,-27.14 -4.25,-10.34 c -0.773,-1.02 -3.68,-5.09 -3.062,-9.02 0.714,-4.5 8.546,-11.261 15.496,-13.058 6.949,-1.793 30.754,-1.543 34.922,0 4.132,1.527 3.031,12.238 -0.153,15.816 0.141,0.121 -5.168,5.524 -7.113,8.352 -3.375,4.91 -6.008,11.039 -6.621,19.172 -1.028,6.023 -1.586,20.562 -1.824,28.289 3.23,3.008 4.714,5.371 4.714,5.371 0.395,1.512 0.09,4.5 -0.617,8.34 1.192,-0.422 3.567,-0.645 6.805,-0.664 l -5.582,-44.649 c 0,0 0.898,-2.019 0.922,-2.051 1.535,-3.019 5.195,-8.5 12.32,-10.328 9.977,-2.582 31.297,-1.191 35.274,0.258 3.968,1.442 5.445,13.844 -3.114,18.981 -0.078,0.05 -0.324,-0.008 -0.437,0.011 -1.196,2.473 -2.797,5.305 -5.352,8.383 -4.722,5.672 -6.726,23.106 -7.465,31.961 2.11,0.488 3.856,1.008 4.539,1.574 3.821,3.164 3.946,7.95 2.043,14.325 -1.906,6.386 -2.043,14.464 -2.043,14.464 0,0 -0.726,6.786 2.125,10 3.559,4.012 -2.695,12.821 -0.796,29.961 1.902,17.137 7.828,52.899 13.531,70.039 5.699,17.137 4.242,40.301 4.242,40.301 0,0 6.242,17.539 4.547,27.277 -1.012,5.809 -5.363,68.958 -8.695,118.84 0,0 6.863,-0.976 9.015,0 2.156,0.981 5.227,4.715 9.031,10.715 8.075,2.996 9.973,6.426 10.45,9.852 0.476,3.429 -1.426,42.851 -1.426,42.851 0,0 8.555,80.557 7.601,89.557" /><path
         id="path54"
         style="fill:#51ade5;fill-opacity:1;fill-rule:nonzero;stroke:none"
         d="m 3775.84,894.426 h -11.64 v -15.879 h 11.64 c 3.89,0 8.14,3.144 8.14,7.762 0,4.988 -4.25,8.117 -8.14,8.117 z m 7.41,-39.336 -11.64,17.734 h -7.41 V 855.09 h -6.65 v 44.883 h 18.29 c 7.59,0 14.99,-5.356 14.99,-13.664 0,-9.985 -8.88,-13.309 -11.47,-13.309 l 12.02,-17.91 z m -10.54,55.601 c -18.3,0 -33.09,-14.589 -33.09,-33.074 0,-18.097 14.79,-33.054 33.09,-33.054 18.3,0 33.1,14.957 33.1,33.054 0,18.485 -14.8,33.074 -33.1,33.074 z m 0,-72.23 c -21.63,0 -39.18,17.543 -39.18,39.156 0,21.809 17.55,39.176 39.18,39.176 21.81,0 39.18,-17.367 39.18,-39.176 0,-21.613 -17.37,-39.156 -39.18,-39.156" /><path
         id="path56"
         style="fill:#1c3f88;fill-opacity:1;fill-rule:nonzero;stroke:none"
         d="m 2462.64,210.762 19.32,17.597 13.95,17.121 c 0.8,0.821 1.86,2.008 3.19,3.59 1.25,1.532 2.88,3.711 4.9,6.641 1.95,2.867 3.84,5.859 5.59,8.937 1.51,2.59 2.55,4.313 3.23,5.071 0.88,1 1.56,1.832 2.12,2.551 0.52,0.761 1.07,1.601 1.34,2.468 0.51,1.473 0.42,2.91 0.14,4.16 l 6.34,6.731 -6.68,10.371 c -1.74,2.57 -4.34,4 -7.33,4 -4.17,0 -7.14,-3.309 -8.9,-5.922 h -5.03 l 0.57,-5.328 c -2.38,-2.809 -4.25,-5.922 -5.59,-9.301 l -0.88,-2.219 1.86,-2.949 -0.44,-0.992 -4.19,-2.348 v -4.339 l -6.42,-7.903 1.22,-2.527 -7.63,-10.383 c -3.74,-5.238 -6.16,-7.57 -7.52,-8.629 l -6.77,-5.422 -6.61,-8.34 -7.73,-7.437 -11.13,-12.531 -11.98,-9.45 -5.36,-6.242 -6.14,-1.168 -1.38,-4.058 c -0.47,-1.422 -1.37,-2.25 -2.97,-2.75 l -1.61,-0.903 c -5.38,-4.527 -6.71,-6.23 -7.4,-7.418 l -1.21,-2.429 -4.52,-5.422 c -5.18,-2.449 -6.88,-3.59 -7.79,-4.34 l -2.44,-3.898 -5.27,-2.903 -0.69,-1.437 c -0.43,1.75 -0.92,3.797 -1.47,6.207 l -1.11,15.582 -2.51,3.027 c 0.49,3.453 0.56,5.992 0.24,7.801 l -0.7,4.781 2.6,20.141 -2.23,1.871 c 0.54,3.957 0.38,5.699 0.12,6.988 l -0.49,1.828 1.99,4.203 -1.56,20.829 1.96,8.5 4.15,9.5 2.17,8.789 -4.27,1.132 c -0.04,0.028 -1.06,0.739 -2.92,4.34 l -1.32,2.539 h -16.92 l 2.96,-4.57 c -0.84,-0.531 -2.09,-1.25 -3.91,-2.191 l -1.39,-0.688 -4.07,-8.051 c -0.99,-1.929 -1.56,-2.5 -1.58,-2.511 l -5.14,-4.661 -2.03,-6.089 c -0.95,-0.707 -1.39,-0.938 -1.29,-0.981 h -4.79 l -5.26,-5.906 h -2.97 l -1.34,-2.461 c -1.43,-2.652 -3.04,-4.82 -4.82,-6.481 l -5.54,-1.261 -0.98,-2.93 c -0.01,-0.027 -0.65,-1.738 -5.45,-4.027 -3.02,-0.524 -5.8,-2.403 -7.75,-5.012 l -3.31,-3.039 -0.86,-1.242 c -0.37,-0.039 -0.88,-0.078 -1.56,-0.078 h -2.5 l -2.26,-3.332 c -3.52,-0.95 -7.49,-3.297 -10.18,-8.829 l -4.78,-1.691 -4.51,-5.879 -9.36,-7.109 -3.87,-6.153 c -7.61,-3.929 -9.2,-5.378 -9.9,-7.468 l -0.55,-1.668 c -2.91,-2.282 -4.78,-4.09 -5.85,-5.684 l -2.27,-3.457 -6.21,-5.312 h -2.72 l -1.37,-1.258 c -0.31,-0.301 -0.94,-0.891 -3.45,-3.981 -0.05,0.489 -0.13,1.059 -0.2,1.668 l -0.27,2.621 -1.27,0.61 1.21,9.172 -1.39,0.507 c 0.76,3.704 0.73,5.012 0.6,6.09 l -0.35,2.043 2.43,7.231 -2.85,1.277 1.32,10.883 -0.53,4.066 3.6,20.981 -1.05,6.812 6.16,29.77 1.38,4.39 4.34,7.438 -0.61,1.23 1.14,2.602 c 1.73,5.148 1.66,9.629 -0.22,13.32 -3.9,7.52 -13.59,10.43 -19.95,-1.961 l -0.53,-1.511 c -0.33,-0.981 -1.1,-2.008 -3.03,-3.868 l -5.14,-7.25 1.52,-4.402 -2.68,-12.258 -2.25,-6.742 0.03,-0.848 c 0.04,-1.293 0.13,-2.543 0.26,-3.761 l 0.37,-3.192 0.44,-2.238 -1.9,-2.961 -0.69,-27.457 -1.18,-3.473 -1.1,-13.98 1.5,-7.207 -1.53,-7.422 2.17,-11.629 -0.79,-14.121 3.87,-15.961 0.08,-4.629 5.07,-14.578 c 0.62,-1.422 2.66,-4.754 8.1,-4.754 2.78,0 7.82,1.094 10.32,8.504 l 0.74,2.609 c 1.65,1.219 3.03,2.739 4.14,4.539 l 0.8,1.29 -0.05,0.761 5.74,2.168 -3.83,6.223 0.23,1.719 c 0.19,0.109 0.42,0.23 0.76,0.359 l 1.47,0.629 0.79,1.383 c 1.33,2.328 3.05,4.5 5.75,7.187 l 3.65,5.321 4.09,1.558 1.27,3.813 1.55,0.48 c 2.48,0.57 3.85,2.66 5.82,6.5 3.78,4.438 4.88,5.32 5.05,5.43 1.03,0.64 3.56,2.168 7.63,4.609 l 12.93,13.012 10.51,9.519 4.87,3.34 c 1.35,0.91 3.52,2.641 6.48,5.199 3.09,2.692 4.8,3.84 5.64,4.329 0.84,0.461 1.58,0.691 2.16,0.691 l 2.11,0.488 c 1.04,0.532 2.84,1.391 5.4,2.582 3.2,1.45 5.44,3.41 6.77,5.95 7.83,5.011 10.87,6.558 12.77,7.46 l 3.61,2.5 c 0.25,-1.66 0.64,-3.378 1.18,-5.16 l -1.11,-1.781 1.61,-12.32 -2.01,-15.367 2.49,-2.051 -0.62,-2.821 c -0.38,-2.148 -0.22,-4.269 0.47,-6.351 l 1.24,-3.578 c 0.63,-1.563 0.86,-3.371 0.74,-5.789 l 0.04,-6.481 c -0.13,-3.691 0.22,-6.64 1.1,-9.011 l 0.87,-9.071 4.09,-4.929 -2.44,-8.098 3.34,-12.672 0.34,-14.98 7.13,-4.02 h 1.23 c 1.87,0 3.62,0.422 5.08,1.25 3.68,0.879 6.52,2.082 8.69,3.648 l 1.56,1.161 2.31,14 3.97,4.601 2.46,6.219 3.87,3.23 c 1.75,1.411 3.3,3.18 4.44,5.051 l 1.91,3.039 12.54,11.871 3.06,3.52 3.73,2.539 4.95,6.191 c 1.21,2.141 3.3,4.09 6.19,5.77 l 3.79,4.191 5.36,1.778 7.82,10.113 9.23,7.519 5.07,7.821" /><path
         id="path58"
         style="fill:#1c3f88;fill-opacity:1;fill-rule:nonzero;stroke:none"
         d="m 2537.88,285.27 c 6.21,4.582 7.88,5.429 8.19,5.582 l 4.38,1.628 6.85,6.09 7.64,2.078 15.76,13.301 c 2.82,-0.34 5.45,1.699 6.77,2.922 l 5.08,4.051 0.54,1.558 c 3.42,1.821 5.88,3.801 7.49,5.981 l 0.79,1.09 0.11,1.328 c 0.3,3.73 -0.57,10.461 -9.73,13.762 l -3.89,1.398 -1.89,-3.68 c -0.89,-1.711 -2.45,-3.308 -4.69,-4.777 l -1.18,-0.773 -0.85,-1.957 -1.56,-0.204 -1.06,-1.57 h -0.86 l -4.48,-4.93 -1.72,-0.566 -3.46,-2.773 -3.9,-0.93 -1.3,-3.899 h -7.12 l 0.55,-4.75 -4.19,-2.5 -0.44,-1.3 c -0.23,-0.078 -0.49,-0.168 -0.76,-0.27 -2.93,-1.07 -5.63,-4.012 -8.89,-9.691 l -9.47,-3.598 -2.34,-9.242 6.64,-5.57 2.99,2.211" /><path
         id="path60"
         style="fill:#1c3f88;fill-opacity:1;fill-rule:nonzero;stroke:none"
         d="m 2518.51,226.32 0.28,-1.769 c 0.29,-1.711 0.26,-3.442 -0.09,-5.121 l -1.11,-0.571 -0.68,-1.339 c -1.48,-2.879 -2.77,-5.149 -3.83,-6.731 -1.41,-2.07 -2.56,-4.391 -3.47,-7.098 l -4.16,-14.972 -2.29,-1.391 -12.91,-28.18 -0.42,-1.769 0.07,-2.199 -5.33,-17.86 1.49,-13.172 10.13,-9.777 5.65,3.438 h 6.03 l 2.39,2.351 c 0.84,0.18 2.05,0.399 3.62,0.68 3.19,0.57 6.03,1.512 8.44,2.781 l 1.2,0.918 c 0.46,0.481 1.93,1.75 4.39,3.871 3.15,0.512 5.94,1.66 8.32,3.461 h 2.3 l 1.33,1.129 c 5.11,4.379 6.45,5.129 6.49,5.16 l 5.31,3.969 4.58,1.519 c 2.53,1.411 5.17,4.082 8.06,8.153 l 5.05,1.258 3.05,4.621 4.05,2.359 3.14,5.82 -0.3,1.629 c -0.22,1.262 -0.54,2.293 -0.96,3.203 l -1.2,2.579 -12.18,0.628 -2.59,-5.218 -7.83,-3.352 -0.61,-0.848 h -3.28 l -0.41,-3.859 -1.73,-0.141 -3.15,-3.218 c -2.23,-0.512 -4.11,-1.391 -5.64,-2.672 -3.16,-0.86 -6.3,-2.281 -9.33,-4.192 l -2.28,-0.578 -0.42,1.18 -7.37,-5.418 c -2.92,-0.73 -5.17,-1.613 -6.27,-2.402 l -3.57,-1.45 -3.05,1.442 -1.09,-0.281 c -0.12,2.918 0.56,6.64 1.98,10.879 l 3.47,8.48 0.63,3.309 3.49,4.371 3.19,8.699 5.28,10.871 8.39,14.59 0.89,4.769 1.31,2.289 c 3,2.172 5.05,4.852 6.12,8.012 l 0.39,1.168 -0.95,4.91 9.34,18.692 8.62,7.558 -5.97,3.16 c 0.5,2.524 0.54,3.114 0.54,3.641 0,0.551 -0.18,5.43 -6.68,5.43 -2.29,0 -4.29,-0.918 -5.76,-2.578 -0.95,0.539 -2.12,0.988 -3.42,0.988 -3.54,0 -6.36,-2.09 -7.56,-5.629 -0.3,-0.898 -0.55,-2.191 -0.44,-4.891 -0.81,-0.839 -1.57,-2.031 -2.13,-3.73 -0.3,-0.77 -0.4,-1.488 -0.57,-4.66 -0.07,-1.098 -0.16,-2.129 -0.29,-3.078 l -2.02,-1.789 -1.94,-6.204 -3.73,-5.828" /><path
         id="path62"
         style="fill:#1c3f88;fill-opacity:1;fill-rule:nonzero;stroke:none"
         d="m 2687.03,365.988 c -0.3,0.352 -0.61,0.653 -0.89,0.871 -0.09,0.071 -0.18,0.153 -0.29,0.219 l 1.65,4.922 -8.63,-2.512 -4,-0.449 -0.63,-0.641 -2.29,1.012 -3.12,-5.48 -6.08,-1.36 -0.13,-4.172 c -2.29,-2.597 -5.54,-6.687 -10.35,-13.148 l -6.12,-4.191 -8.32,-9.668 -6.91,-25.762 10.53,7.762 c 3.57,2.64 6.23,5.3 8.05,8.058 h 1.04 l 2.7,4 5.63,3.082 10.24,9.071 0.57,-0.332 2.42,1.492 c 1.87,1.168 3.57,2.726 5.18,4.797 0.64,0.82 1.22,1.019 1.71,1.113 l 1.75,0.297 2.62,3.23 6.75,3.09 2.26,10.152 -1.12,1.688 c -1.01,1.492 -2.5,2.48 -4.22,2.859" /><path
         id="path64"
         style="fill:#1c3f88;fill-opacity:1;fill-rule:nonzero;stroke:none"
         d="m 2644.83,261.941 2.82,8.387 -7.45,-2.738 c -0.91,0.73 -2.28,1.398 -4.29,1.398 -3.59,0 -6.47,-2.34 -8.55,-6.968 l -2.3,-0.579 -1.53,-3.242 -5.98,-4.058 3.01,-2.532 -1.23,-2.339 0.67,-4.129 -5.65,-16.813 -2.83,-16.418 -2.52,-2.488 -0.96,-8.07 -3.51,-5.442 -0.46,-11.59 -3.91,-10.8 -0.24,-1.2 c -2.23,-2.351 -3.78,-4.832 -4.62,-7.371 -0.46,-1.34 -0.71,-2.949 -0.73,-4.758 l -0.2,-7.332 -1.99,-3.738 h -1.09 l -2.5,-7.391 0.69,-2.73 -3.89,-2.59 0.6,-7.211 -3.48,-4.59 0.45,-7.379 c -2.62,-2.679 -4.5,-5.66 -5.58,-8.871 l -0.7,-2.058 0.85,-1.379 -2.15,-5.172 -6.17,-6.5586 4.16,-1.7109 c -1.01,-1.4805 -2.6,-3.7305 -5.09,-7.0821 l -1.91,-2.5898 1.79,-2.8594 -2.36,-7.039 -8.82,-12.6797 0.34,-3.7891 -3.89,-5.4414 -2.94,-3.8789 -1.45,0.6406 -2.09,-6.1601 c -0.02,-0.0313 -0.02,-0.043 -0.03,-0.0625 l -5.4,-3.8399 -2.91,-4.0976 -4.45,-2.211 -1.86,-1.7812 h -1.03 c -1.25,0 -2.21,-0.2305 -7.95,-3.0078 l -1.4,-1.1133 c -3.73,-0.668 -6.48,-1.0195 -7.66,-1.1172 l -1.95,1.3984 h -1.23 c -1.76,1.711 -3.55,1.5508 -4.16,1.5899 l -1.6,1.1015 -2.31,-0.1992 -0.5,0.7188 0.77,2.2695 -3.72,0.4688 -7.51,4.0117 -0.71,3.0586 -2.12,0.9609 c -0.09,0.0391 -0.19,0.0703 -0.27,0.1094 l -3.45,2.3594 c -1.34,0.9218 -2.16,1.5625 -2.64,1.9804 l 0.12,1.6289 -2.53,1.2032 1.16,3.457 -4.52,2.4805 c -0.63,2.25 -1.45,3.7226 -2.47,4.6601 l -5.46,13.1524 -8.56,2.6875 -3.94,-11.7305 2.89,-2.0078 0.83,-9.1524 2.46,-0.7578 0.34,-1.6015 c 0.46,-1.8282 1.5,-3.5586 3.38,-5.3594 l 0.96,-0.8086 c 0.08,-2.6406 0.51,-4.7422 1.33,-6.4297 0.38,-0.7813 0.93,-1.582 1.67,-2.4219 l -0.54,-0.5078 h 1.01 c 1.09,-1.1601 2.54,-2.4219 4.44,-3.8828 l 1.48,-3.7969 10.05,-7.7226 1.59,-0.8907 1.59,-3.3203 2.5,-0.3476 c 1.77,-0.2617 3.23,-0.4922 4.37,-0.7305 l 1.49,-2.37109 2.65,0.1914 c 0.02,-0.01172 1.15,-0.19922 3.87,-2.53906 l 1.33,-1.15234 h 0.61 L 2508.6,0 l 5.06,4.17969 h 3.07 l 1.34,1.14844 4.65,-1.10938 3.35,1.69141 1.91,-1.16016 3.9,3.10156 5.25,1.0586 1.07,1.26954 c 0.91,1.1016 1.94,1.9687 3.15,2.6719 l 3.86,-2.2618 2.11,4.8907 c 0.93,2.1289 1.67,2.1289 2.73,2.1289 h 5.62 l -0.67,3.8125 c 4.25,3.1992 7.82,7.1094 10.7,11.8984 0.79,1.5899 2.14,3.3711 4.02,5.2813 2.73,2.7695 5.29,7.3281 7.87,13.9492 2.69,6.8594 4.45,9.8594 5.46,11.168 l 0.84,1.1015 0.31,3.8594 2.17,2.9219 1.91,9.6875 4.54,10.5 -0.18,2.6211 4.05,12.1098 5.09,11.289 h 2.07 l 0.69,6.222 5.04,13.028 c 0.9,2.23 0.87,4.793 -0.09,7.781 l 5.7,11.82 1.49,4.61 3.65,18.96 c 0.05,0.141 0.64,1.348 4.15,4.77 l 3.21,3.121 -3.14,3.578 2.53,5.27 3.08,12.633 4.42,9.75 1.07,6.218 4.84,7.801 0.02,4.277 3.71,10.614 1.61,-0.34 2.91,9.418 -0.91,1.762 c -0.72,1.386 -1.86,2.257 -3,2.839" /><path
         id="path66"
         style="fill:#1c3f88;fill-opacity:1;fill-rule:nonzero;stroke:none"
         d="m 2878.61,128.41 c 3.15,0.512 5.94,1.66 8.32,3.461 h 2.29 l 1.33,1.129 c 5.12,4.379 6.46,5.129 6.5,5.16 l 5.31,3.969 4.57,1.519 c 2.54,1.411 5.18,4.082 8.07,8.153 l 5.05,1.258 3.05,4.621 4.04,2.359 3.15,5.82 -0.3,1.629 c -0.23,1.262 -0.54,2.293 -0.96,3.203 l -1.2,2.579 -12.18,0.628 -2.59,-5.218 -7.84,-3.352 -0.61,-0.848 h -3.28 l -0.41,-3.859 -1.72,-0.141 -3.15,-3.218 c -2.24,-0.512 -4.11,-1.391 -5.64,-2.672 -3.17,-0.86 -6.29,-2.281 -9.33,-4.192 l -2.28,-0.578 -0.42,1.18 -7.37,-5.418 c -2.92,-0.73 -5.17,-1.613 -6.27,-2.402 l -3.56,-1.45 -3.07,1.442 -1.07,-0.281 c -0.14,2.918 0.54,6.64 1.97,10.879 l 3.47,8.48 0.63,3.309 3.5,4.371 3.18,8.699 5.28,10.871 8.38,14.59 0.9,4.769 1.3,2.289 c 3.01,2.172 5.06,4.852 6.12,8.012 l 0.4,1.168 -0.94,4.91 9.33,18.692 8.61,7.558 -5.96,3.16 c 0.51,2.524 0.54,3.114 0.54,3.641 0,0.551 -0.18,5.43 -6.67,5.43 -2.31,0 -4.3,-0.918 -5.78,-2.578 -0.94,0.539 -2.12,0.988 -3.41,0.988 -3.54,0 -6.37,-2.09 -7.56,-5.629 -0.31,-0.898 -0.56,-2.191 -0.43,-4.891 -0.82,-0.839 -1.58,-2.031 -2.15,-3.73 -0.28,-0.77 -0.39,-1.488 -0.57,-4.66 -0.06,-1.098 -0.15,-2.129 -0.28,-3.078 l -2.01,-1.789 -1.95,-6.204 -2.09,-3.257 c 0.22,1.589 0.08,3.039 -0.75,4.211 l -1.9,2.168 h -2.42 c -1.03,0 -2.13,-0.2 -3.46,-0.68 l -1.04,2.488 -4.17,-1.43 c -0.72,-0.218 -1.75,-0.339 -4.06,-0.187 -1.55,0.73 -2.44,1.141 -4.44,0.988 l -6.42,-1.301 c -3.87,1.68 -5.52,2.043 -6.81,2.043 -0.8,0 -1.66,-0.089 -5.27,-1.293 h -1.86 c -1.46,0 -3.11,0.153 -4.87,0.364 -2.24,0.308 -4.17,0.386 -5.73,-0.203 -1.68,-0.289 -2.97,-0.481 -3.89,-0.481 h -1.31 c -2.05,0 -4.2,-0.547 -6.4,-1.707 0.78,1.981 1.6,2.879 2.54,3.758 3.05,3.703 4.73,6.293 5.55,8.832 l 1.22,5.277 8.26,11.371 1.84,5.59 c 1.96,2.121 3.97,5.281 6.18,9.731 l 6.21,2.351 -0.59,8.02 c 2.35,2.91 4.61,6.058 6.71,9.39 l 1.49,0.258 1.11,1.289 c 1.06,1.262 2.94,3.84 6.74,11.594 8.82,9.879 13.31,14.34 15.54,16.348 h 1.72 c 2.17,0 3.74,1.269 5.09,2.672 l 1.12,1.808 c 0.1,0.289 0.29,0.711 0.66,1.231 l 6.12,0.839 c 0.79,0 1.44,-0.218 2.09,-0.652 l 2.46,-1.656 5.86,3.406 c 1.83,-0.297 3.25,-0.879 4.17,-1.699 l 2.54,-2.238 2.25,1.308 c 0.26,-1.359 0.53,-3.828 0.62,-8.219 l 0.8,-9.66 -3.51,-2.09 -0.42,-1.3 c -0.25,-0.078 -0.49,-0.168 -0.77,-0.27 -2.94,-1.07 -5.64,-4.012 -8.88,-9.691 l -9.49,-3.598 -2.33,-9.242 6.63,-5.57 2.99,2.211 c 6.39,4.71 7.98,5.492 8.28,5.609 l 4.3,1.601 6.84,6.09 7.64,2.078 15.76,13.301 c 2.88,-0.34 5.46,1.699 6.77,2.922 l 5.09,4.051 0.54,1.558 c 3.41,1.821 5.87,3.801 7.49,5.981 l 0.8,1.09 0.09,1.328 c 0.31,3.73 -0.56,10.461 -9.72,13.762 l -3.89,1.398 -1.89,-3.68 c -0.88,-1.711 -2.45,-3.308 -4.68,-4.777 l -1.18,-0.773 -0.86,-1.957 -1.57,-0.204 -1.06,-1.57 h -0.86 l -3.72,-4.109 0.82,3.769 -1.11,1.641 c -1.44,2.101 -2.34,4.949 -2.64,8.473 l -0.17,1.91 -3.97,3.398 c -0.34,2.399 -1.09,4.762 -2.98,6.192 l -2.01,1.507 -2.36,-0.808 c -2.04,-0.699 -3.03,-0.922 -3.11,-1.031 -0.57,0.171 -1.52,0.531 -3.29,1.152 l -7.27,1.558 c -2.61,0 -5.86,-0.781 -9.87,-2.371 l -6.29,2.25 -4.01,-3.55 h -2.63 l -8.36,-2.258 -0.95,-1.352 c -3.26,-4.668 -4.77,-5.508 -4.59,-5.527 l -2.06,-0.223 -1.24,-1.719 c -2.33,-3.269 -5.14,-6.57 -8.37,-9.8 -3.25,-1.809 -4.94,-3.461 -5.62,-5.45 l -0.4,-1.14 c -1.51,-1.309 -2.56,-2.801 -3.13,-4.531 l -0.56,-2.637 c 0,-0.031 -0.29,-0.75 -1.82,-2.402 -1.75,-1.848 -3.02,-3.411 -3.86,-4.598 l -3.57,-5.102 c -2.04,-2.898 -3.12,-4.761 -3.58,-6.172 -0.21,-0.597 -0.36,-1.179 -0.44,-1.738 -1.24,-1.75 -2.96,-3.801 -5.16,-6.09 l -1.06,-1.121 -0.62,-4.66 -1.66,-1.551 -5.73,-11.047 -4.38,-3.23 -1.01,-3.012 c -0.26,-0.789 -0.66,-1.429 -1.23,-2.008 -1.37,-1.402 -2.17,-2.312 -2.44,-2.703 l -2.02,-8.957 c -2.33,-3.293 -3.89,-5.961 -4.7,-8.082 l -2.25,-5.5 -4.46,-7.621 -0.01,-1.027 c -1.42,0.66 -3.27,1.078 -5.67,1.078 0,0 0,0 -0.02,0 l -7.22,0.34 -10,-2.219 -13.26,0.891 -6.46,-0.731 -2.88,1.449 c -4.27,1.512 -6,1.7 -7.12,1.7 -3.36,0 -6.09,-1.579 -7.55,-4.137 l -3.94,-5.82 -0.09,-1.25 c -0.25,-3.172 -0.2,-7.692 2.82,-10.223 1.5,-1.309 3.94,-2.578 7.89,-4.117 l 2.03,-0.793 2.17,1.172 3.75,-0.77 9.92,1.57 5.16,-1.293 7.26,1.231 2.43,-1.957 4.83,2.348 4.32,-1.508 1.48,0.57 c -0.18,-0.32 -0.41,-0.703 -0.68,-1.141 -1.25,-2.011 -2.11,-3.57 -2.53,-4.562 l -10.08,-21.481 -1.89,-3.207 -3.19,-11.371 -1.73,-2.058 -4.97,-13.75 -1.87,-1.621 -5.64,-17.7 -2.97,-3.242 0.8,-3.898 -2.03,-4.531 -1.12,-6.782 -1.35,-0.59 -3.51,-18.6285 c -0.08,-0.2187 -0.49,-1.5078 -1.19,-3.8593 -0.84,-2.6914 -1.25,-4.9493 -1.25,-6.8711 l -2.66,-5.711 -1.18,-7.4297 -4.24,-4.4179 1.99,-3.9219 -1.32,-3.8789 0.38,-19.0586 -1.49,-6.082 2.44,-1.8672 1.58,-6.75 4.51,0.539 c 4.54,0.5508 7.86,3.3282 9.37,7.8282 0.56,1.6601 0.91,3.6797 1.09,6.1523 l 0.35,1.0274 c 1.14,3.4296 1.11,7.0703 -0.08,10.8515 l 1.07,1.8985 5.25,3.0117 -3.84,9.6484 5.28,18.6602 2.06,16.6909 3.24,5.122 0.4,7.398 4.13,5.691 -2.05,2.707 c 0,0.012 -0.21,0.723 0.42,2.563 l 3.27,8.777 c 0.98,2.961 2.21,5.551 3.62,7.672 2.62,3.899 2.98,4.68 3.25,5.488 l 0.81,7.231 5.69,7.762 0.57,4.668 2.98,4.14 4.1,14.321 6.53,8.179 0.47,5.621 2.55,4.36 0.88,4.25 2.6,2.101 c 2.15,0.418 4.29,1.41 6.35,2.949 1.17,0.852 1.88,1.282 2.23,1.489 l 3.11,0.121 3.52,-2.281 8.06,3.089 1.43,0.852 c 2.31,-0.441 3.41,-0.512 4.13,-0.512 h 1.26 l 1.1,0.633 c 2.57,1.488 4.17,2.34 5.03,2.82 l 1.49,-2.621 3.21,0.5 c 3.8,0.59 6.83,1.469 9.25,2.68 l 8.63,-1.93 13.4,3.918 0.92,1.731 c 0.47,0.859 0.78,1.461 1.1,2.09 l 0.04,-0.258 c 0.27,-1.711 0.24,-3.442 -0.11,-5.121 l -1.1,-0.571 -0.69,-1.339 c -1.47,-2.879 -2.77,-5.149 -3.83,-6.731 -1.41,-2.07 -2.55,-4.391 -3.46,-7.098 l -4.15,-14.972 -2.31,-1.391 -12.91,-28.18 -0.42,-1.769 0.07,-2.199 -5.32,-17.86 1.48,-13.172 10.14,-9.777 5.65,3.438 h 6.02 l 2.39,2.351 c 0.84,0.18 2.05,0.399 3.63,0.68 3.18,0.57 6.02,1.512 8.44,2.781 l 1.19,0.918 c 0.46,0.481 1.94,1.75 4.4,3.871" /><path
         id="path68"
         style="fill:#1c3f88;fill-opacity:1;fill-rule:nonzero;stroke:none"
         d="m 3036.54,135.801 -3.62,-0.992 -2.27,7.191 -3.19,0.949 c -0.54,1.18 -1.37,2.41 -2.62,3.621 l 0.09,2.239 -1.81,1.48 c -1.47,1.211 -2.24,1.922 -2.62,2.281 l -1.14,4.25 -3.82,5.16 0.68,8.52 -1.54,1.551 c -2.84,2.82 -3.66,4.027 -3.75,4.027 -0.21,1.043 -0.37,3.543 -0.55,7.551 l -0.12,2.48 -2.9,1.801 c -0.11,0.809 -0.28,1.699 -0.54,2.68 l 2.34,5.441 -3.04,2.231 c -0.7,0.5 -1.17,0.91 -1.52,1.218 l 5.17,3.032 4.24,5.097 4.79,1.743 1.48,0.867 c 3.15,2.75 6.8,6.801 11.13,12.39 l 4.85,1.762 4.72,4.551 26.88,18.617 c 1.27,0.813 2.86,1.52 4.72,2.09 3.58,1.101 6.28,3.601 7.83,7.223 l 1.48,2.578 -2.21,2.25 c -0.02,0.039 -0.47,0.8 -1.04,3.57 l -1.01,4.781 -4.74,-1.179 c -4.95,-1.231 -8.35,-1.993 -10.25,-2.321 l -1.36,-0.222 -1.95,-1.758 -3.44,2.121 -7.46,-6.75 -5.09,-1.863 2.37,-2.168 c -1.09,-1.211 -2.25,-1.922 -3.51,-2.161 l -2.08,-0.41 -2.66,-4.519 -4.08,-2.18 -0.39,-1.18 -4.53,-0.332 -0.94,-2.82 c -1.59,-0.379 -3.24,-1.391 -5.16,-3.141 l -1.32,-1.187 -0.15,-1.32 -4.56,-1.922 -0.42,-1.207 h -1.09 l -1.42,-1.883 c -2.62,-3.508 -4.52,-4.641 -5.42,-5.008 l -2.01,-0.801 -0.47,-1.422 h -0.03 c -1.36,-0.539 -2.58,-1.148 -3.7,-1.878 l -2.61,6.441 0.35,1.059 h 5.42 l -8.1,9.929 -0.18,7.66 -0.64,0.5 1.68,3.012 -1.19,2.277 c -1.38,2.602 -2.31,4.403 -2.71,5.422 l 0.49,5.891 -9.79,1.988 -8.96,-1.879 -0.64,-7.34 -3.24,-4.121 3.87,-7.847 1.01,-8.782 2.22,-9.91 1.96,-12.84 1.62,-1.011 c -0.11,-1.93 0.09,-3.449 0.6,-4.758 l 0.88,-2.231 -0.08,-0.64 c -2.82,-0.692 -6.14,-2.551 -8.34,-7.231 l -2.06,0.789 -3.83,-5.66 -3.31,-1.226 -1.67,-4.961 -3.62,-1.36 -5.36,-8.07 c -3.43,-1.543 -5.91,-3.562 -7.48,-6.351 l -2.13,-0.54 -1.66,-2.628 -2.7,-1.223 -0.66,-1.938 c -0.93,-2.8 -1.8,-3.75 -2,-3.953 -0.09,-0.078 -0.99,-0.84 -4.18,-1.367 l -1.61,-0.59 c -1.12,-0.66 -2.04,-1.422 -2.73,-2.261 l -6.87,0.832 3.08,-6.891 c -0.12,-0.09 -0.26,-0.199 -0.39,-0.301 -2.28,-1.719 -3.9,-3.691 -4.96,-6.32 l -5.71,-1.219 -2.04,-6.039 c -1.37,-1.25 -3.64,-3.684 -7.99,-8.922 l -2.38,-1.148 -9.04,-10.821 c -0.02,-0.031 -0.74,-0.671 -3.63,-1.82 l -1.29,-0.531 -3.95,-5.61 -2.89,-0.308 -8.87,-9.8907 9.38,-9.6524 7.62,8.4805 c 0.69,0.8203 1.49,1.4609 2.54,2 l 5.21,2.9606 1.23,3.668 13.98,13.551 13.45,10.289 0.4,1.172 9.67,6.789 c 3.14,2.223 5.72,5.531 7.67,9.852 l 5.93,2.031 0.87,1.277 c 0.48,0.672 1.33,2.02 2.57,4.031 1.27,2.051 1.91,2.5 2.01,2.551 0.96,0.688 3.29,2.231 6.99,4.629 l 6.85,7.34 7.94,4.059 -0.45,1.679 c 0.82,0.981 2.4,2.723 5.46,5.852 l 3.39,3.91 c 1.05,0.191 2.02,0.41 2.92,0.68 0.2,-0.758 0.43,-1.91 0.58,-3.551 l 1.92,-4.168 3.25,-13.711 0.81,-1.66 -0.26,-2.531 6.36,-10.43 6.02,-14.43 6.51,-8.937 7.81,-1.641 5.34,-6.07 4.18,-1.211 4.86,-3.012 6.39,2.551 c 3.64,-1.258 7.39,-0.34 11,2.851 l 0.95,0.84 3.51,10.45 -17.56,2.351 -4.22,3.18" /><path
         id="path70"
         style="fill:#1c3f88;fill-opacity:1;fill-rule:nonzero;stroke:none"
         d="m 3126.01,224.969 c 1.07,1.972 1.64,2.461 1.63,2.461 l 3.17,2.09 8.11,9.089 3.42,2.879 c 2.55,2.114 3.39,3.051 3.79,3.653 l 1.95,2.789 2.25,-1.289 3.36,4.39 c 4.54,1.5 6.34,1.68 6.92,1.68 l 3,0.801 1.23,1.828 1.92,-0.391 c 0.59,0 1.41,0.051 3.28,0.449 l 1.53,-0.578 c -0.14,-3.058 -0.44,-4.351 -0.6,-4.84 -0.49,-1.41 -1.02,-2.55 -1.62,-3.402 -0.31,-0.457 -1.66,-2.156 -7.77,-8.808 l -1.89,-3.192 c -2.05,-1.769 -2.96,-2.348 -2.83,-2.398 l -2.79,-0.309 -0.99,-3.019 c -2.17,-1.454 -4.12,-2.211 -5.68,-2.211 h -2.26 l -2.83,-3.52 h -2.05 l -4.07,-4.301 -3.97,-0.601 -1.05,-0.969 c -0.68,-0.602 -1,-0.719 -1.18,-0.379 l -3.18,1.289 -2.79,-3.32 c -3.15,-0.738 -6.31,-1.918 -9.45,-3.5 l -0.14,0.058 -0.02,0.313 c 8.58,8.668 10.72,11.598 11.6,13.258 z m 37.38,-67.387 h -3.41 c -2.42,0 -4.72,-0.652 -6.82,-1.973 l -1.05,-0.64 -0.58,-1.071 c -2.36,-4.226 -5.27,-6.539 -8.89,-7.046 l -1.84,-0.262 -1.79,-2.231 c -1.49,-0.539 -3.19,-1.687 -4.94,-3.988 -0.28,-0.16 -1.64,-0.801 -7.72,-2.652 l -1.83,-0.559 -0.46,-0.828 h -2.24 l -4.54,-4.461 c -1.85,-0.723 -4.36,-1.961 -7.71,-3.82 l -6.93,-0.832 -11.73,0.582 -2.7,0.418 0.41,1.211 -4.62,1.441 c -1.98,0.598 -3.61,1.629 -4.98,3.129 -0.16,0.172 -0.27,0.301 -0.36,0.43 l 2.53,3.57 -3.26,1.648 c 0.04,0.391 0.09,0.911 0.21,1.602 0.49,2.879 0.83,4.648 0.95,5.07 l 2.02,5.102 0.49,1.969 2.47,1.679 2.08,11.321 1.71,1.418 c 1.31,1.75 2.77,4.429 4.56,8.39 l 3.4,2.871 0.42,1.239 c 1.15,3.441 3.09,6.25 5.93,8.57 1.96,-0.25 2.6,-0.43 2.49,-0.27 l 4.18,-3.007 8.92,3.5 h 3.52 l 9.52,4.558 c 2.68,-0.64 4.83,-0.57 7.58,2.481 6.06,2.55 13.99,6.918 23.61,13.031 l 1.26,0.808 2.05,5 9.32,8.18 6.55,9.07 2.96,2.02 2.33,10.25 2.24,3.898 c 1.66,4.942 1.88,8.641 1.3,11.422 l 3.96,1.071 -5.84,5.097 0.61,5.25 h -5.29 l -1.2,0.571 -0.01,4.703 h -4.63 l -1.59,1.679 -3.04,-0.582 c -1.6,1.27 -3.32,1.461 -4.2,1.461 -0.85,0 -1,0 -8.05,-2.121 l -1.25,-0.359 -0.88,-0.981 c -0.68,-0.75 -1.25,-1.371 -1.71,-1.828 l -1.85,1.078 -2.57,-2.218 c -5.72,-4.961 -8.51,-6.219 -9.66,-6.532 l -1.55,-0.75 c -2.22,-1.629 -3.92,-3.16 -5.15,-4.609 l -2.09,-0.75 -2.13,-2.512 h -2.84 l -1.09,-3.218 c -0.57,-1.711 -1.63,-3 -4.14,-4.692 -4.64,-4.609 -8.82,-9.598 -12.4,-14.879 -2.55,-1.597 -4.25,-3.539 -5.06,-5.808 -0.79,-0.161 -1.44,-0.301 -1.95,-0.379 l -3.05,8.918 -5.24,-8.352 c -1.6,-2.547 -2.88,-5.199 -3.96,-8.598 l -1.48,-8.878 c -0.53,-0.68 -1.47,-1.68 -2.76,-3.051 l -2.44,-2.571 1.37,-2.332 -1.6,-1.046 -0.41,-1.903 c -0.62,-2.898 -1.06,-5.277 -1.31,-7.148 -1.37,-1.66 -2.43,-3.18 -3.21,-4.531 -0.43,-0.782 -1.07,-1.411 -1.91,-1.95 l -1.74,-1.109 -1,-5.473 -3.79,-6.117 -1.98,-6.109 -3.64,-6.762 -4.36,-11.02 -1.52,-15.75 -1.71,-5.031 1.65,-2.008 c 0.81,-0.992 1.08,-1.543 1.15,-1.543 0,0 0,0.012 0.01,0.024 l 0.3,-5.672 3.37,-2.172 -0.7,-2.09 0.55,-1.527 c 1.6,-4.5 5.84,-7.152 12.61,-7.922 l 1.57,-1.75 h 2.11 c 1.25,0 2.38,0.031 3.36,0.121 2.77,-1.441 6.03,-2.238 11.51,-0.558 l 2.51,-2.532 3.33,2.75 c 1.16,0.981 2.87,2.129 3.73,2.192 l 4.59,-0.703 1.69,1.761 4.55,0.149 3.83,3.152 3.26,-0.383 3.86,4.801 9.4,5.07 5.21,0.77 5.86,6.82 2.86,0.34 1.2,1.75 c 1.93,2.813 4.21,5.449 6.95,8.051 4.37,4.101 5.58,5.851 6.08,7.359 0.75,2.199 0.56,4.871 -0.6,8.403 l -1.07,3.23" /><path
         id="path72"
         style="fill:#1c3f88;fill-opacity:1;fill-rule:nonzero;stroke:none"
         d="m 3366.25,179.922 -1.49,-1.024 c -4.24,-4.218 -7.35,-7.25 -9.75,-9.539 l -3,-3.539 c -0.34,-0.379 -1.18,-1.211 -3.17,-2.468 -2.17,-1.391 -3.71,-2.473 -4.67,-3.27 -1.17,-0.98 -2,-1.82 -2.6,-2.652 l -0.27,-0.59 c -0.88,-0.59 -1.75,-1.238 -2.64,-1.949 -6.34,-1.981 -8.12,-3.121 -9.23,-4.563 l -0.65,-1.207 c -0.36,-0.101 -0.97,-0.242 -1.96,-0.32 l -1.8,-0.192 -1.22,-1.339 c -0.1,-0.122 -0.21,-0.219 -0.3,-0.321 l -0.94,0.672 -2.51,-1.18 c -0.78,-0.371 -1.54,-0.601 -2.28,-0.742 l 0.19,0.602 -1.12,0.758 0.6,0.953 -2.2,3.797 2.01,6.031 -1.59,1.301 c 0.26,2.429 0.18,4.519 -0.23,6.339 l -0.42,1.969 2.7,9.731 0.24,10.992 3.05,12.199 1.27,10.32 3.38,10.469 0.9,9.168 5.01,8.41 -4.51,3.25 1.62,6.922 -2,0.91 0.18,1.789 -2.43,1.43 c 0,0.012 -0.56,0.531 -1.37,2.481 l -1.2,2.921 h -6.45 l -3.12,-3.179 c -5.44,-1.992 -8.55,-3.703 -10.24,-5.66 -1.98,-1.563 -3.6,-3.403 -4.85,-5.532 -4.37,0 -8.43,-2.57 -12.34,-7.851 -3.06,0.25 -5.69,-1.68 -6.7,-4.739 -0.27,-0.761 -0.37,-1.582 -0.27,-2.699 -0.6,-0.312 -1.6,-0.73 -3.2,-1.261 l -2.21,-0.758 -2.09,-6.211 c -0.12,-0.379 -1.04,-2.371 -6.62,-5.449 -1.95,-0.473 -3.5,-1.911 -4.25,-4.063 -0.16,-0.5 -0.35,-1.277 -0.54,-2.937 l -5.81,-7.34 -6.32,-5.383 c -1.71,-1.25 -3.34,-3.027 -4.97,-5.391 -1.93,-0.527 -3.77,-1.59 -5.51,-3.199 -0.67,-0.629 -1.1,-0.937 -1.17,-1.059 h -3.14 l -2.26,-6.742 c -1.76,-1.879 -3.85,-3.699 -6.35,-5.527 l -1.02,-1.031 c -1.07,-1.469 -1.75,-2.27 -2.16,-2.7 l -1.07,-0.628 c -1.73,-1.012 -3.24,-2.532 -4.55,-4.622 -3.41,-0.75 -6.03,-2.8 -7.31,-5.66 -0.45,-0.679 -1.55,-1.281 -3.11,-1.699 l -1.85,-0.519 -2.26,-3.852 0.86,2.82 c 0.37,1.25 1.67,4.41 6.33,11.52 l 0.89,1.359 -0.35,4.071 c 2.86,5.3 3.8,6.421 3.94,6.589 l 1.34,1.332 0.19,6.911 3.41,3.457 4.26,13.921 4.23,6.481 3.49,13.91 3.93,7.91 -1.46,4.68 c 0.94,2.879 1.59,5.008 1.9,6.418 0.48,2.031 0.81,4.351 -0.32,6.359 -1.05,1.793 -2.7,2.672 -8.46,4.532 l -2.97,0.949 -5.77,-6.66 -2.51,-9.438 -2.97,-5.91 -0.91,-4.402 -5.2,-11.219 0.65,-3.168 -2.05,-5.113 0.46,-2.207 -5.42,-11 -1.23,-5.532 c 0,0 -0.38,-0.609 -2.09,-1.679 l -3.02,-1.942 1.04,-3.429 c 0.29,-0.918 0.42,-1.469 0.52,-1.54 l -0.4,-1.171 c -1.82,-5.387 -3.81,-9.387 -5.93,-11.899 l -1.03,-1.219 -0.2,-4.429 -3.87,-4.461 0.23,-8.012 -1.89,-4.488 0.32,-1.321 -1.01,-0.73 -1.14,-4.449 -4.71,-4.891 0.57,-4.328 -0.5,-1.672 2.21,-1.109 c 0,-0.012 0.24,-0.629 0.1,-2.473 -0.67,-8.566 3.94,-10.18 5.95,-10.469 l 0.86,-0.121 0.85,0.192 c 5.76,1.3 9.28,2.769 11.39,4.75 1.92,1.789 3.33,3.769 4.01,5.461 l 0.1,0.199 c 2.34,1.32 4.43,3.539 6.34,6.75 3.68,2.148 6.76,4.18 9.14,6 2.67,2.058 5.74,4.98 8.39,7.992 l 0.86,0.637 c 2.74,0.703 5.19,2.75 7.28,6.121 1.13,1.82 2.19,3.289 3.15,4.371 2.6,0.879 5.6,2.949 7.73,7.551 l 6.72,5.679 h 3.45 l 1.1,3.188 1.86,0.293 6.42,9.148 0.04,2.121 c 3.65,2.688 6.2,4.829 7.76,6.489 1.59,1.711 3.83,4.379 6.57,7.808 l 6.83,7.711 16.56,13.891 4.64,4.34 3.15,2.398 c 0.11,-0.488 0.23,-0.988 0.37,-1.488 -0.11,-0.301 -0.23,-0.602 -0.34,-0.93 -0.38,-1.109 -0.64,-2.64 -0.59,-3.68 l -0.45,-1.3 c -1.28,-3.852 -2.99,-13.641 -5.02,-29.071 l -3.22,-9.597 1.62,-5.153 -3.24,-8.257 0.55,-6.364 -0.1,-1.879 -1.22,-0.609 -1.7,-4.949 0.84,-4.332 -0.45,-1.367 c -1.06,-3.133 -0.45,-6.813 1.86,-11.204 -0.31,-2.507 0.45,-4.308 1.24,-5.457 l 1.41,-2.031 h 1.12 l 2.05,-4.289 2.59,-0.301 0.96,-2.05 4.93,0.761 3.2,-0.39 8.7,1.429 c 1.26,0.27 2.4,0.66 3.61,1.239 l 4.13,2.23 5.98,1.133 3.13,3.668 c 1.96,0.43 3.64,1.39 4.94,2.82 0.98,0.352 2.05,0.981 3.06,2.129 3.23,0.992 6.85,3.211 9.27,7.981 l 4.08,1.23 0.91,2.23 c 0.03,0.059 0.72,1.649 5.66,5.829 5.53,4.66 7.24,6.75 7.97,8.472 2.89,1.641 5.75,4.028 6.05,7.59 l 1.21,9.91 h -8.43 l -7.15,-2.609" /><path
         id="path74"
         style="fill:#1c3f88;fill-opacity:1;fill-rule:nonzero;stroke:none"
         d="m 3584.2,198.371 13.91,39.57 -0.38,1.379 c -1.77,6.442 -1.72,8.282 -1.76,8.282 l 0.87,2.597 -2.54,2.84 c -0.07,1.301 -0.49,2.32 -0.94,3.031 -0.34,0.559 -0.98,1.36 -2.03,2 -1.93,3.551 -4.4,5.328 -7.39,5.328 -1.38,0 -3.1,-0.289 -11.49,-4.078 l -3.34,-1.492 0.07,-0.406 c -1.17,-0.344 -2.26,-0.793 -3.29,-1.371 l -3.78,-0.422 -2.27,-3.238 -2.97,-1.09 -0.83,-1.672 c -0.29,-0.57 -0.61,-1.109 -0.95,-1.629 l -9.45,-5.852 -0.54,-1.609 c -0.88,-2.57 -1.77,-2.84 -2.53,-3.027 h -3.02 l -1.09,-2.371 c -0.71,-0.332 -1.57,-0.789 -2.7,-1.422 l -1.59,-0.879 -0.19,-0.61 h -2.76 l -0.52,-2.558 h -1.61 l -2.03,-4.934 -3.18,-0.687 -0.8,-2.352 -1.21,-0.668 -0.59,-1.769 c -0.83,-2.5 -1.92,-2.641 -2.56,-2.731 l -2.91,-0.402 -1.33,-4.02 c -0.08,-0.238 -0.26,-0.73 -1.32,-1.168 l -3.65,-2.851 -0.06,0.129 -7.92,-5.219 -3.35,-3.59 1.27,-1.859 -0.39,-0.93 c -2.39,-2.152 -4.02,-3.91 -4.98,-5.41 l -2.55,-3.742 c -4.93,-5.699 -6.04,-6.571 -5.8,-6.59 l -1.97,-0.809 -0.68,-2.031 c -0.47,-1.418 -1.38,-2.988 -4.45,-3.82 l -1.72,-0.457 -5.66,-8.59 -2.61,-3.172 c -0.09,0.238 -0.19,0.48 -0.29,0.73 l 5.41,8.079 3.83,9.972 2.1,3.09 0.03,3.859 2.39,3.161 5.13,11.211 2.47,2.117 0.3,3.769 7.89,21.352 -0.43,1.719 3.96,6.461 2.23,8.949 3.14,5.66 1.54,5.461 2.76,3.879 0.76,8.601 5.05,16.059 4.23,11.25 -1.04,1.07 1.14,1.063 -0.17,6.648 2.57,4.129 -1.49,2.449 c -1.29,2.16 -1.55,3.082 -1.58,3.082 0,0 -0.01,0 -0.01,-0.011 l -0.03,5.461 -3.01,3.73 c 0.13,2.09 -0.52,3.578 -1.21,4.559 -0.95,1.32 -2.82,2.89 -6.38,2.89 l -6.19,-0.961 1.1,-3.347 -5.29,-5.039 0.55,-2.582 c 0.81,-3.739 1.08,-7.829 0.86,-11.622 l -1.96,-11.019 0.24,-2.699 -2.09,-6.578 -1.17,-12.09 h -3.56 l 0.41,-9.692 -3.37,-10.89 -3.3,-4.282 1.57,-2.289 -4.17,-9.769 0.23,-1.289 -1.29,-1.742 -0.65,-4.93 -2.93,-4.348 -5.83,-12.531 0.02,-0.211 -1.33,-0.598 -14.91,-36.66 -2.13,-0.722 -3.91,-12.981 -3.18,-6.539 -1.06,-5.988 -5.62,-19.09 -0.8,-11.699 1.33,-6.133 h 3.8 l 4.86,-1.668 2.29,2.687 c 0.69,0.84 2.97,3.122 10.79,9.473 l 8.91,9.899 2.98,4.23 h 2.02 l 4.4,10.77 8.1,5.75 5.27,9.14 3.35,2.36 1.26,1.332 c 2.19,3.468 3.01,4.226 3.25,4.437 l 7.22,6.391 8.13,12.422 c 1.36,2.226 2.76,3.937 3.89,4.839 l 4.73,3.36 1.72,2.008 h 3.18 l 1.07,3.211 11.35,12.261 3.97,0.93 13.95,13.32 5.81,2.129 c 1.81,0.789 3.41,1.621 4.78,2.539 l 3.72,2.571 -1.03,-10.36 -2.14,-3.371 -1.53,-11.359 -9.43,-27.059 -2.91,-3.562 -0.28,-5.688 -2.18,-4.351 -1.56,-4.668 -2.24,-3.313 -1.86,-8.508 -4.97,-6.461 0.94,-2.468 c 0.83,-2.133 0.99,-3.922 0.47,-5.422 -0.64,-1.93 -1.27,-3.539 -2.15,-5.43 l -1.24,-4.031 -1.09,-10.039 c -0.57,-4.848 0.19,-8.34 2.28,-10.68 1.1,-1.25 3.1,-2.719 6.37,-2.719 6.93,0 12.03,3.797 14.32,10.68 0.7,2.07 1.12,3.758 1.3,5.051 l 0.43,3.218 -1.73,0.942 0.69,2.058 -2.01,4.192 c 0.98,4.027 1.38,6.687 1.26,8.648 l 3.68,7.641 4.06,14.051 2.35,4.91 8.34,24.879 -0.24,3.07" /><path
         id="path76"
         style="fill:#1c3f88;fill-opacity:1;fill-rule:nonzero;stroke:none"
         d="m 3680.54,232.18 -2.8,-0.309 -0.99,-3.019 c -2.17,-1.454 -4.11,-2.211 -5.67,-2.211 h -2.27 l -2.82,-3.52 h -2.05 l -4.07,-4.301 -3.98,-0.601 -1.04,-0.969 c -0.68,-0.602 -1.01,-0.719 -1.18,-0.379 l -3.18,1.289 -2.8,-3.32 c -3.13,-0.738 -6.31,-1.918 -9.44,-3.5 l -0.14,0.058 -0.02,0.313 c 8.58,8.668 10.72,11.598 11.6,13.258 1.07,1.972 1.64,2.461 1.63,2.461 l 3.17,2.09 8.11,9.089 3.42,2.879 c 2.55,2.114 3.39,3.051 3.78,3.653 l 1.96,2.789 2.25,-1.289 3.35,4.39 c 4.55,1.5 6.35,1.68 6.93,1.68 l 3,0.801 1.23,1.828 1.92,-0.391 c 0.59,0 1.41,0.051 3.29,0.449 l 1.52,-0.578 c -0.15,-3.058 -0.44,-4.351 -0.61,-4.84 -0.47,-1.41 -1.02,-2.55 -1.61,-3.402 -0.31,-0.457 -1.66,-2.156 -7.77,-8.808 l -1.9,-3.192 c -2.04,-1.769 -2.94,-2.348 -2.82,-2.398 z m 37.1,28.711 -5.84,5.097 0.61,5.25 h -5.29 l -1.2,0.571 -0.01,4.703 h -4.63 l -1.59,1.679 -3.03,-0.582 c -1.61,1.27 -3.33,1.461 -4.2,1.461 -0.86,0 -1.01,0 -8.07,-2.121 l -1.24,-0.359 -0.89,-0.981 c -0.68,-0.75 -1.24,-1.371 -1.71,-1.828 l -1.83,1.078 -2.58,-2.218 c -5.72,-4.961 -8.51,-6.219 -9.66,-6.532 l -1.55,-0.75 c -2.22,-1.629 -3.92,-3.16 -5.16,-4.609 l -2.09,-0.75 -2.13,-2.512 h -2.83 l -1.08,-3.218 c -0.58,-1.711 -1.64,-3 -4.14,-4.692 -4.65,-4.609 -8.83,-9.598 -12.41,-14.879 -2.56,-1.597 -4.25,-3.539 -5.07,-5.808 -0.78,-0.161 -1.44,-0.301 -1.94,-0.379 l -3.05,8.918 -5.24,-8.352 c -1.6,-2.547 -2.88,-5.199 -3.96,-8.598 l -1.48,-8.878 c -0.53,-0.68 -1.46,-1.68 -2.76,-3.051 l -2.43,-2.571 1.36,-2.332 -1.6,-1.046 -0.41,-1.903 c -0.61,-2.898 -1.05,-5.277 -1.32,-7.148 -1.36,-1.66 -2.43,-3.18 -3.2,-4.531 -0.43,-0.782 -1.07,-1.411 -1.91,-1.95 l -1.74,-1.109 -1.01,-5.473 -3.78,-6.117 -1.98,-6.109 -3.64,-6.762 -4.36,-11.02 -1.52,-15.75 -1.71,-5.031 1.64,-2.008 c 0.82,-0.992 1.09,-1.543 1.16,-1.543 0,0 0,0.012 0.01,0.024 l 0.3,-5.672 3.37,-2.172 -0.7,-2.09 0.55,-1.527 c 1.6,-4.5 5.84,-7.152 12.61,-7.922 l 1.58,-1.75 h 2.11 c 1.24,0 2.37,0.031 3.36,0.121 2.77,-1.441 6.02,-2.238 11.5,-0.558 l 2.51,-2.532 3.33,2.75 c 1.16,0.981 2.87,2.129 3.73,2.192 l 4.59,-0.703 1.69,1.761 4.55,0.149 3.83,3.152 3.25,-0.383 3.87,4.801 9.4,5.07 5.22,0.77 5.86,6.82 2.85,0.34 1.2,1.75 c 1.93,2.813 4.2,5.449 6.95,8.051 4.38,4.101 5.58,5.851 6.09,7.359 0.73,2.199 0.55,4.871 -0.61,8.403 l -1.06,3.23 h -3.42 c -2.42,0 -4.72,-0.652 -6.82,-1.973 l -1.04,-0.64 -0.59,-1.071 c -2.35,-4.226 -5.26,-6.539 -8.89,-7.046 l -1.84,-0.262 -1.79,-2.231 c -1.48,-0.539 -3.19,-1.687 -4.94,-3.988 -0.27,-0.16 -1.64,-0.801 -7.72,-2.652 l -1.83,-0.559 -0.47,-0.828 h -2.23 l -4.54,-4.461 c -1.85,-0.723 -4.36,-1.961 -7.71,-3.82 l -6.93,-0.832 -11.73,0.582 -2.7,0.418 0.41,1.211 -4.62,1.441 c -1.98,0.598 -3.61,1.629 -4.98,3.129 -0.16,0.172 -0.27,0.301 -0.37,0.43 l 2.54,3.57 -3.26,1.648 c 0.04,0.391 0.09,0.911 0.21,1.602 0.49,2.879 0.83,4.648 0.95,5.07 l 2.02,5.102 0.49,1.969 2.47,1.679 2.08,11.321 1.71,1.418 c 1.31,1.75 2.77,4.429 4.56,8.39 l 3.4,2.871 0.42,1.239 c 1.14,3.441 3.09,6.25 5.92,8.57 1.97,-0.25 2.61,-0.43 2.5,-0.27 l 4.18,-3.007 8.92,3.5 h 3.52 l 9.52,4.558 c 2.68,-0.64 4.83,-0.57 7.59,2.481 6.05,2.55 13.98,6.918 23.6,13.031 l 1.26,0.808 2.05,5 9.33,8.18 6.54,9.07 2.96,2.02 2.33,10.25 2.24,3.898 c 1.66,4.942 1.88,8.641 1.3,11.422 l 3.96,1.071" /><path
         id="path78"
         style="fill:#1c3f88;fill-opacity:1;fill-rule:nonzero;stroke:none"
         d="m 3838.17,250.922 -12.71,-0.031 -1.51,-0.282 -5.74,0.313 -21.99,-0.953 -24.09,1.011 -5.12,-2.941 H 3767 l 0.01,1.449 3.67,3.59 -1.01,2.934 3.83,8.199 1.04,8.051 4.24,4.367 0.87,3.922 2.36,5.16 -0.83,1.18 c 0.3,0.679 0.8,1.57 1.66,2.75 l 0.95,2.218 c 0.69,2.012 0.88,4.461 0.6,7.411 l 1.24,1.679 0.81,1.672 c 1.45,4.457 -2.69,6.84 -10.23,11.141 l -3.62,1.84 -2.52,-3.141 c -0.49,-0.621 -1.82,-1.859 -3.94,-3.75 l -6.53,-10.641 c -0.6,-1.781 -0.43,-3.621 0.45,-5.172 0.07,-0.109 0.14,-0.226 0.22,-0.328 l -0.57,-1 1.57,-4.371 -5.6,-14.668 1.52,-1.051 -4.05,-2.371 0.56,-7.589 -4.06,-10.911 h -10.15 l -5.24,1.743 -4.4,-0.723 -6.66,0.922 -6.67,-8.442 2.58,-2.359 -0.88,-2.191 c -1.02,-3.047 -0.8,-5.618 0.64,-7.629 0.95,-1.309 2.81,-2.879 6.31,-2.879 h 0.91 l 4.57,-4.27 6.45,1.457 2.08,-1.129 -2.39,-7.097 -2.26,-1.223 -0.66,-4.93 -2.47,-5.621 -0.4,-5.008 -2.28,-4.171 0.22,-1.469 -3.57,-2.141 -0.8,-7.051 -3.52,-5.046 1.82,-3.411 -2.13,-3.652 -2.79,-17.328 0.78,-15.652 2.8,-5.809 3.6,-9.148 12.16,-8.543 4.14,0.101 7.2,-1.371 c 3.98,0 8.04,0.742 12.12,2.25 l 3.37,-2.359 6.27,3.09 10.74,1.199 6.54,3.64 1.96,-0.871 2.05,1.133 c 4.62,2.559 7.23,5.059 8.22,7.938 0.61,1.871 0.87,4.812 -1.47,8.269 l -1.15,1.711 -7.51,1.133 -12.93,-5.102 -3.85,1.301 -17.91,-3.75 -8.68,1.66 -2.81,4.559 -3.98,0.91 -0.03,0.891 -1.28,1.328 c -2.61,2.691 -2.48,4.5 -2.01,5.91 l 0.84,2.512 -1.18,8.179 1.77,5.461 1.1,6 4.14,13.34 5.33,12.91 2.39,9.071 5.85,14.757 2.37,1.813 1.41,0.168 c 2.01,-1.379 4.52,-2 7.57,0.719 3.84,-0.348 5.39,-0.731 5.89,-0.879 l 3.36,-1.059 2.49,3.719 10.98,0.648 3.92,2.762 4.88,-0.84 c 4.54,0 9.47,1.141 14.67,3.399 l 6.96,0.371 6.33,-1.379 1.64,1.07 c 0.87,0.539 1.64,0.848 1.75,1.309 l 1.68,-1.41 2.15,0.371 c 7.01,1.179 9.59,4.711 10.52,7.449 1.07,3.18 0.01,5.32 -0.71,6.332 -0.91,1.258 -2.72,2.75 -6.22,2.75" /><path
         id="path80"
         style="fill:#1c3f88;fill-opacity:1;fill-rule:nonzero;stroke:none"
         d="m 4095.22,214.102 4.88,4.789 4.5,7.648 5.45,4.563 10.67,17.718 1.11,3.84 3.58,6.57 -3.27,5.02 0.93,6.379 -4.13,0.5 0.01,0.23 -7.5,3.371 -1.67,-0.492 c -2.58,-0.758 -6.04,-2.898 -8.01,-8.769 -1.52,-4.539 -2.36,-10.668 -2.58,-18.688 l -6.01,-8.633 -8.17,-7.699 -0.42,-3.238 c -3.99,-3.941 -6.67,-7.289 -8.12,-10.191 l -8.55,-10.02 -4.12,-2.578 h -1.66 l -2.85,-8.473 c -0.19,-0.597 -1.34,-2.789 -7.69,-6.129 l -1.66,-0.89 -1.82,-5.379 -4.55,-1.973 -4.91,-7.539 -4.39,-2.789 -16.74,-20.051 -1.89,19.262 -1.71,4.859 1.1,4.969 -0.76,16.16 -0.97,1.27 0.59,1.761 -2.5,10.559 0.98,2.883 0.39,8.058 2.4,4.301 -0.47,1.848 c -0.98,3.699 -0.92,3.812 -0.92,3.832 l 1.45,8.289 -0.53,1.262 c -1.26,3.047 -2.59,5.699 -4.01,7.91 l -1.57,2.5 -10.43,-1.192 -1.2,-1.468 c -2.61,-3.153 -4.28,-5.864 -5.12,-8.371 -0.69,-2.11 -0.95,-4.25 -0.75,-6.379 l -1.5,-2.473 -4.36,-3.641 0.23,-0.488 -0.32,-0.379 -3.59,1.449 -1.04,-8.871 -3.18,-2.91 -0.41,-2.179 h -1.49 c -2.2,0 -4.1,-1.168 -5.69,-3.481 l -1.39,-4.41 c -0.7,-0.539 -1.37,-1.18 -1.92,-1.957 -2.25,-0.563 -4.06,-2.012 -5.15,-4.113 l -3.13,2.242 -2.03,-6.039 c -0.18,-0.532 -0.8,-1.211 -2.32,-2.422 -2.68,-2.84 -4.52,-5.75 -5.43,-8.531 -0.02,0 -0.52,-0.938 -3.29,-2.329 l -1.72,-0.859 -0.61,-1.832 c -0.49,-1.469 -0.9,-2.277 -1.17,-2.707 h -1.04 l -22.44,-24.594 -0.71,0.852 c 0.51,2.801 0.87,6.539 1.12,11.269 l 2.73,8.129 -2.05,4.043 2.53,14.559 -0.7,10.18 1.63,10.3 1.68,3.34 1.44,16.57 2.52,5.321 -1.48,6.269 1.78,2.899 0.15,3.519 2.91,5.59 -2.03,2.133 0.87,8.641 h -5.17 l -1.18,3.769 -8.74,-1.742 c -2.5,-0.32 -4.1,-2.09 -5.09,-3.68 l -6.62,-1.75 1.38,-17.168 0.45,-0.203 c -0.46,-2.199 -0.34,-4.68 0.38,-7.527 0.69,-2.77 0.57,-3.711 0.57,-3.711 l -0.8,-5.09 0.24,-8.859 -0.34,-2.539 -3.31,-7.602 2.27,-6.961 0.19,-8.059 -1.08,-3.191 0.21,-8.898 -1.98,-4.551 1.76,-3.141 -1.75,-10.199 -0.38,-14.27 -2.09,-7.058 0.95,-6.012 -1.37,-9.281 1.22,-3.25 -0.79,-4.508 3.71,-1.531 1.22,-3.891 4.68,1.789 c 2.45,0.922 3.44,1.203 3.21,1.492 l 4.72,-0.652 2.27,4.992 5.29,7.52 3.84,4.148 2.15,5.293 c 0.16,0.239 1.28,1.938 9.18,11.778 l 1.74,3.152 10.55,9.711 6.5,9.758 7.76,6.672 10.79,10.898 8.2,5.52 7.86,8.359 2.36,-13.777 2.69,-25.571 1.3,-3.293 0.49,-9.949 -1.19,-3.57 2.56,-11.02 -0.5,-17.879 2.08,-1.441 c 1.83,-1.289 4.11,-2.52 6.81,-3.68 l 2.6,-1.109 2.19,1.762 c 1.48,1.187 3.46,3.679 7.84,11.347 l 16.9,19.86 9.45,12.5 8.74,9.871 2.99,4.371 14.96,15.519 10.01,11.461 9.33,12.571" /><path
         id="path82"
         style="fill:#1c3f88;fill-opacity:1;fill-rule:nonzero;stroke:none"
         d="m 4149.2,224.98 c 1.05,1.961 1.61,2.43 1.63,2.45 l 3.16,2.09 8.09,9.089 3.42,2.879 c 2.51,2.071 3.36,3.012 3.89,3.801 l 1.83,2.66 2.27,-1.308 3.35,4.39 c 4.55,1.5 6.35,1.68 6.93,1.68 h 2.48 l 1.41,2.039 c 0.16,0.25 0.3,0.43 0.42,0.57 l 1.84,-0.371 c 0.59,0 1.41,0.051 3.29,0.449 l 1.52,-0.578 c -0.15,-3.109 -0.46,-4.39 -0.61,-4.851 -0.48,-1.379 -1.02,-2.52 -1.61,-3.391 -0.32,-0.457 -1.66,-2.156 -7.77,-8.808 l -1.89,-3.18 c -2.11,-1.82 -2.98,-2.371 -2.8,-2.41 l -2.79,-0.328 -1.01,-2.981 c -2.15,-1.461 -4.12,-2.23 -5.71,-2.23 h -2.25 l -2.82,-3.52 h -2.05 l -4.07,-4.301 -3.97,-0.601 -1.05,-0.969 c -0.67,-0.602 -1,-0.719 -1.19,-0.379 l -3.16,1.289 -2.81,-3.32 c -3.13,-0.738 -6.31,-1.918 -9.44,-3.5 l -0.14,0.058 -0.03,0.313 c 8.57,8.641 10.72,11.578 11.64,13.269 z m 37.33,-67.398 h -3.39 c -2.4,0 -4.7,-0.652 -6.81,-1.953 l -1.05,-0.641 -0.6,-1.09 c -2.34,-4.226 -5.25,-6.539 -8.87,-7.046 l -1.84,-0.262 -1.8,-2.231 c -1.49,-0.539 -3.2,-1.679 -4.95,-4 -0.28,-0.148 -1.66,-0.8 -7.7,-2.64 l -1.85,-0.559 -0.46,-0.828 h -2.23 l -4.54,-4.461 c -1.85,-0.723 -4.36,-1.961 -7.71,-3.82 l -6.94,-0.832 -11.71,0.582 -2.71,0.418 0.4,1.211 -4.61,1.441 c -1.98,0.598 -3.61,1.629 -4.98,3.129 -0.15,0.172 -0.27,0.301 -0.38,0.441 l 2.5,3.539 -3.22,1.661 c 0.04,0.39 0.09,0.91 0.2,1.578 0.49,2.832 0.82,4.609 0.97,5.101 l 2.02,5.102 0.49,1.969 2.47,1.679 2.07,11.321 1.73,1.437 c 1.3,1.762 2.79,4.5 4.56,8.371 l 3.38,2.871 0.42,1.231 c 1.15,3.449 3.1,6.258 5.94,8.578 1.96,-0.25 2.59,-0.43 2.5,-0.27 l 4.18,-3.007 8.91,3.5 h 3.52 l 9.52,4.558 c 2.64,-0.64 4.83,-0.57 7.58,2.481 6.06,2.55 13.99,6.918 23.61,13.031 l 1.27,0.808 2.03,5 9.33,8.18 6.55,9.07 2.96,2.02 2.32,10.238 2.25,3.91 c 1.66,4.922 1.88,8.614 1.3,11.403 l 4.07,1.078 -5.95,5.109 0.61,5.25 h -5.28 l -1.2,0.571 -0.01,4.703 h -4.64 l -1.61,1.66 -3.02,-0.563 c -1.6,1.27 -3.33,1.461 -4.21,1.461 -0.84,0 -0.99,0 -8.05,-2.121 l -1.25,-0.359 -0.88,-0.981 c -0.69,-0.75 -1.26,-1.379 -1.73,-1.859 l -1.88,1.07 -2.52,-2.179 c -5.93,-5.129 -8.72,-6.289 -9.65,-6.532 l -1.52,-0.738 c -2.26,-1.641 -3.97,-3.172 -5.2,-4.621 l -2.08,-0.75 -2.13,-2.512 h -2.84 l -1.07,-3.218 c -0.58,-1.711 -1.63,-3 -4.15,-4.692 -4.66,-4.609 -8.82,-9.598 -12.41,-14.879 -2.52,-1.597 -4.22,-3.539 -5.03,-5.789 -0.81,-0.172 -1.45,-0.32 -1.97,-0.398 l -3.04,8.918 -5.25,-8.352 c -1.59,-2.508 -2.85,-5.168 -3.94,-8.598 l -1.51,-8.851 c -0.35,-0.457 -1.12,-1.391 -2.74,-3.07 l -2.46,-2.559 1.38,-2.352 -1.6,-1.046 -0.41,-1.903 c -0.6,-2.898 -1.05,-5.277 -1.32,-7.148 -1.36,-1.66 -2.43,-3.18 -3.22,-4.563 -0.4,-0.738 -1.04,-1.379 -1.9,-1.918 l -1.73,-1.109 -1.01,-5.473 -3.78,-6.117 -1.99,-6.109 -3.63,-6.762 -4.36,-11.02 -1.53,-15.769 -1.67,-4.992 1.61,-2.008 c 0.82,-1 1.1,-1.551 1.14,-1.551 0,0 0,0 0,0.012 l 0.33,-5.684 3.38,-2.179 -0.71,-2.071 0.54,-1.527 c 1.61,-4.5 5.84,-7.152 12.61,-7.922 l 1.56,-1.75 h 2.12 c 1.26,0 2.39,0.031 3.38,0.121 2.76,-1.441 6.1,-2.219 11.5,-0.558 l 2.51,-2.532 3.32,2.75 c 1.67,1.399 3.21,2.129 3.74,2.192 l 4.58,-0.703 1.7,1.761 4.55,0.149 3.82,3.152 3.26,-0.383 3.86,4.801 9.39,5.07 5.24,0.77 5.86,6.82 2.85,0.34 1.2,1.75 c 1.94,2.84 4.22,5.473 6.93,8.039 4.41,4.113 5.61,5.863 6.14,7.41 0.72,2.231 0.5,4.903 -0.65,8.371 l -1.08,3.223" /><path
         id="path84"
         style="fill:#1c3f88;fill-opacity:1;fill-rule:nonzero;stroke:none"
         d="m 4285.33,318.59 -4.24,4.922 0.16,5.718 -1.72,1.469 c -0.89,0.75 -2.3,1.75 -4.14,1.75 -1.08,0 -2.07,-0.277 -4.63,-1.301 -1.45,-0.578 -2.79,-1.078 -4.02,-1.468 l -2.04,-0.621 -7.48,-16.821 -0.55,-4.34 -3.98,-9.117 c -2.01,-4.64 -3,-9.133 -2.92,-13.371 l -6.03,-15.23 -4.82,-15.258 -1.41,-1.934 -4.29,-12.109 c -0.84,-2.539 -2.26,-4.66 -4.3,-6.488 l -1.44,-1.289 -0.43,-7.071 -3.6,-4.781 -1.69,-6.301 -4.44,-10.687 -5.98,-2.5 2.38,-4.551 c 0.58,-1.109 0.49,-1.75 0.35,-2.199 -0.34,-0.973 -2.42,-5.864 -6.23,-14.703 l -0.68,-1.539 0.48,-1.629 c 0.64,-2.192 0.39,-3.012 -0.31,-3.789 l -9.37,-25.122 0.91,-2.011 -3.1,-12.219 0.77,-1.48 c 0.94,-1.848 1.49,-4.122 1.65,-6.77 l 0.11,-1.609 2.69,-3.082 1.78,-5.161 h 6.4 l 4.26,1.422 c 0.9,0.231 3.21,1.02 6.95,2.371 4.09,1.508 5.66,1.629 7.02,1.629 h 2.46 l 1.4,2 5.55,1.629 0.99,1.36 c 0.92,1.261 2.02,1.832 3.7,1.902 l 1.35,0.051 1.11,0.75 c 3.05,2.058 5.05,3.468 6.01,4.179 0.03,0.028 0.72,0.481 3.2,1.039 l 1.57,0.668 c 8.45,5.653 12.4,8.582 14.34,10.364 3.21,0.718 6.61,2.886 10.33,6.578 2.44,1.109 4.29,3.469 5.5,7.039 0.95,2.871 0.05,5.891 -2.45,8.09 l -2.59,2.269 -2.54,-1.519 -0.35,0.832 -4.27,-1.699 c -2.01,-0.793 -3.53,-1.864 -4.55,-3.192 -1.71,-0.91 -3.65,-2.14 -5.88,-3.75 -2.01,-1.449 -3.16,-2.308 -2.63,-2.148 l -3.58,-0.973 -4.47,-2.398 -4.56,-1.219 -0.5,-0.672 -1.56,0.219 -2.8,-2.199 c -2.84,-0.461 -5.31,-1.649 -7.34,-3.5 -2.34,-0.68 -3.88,-1.34 -4.81,-2.008 l -4.37,-2.864 -0.77,0.09 c -1.37,0 -3.25,-0.359 -7.48,-2.019 v 5.48 l 1.7,2.922 -0.33,3.668 2.47,4.891 -0.2,3.101 c 1.55,1.938 2.1,3 2.4,3.899 0.88,2.601 1.3,4.91 1.28,6.929 l 1.72,1.012 -0.89,4.18 3.73,7.969 4.43,7.761 -0.46,2.391 6.47,14.367 0.89,7.063 c 4.45,6.796 5.59,9.046 6.11,10.347 l 6.82,15.071 0.86,3.941 c 1.41,1.84 2.3,3.379 2.76,4.758 0.34,0.992 0.44,2.179 0.34,4.051 l 7.15,10.16 -4.2,1.281 c 1.27,2.961 3.42,6.129 6.44,9.391 l 2.01,2.199 -1.35,3.32 5.05,7.617 -0.02,1.461 c -0.02,0.91 0.22,3.949 2.64,12.371 l 0.19,0.68 c 1.94,1.98 3.01,4.719 3.56,6.102 l 0.51,1.32 -0.29,1.367 c -0.12,0.57 -0.1,1.063 0.05,1.52 l 6.08,5.781" /><path
         id="path86"
         style="fill:#1c3f88;fill-opacity:1;fill-rule:nonzero;stroke:none"
         d="m 4380.66,303.23 -10.65,4.18 -5.63,-1.379 -6.22,1.16 -4.76,-12.293 1.72,-3 -3.11,-9.226 0.91,-0.332 c -0.19,-0.852 -0.24,-1.738 -0.16,-2.629 l -0.99,-1.852 -1.1,-4.488 -4.66,-3.98 1.77,-3.86 -2.41,-4.011 0.14,-4.18 -7.19,-5.352 3.92,-2.297 -0.67,-2.031 0.21,-1.789 c -1.66,-1.973 -2.66,-3.633 -3.01,-4.973 l -2.25,-3.589 0.25,-2.77 -2.76,-9.051 -4.73,-7.129 2.94,-1.937 -4.33,-9.152 0.07,-4.141 -2.96,-4.059 -0.03,-1.461 c -0.04,-1.48 -0.43,-4.929 -1.92,-12.379 l -1.88,-5.601 h -0.01 l 0.01,-0.008 -0.54,-1.582 c -1.19,-3.551 -2.13,-7.578 0.02,-10.551 1.15,-1.597 3.01,-2.527 5.08,-2.527 3.96,0 7.09,2.269 8.38,6.098 0.3,0.921 0.43,1.882 0.37,2.863 1.26,1.019 2.2,2.359 2.75,3.988 0.44,1.301 0.71,2.641 0.83,3.988 l 1.26,0.403 2.85,9.058 -0.52,2.7 2.73,3.589 0.55,7.192 4.72,8.242 -0.87,3.43 11.17,29.008 c 0.73,1.98 2.04,4 3.86,6 l 2.03,2.218 -1.42,3.41 1.65,2.383 0.83,2.219 c 0.29,3 0.5,4.852 0.79,5.078 l 4.72,0.754 -0.85,4.918 2.01,3.41 -0.49,0.84 1.39,1.559 0.66,8.55 c 1.34,1.36 2.39,2.711 3.17,4.102 l 3.02,3.289 -0.66,8.98" /><path
         id="path88"
         style="fill:#1c3f88;fill-opacity:1;fill-rule:nonzero;stroke:none"
         d="m 4328.79,141.699 -1.52,0.871 c -2.95,1.719 -4.29,2.239 -5.74,2.239 l -2.77,-0.137 c -0.31,0.148 -0.65,0.308 -1.01,0.476 l -2.52,1.192 -2.27,-1.641 c -0.55,-0.418 -1.24,-0.937 -2.29,-1.808 h -1.16 l -4.72,-3.481 -4.2,-6.328 -1.42,-14.312 h 7.16 l 3.48,-2.04 5.22,1.79 4.72,-1.469 9.43,5.859 -0.23,2.879 c -0.03,0.402 -0.04,0.723 -0.04,0.973 l 1.66,0.687 0.16,2.973 c 0.16,3.226 -0.3,6.457 -1.37,9.609 l -0.57,1.668" /></g></g></svg>