<?xml version="1.0" encoding="utf-8"?>
<!-- Generator: Adobe Illustrator 28.0.0, SVG Export Plug-In . SVG Version: 6.00 Build 0)  -->
<svg version="1.1" id="Layer_1" xmlns="http://www.w3.org/2000/svg" xmlns:xlink="http://www.w3.org/1999/xlink" x="0px" y="0px"
	 viewBox="0 0 267.9 43.6" style="enable-background:new 0 0 267.9 43.6;" xml:space="preserve">
<style type="text/css">
	.st0{fill:#000000;}
</style>
<path class="st0" d="M51.7,9.2l7.4,20.1l7.4-20.1h4.1l-9.2,24.5h-4.8L47.5,9.2H51.7L51.7,9.2z"/>
<path class="st0" d="M78.1,2.6c0,1.5-1.1,2.6-2.6,2.6S73,4,73,2.6C73,1.1,74.1,0,75.5,0S78.1,1.1,78.1,2.6z M77.5,9.1v24.5h-3.9V9.1
	H77.5z"/>
<path class="st0" d="M107.1,21.5c0,7.5-5,12.6-11.8,12.6c-4.1,0-6.9-1.7-8.4-4l-0.5,3.8h-3.4V0h3.9v13.1c1.6-2.3,4.3-4.2,8.4-4.2
	C102.1,8.9,107.1,13.5,107.1,21.5z M103,21.5c0-5.3-3.3-9.1-8.1-9.1c-4.9,0-8.1,3.7-8.1,9c0,5.2,3.3,9.1,8.1,9.1
	C99.7,30.5,103,26.8,103,21.5L103,21.5z"/>
<path class="st0" d="M122.4,8.9c6.7,0,11.5,4.4,11.6,11.6c0,0.5,0,1.1-0.1,1.7h-19.1v0.3c0.1,4.8,3.2,7.9,7.7,7.9c3.5,0,6.2-1.8,7-5
	h4c-1,4.9-5,8.5-10.7,8.5c-7.4,0-12.2-5.1-12.2-12.6C110.7,13.9,115.4,8.9,122.4,8.9L122.4,8.9z M129.9,18.9
	c-0.4-4.2-3.4-6.6-7.5-6.6c-3.6,0-6.9,2.6-7.3,6.6H129.9L129.9,18.9z"/>
<path class="st0" d="M169.1,9.2v23.3c0,7.1-3.8,11.1-12.2,11.1c-6.3,0-10.6-2.9-11.3-8.3h4c0.7,3.1,3.4,4.8,7.5,4.8
	c5.2,0,7.9-2.4,7.9-7.7v-2.9c-1.6,2.8-4.3,4.5-8.4,4.5C150,34,145,29.4,145,21.5c0-7.5,5-12.6,11.8-12.6c4.1,0,6.9,1.8,8.4,4.5
	l0.5-4.2H169.1L169.1,9.2z M165.2,21.5c0-5.4-3.3-9.1-8.1-9.1c-4.8,0-8.1,3.7-8.1,9.1c0,5.3,3.3,9.1,8.1,9.1
	C162,30.5,165.2,26.8,165.2,21.5L165.2,21.5z"/>
<path class="st0" d="M187,9.2V13h-2c-5.2,0-6.5,4.3-6.5,8.2v12.5h-3.9V9.2h3.4l0.5,3.7c1.2-1.9,3-3.7,7.4-3.7H187z"/>
<path class="st0" d="M188.3,21.5c0-7.5,5-12.6,12.2-12.6s12.2,5.1,12.2,12.6c0,7.5-5,12.6-12.2,12.6S188.3,28.9,188.3,21.5z
	 M208.6,21.5c0-5.2-3.3-9.1-8.1-9.1c-4.9,0-8.1,3.8-8.1,9.1c0,5.3,3.3,9.1,8.1,9.1C205.4,30.5,208.6,26.7,208.6,21.5z"/>
<path class="st0" d="M238.3,9.2v24.5h-3.4l-0.5-3.3c-1.4,1.8-3.8,3.6-7.8,3.6c-5.4,0-9.7-3-9.7-11.2V9.2h3.9v13.4
	c0,5.1,2.3,7.8,6.4,7.8c4.5,0,7.2-3.4,7.2-9V9.2H238.3z"/>
<path class="st0" d="M267.9,21.5c0,7.5-5,12.6-11.8,12.6c-4.1,0-6.9-1.7-8.4-4v13.4h-3.9V9.2h3.4l0.5,3.9c1.6-2.3,4.3-4.2,8.4-4.2
	C262.9,8.9,267.9,13.5,267.9,21.5z M263.8,21.5c0-5.3-3.3-9.1-8.1-9.1c-4.9,0-8.1,3.7-8.1,9c0,5.2,3.3,9.1,8.1,9.1
	C260.5,30.5,263.8,26.8,263.8,21.5L263.8,21.5z"/>
<path class="st0" d="M38.3,0h-4.2L17.7,16.2v-0.6V0h-1.2v16.9v0.6l-2.9,2.9V0h-1.2v21.5l-2.9,2.9V0H8.2v25.6l-2.9,2.9V0H4.1v29.7
	l-2.9,2.9V0H0v33.7h1.2h3L38.3,0z"/>
<path class="st0" d="M34.2,28.9l-4.9,4.8h4.2l4.9-4.8H34.2z"/>
<path class="st0" d="M34.1,21.7L22,33.7h4.2l12.2-12H34.1z"/>
<path class="st0" d="M34.1,14.5L14.6,33.7h4.2l19.5-19.3H34.1z"/>
<path class="st0" d="M34.1,7.2L7.3,33.7h4.2L38.3,7.2H34.1z"/>
</svg>
