<svg xmlns="http://www.w3.org/2000/svg" viewBox="0 0 100 125" x="0px" y="0px">
  <g>
    <path fill="#72c9e1"
      d="M80.64,67.76H29.56c-.87,0-1.62-.62-1.77-1.48l-6.85-37.37c-.1-.53,.05-1.07,.39-1.48,.34-.41,.85-.65,1.38-.65H59.94c.99,0,1.8,.81,1.8,1.8s-.81,1.8-1.8,1.8H24.87l6.19,33.76h49.58c3.17,0,5.84-1.98,6.34-4.72l4.45-24.24c.18-.98,1.12-1.63,2.1-1.45,.98,.18,1.63,1.12,1.45,2.1l-4.45,24.24c-.81,4.44-4.97,7.67-9.89,7.67Z" />

    <path fill="#72c9e1"
      d="M22.41,28.42c-.89,0-1.66-.66-1.78-1.56l-.51-3.86c-.39-2.97-2.84-5.3-5.82-5.55l-7.64-.65c-.99-.08-1.73-.96-1.64-1.95,.08-.99,.95-1.73,1.95-1.64l7.64,.65c4.65,.39,8.48,4.04,9.09,8.67l.51,3.86c.13,.99-.56,1.89-1.55,2.02-.08,.01-.16,.02-.24,.02Z" />
    <path fill="#72c9e1"
      d="M35.91,77h-2.22c-3.54,0-6.42-2.88-6.42-6.42s2.88-6.42,6.42-6.42h48.86c.99,0,1.8,.81,1.8,1.8s-.81,1.8-1.8,1.8H33.69c-1.55,0-2.82,1.26-2.82,2.82s1.26,2.82,2.82,2.82h2.22c.99,0,1.8,.81,1.8,1.8s-.81,1.8-1.8,1.8Z" />
    <path fill="#72c9e1"
      d="M69.69,77h-23.71c-.99,0-1.8-.81-1.8-1.8s.81-1.8,1.8-1.8h23.71c.99,0,1.8,.81,1.8,1.8s-.81,1.8-1.8,1.8Z" />
    <path fill="#9d9d9c"
      d="M74.86,86.8c-4.39,0-7.96-3.57-7.96-7.96s3.57-7.96,7.96-7.96,7.96,3.57,7.96,7.96-3.57,7.96-7.96,7.96Zm0-12.31c-2.4,0-4.35,1.95-4.35,4.35s1.95,4.35,4.35,4.35,4.35-1.95,4.35-4.35-1.95-4.35-4.35-4.35Z" />
    <path fill="#9d9d9c"
      d="M40.87,86.8c-4.39,0-7.96-3.57-7.96-7.96s3.57-7.96,7.96-7.96,7.96,3.57,7.96,7.96-3.57,7.96-7.96,7.96Zm0-12.31c-2.4,0-4.35,1.95-4.35,4.35s1.95,4.35,4.35,4.35,4.35-1.95,4.35-4.35-1.95-4.35-4.35-4.35Z" />
  </g>
  <path fill="#e17772"
    d="M76,53.42c-10.43,0-18.91-8.48-18.91-18.91s8.48-18.91,18.91-18.91,18.91,8.48,18.91,18.91-8.48,18.91-18.91,18.91Zm0-34.22c-8.44,0-15.31,6.87-15.31,15.31s6.87,15.31,15.31,15.31,15.31-6.87,15.31-15.31-6.87-15.31-15.31-15.31Z" />
  <path fill="#e17772"
    d="M80.05,40.36c-.46,0-.92-.18-1.27-.53l-8.1-8.1c-.7-.7-.7-1.84,0-2.55,.7-.7,1.84-.7,2.55,0l8.1,8.1c.7,.7,.7,1.84,0,2.55-.35,.35-.81,.53-1.27,.53Z" />
  <path fill="#e17772"
    d="M71.94,40.36c-.46,0-.92-.18-1.27-.53-.7-.7-.7-1.84,0-2.55l8.1-8.1c.7-.7,1.84-.7,2.55,0,.7,.7,.7,1.84,0,2.55l-8.1,8.1c-.35,.35-.81,.53-1.27,.53Z" />

</svg>