<?xml version="1.0" encoding="UTF-8" standalone="no"?><!DOCTYPE svg PUBLIC "-//W3C//DTD SVG 1.1//EN" "http://www.w3.org/Graphics/SVG/1.1/DTD/svg11.dtd"><svg width="100%" height="100%" viewBox="0 0 152 122" version="1.1" xmlns="http://www.w3.org/2000/svg" xmlns:xlink="http://www.w3.org/1999/xlink" xml:space="preserve" style="fill-rule:evenodd;clip-rule:evenodd;stroke-linejoin:round;stroke-miterlimit:1.41421;"><path d="M139.221,38.101l-8.921,0c-1.733,0 -3.296,1.037 -3.96,2.627c-2.602,6.242 -7.966,10.872 -14.415,12.653c-0.982,-2.462 -2.18,-4.841 -3.571,-7.112c-0.121,-0.248 -0.265,-0.481 -0.429,-0.698c-1.644,-2.579 -3.539,-5.009 -5.678,-7.229c-5.753,-5.973 -12.756,-10.117 -20.359,-12.166c0.773,-1.606 1.206,-3.403 1.206,-5.299c0,-6.802 -5.572,-12.336 -12.42,-12.336c-6.849,0 -12.42,5.534 -12.42,12.336c0,1.916 0.441,3.73 1.229,5.348c-7.535,2.066 -14.476,6.189 -20.186,12.117c-2.139,2.22 -4.034,4.65 -5.678,7.23c-0.164,0.217 -0.306,0.449 -0.427,0.695c-0.323,0.529 -0.637,1.062 -0.939,1.602c-2.602,-1.22 -5.458,-1.87 -8.373,-1.87c-10.909,0 -19.783,8.916 -19.783,19.875c0,15.723 17.283,24.851 28.169,26.179c4.54,7.854 11.481,14.312 20.086,18.214c0.558,0.252 1.165,0.384 1.779,0.384l33.283,0c0.613,0 1.221,-0.131 1.779,-0.384c8.869,-4.022 15.975,-10.755 20.502,-18.937c20.292,-7.78 33.811,-27.247 33.811,-48.973c0,-2.351 -1.918,-4.256 -4.285,-4.256Zm-68.547,-21.049c2.123,0 3.849,1.715 3.849,3.824c0,2.109 -1.726,3.824 -3.849,3.824c-2.123,0 -3.85,-1.715 -3.85,-3.824c0,-2.108 1.727,-3.824 3.85,-3.824Zm0.098,16.161c9.569,0 18.401,4.104 24.907,10.653l-49.813,0c6.506,-6.549 15.338,-10.653 24.906,-10.653Zm-58.105,32.661c0,-6.265 5.03,-11.362 11.213,-11.362c1.711,0 4.197,0.526 5.714,1.273c-1.582,4.661 -0.945,24.443 0.198,28.359c-7.111,-2.504 -17.125,-10.113 -17.125,-18.27Zm73.787,36.264l-31.363,0c-12.281,-5.945 -20.166,-18.413 -20.166,-32.016c0,-5.044 1.046,-9.89 2.918,-14.319c0.024,-0.051 0.047,-0.102 0.069,-0.153c0.479,-1.119 1.012,-2.21 1.593,-3.271l62.535,0c2.904,5.302 4.58,11.363 4.58,17.744c0,13.601 -7.885,26.069 -20.166,32.015Zm27.681,-22.484c0.693,-3.093 1.056,-6.286 1.056,-9.532c0,-2.878 -0.29,-5.753 -0.847,-8.578c7.98,-2.24 14.754,-7.621 18.667,-14.931l1.718,0c-1.336,13.667 -9.046,25.859 -20.594,33.041Z" style="fill:#72c9e1;fill-rule:nonzero;"/><path d="M109.695,91.33c8.892,-12.994 4.944,-31.144 2.23,-37.949c-0.982,-2.462 -79.37,-6.052 -79.672,-5.512c0.932,-0.941 -12.698,18.675 0.013,44.184c4.54,7.854 11.481,14.312 20.086,18.214c0.558,0.252 1.165,0.384 1.779,0.384l33.283,0c0.613,0 1.221,-0.131 1.779,-0.384c8.869,-4.022 15.948,-12.282 20.502,-18.937Zm-23.241,10.808l-31.363,0c-12.281,-5.945 -20.166,-18.413 -20.166,-32.016c0,-5.044 1.046,-9.89 2.918,-14.319c0.024,-0.051 0.047,-0.102 0.069,-0.153c0.479,-1.119 1.012,-2.21 1.593,-3.271l62.535,0c2.904,5.302 4.58,11.363 4.58,17.744c0,13.601 -7.885,26.069 -20.166,32.015Z" style="fill:#a3cf9b;fill-rule:nonzero;"/><path d="M136.293,1.427l0.121,0.016l0.12,0.027l0.116,0.038l0.113,0.049l0.107,0.059l0.102,0.069l0.095,0.078l0.087,0.086l0.079,0.093l0.07,0.101l0.06,0.107l0.051,0.112l0.055,0.141l0.056,0.136l0.057,0.137l0.059,0.138l0.061,0.14l0.062,0.14l0.064,0.142l0.066,0.143l0.067,0.143l0.068,0.144l0.141,0.294l0.144,0.297l0.146,0.3l0.15,0.305l0.15,0.309l0.151,0.312l0.15,0.315l0.075,0.161l0.074,0.161l0.074,0.162l0.073,0.163l0.072,0.165l0.072,0.165l0.07,0.166l0.069,0.168l0.068,0.169l0.066,0.169l0.065,0.172l0.064,0.172l0.061,0.173l0.059,0.175l0.058,0.176l0.055,0.178l0.053,0.179l0.05,0.18l0.048,0.181l0.045,0.183l0.042,0.184l0.038,0.183l0.019,0.096l0.017,0.094l0.017,0.094l0.015,0.094l0.015,0.095l0.014,0.095l0.013,0.095l0.012,0.096l0.011,0.096l0.01,0.097l0.009,0.096l0.008,0.097l0.007,0.098l0.006,0.097l0.005,0.098l0.003,0.099l0.003,0.098l0.001,0.099l0,0.1l-0.001,0.099l-0.002,0.1l-0.003,0.1l-0.005,0.1l-0.006,0.101l-0.007,0.1l-0.009,0.101l-0.01,0.102l-0.011,0.101l-0.013,0.102l-0.014,0.101l-0.015,0.102l-0.017,0.103l-0.018,0.102l-0.019,0.102l-0.021,0.103l-0.023,0.105l-0.021,0.089l-0.024,0.09l-0.025,0.089l-0.027,0.089l-0.029,0.087l-0.031,0.087l-0.032,0.086l-0.034,0.085l-0.035,0.084l-0.036,0.084l-0.038,0.082l-0.04,0.082l-0.04,0.08l-0.042,0.08l-0.044,0.079l-0.044,0.078l-0.046,0.078l-0.046,0.076l-0.048,0.076l-0.049,0.075l-0.049,0.074l-0.051,0.074l-0.052,0.073l-0.052,0.072l-0.054,0.071l-0.054,0.071l-0.055,0.07l-0.056,0.069l-0.057,0.069l-0.058,0.068l-0.058,0.067l-0.059,0.067l-0.06,0.067l-0.062,0.068l-0.121,0.127l-0.125,0.127l-0.128,0.126l-0.129,0.123l-0.132,0.122l-0.134,0.119l-0.135,0.118l-0.137,0.116l-0.139,0.114l-0.14,0.112l-0.141,0.11l-0.142,0.109l-0.143,0.107l-0.144,0.106l-0.145,0.103l-0.145,0.102l-0.146,0.101l-0.146,0.099l-0.146,0.097l-0.146,0.096l-0.146,0.094l-0.145,0.093l-0.146,0.091l-0.144,0.089l-0.144,0.088l-0.143,0.086l-0.142,0.084l-0.141,0.083l-0.141,0.082l-0.273,0.157l-0.268,0.151l-0.26,0.144l-0.25,0.137l-0.24,0.13l-0.441,0.237l-0.199,0.108l-0.179,0.097l-0.103,0.057l-0.096,0.056l-0.094,0.056l-0.092,0.057l-0.09,0.058l-0.087,0.059l-0.085,0.059l-0.083,0.06l-0.08,0.06l-0.079,0.061l-0.076,0.062l-0.074,0.062l-0.072,0.063l-0.07,0.063l-0.068,0.064l-0.067,0.064l-0.064,0.065l-0.062,0.066l-0.061,0.065l-0.058,0.067l-0.057,0.067l-0.055,0.067l-0.053,0.068l-0.052,0.068l-0.05,0.069l-0.048,0.069l-0.046,0.07l-0.045,0.07l-0.044,0.071l-0.041,0.071l-0.04,0.072l-0.039,0.072l-0.037,0.073l-0.036,0.073l-0.034,0.074l-0.033,0.075l-0.031,0.074l-0.03,0.076l-0.028,0.076l-0.027,0.077l-0.026,0.077l-0.024,0.077l-0.023,0.079l-0.021,0.078l-0.02,0.08l-0.019,0.08l-0.017,0.08l-0.016,0.081l-0.014,0.082l-0.013,0.082l-0.012,0.083l-0.01,0.083l-0.009,0.084l-0.008,0.084l-0.006,0.085l-0.005,0.085l-0.004,0.086l-0.002,0.087l-0.001,0.087l0,0.087l0.002,0.088l0.004,0.088l0.004,0.089l0.006,0.089l0.007,0.089l0.009,0.09l0.01,0.091l0.011,0.09l0.013,0.091l0.014,0.091l0.016,0.092l0.016,0.092l0.018,0.092l0.02,0.093l0.021,0.092l0.022,0.093l0.023,0.093l0.025,0.093l0.026,0.094l0.027,0.093l0.029,0.094l0.03,0.094l0.031,0.094l0.033,0.093l0.034,0.094l0.035,0.094l0.036,0.094l0.038,0.094l0.039,0.094l0.04,0.094l0.041,0.093l0.043,0.094l0.043,0.093l0.045,0.094l0.047,0.093l0.047,0.093l0.048,0.093l0.05,0.092l0.051,0.092l0.052,0.092l0.053,0.092l0.055,0.092l0.055,0.091l0.057,0.09l0.057,0.091l0.059,0.09l0.06,0.089l0.061,0.09l0.062,0.088l0.063,0.089l0.064,0.087l0.065,0.088l0.066,0.086l0.067,0.087l0.068,0.085l0.069,0.085l0.069,0.085l0.071,0.084l0.072,0.083l0.073,0.083l0.073,0.082l0.075,0.081l0.075,0.081l0.077,0.08l0.077,0.079l0.078,0.078l0.079,0.078l0.084,0.081l0.084,0.089l0.076,0.097l0.067,0.103l0.056,0.109l0.046,0.113l0.036,0.117l0.025,0.121l0.013,0.121l0.003,0.123l-0.01,0.122l-0.02,0.121l-0.031,0.119l-0.043,0.115l-0.052,0.11l-0.063,0.106l-0.072,0.099l-0.081,0.092l-0.089,0.084l-0.096,0.076l-0.104,0.066l-0.108,0.057l-0.114,0.046l-0.117,0.036l-0.12,0.025l-0.122,0.013l-0.123,0.002l-0.122,-0.009l-0.121,-0.02l-0.118,-0.031l-0.115,-0.043l-0.111,-0.052l-0.106,-0.063l-0.099,-0.072l-0.092,-0.081l-0.094,-0.091l-0.098,-0.097l-0.098,-0.097l-0.096,-0.099l-0.095,-0.099l-0.094,-0.101l-0.092,-0.101l-0.092,-0.102l-0.091,-0.103l-0.089,-0.104l-0.088,-0.104l-0.088,-0.106l-0.086,-0.106l-0.084,-0.107l-0.084,-0.107l-0.083,-0.109l-0.081,-0.109l-0.08,-0.11l-0.079,-0.11l-0.077,-0.111l-0.077,-0.112l-0.075,-0.113l-0.074,-0.113l-0.072,-0.114l-0.072,-0.114l-0.07,-0.115l-0.068,-0.116l-0.068,-0.116l-0.066,-0.117l-0.064,-0.117l-0.064,-0.118l-0.062,-0.119l-0.06,-0.119l-0.06,-0.119l-0.057,-0.12l-0.057,-0.12l-0.055,-0.121l-0.053,-0.121l-0.052,-0.122l-0.051,-0.122l-0.049,-0.123l-0.048,-0.123l-0.046,-0.123l-0.044,-0.124l-0.043,-0.124l-0.042,-0.124l-0.04,-0.125l-0.038,-0.125l-0.037,-0.126l-0.035,-0.125l-0.033,-0.126l-0.032,-0.127l-0.03,-0.126l-0.028,-0.127l-0.027,-0.127l-0.025,-0.127l-0.023,-0.128l-0.022,-0.127l-0.02,-0.128l-0.017,-0.128l-0.016,-0.128l-0.015,-0.128l-0.012,-0.129l-0.011,-0.128l-0.008,-0.129l-0.007,-0.128l-0.004,-0.129l-0.003,-0.128l-0.001,-0.129l0.001,-0.129l0.004,-0.128l0.005,-0.129l0.007,-0.128l0.01,-0.128l0.012,-0.129l0.014,-0.128l0.015,-0.128l0.019,-0.127l0.02,-0.128l0.023,-0.127l0.024,-0.127l0.027,-0.126l0.03,-0.126l0.032,-0.126l0.034,-0.126l0.036,-0.124l0.039,-0.125l0.041,-0.124l0.043,-0.123l0.046,-0.123l0.048,-0.122l0.051,-0.122l0.053,-0.12l0.055,-0.12l0.058,-0.12l0.061,-0.118l0.063,-0.118l0.065,-0.116l0.068,-0.116l0.07,-0.115l0.073,-0.114l0.075,-0.112l0.077,-0.112l0.08,-0.11l0.083,-0.11l0.085,-0.108l0.087,-0.107l0.09,-0.106l0.092,-0.104l0.095,-0.103l0.097,-0.102l0.1,-0.1l0.101,-0.099l0.105,-0.098l0.106,-0.096l0.109,-0.095l0.111,-0.093l0.114,-0.092l0.116,-0.09l0.118,-0.089l0.121,-0.087l0.122,-0.086l0.126,-0.084l0.127,-0.082l0.13,-0.081l0.132,-0.079l0.134,-0.078l0.133,-0.074l0.195,-0.106l0.203,-0.109l0.438,-0.236l0.231,-0.125l0.24,-0.131l0.246,-0.137l0.251,-0.142l0.258,-0.147l0.128,-0.074l0.129,-0.077l0.131,-0.077l0.13,-0.079l0.131,-0.08l0.131,-0.081l0.131,-0.082l0.131,-0.083l0.13,-0.084l0.129,-0.084l0.129,-0.086l0.128,-0.087l0.127,-0.088l0.125,-0.088l0.125,-0.089l0.122,-0.09l0.121,-0.09l0.119,-0.091l0.117,-0.092l0.115,-0.092l0.113,-0.093l0.11,-0.093l0.107,-0.093l0.105,-0.093l0.101,-0.094l0.099,-0.094l0.095,-0.093l0.092,-0.094l0.09,-0.095l0.041,-0.044l0.041,-0.046l0.041,-0.047l0.04,-0.046l0.039,-0.046l0.037,-0.045l0.037,-0.046l0.036,-0.045l0.034,-0.045l0.034,-0.045l0.033,-0.045l0.031,-0.044l0.03,-0.044l0.03,-0.043l0.028,-0.044l0.027,-0.043l0.026,-0.042l0.025,-0.042l0.023,-0.042l0.023,-0.041l0.021,-0.041l0.021,-0.041l0.019,-0.04l0.018,-0.039l0.017,-0.039l0.016,-0.038l0.015,-0.038l0.014,-0.038l0.013,-0.036l0.012,-0.037l0.011,-0.036l0.01,-0.035l0.009,-0.035l0.009,-0.037l0.014,-0.065l0.014,-0.068l0.013,-0.068l0.012,-0.068l0.011,-0.067l0.011,-0.068l0.009,-0.068l0.008,-0.067l0.008,-0.067l0.006,-0.068l0.006,-0.067l0.005,-0.068l0.004,-0.067l0.003,-0.067l0.002,-0.068l0.002,-0.067l0,-0.068l0,-0.067l-0.001,-0.068l-0.001,-0.067l-0.003,-0.068l-0.003,-0.068l-0.004,-0.068l-0.005,-0.068l-0.006,-0.068l-0.006,-0.068l-0.007,-0.068l-0.008,-0.069l-0.008,-0.068l-0.01,-0.069l-0.01,-0.069l-0.011,-0.068l-0.011,-0.069l-0.012,-0.07l-0.013,-0.069l-0.013,-0.066l-0.03,-0.143l-0.032,-0.139l-0.034,-0.141l-0.037,-0.14l-0.04,-0.142l-0.042,-0.142l-0.044,-0.142l-0.047,-0.143l-0.048,-0.144l-0.051,-0.143l-0.053,-0.145l-0.055,-0.145l-0.057,-0.145l-0.059,-0.146l-0.06,-0.146l-0.062,-0.147l-0.063,-0.147l-0.065,-0.147l-0.066,-0.148l-0.068,-0.148l-0.068,-0.149l-0.07,-0.148l-0.142,-0.3l-0.145,-0.301l-0.148,-0.302l-0.148,-0.303l-0.149,-0.305l-0.149,-0.307l-0.147,-0.307l-0.074,-0.156l-0.072,-0.155l-0.072,-0.156l-0.071,-0.156l-0.069,-0.157l-0.069,-0.158l-0.068,-0.158l-0.066,-0.159l-0.065,-0.16l-0.061,-0.153l-0.039,-0.116l-0.029,-0.12l-0.018,-0.121l-0.006,-0.122l0.004,-0.123l0.017,-0.121l0.027,-0.12l0.038,-0.116l0.049,-0.113l0.059,-0.107l0.069,-0.102l0.077,-0.095l0.086,-0.087l0.094,-0.079l0.101,-0.07l0.107,-0.06l0.111,-0.05l0.116,-0.04l0.12,-0.029l0.121,-0.018l0.122,-0.006l0.123,0.005Z" style="fill:#9d9d9c;"/><path d="M142.972,3.237l0.122,0.016l0.119,0.027l0.117,0.039l0.112,0.048l0.108,0.059l0.101,0.069l0.095,0.078l0.087,0.086l0.079,0.094l0.07,0.1l0.061,0.107l0.05,0.112l0.056,0.141l0.055,0.136l0.057,0.137l0.059,0.139l0.061,0.139l0.063,0.141l0.064,0.141l0.065,0.143l0.067,0.144l0.068,0.143l0.141,0.294l0.144,0.297l0.147,0.301l0.149,0.304l0.15,0.309l0.151,0.312l0.15,0.316l0.075,0.161l0.075,0.161l0.073,0.162l0.074,0.163l0.072,0.164l0.071,0.165l0.07,0.167l0.069,0.167l0.068,0.169l0.067,0.17l0.065,0.171l0.063,0.172l0.061,0.174l0.06,0.175l0.057,0.176l0.055,0.177l0.053,0.179l0.05,0.18l0.048,0.182l0.045,0.182l0.042,0.185l0.038,0.182l0.019,0.096l0.017,0.094l0.017,0.094l0.016,0.094l0.014,0.095l0.014,0.095l0.013,0.096l0.012,0.095l0.011,0.096l0.01,0.097l0.009,0.097l0.008,0.097l0.007,0.097l0.006,0.098l0.005,0.098l0.003,0.098l0.003,0.099l0.001,0.099l0.001,0.099l-0.001,0.099l-0.003,0.1l-0.003,0.1l-0.005,0.1l-0.006,0.101l-0.007,0.101l-0.009,0.101l-0.01,0.101l-0.011,0.101l-0.012,0.102l-0.014,0.102l-0.016,0.102l-0.016,0.102l-0.019,0.102l-0.019,0.103l-0.021,0.102l-0.023,0.106l-0.021,0.088l-0.024,0.09l-0.025,0.09l-0.027,0.088l-0.029,0.088l-0.03,0.087l-0.033,0.086l-0.033,0.085l-0.035,0.084l-0.037,0.083l-0.038,0.082l-0.04,0.082l-0.04,0.081l-0.042,0.079l-0.043,0.079l-0.045,0.079l-0.045,0.077l-0.047,0.076l-0.048,0.076l-0.048,0.075l-0.05,0.075l-0.051,0.073l-0.051,0.073l-0.053,0.072l-0.054,0.071l-0.054,0.071l-0.055,0.07l-0.056,0.069l-0.057,0.069l-0.057,0.068l-0.059,0.068l-0.059,0.067l-0.059,0.066l-0.063,0.068l-0.121,0.127l-0.125,0.128l-0.127,0.125l-0.13,0.124l-0.132,0.121l-0.134,0.119l-0.135,0.118l-0.137,0.116l-0.139,0.114l-0.14,0.112l-0.141,0.11l-0.142,0.109l-0.143,0.107l-0.144,0.106l-0.145,0.104l-0.145,0.102l-0.146,0.1l-0.146,0.099l-0.146,0.098l-0.146,0.095l-0.145,0.094l-0.146,0.093l-0.145,0.091l-0.145,0.089l-0.144,0.088l-0.143,0.086l-0.142,0.085l-0.141,0.082l-0.141,0.082l-0.273,0.157l-0.268,0.151l-0.26,0.144l-0.25,0.137l-0.24,0.13l-0.441,0.238l-0.199,0.107l-0.179,0.097l-0.102,0.057l-0.097,0.056l-0.094,0.056l-0.092,0.057l-0.089,0.058l-0.087,0.059l-0.085,0.059l-0.083,0.06l-0.081,0.061l-0.078,0.061l-0.077,0.061l-0.074,0.062l-0.072,0.063l-0.07,0.063l-0.068,0.064l-0.066,0.065l-0.065,0.064l-0.062,0.066l-0.06,0.066l-0.059,0.066l-0.057,0.067l-0.055,0.067l-0.053,0.068l-0.051,0.068l-0.05,0.069l-0.049,0.069l-0.046,0.07l-0.045,0.07l-0.043,0.071l-0.042,0.071l-0.04,0.072l-0.039,0.072l-0.037,0.073l-0.036,0.074l-0.034,0.073l-0.032,0.075l-0.032,0.075l-0.029,0.075l-0.029,0.076l-0.027,0.077l-0.025,0.077l-0.025,0.078l-0.022,0.078l-0.022,0.079l-0.02,0.079l-0.018,0.08l-0.017,0.08l-0.016,0.082l-0.015,0.081l-0.013,0.082l-0.012,0.083l-0.01,0.083l-0.009,0.084l-0.008,0.084l-0.006,0.085l-0.005,0.086l-0.004,0.086l-0.002,0.086l-0.001,0.087l0.001,0.087l0.002,0.088l0.003,0.088l0.004,0.089l0.006,0.089l0.008,0.09l0.008,0.09l0.01,0.09l0.012,0.09l0.012,0.091l0.014,0.092l0.016,0.091l0.017,0.092l0.018,0.092l0.019,0.093l0.021,0.093l0.022,0.092l0.023,0.093l0.025,0.094l0.026,0.093l0.028,0.094l0.028,0.093l0.03,0.094l0.031,0.094l0.033,0.094l0.034,0.094l0.035,0.094l0.036,0.093l0.038,0.094l0.039,0.094l0.04,0.094l0.041,0.094l0.043,0.093l0.044,0.094l0.045,0.093l0.046,0.093l0.047,0.093l0.049,0.093l0.049,0.092l0.051,0.093l0.052,0.092l0.054,0.091l0.054,0.092l0.055,0.091l0.057,0.091l0.058,0.09l0.058,0.09l0.06,0.09l0.061,0.089l0.062,0.089l0.063,0.088l0.064,0.088l0.065,0.087l0.066,0.087l0.067,0.086l0.068,0.086l0.069,0.085l0.07,0.084l0.071,0.084l0.071,0.083l0.073,0.083l0.074,0.082l0.074,0.081l0.076,0.081l0.076,0.08l0.077,0.079l0.078,0.078l0.079,0.078l0.085,0.081l0.084,0.09l0.075,0.096l0.067,0.103l0.056,0.109l0.047,0.113l0.035,0.118l0.025,0.12l0.014,0.122l0.002,0.122l-0.009,0.123l-0.021,0.12l-0.031,0.119l-0.042,0.115l-0.053,0.111l-0.063,0.105l-0.072,0.099l-0.081,0.092l-0.089,0.085l-0.096,0.075l-0.103,0.067l-0.109,0.056l-0.114,0.047l-0.117,0.035l-0.12,0.025l-0.122,0.014l-0.122,0.002l-0.123,-0.009l-0.121,-0.021l-0.118,-0.031l-0.115,-0.042l-0.111,-0.053l-0.105,-0.063l-0.099,-0.072l-0.092,-0.081l-0.095,-0.091l-0.098,-0.096l-0.097,-0.098l-0.096,-0.099l-0.095,-0.099l-0.094,-0.1l-0.093,-0.102l-0.092,-0.102l-0.09,-0.103l-0.09,-0.103l-0.088,-0.105l-0.087,-0.105l-0.086,-0.107l-0.085,-0.106l-0.084,-0.108l-0.082,-0.108l-0.082,-0.11l-0.08,-0.109l-0.078,-0.111l-0.078,-0.111l-0.076,-0.112l-0.076,-0.113l-0.073,-0.113l-0.073,-0.114l-0.071,-0.114l-0.07,-0.115l-0.069,-0.116l-0.067,-0.116l-0.066,-0.117l-0.065,-0.117l-0.063,-0.118l-0.062,-0.118l-0.061,-0.119l-0.059,-0.12l-0.058,-0.12l-0.056,-0.12l-0.055,-0.121l-0.054,-0.121l-0.052,-0.122l-0.051,-0.122l-0.049,-0.123l-0.047,-0.123l-0.046,-0.123l-0.045,-0.124l-0.043,-0.124l-0.042,-0.124l-0.039,-0.125l-0.039,-0.125l-0.036,-0.125l-0.035,-0.126l-0.034,-0.126l-0.032,-0.126l-0.03,-0.127l-0.028,-0.127l-0.027,-0.127l-0.025,-0.127l-0.023,-0.127l-0.022,-0.128l-0.019,-0.128l-0.018,-0.128l-0.016,-0.128l-0.014,-0.128l-0.013,-0.128l-0.01,-0.129l-0.009,-0.128l-0.006,-0.129l-0.005,-0.128l-0.003,-0.129l-0.001,-0.129l0.002,-0.128l0.003,-0.129l0.005,-0.128l0.008,-0.129l0.009,-0.128l0.012,-0.128l0.014,-0.128l0.016,-0.128l0.018,-0.128l0.02,-0.127l0.023,-0.128l0.025,-0.126l0.027,-0.127l0.029,-0.126l0.032,-0.126l0.034,-0.125l0.036,-0.125l0.039,-0.125l0.041,-0.124l0.043,-0.123l0.046,-0.123l0.048,-0.122l0.051,-0.121l0.053,-0.121l0.056,-0.12l0.058,-0.119l0.06,-0.119l0.063,-0.117l0.065,-0.117l0.068,-0.116l0.07,-0.114l0.073,-0.114l0.075,-0.113l0.078,-0.112l0.08,-0.11l0.082,-0.109l0.085,-0.109l0.088,-0.107l0.089,-0.105l0.093,-0.105l0.094,-0.103l0.097,-0.102l0.1,-0.1l0.102,-0.099l0.104,-0.098l0.106,-0.096l0.109,-0.095l0.112,-0.093l0.113,-0.092l0.116,-0.09l0.118,-0.089l0.121,-0.087l0.123,-0.085l0.125,-0.084l0.127,-0.083l0.13,-0.081l0.132,-0.079l0.134,-0.077l0.133,-0.075l0.195,-0.105l0.203,-0.11l0.438,-0.235l0.231,-0.126l0.24,-0.131l0.246,-0.137l0.252,-0.141l0.257,-0.148l0.128,-0.074l0.13,-0.077l0.13,-0.077l0.131,-0.079l0.131,-0.08l0.131,-0.08l0.13,-0.082l0.131,-0.083l0.13,-0.084l0.13,-0.085l0.128,-0.086l0.128,-0.087l0.127,-0.087l0.126,-0.089l0.124,-0.089l0.123,-0.09l0.121,-0.09l0.119,-0.091l0.117,-0.092l0.115,-0.092l0.112,-0.093l0.11,-0.093l0.108,-0.093l0.104,-0.093l0.102,-0.094l0.098,-0.093l0.095,-0.094l0.092,-0.093l0.09,-0.096l0.041,-0.044l0.042,-0.046l0.04,-0.046l0.04,-0.046l0.039,-0.046l0.038,-0.046l0.036,-0.045l0.036,-0.046l0.035,-0.045l0.033,-0.045l0.033,-0.044l0.031,-0.044l0.031,-0.044l0.029,-0.044l0.028,-0.043l0.027,-0.043l0.026,-0.043l0.025,-0.042l0.024,-0.042l0.022,-0.041l0.022,-0.041l0.02,-0.04l0.019,-0.04l0.018,-0.04l0.018,-0.039l0.016,-0.038l0.015,-0.038l0.014,-0.037l0.013,-0.037l0.012,-0.037l0.011,-0.035l0.01,-0.036l0.009,-0.034l0.008,-0.038l0.015,-0.065l0.014,-0.068l0.013,-0.068l0.012,-0.068l0.011,-0.067l0.01,-0.068l0.009,-0.067l0.008,-0.068l0.008,-0.067l0.006,-0.068l0.006,-0.067l0.005,-0.067l0.004,-0.068l0.003,-0.067l0.003,-0.067l0.001,-0.068l0.001,-0.067l0,-0.068l-0.001,-0.067l-0.002,-0.068l-0.003,-0.068l-0.003,-0.068l-0.004,-0.067l-0.005,-0.069l-0.005,-0.068l-0.007,-0.068l-0.007,-0.068l-0.008,-0.068l-0.008,-0.069l-0.01,-0.069l-0.01,-0.068l-0.01,-0.069l-0.012,-0.069l-0.012,-0.069l-0.013,-0.07l-0.013,-0.066l-0.03,-0.142l-0.031,-0.14l-0.035,-0.14l-0.037,-0.141l-0.039,-0.142l-0.042,-0.141l-0.045,-0.143l-0.046,-0.143l-0.049,-0.143l-0.051,-0.144l-0.053,-0.145l-0.055,-0.145l-0.057,-0.145l-0.058,-0.146l-0.061,-0.146l-0.061,-0.146l-0.064,-0.148l-0.065,-0.147l-0.066,-0.148l-0.068,-0.148l-0.068,-0.149l-0.069,-0.147l-0.143,-0.301l-0.145,-0.3l-0.147,-0.302l-0.149,-0.304l-0.149,-0.305l-0.149,-0.306l-0.147,-0.307l-0.073,-0.156l-0.073,-0.156l-0.071,-0.156l-0.071,-0.156l-0.07,-0.157l-0.069,-0.158l-0.068,-0.158l-0.066,-0.159l-0.065,-0.159l-0.06,-0.154l-0.04,-0.116l-0.029,-0.119l-0.018,-0.122l-0.006,-0.122l0.005,-0.123l0.016,-0.121l0.027,-0.12l0.038,-0.116l0.049,-0.113l0.059,-0.107l0.069,-0.102l0.078,-0.094l0.086,-0.088l0.094,-0.079l0.1,-0.07l0.107,-0.06l0.112,-0.05l0.116,-0.04l0.119,-0.029l0.121,-0.017l0.123,-0.007l0.122,0.005Z" style="fill:#9d9d9c;"/><path d="M30.26,52.149c1.246,0.012 81.665,1.232 81.665,1.232c0,0 -2.18,-4.841 -3.571,-7.112c-0.121,-0.248 -0.265,-0.481 -0.429,-0.698c-1.644,-2.579 -3.539,-5.009 -5.678,-7.229c-5.753,-5.973 -12.756,-10.117 -20.359,-12.166c0.773,-1.606 1.206,-3.403 1.206,-5.299c0,-6.802 -5.572,-12.336 -12.42,-12.336c-6.849,0 -12.42,5.534 -12.42,12.336c0,1.916 0.441,3.73 1.229,5.348c-7.535,2.066 -14.476,6.189 -20.186,12.117c-2.139,2.22 -4.599,5.624 -6.105,7.925c-1.201,1.834 -2.666,5.35 -2.932,5.882Zm40.414,-35.097c2.123,0 3.849,1.715 3.849,3.824c0,2.109 -1.726,3.824 -3.849,3.824c-2.123,0 -3.85,-1.715 -3.85,-3.824c0,-2.108 1.727,-3.824 3.85,-3.824Zm0.098,16.161c9.569,0 18.401,4.104 24.907,10.653l-49.813,0c6.506,-6.549 15.338,-10.653 24.906,-10.653Z" style="fill:#73c3b6;fill-rule:nonzero;"/></svg>
