<svg xmlns="http://www.w3.org/2000/svg" viewBox="0 0 400.57 385.90000000000003" x="0px" y="0px">
  <g>
    <g>

      <path fill="#A3CF9B"
        d="M392.57,215.45h-80.52c-17.64,0-32-14.35-32-32v-14.66c0-17.65,14.36-32,32-32h80.52c4.42,0,8,3.58,8,8s-3.58,8-8,8h-80.52c-8.82,0-16,7.18-16,16v14.66c0,8.82,7.18,16,16,16h80.52c4.42,0,8,3.58,8,8s-3.58,8-8,8Z" />
      <path fill="#73C3B6"
        d="M330.38,60.16c-3.52,0-6.74-2.34-7.71-5.9-6.15-22.53-26.78-38.27-50.17-38.27H83.98c-4.42,0-8-3.58-8-8S79.56,0,83.98,0h188.52c30.58,0,57.56,20.58,65.61,50.05,1.16,4.26-1.35,8.66-5.61,9.82-.7,.19-1.41,.28-2.11,.28Z" />
      <path fill="#72c9e1"
        d="M332.57,308.72H68.57C31.07,308.72,.57,278.22,.57,240.72V111.52c0-4.42,3.58-8,8-8s8,3.58,8,8V240.72c0,28.67,23.33,52,52,52H332.57c28.67,0,52-23.33,52-52V111.52c0-28.67-23.33-52-52-52H152.98c-4.42,0-8-3.58-8-8s3.58-8,8-8h179.58c37.5,0,68,30.5,68,68V240.72c0,37.5-30.5,68-68,68Z" />
      <rect fill="#72c9e1" x=".57" y="94.07" width="16" height="52.86" />
      <path fill="#9d9d9c"
        d="M83.98,167.95C37.67,167.95,0,130.28,0,83.98S37.67,0,83.98,0s83.98,37.67,83.98,83.98-37.67,83.98-83.98,83.98Zm0-151.95c-37.48,0-67.98,30.49-67.98,67.98s30.49,67.98,67.98,67.98,67.98-30.49,67.98-67.98S121.46,16,83.98,16Z" />
      <path fill="#9d9d9c"
        d="M86.42,121.49c-6.26,0-12.46-1.58-18.09-4.7-3.87-2.14-5.27-7.01-3.13-10.87,2.14-3.87,7-5.27,10.87-3.13,5.03,2.78,10.83,3.43,16.35,1.84,5.52-1.59,10.09-5.23,12.87-10.26,2.78-5.03,3.43-10.83,1.85-16.35s-5.23-10.09-10.26-12.87c-5.03-2.78-10.83-3.44-16.35-1.85-5.52,1.59-10.09,5.23-12.87,10.26-2.14,3.87-7,5.27-10.87,3.13-3.87-2.14-5.27-7.01-3.13-10.87,4.85-8.77,12.82-15.12,22.44-17.89,9.63-2.77,19.75-1.63,28.52,3.22,8.77,4.85,15.12,12.82,17.89,22.44,2.77,9.63,1.63,19.75-3.22,28.52-4.85,8.77-12.82,15.12-22.44,17.89-3.44,.99-6.95,1.48-10.43,1.48Z" />
      <path fill="#9d9d9c"
        d="M56.07,83.47c-3.72,0-7.05-2.6-7.83-6.39l-3.75-18.21c-.89-4.33,1.89-8.56,6.22-9.45,4.34-.89,8.56,1.9,9.45,6.22l3.75,18.21c.89,4.33-1.89,8.56-6.22,9.45-.54,.11-1.09,.17-1.62,.17Z" />
      <path fill="#9d9d9c"
        d="M74.51,85.95c-.36,0-.72-.02-1.08-.07l-18.43-2.48c-4.38-.59-7.45-4.62-6.86-9,.59-4.38,4.61-7.45,9-6.86l18.43,2.48c4.38,.59,7.45,4.62,6.86,9-.54,4.02-3.98,6.93-7.92,6.93Z" />
    </g>
  </g><text x="0" y="323.72" fill="#000000" font-size="5px" font-weight="bold"
    font-family="'Helvetica Neue', Helvetica, Arial-Unicode, Arial, Sans-serif">Created by Asalngide Studio</text><text
    x="0" y="328.72" fill="#000000" font-size="5px" font-weight="bold"
    font-family="'Helvetica Neue', Helvetica, Arial-Unicode, Arial, Sans-serif">from the Noun Project</text>
</svg>