<svg xmlns="http://www.w3.org/2000/svg" viewBox="0 0 400 375.51250000000005" x="0px" y="0px">
  <g>
    <g>
      <path fill="#A3CF9B"
        d="M243.87,120.16H11.83c-4.42,0-8-3.58-8-8s3.58-8,8-8H243.87c4.42,0,8,3.58,8,8s-3.58,8-8,8Z" />
      <path fill="#A3CF9B"
        d="M309.14,106.75c-1.8,0-3.61-.61-5.09-1.83l-18.47-15.25c-3.41-2.81-3.89-7.86-1.08-11.26,2.81-3.41,7.86-3.89,11.26-1.08l13.11,10.82,27.1-24.84c3.25-2.98,8.32-2.77,11.3,.49,2.99,3.26,2.77,8.32-.49,11.3l-32.24,29.55c-1.52,1.4-3.46,2.1-5.41,2.1Z" />
      <path fill="#72c9e1"
        d="M334.03,300.41H65.97C29.6,300.41,0,270.81,0,234.44V101.19C0,64.81,29.6,35.21,65.97,35.21H251.9c4.42,0,8,3.58,8,8s-3.58,8-8,8H65.97c-27.56,0-49.97,22.42-49.97,49.97V234.44c0,27.56,22.42,49.97,49.97,49.97H334.03c27.56,0,49.97-22.42,49.97-49.97V83.98c0-4.42,3.58-8,8-8s8,3.58,8,8V234.44c0,36.38-29.6,65.97-65.97,65.97Z" />
      <path fill="#73C3B6"
        d="M316.02,167.95c-46.3,0-83.98-37.67-83.98-83.98S269.72,0,316.02,0s83.98,37.67,83.98,83.98-37.67,83.98-83.98,83.98Zm0-151.95c-37.48,0-67.98,30.49-67.98,67.98s30.49,67.98,67.98,67.98,67.98-30.49,67.98-67.98-30.49-67.98-67.98-67.98Z" />

      <path fill="#9d9d9c"
        d="M99.37,261.84h-33.31c-13.23,0-24-10.77-24-24v-4.06c0-13.23,10.77-24,24-24h33.31c13.23,0,24,10.77,24,24v4.06c0,13.23-10.77,24-24,24Zm-33.31-36.06c-4.41,0-8,3.59-8,8v4.06c0,4.41,3.59,8,8,8h33.31c4.41,0,8-3.59,8-8v-4.06c0-4.41-3.59-8-8-8h-33.31Z" />

    </g>
  </g>
</svg>